<svg width="1920" height="1080" viewBox="0 0 1920 1080" fill="none" xmlns="http://www.w3.org/2000/svg">
<g clip-path="url(#clip0_2024_3207)">
<rect width="1920" height="1080" fill="white"/>
<rect x="-355.725" y="-353.847" width="666.739" height="666.739" rx="39.9245" transform="rotate(-14.1807 -355.725 -353.847)" fill="#006395"/>
<rect x="1661.04" y="487" width="688.361" height="688.361" rx="26.4611" transform="rotate(14.3121 1661.04 487)" fill="#FEBD11"/>
<rect x="1238.21" y="935.97" width="582.145" height="420.293" rx="26.4611" transform="rotate(-16.0762 1238.21 935.97)" fill="#D91A21"/>
<path d="M1016.97 944.632C1018.89 930.144 1032.19 919.953 1046.67 921.869L1304.77 956.009C1319.26 957.925 1329.45 971.223 1327.54 985.711L1309.03 1125.59C1307.12 1140.08 1293.82 1150.27 1279.33 1148.35L1021.23 1114.21C1006.74 1112.3 996.553 1099 998.47 1084.51L1016.97 944.632Z" fill="#009C47"/>
<path d="M122.541 861.839C122.221 861.839 121.965 861.711 121.837 861.423L116.173 852.143V866.479C116.173 867.023 115.917 867.279 115.405 867.279H112.621C112.077 867.279 111.821 867.023 111.821 866.479V845.519C111.821 845.007 112.077 844.751 112.621 844.751H115.341C115.789 844.751 116.077 844.911 116.269 845.199L122.541 855.503L128.813 845.199C128.973 844.911 129.261 844.751 129.709 844.751H132.461C132.973 844.751 133.261 845.007 133.261 845.519V866.479C133.261 867.023 132.973 867.279 132.461 867.279H129.677C129.165 867.279 128.909 867.023 128.909 866.479V852.143L123.245 861.423C123.053 861.711 122.829 861.839 122.541 861.839ZM145.337 867.631C142.745 867.631 140.697 866.895 139.225 865.359C137.753 863.855 137.017 861.679 137.017 858.831C137.017 856.015 137.753 853.839 139.225 852.303C140.697 850.799 142.745 850.031 145.337 850.031C147.897 850.031 149.945 850.799 151.449 852.303C152.921 853.839 153.689 856.015 153.689 858.831C153.689 861.679 152.921 863.855 151.449 865.359C149.945 866.895 147.897 867.631 145.337 867.631ZM145.337 864.239C148.025 864.239 149.369 862.447 149.369 858.831C149.369 855.247 148.025 853.423 145.337 853.423C142.649 853.423 141.337 855.247 141.337 858.831C141.337 862.447 142.649 864.239 145.337 864.239ZM172.518 856.271V866.543C172.518 867.055 172.262 867.279 171.782 867.279H169.03C168.518 867.279 168.262 867.055 168.262 866.543V857.039C168.262 855.919 168.006 855.087 167.526 854.511C167.046 853.967 166.246 853.679 165.158 853.679C163.942 853.679 163.014 854.031 162.374 854.735C161.734 855.439 161.414 856.367 161.414 857.551V866.543C161.414 867.055 161.158 867.279 160.678 867.279H157.926C157.414 867.279 157.19 867.055 157.19 866.543V851.151C157.19 850.671 157.414 850.415 157.926 850.415H160.454C160.902 850.415 161.126 850.639 161.19 851.055L161.35 852.719C162.406 850.927 164.198 850.031 166.726 850.031C168.646 850.031 170.118 850.575 171.078 851.663C172.038 852.751 172.518 854.287 172.518 856.271ZM181.011 851.151V866.543C181.011 867.055 180.755 867.279 180.275 867.279H177.491C176.979 867.279 176.755 867.055 176.755 866.543V851.151C176.755 850.671 176.979 850.415 177.491 850.415H180.275C180.755 850.415 181.011 850.671 181.011 851.151ZM181.011 845.551V847.791C181.011 848.303 180.755 848.527 180.307 848.527H177.459C176.979 848.527 176.755 848.303 176.755 847.791V845.551C176.755 845.071 176.979 844.815 177.459 844.815H180.307C180.755 844.815 181.011 845.071 181.011 845.551ZM193.794 853.999H190.274V861.775C190.274 862.703 190.402 863.343 190.722 863.663C191.01 864.015 191.586 864.175 192.482 864.175C192.61 864.175 193.058 864.143 193.826 864.015C194.018 864.015 194.178 864.047 194.274 864.143C194.37 864.271 194.434 864.431 194.466 864.655L194.658 866.447C194.658 866.831 194.466 867.055 194.05 867.183C193.346 867.439 192.45 867.535 191.362 867.535C189.474 867.535 188.13 867.151 187.33 866.319C186.498 865.519 186.114 864.143 186.114 862.223V853.999H184.354C183.842 853.999 183.586 853.775 183.586 853.263V851.471C183.586 850.991 183.842 850.735 184.354 850.735H186.178V846.799C186.178 846.351 186.402 846.127 186.914 846.127H189.474C189.986 846.127 190.242 846.351 190.242 846.799V850.735H193.794C194.274 850.735 194.53 850.991 194.53 851.471V853.263C194.53 853.775 194.274 853.999 193.794 853.999ZM204.899 867.631C202.307 867.631 200.259 866.895 198.787 865.359C197.315 863.855 196.579 861.679 196.579 858.831C196.579 856.015 197.315 853.839 198.787 852.303C200.259 850.799 202.307 850.031 204.899 850.031C207.459 850.031 209.507 850.799 211.011 852.303C212.483 853.839 213.251 856.015 213.251 858.831C213.251 861.679 212.483 863.855 211.011 865.359C209.507 866.895 207.459 867.631 204.899 867.631ZM204.899 864.239C207.587 864.239 208.931 862.447 208.931 858.831C208.931 855.247 207.587 853.423 204.899 853.423C202.211 853.423 200.899 855.247 200.899 858.831C200.899 862.447 202.211 864.239 204.899 864.239ZM217.521 850.415H220.049C220.497 850.415 220.753 850.639 220.817 851.087L220.977 853.615C221.329 852.783 221.969 852.015 222.865 851.311C223.761 850.639 224.817 850.287 226.065 850.287C226.289 850.287 226.449 850.351 226.545 850.415C226.641 850.511 226.705 850.671 226.705 850.927V853.903C226.705 854.287 226.481 854.479 226.097 854.479C226.001 854.479 225.841 854.479 225.649 854.447C225.425 854.447 225.233 854.415 225.073 854.415C223.889 854.415 222.929 854.895 222.161 855.855C221.393 856.815 221.009 857.903 221.009 859.183V866.543C221.009 867.055 220.753 867.279 220.273 867.279H217.521C217.009 867.279 216.753 867.055 216.753 866.543V851.151C216.753 850.671 217.009 850.415 217.521 850.415ZM242.713 856.111V866.543C242.713 867.055 242.457 867.279 241.945 867.279H239.577C239.129 867.279 238.873 867.087 238.841 866.671L238.713 864.943C237.561 866.703 235.641 867.567 232.889 867.567C231.193 867.567 229.849 867.151 228.889 866.287C227.897 865.455 227.417 864.239 227.417 862.671C227.417 861.775 227.577 860.975 227.961 860.303C228.313 859.631 228.793 859.087 229.401 858.703C230.009 858.319 230.809 857.999 231.801 857.743C232.793 857.487 233.817 857.327 234.841 857.231C235.865 857.135 237.113 857.071 238.585 857.039V856.303C238.585 855.311 238.297 854.575 237.721 854.095C237.145 853.647 236.217 853.391 234.937 853.391C233.369 853.391 231.769 853.711 230.137 854.351C229.689 854.511 229.369 854.351 229.209 853.903L228.633 852.143C228.505 851.759 228.633 851.471 229.081 851.247C230.969 850.447 233.113 850.031 235.481 850.031C240.281 850.031 242.713 852.079 242.713 856.111ZM238.585 860.911V859.535C237.369 859.599 236.409 859.663 235.641 859.727C234.873 859.791 234.137 859.951 233.433 860.143C232.729 860.335 232.249 860.623 231.929 861.007C231.609 861.391 231.449 861.839 231.449 862.415C231.449 863.119 231.673 863.663 232.185 864.047C232.665 864.463 233.369 864.655 234.265 864.655C235.673 864.655 236.729 864.335 237.465 863.631C238.201 862.927 238.585 862.031 238.585 860.911ZM261.471 857.199V866.543C261.471 867.055 261.215 867.279 260.735 867.279H258.015C257.503 867.279 257.279 867.055 257.279 866.543V856.879C257.279 855.823 257.055 855.023 256.639 854.479C256.223 853.935 255.551 853.647 254.591 853.647C253.471 853.647 252.607 853.999 251.967 854.703C251.327 855.407 251.039 856.303 251.039 857.391V866.543C251.039 867.055 250.783 867.279 250.303 867.279H247.583C247.071 867.279 246.815 867.055 246.815 866.543V851.151C246.815 850.671 247.071 850.415 247.583 850.415H250.111C250.559 850.415 250.815 850.639 250.879 851.055L251.039 852.719C251.423 852.015 252.031 851.375 252.895 850.831C253.759 850.319 254.847 850.031 256.127 850.031C258.623 850.031 260.223 850.991 260.991 852.879C262.111 850.991 263.967 850.031 266.559 850.031C268.351 850.031 269.695 850.575 270.591 851.631C271.487 852.719 271.935 854.223 271.935 856.175V866.543C271.935 867.055 271.679 867.279 271.199 867.279H268.447C267.935 867.279 267.711 867.055 267.711 866.543V856.911C267.711 855.823 267.487 855.023 267.071 854.479C266.623 853.935 265.919 853.647 264.959 853.647C263.871 853.647 263.039 853.999 262.399 854.671C261.759 855.343 261.471 856.175 261.471 857.199ZM284.705 864.527C286.177 864.527 287.553 864.207 288.897 863.535C289.345 863.343 289.665 863.471 289.857 863.983L290.401 865.487C290.497 865.903 290.337 866.223 289.921 866.415C288.257 867.247 286.401 867.663 284.353 867.663C281.505 867.663 279.297 866.895 277.697 865.359C276.097 863.823 275.329 861.647 275.329 858.863C275.329 856.079 276.033 853.903 277.505 852.367C278.977 850.831 280.961 850.031 283.489 850.031C285.921 850.031 287.841 850.767 289.185 852.239C290.529 853.711 291.201 855.631 291.201 858.063V859.631C291.201 860.143 290.945 860.399 290.433 860.399H279.521C279.681 861.679 280.225 862.703 281.121 863.439C282.017 864.175 283.233 864.527 284.705 864.527ZM283.553 853.167C280.993 853.167 279.617 854.703 279.425 857.711H287.361V857.519C287.361 856.175 287.009 855.087 286.369 854.319C285.729 853.551 284.769 853.167 283.553 853.167ZM310.018 856.271V866.543C310.018 867.055 309.762 867.279 309.282 867.279H306.53C306.018 867.279 305.762 867.055 305.762 866.543V857.039C305.762 855.919 305.506 855.087 305.026 854.511C304.546 853.967 303.746 853.679 302.658 853.679C301.442 853.679 300.514 854.031 299.874 854.735C299.234 855.439 298.914 856.367 298.914 857.551V866.543C298.914 867.055 298.658 867.279 298.178 867.279H295.426C294.914 867.279 294.69 867.055 294.69 866.543V851.151C294.69 850.671 294.914 850.415 295.426 850.415H297.954C298.402 850.415 298.626 850.639 298.69 851.055L298.85 852.719C299.906 850.927 301.698 850.031 304.226 850.031C306.146 850.031 307.618 850.575 308.578 851.663C309.538 852.751 310.018 854.287 310.018 856.271ZM322.607 853.999H319.087V861.775C319.087 862.703 319.215 863.343 319.535 863.663C319.823 864.015 320.399 864.175 321.295 864.175C321.423 864.175 321.871 864.143 322.639 864.015C322.831 864.015 322.991 864.047 323.087 864.143C323.183 864.271 323.247 864.431 323.279 864.655L323.471 866.447C323.471 866.831 323.279 867.055 322.863 867.183C322.159 867.439 321.263 867.535 320.175 867.535C318.287 867.535 316.943 867.151 316.143 866.319C315.311 865.519 314.927 864.143 314.927 862.223V853.999H313.167C312.655 853.999 312.399 853.775 312.399 853.263V851.471C312.399 850.991 312.655 850.735 313.167 850.735H314.991V846.799C314.991 846.351 315.215 846.127 315.727 846.127H318.287C318.799 846.127 319.055 846.351 319.055 846.799V850.735H322.607C323.087 850.735 323.343 850.991 323.343 851.471V853.263C323.343 853.775 323.087 853.999 322.607 853.999ZM333.712 867.631C331.12 867.631 329.072 866.895 327.6 865.359C326.128 863.855 325.392 861.679 325.392 858.831C325.392 856.015 326.128 853.839 327.6 852.303C329.072 850.799 331.12 850.031 333.712 850.031C336.272 850.031 338.32 850.799 339.824 852.303C341.296 853.839 342.064 856.015 342.064 858.831C342.064 861.679 341.296 863.855 339.824 865.359C338.32 866.895 336.272 867.631 333.712 867.631ZM333.712 864.239C336.4 864.239 337.744 862.447 337.744 858.831C337.744 855.247 336.4 853.423 333.712 853.423C331.024 853.423 329.712 855.247 329.712 858.831C329.712 862.447 331.024 864.239 333.712 864.239ZM366.717 858.831C366.717 855.247 365.309 853.455 362.557 853.455C361.213 853.455 360.189 853.903 359.517 854.735C358.845 855.567 358.525 856.943 358.525 858.831C358.525 860.751 358.845 862.127 359.517 862.959C360.189 863.791 361.213 864.207 362.557 864.207C365.309 864.207 366.717 862.415 366.717 858.831ZM366.909 866.671L366.813 864.911C366.365 865.807 365.629 866.479 364.637 866.927C363.613 867.407 362.525 867.631 361.341 867.631C359.069 867.631 357.309 866.895 356.061 865.423C354.813 863.951 354.205 861.743 354.205 858.831C354.205 855.951 354.813 853.743 356.061 852.271C357.309 850.799 359.069 850.031 361.341 850.031C362.493 850.031 363.549 850.287 364.541 850.735C365.533 851.215 366.237 851.855 366.685 852.687V845.455C366.685 845.007 366.909 844.751 367.421 844.751H370.173C370.685 844.751 370.941 845.007 370.941 845.455V866.543C370.941 867.055 370.685 867.279 370.173 867.279H367.677C367.197 867.279 366.941 867.087 366.909 866.671ZM383.893 864.527C385.365 864.527 386.741 864.207 388.085 863.535C388.533 863.343 388.853 863.471 389.045 863.983L389.589 865.487C389.685 865.903 389.525 866.223 389.109 866.415C387.445 867.247 385.589 867.663 383.541 867.663C380.693 867.663 378.485 866.895 376.885 865.359C375.285 863.823 374.517 861.647 374.517 858.863C374.517 856.079 375.221 853.903 376.693 852.367C378.165 850.831 380.149 850.031 382.677 850.031C385.109 850.031 387.029 850.767 388.373 852.239C389.717 853.711 390.389 855.631 390.389 858.063V859.631C390.389 860.143 390.133 860.399 389.621 860.399H378.709C378.869 861.679 379.413 862.703 380.309 863.439C381.205 864.175 382.421 864.527 383.893 864.527ZM382.741 853.167C380.181 853.167 378.805 854.703 378.613 857.711H386.549V857.519C386.549 856.175 386.197 855.087 385.557 854.319C384.917 853.551 383.957 853.167 382.741 853.167ZM403.989 850.415H406.517C406.965 850.415 407.221 850.639 407.285 851.087L407.445 853.615C407.797 852.783 408.437 852.015 409.333 851.311C410.229 850.639 411.285 850.287 412.533 850.287C412.757 850.287 412.917 850.351 413.013 850.415C413.109 850.511 413.173 850.671 413.173 850.927V853.903C413.173 854.287 412.949 854.479 412.565 854.479C412.469 854.479 412.309 854.479 412.117 854.447C411.893 854.447 411.701 854.415 411.541 854.415C410.357 854.415 409.397 854.895 408.629 855.855C407.861 856.815 407.477 857.903 407.477 859.183V866.543C407.477 867.055 407.221 867.279 406.741 867.279H403.989C403.477 867.279 403.221 867.055 403.221 866.543V851.151C403.221 850.671 403.477 850.415 403.989 850.415ZM424.58 864.527C426.052 864.527 427.428 864.207 428.772 863.535C429.22 863.343 429.54 863.471 429.732 863.983L430.276 865.487C430.372 865.903 430.212 866.223 429.796 866.415C428.132 867.247 426.276 867.663 424.228 867.663C421.38 867.663 419.172 866.895 417.572 865.359C415.972 863.823 415.204 861.647 415.204 858.863C415.204 856.079 415.908 853.903 417.38 852.367C418.852 850.831 420.836 850.031 423.364 850.031C425.796 850.031 427.716 850.767 429.06 852.239C430.404 853.711 431.076 855.631 431.076 858.063V859.631C431.076 860.143 430.82 860.399 430.308 860.399H419.396C419.556 861.679 420.1 862.703 420.996 863.439C421.892 864.175 423.108 864.527 424.58 864.527ZM423.428 853.167C420.868 853.167 419.492 854.703 419.3 857.711H427.236V857.519C427.236 856.175 426.884 855.087 426.244 854.319C425.604 853.551 424.644 853.167 423.428 853.167ZM446.373 858.831C446.373 855.247 444.965 853.455 442.213 853.455C440.869 853.455 439.845 853.903 439.173 854.735C438.501 855.567 438.181 856.943 438.181 858.831C438.181 860.751 438.501 862.127 439.173 862.959C439.845 863.791 440.869 864.207 442.213 864.207C444.965 864.207 446.373 862.415 446.373 858.831ZM446.565 866.671L446.469 864.911C446.021 865.807 445.285 866.479 444.293 866.927C443.269 867.407 442.181 867.631 440.997 867.631C438.725 867.631 436.965 866.895 435.717 865.423C434.469 863.951 433.861 861.743 433.861 858.831C433.861 855.951 434.469 853.743 435.717 852.271C436.965 850.799 438.725 850.031 440.997 850.031C442.149 850.031 443.205 850.287 444.197 850.735C445.189 851.215 445.893 851.855 446.341 852.687V845.455C446.341 845.007 446.565 844.751 447.077 844.751H449.829C450.341 844.751 450.597 845.007 450.597 845.455V866.543C450.597 867.055 450.341 867.279 449.829 867.279H447.333C446.853 867.279 446.597 867.087 446.565 866.671ZM463.549 864.527C465.021 864.527 466.397 864.207 467.741 863.535C468.189 863.343 468.509 863.471 468.701 863.983L469.245 865.487C469.341 865.903 469.181 866.223 468.765 866.415C467.101 867.247 465.245 867.663 463.197 867.663C460.349 867.663 458.141 866.895 456.541 865.359C454.941 863.823 454.173 861.647 454.173 858.863C454.173 856.079 454.877 853.903 456.349 852.367C457.821 850.831 459.805 850.031 462.333 850.031C464.765 850.031 466.685 850.767 468.029 852.239C469.373 853.711 470.045 855.631 470.045 858.063V859.631C470.045 860.143 469.789 860.399 469.277 860.399H458.365C458.525 861.679 459.069 862.703 459.965 863.439C460.861 864.175 462.077 864.527 463.549 864.527ZM462.397 853.167C459.837 853.167 458.461 854.703 458.269 857.711H466.205V857.519C466.205 856.175 465.853 855.087 465.213 854.319C464.573 853.551 463.613 853.167 462.397 853.167ZM485.47 862.735C485.47 865.999 483.166 867.631 478.59 867.631C476.414 867.631 474.59 867.343 473.054 866.703C472.606 866.575 472.446 866.287 472.574 865.871L473.054 864.207C473.182 863.759 473.47 863.599 473.95 863.727C475.262 864.207 476.606 864.431 477.95 864.431C479.102 864.431 479.934 864.303 480.478 864.047C481.022 863.791 481.31 863.311 481.31 862.639C481.31 862.063 481.022 861.615 480.51 861.263C479.998 860.943 479.102 860.559 477.886 860.111C476.158 859.535 475.006 859.023 474.43 858.607C473.214 857.775 472.638 856.495 472.638 854.799C472.638 853.263 473.182 852.079 474.27 851.247C475.358 850.447 476.958 850.031 479.038 850.031C481.086 850.031 482.814 850.351 484.254 850.927C484.67 851.119 484.83 851.407 484.702 851.791L484.222 853.391C484.094 853.871 483.774 854.031 483.326 853.871C481.95 853.455 480.734 853.231 479.678 853.231C478.654 853.231 477.918 853.359 477.47 853.615C477.022 853.871 476.798 854.319 476.798 854.895C476.798 855.343 476.958 855.695 477.278 856.015C477.598 856.335 477.95 856.559 478.334 856.719C478.718 856.911 479.358 857.135 480.254 857.423C481.982 858.063 483.262 858.735 484.158 859.471C485.022 860.239 485.47 861.327 485.47 862.735ZM510.064 862.735C510.064 865.999 507.76 867.631 503.184 867.631C501.008 867.631 499.184 867.343 497.648 866.703C497.2 866.575 497.04 866.287 497.168 865.871L497.648 864.207C497.776 863.759 498.064 863.599 498.544 863.727C499.856 864.207 501.2 864.431 502.544 864.431C503.696 864.431 504.528 864.303 505.072 864.047C505.616 863.791 505.904 863.311 505.904 862.639C505.904 862.063 505.616 861.615 505.104 861.263C504.592 860.943 503.696 860.559 502.48 860.111C500.752 859.535 499.6 859.023 499.024 858.607C497.808 857.775 497.232 856.495 497.232 854.799C497.232 853.263 497.776 852.079 498.864 851.247C499.952 850.447 501.552 850.031 503.632 850.031C505.68 850.031 507.408 850.351 508.848 850.927C509.264 851.119 509.424 851.407 509.296 851.791L508.816 853.391C508.688 853.871 508.368 854.031 507.92 853.871C506.544 853.455 505.328 853.231 504.272 853.231C503.248 853.231 502.512 853.359 502.064 853.615C501.616 853.871 501.392 854.319 501.392 854.895C501.392 855.343 501.552 855.695 501.872 856.015C502.192 856.335 502.544 856.559 502.928 856.719C503.312 856.911 503.952 857.135 504.848 857.423C506.576 858.063 507.856 858.735 508.752 859.471C509.616 860.239 510.064 861.327 510.064 862.735ZM521.768 864.527C523.24 864.527 524.616 864.207 525.96 863.535C526.408 863.343 526.728 863.471 526.92 863.983L527.464 865.487C527.56 865.903 527.4 866.223 526.984 866.415C525.32 867.247 523.464 867.663 521.416 867.663C518.568 867.663 516.36 866.895 514.76 865.359C513.16 863.823 512.392 861.647 512.392 858.863C512.392 856.079 513.096 853.903 514.568 852.367C516.04 850.831 518.024 850.031 520.552 850.031C522.984 850.031 524.904 850.767 526.248 852.239C527.592 853.711 528.264 855.631 528.264 858.063V859.631C528.264 860.143 528.008 860.399 527.496 860.399H516.584C516.744 861.679 517.288 862.703 518.184 863.439C519.08 864.175 520.296 864.527 521.768 864.527ZM520.616 853.167C518.056 853.167 516.68 854.703 516.488 857.711H524.424V857.519C524.424 856.175 524.072 855.087 523.432 854.319C522.792 853.551 521.832 853.167 520.616 853.167ZM546.409 857.199V866.543C546.409 867.055 546.153 867.279 545.673 867.279H542.953C542.441 867.279 542.217 867.055 542.217 866.543V856.879C542.217 855.823 541.993 855.023 541.577 854.479C541.161 853.935 540.489 853.647 539.529 853.647C538.409 853.647 537.545 853.999 536.905 854.703C536.265 855.407 535.977 856.303 535.977 857.391V866.543C535.977 867.055 535.721 867.279 535.241 867.279H532.521C532.009 867.279 531.753 867.055 531.753 866.543V851.151C531.753 850.671 532.009 850.415 532.521 850.415H535.049C535.497 850.415 535.753 850.639 535.817 851.055L535.977 852.719C536.361 852.015 536.969 851.375 537.833 850.831C538.697 850.319 539.785 850.031 541.065 850.031C543.561 850.031 545.161 850.991 545.929 852.879C547.049 850.991 548.905 850.031 551.497 850.031C553.289 850.031 554.633 850.575 555.529 851.631C556.425 852.719 556.873 854.223 556.873 856.175V866.543C556.873 867.055 556.617 867.279 556.137 867.279H553.385C552.873 867.279 552.649 867.055 552.649 866.543V856.911C552.649 855.823 552.425 855.023 552.009 854.479C551.561 853.935 550.857 853.647 549.897 853.647C548.809 853.647 547.977 853.999 547.337 854.671C546.697 855.343 546.409 856.175 546.409 857.199ZM575.307 856.111V866.543C575.307 867.055 575.051 867.279 574.539 867.279H572.171C571.723 867.279 571.467 867.087 571.435 866.671L571.307 864.943C570.155 866.703 568.235 867.567 565.483 867.567C563.787 867.567 562.443 867.151 561.483 866.287C560.491 865.455 560.011 864.239 560.011 862.671C560.011 861.775 560.171 860.975 560.555 860.303C560.907 859.631 561.387 859.087 561.995 858.703C562.603 858.319 563.403 857.999 564.395 857.743C565.387 857.487 566.411 857.327 567.435 857.231C568.459 857.135 569.707 857.071 571.179 857.039V856.303C571.179 855.311 570.891 854.575 570.315 854.095C569.739 853.647 568.811 853.391 567.531 853.391C565.963 853.391 564.363 853.711 562.731 854.351C562.283 854.511 561.963 854.351 561.803 853.903L561.227 852.143C561.099 851.759 561.227 851.471 561.675 851.247C563.563 850.447 565.707 850.031 568.075 850.031C572.875 850.031 575.307 852.079 575.307 856.111ZM571.179 860.911V859.535C569.963 859.599 569.003 859.663 568.235 859.727C567.467 859.791 566.731 859.951 566.027 860.143C565.323 860.335 564.843 860.623 564.523 861.007C564.203 861.391 564.043 861.839 564.043 862.415C564.043 863.119 564.267 863.663 564.779 864.047C565.259 864.463 565.963 864.655 566.859 864.655C568.267 864.655 569.323 864.335 570.059 863.631C570.795 862.927 571.179 862.031 571.179 860.911ZM594.737 856.271V866.543C594.737 867.055 594.481 867.279 594.001 867.279H591.249C590.737 867.279 590.481 867.055 590.481 866.543V857.039C590.481 855.919 590.225 855.087 589.745 854.511C589.265 853.967 588.465 853.679 587.377 853.679C586.161 853.679 585.233 854.031 584.593 854.735C583.953 855.439 583.633 856.367 583.633 857.551V866.543C583.633 867.055 583.377 867.279 582.897 867.279H580.145C579.633 867.279 579.409 867.055 579.409 866.543V851.151C579.409 850.671 579.633 850.415 580.145 850.415H582.673C583.121 850.415 583.345 850.639 583.409 851.055L583.569 852.719C584.625 850.927 586.417 850.031 588.945 850.031C590.865 850.031 592.337 850.575 593.297 851.663C594.257 852.751 594.737 854.287 594.737 856.271ZM613.182 856.111V866.543C613.182 867.055 612.926 867.279 612.414 867.279H610.046C609.598 867.279 609.342 867.087 609.31 866.671L609.182 864.943C608.03 866.703 606.11 867.567 603.358 867.567C601.662 867.567 600.318 867.151 599.358 866.287C598.366 865.455 597.886 864.239 597.886 862.671C597.886 861.775 598.046 860.975 598.43 860.303C598.782 859.631 599.262 859.087 599.87 858.703C600.478 858.319 601.278 857.999 602.27 857.743C603.262 857.487 604.286 857.327 605.31 857.231C606.334 857.135 607.582 857.071 609.054 857.039V856.303C609.054 855.311 608.766 854.575 608.19 854.095C607.614 853.647 606.686 853.391 605.406 853.391C603.838 853.391 602.238 853.711 600.606 854.351C600.158 854.511 599.838 854.351 599.678 853.903L599.102 852.143C598.974 851.759 599.102 851.471 599.55 851.247C601.438 850.447 603.582 850.031 605.95 850.031C610.75 850.031 613.182 852.079 613.182 856.111ZM609.054 860.911V859.535C607.838 859.599 606.878 859.663 606.11 859.727C605.342 859.791 604.606 859.951 603.902 860.143C603.198 860.335 602.718 860.623 602.398 861.007C602.078 861.391 601.918 861.839 601.918 862.415C601.918 863.119 602.142 863.663 602.654 864.047C603.134 864.463 603.838 864.655 604.734 864.655C606.142 864.655 607.198 864.335 607.934 863.631C608.67 862.927 609.054 862.031 609.054 860.911ZM621.604 845.455V866.543C621.604 867.055 621.348 867.279 620.868 867.279H618.084C617.604 867.279 617.38 867.055 617.38 866.543V845.455C617.38 845.007 617.604 844.751 618.084 844.751H620.868C621.348 844.751 621.604 845.007 621.604 845.455Z" fill="#121726"/>
<g clip-path="url(#clip1_2024_3207)">
<path d="M144.798 909.649C154.241 909.649 155.359 909.692 159.073 909.863C162.525 910.02 164.389 910.618 165.631 911.117C167.274 911.773 168.462 912.571 169.691 913.839C170.933 915.122 171.692 916.333 172.328 918.029C172.811 919.312 173.391 921.25 173.543 924.799C173.708 928.647 173.75 929.801 173.75 939.535C173.75 949.284 173.708 950.438 173.543 954.272C173.391 957.835 172.811 959.759 172.328 961.041C171.692 962.737 170.919 963.963 169.691 965.231C168.448 966.514 167.274 967.298 165.631 967.953C164.389 968.452 162.511 969.051 159.073 969.207C155.346 969.379 154.227 969.421 144.798 969.421C135.354 969.421 134.236 969.379 130.522 969.207C127.07 969.051 125.206 968.452 123.964 967.953C122.321 967.298 121.133 966.5 119.905 965.231C118.662 963.949 117.903 962.737 117.268 961.041C116.784 959.759 116.204 957.82 116.053 954.272C115.887 950.424 115.845 949.269 115.845 939.535C115.845 929.787 115.887 928.633 116.053 924.799C116.204 921.236 116.784 919.312 117.268 918.029C117.903 916.333 118.676 915.108 119.905 913.839C121.147 912.557 122.321 911.773 123.964 911.117C125.206 910.618 127.084 910.02 130.522 909.863C134.236 909.692 135.354 909.649 144.798 909.649ZM144.798 903.079C135.202 903.079 134.001 903.122 130.232 903.293C126.476 903.464 123.895 904.091 121.658 904.989C119.325 905.93 117.35 907.169 115.39 909.207C113.416 911.231 112.214 913.269 111.303 915.664C110.433 917.987 109.826 920.637 109.66 924.514C109.495 928.419 109.453 929.659 109.453 939.564C109.453 949.469 109.495 950.709 109.66 954.599C109.826 958.476 110.433 961.141 111.303 963.45C112.214 965.858 113.416 967.896 115.39 969.92C117.35 971.944 119.325 973.198 121.644 974.124C123.895 975.022 126.463 975.649 130.218 975.82C133.987 975.991 135.188 976.034 144.784 976.034C154.379 976.034 155.58 975.991 159.35 975.82C163.105 975.649 165.687 975.022 167.923 974.124C170.243 973.198 172.217 971.944 174.178 969.92C176.138 967.896 177.353 965.858 178.25 963.464C179.12 961.141 179.728 958.49 179.893 954.614C180.059 950.723 180.101 949.483 180.101 939.578C180.101 929.673 180.059 928.433 179.893 924.542C179.728 920.666 179.12 918.001 178.25 915.692C177.381 913.269 176.18 911.231 174.205 909.207C172.245 907.184 170.27 905.93 167.951 905.003C165.7 904.105 163.132 903.478 159.377 903.307C155.594 903.122 154.393 903.079 144.798 903.079Z" fill="#121726"/>
<path d="M144.798 920.823C134.775 920.823 126.643 929.217 126.643 939.564C126.643 949.911 134.775 958.305 144.798 958.305C154.821 958.305 162.953 949.911 162.953 939.564C162.953 929.217 154.821 920.823 144.798 920.823ZM144.798 951.721C138.295 951.721 133.021 946.276 133.021 939.564C133.021 932.851 138.295 927.407 144.798 927.407C151.301 927.407 156.575 932.851 156.575 939.564C156.575 946.276 151.301 951.721 144.798 951.721Z" fill="#121726"/>
<path d="M167.91 920.081C167.91 922.504 166.004 924.457 163.671 924.457C161.324 924.457 159.433 922.49 159.433 920.081C159.433 917.659 161.338 915.706 163.671 915.706C166.004 915.706 167.91 917.673 167.91 920.081Z" fill="#121726"/>
</g>
<g clip-path="url(#clip2_2024_3207)">
<path d="M248.626 903.158C228.476 903.158 212.142 919.493 212.142 939.642C212.142 956.752 223.922 971.11 239.813 975.053V950.792H232.29V939.642H239.813V934.838C239.813 922.42 245.433 916.664 257.625 916.664C259.936 916.664 263.925 917.118 265.556 917.571V927.677C264.695 927.586 263.2 927.541 261.342 927.541C255.36 927.541 253.048 929.808 253.048 935.699V939.642H264.965L262.918 950.792H253.048V975.86C271.114 973.678 285.112 958.296 285.112 939.642C285.111 919.493 268.776 903.158 248.626 903.158Z" fill="#121726"/>
</g>
<path d="M371.089 908.868H381.025L359.318 934.478L384.855 969.329H364.859L349.198 948.192L331.278 969.329H321.336L344.555 941.935L320.057 908.868H340.56L354.716 928.187L371.089 908.868ZM367.602 963.19H373.107L337.568 914.684H331.66L367.602 963.19Z" fill="#121726"/>
<rect x="1484.47" y="-241.318" width="572.378" height="572.378" rx="45.6057" transform="rotate(-17.1871 1484.47 -241.318)" fill="#009C47"/>
<g clip-path="url(#clip3_2024_3207)">
<path fill-rule="evenodd" clip-rule="evenodd" d="M1694.42 158.895V158.716C1694.42 158.529 1694.58 158.383 1694.76 158.383H1807.62C1807.81 158.383 1807.96 158.537 1807.96 158.716V158.895C1807.96 159.082 1807.8 159.229 1807.62 159.229H1694.76C1694.57 159.229 1694.42 159.074 1694.42 158.895Z" fill="white"/>
<path d="M1769.84 100.214H1768.71C1768.22 100.214 1768.01 100.353 1767.93 100.784L1767.9 100.946C1767.84 101.215 1767.58 101.353 1767.2 101.353C1766.85 101.353 1766.4 101.247 1765.99 101.085L1764.54 100.515C1764.54 100.515 1764.46 100.491 1764.43 100.475C1764.31 101.394 1763.76 101.8 1762.7 101.8H1760.03C1759.93 102.134 1759.88 102.5 1759.88 102.915C1759.88 103.777 1760.15 103.997 1760.74 103.997H1761.87C1762.36 103.997 1762.57 103.858 1762.65 103.427L1762.67 103.265C1762.73 102.972 1762.97 102.858 1763.35 102.858C1763.7 102.858 1764.13 102.939 1764.58 103.126L1766.04 103.696C1766.61 103.915 1767.28 104.07 1768.22 104.07C1769.78 104.07 1770.7 103.183 1770.7 101.451C1770.7 100.588 1770.43 100.214 1769.84 100.214Z" fill="white"/>
<path d="M1710.56 58.3222C1710.75 58.3222 1710.86 58.4198 1710.86 58.6232V62.4951C1710.86 62.7147 1710.73 62.8368 1710.59 62.9181C1710.02 63.2597 1709.13 63.52 1707.83 63.52C1705.23 63.52 1703.71 62.1616 1703.71 59.1194C1703.71 56.0771 1705.24 54.7268 1707.95 54.7268C1709.04 54.7268 1709.91 55.0196 1710.39 55.3043C1710.57 55.402 1710.64 55.4996 1710.57 55.6785L1710.27 56.4269C1710.19 56.6058 1710.09 56.6709 1709.85 56.5733C1709.48 56.4188 1708.9 56.2235 1708.16 56.2235C1706.24 56.2235 1705.42 57.0695 1705.42 59.1112C1705.42 61.1529 1706.27 62.0152 1708.03 62.0152C1708.53 62.0152 1709.03 61.9094 1709.32 61.7712V59.6318H1708.01C1707.8 59.6318 1707.7 59.5505 1707.7 59.3553V58.615C1707.7 58.4198 1707.8 58.3141 1708.01 58.3141H1710.56V58.3222Z" fill="white"/>
<path d="M1721.92 59.1275C1721.92 62.064 1720.52 63.52 1718.14 63.52C1715.76 63.52 1714.39 62.0721 1714.39 59.1275C1714.39 56.1829 1715.78 54.7268 1718.15 54.7268C1720.52 54.7268 1721.92 56.191 1721.92 59.1275ZM1720.19 59.1275C1720.19 57.1834 1719.52 56.1991 1718.15 56.1991C1716.78 56.1991 1716.09 57.1752 1716.09 59.1275C1716.09 61.0797 1716.77 62.0396 1718.15 62.0396C1719.53 62.0396 1720.19 61.0716 1720.19 59.1275Z" fill="white"/>
<path d="M1727.66 63.3902C1727.45 63.3902 1727.36 63.3089 1727.28 63.0974L1724.6 55.2152C1724.53 55.0118 1724.63 54.8735 1724.83 54.8735H1726C1726.2 54.8735 1726.3 54.9711 1726.35 55.142L1727.8 59.6565L1728.32 61.6495H1728.35L1728.87 59.6565L1730.32 55.142C1730.37 54.9711 1730.46 54.8735 1730.67 54.8735H1731.85C1732.05 54.8735 1732.15 55.0037 1732.07 55.2152L1729.4 63.0974C1729.32 63.3007 1729.22 63.3902 1729.01 63.3902H1727.64H1727.66Z" fill="white"/>
<path d="M1737.15 59.746V61.9342H1740.58C1740.78 61.9342 1740.88 62.0155 1740.88 62.227V63.0892C1740.88 63.3089 1740.78 63.3902 1740.58 63.3902H1735.79C1735.57 63.3902 1735.48 63.3089 1735.48 63.0892V55.1664C1735.48 54.963 1735.57 54.8735 1735.78 54.8735H1740.54C1740.74 54.8735 1740.84 54.9549 1740.84 55.1664V56.0286C1740.84 56.232 1740.74 56.3296 1740.54 56.3296H1737.16V58.3469H1740.39C1740.58 58.3469 1740.68 58.4527 1740.68 58.6479V59.445C1740.68 59.6403 1740.58 59.746 1740.39 59.746H1737.16H1737.15Z" fill="white"/>
<path d="M1747.5 54.8735C1749.84 54.8735 1751.03 55.7114 1751.03 57.7368C1751.03 59.2091 1750.23 60.0389 1748.95 60.3154L1751 63.016C1751.13 63.1868 1751.06 63.3902 1750.83 63.3902H1749.68C1749.46 63.3902 1749.36 63.2926 1749.26 63.1462L1747.3 60.5432H1746.18V63.0811C1746.18 63.3007 1746.08 63.3821 1745.87 63.3821H1744.8C1744.58 63.3821 1744.5 63.3007 1744.5 63.0811V55.1664C1744.5 54.963 1744.58 54.8735 1744.8 54.8735H1747.51H1747.5ZM1747.46 59.1441C1748.83 59.1441 1749.33 58.6967 1749.33 57.745C1749.33 56.72 1748.8 56.3296 1747.47 56.3296H1746.16V59.1441H1747.45H1747.46Z" fill="white"/>
<path d="M1761.46 63.0811C1761.46 63.3007 1761.36 63.3821 1761.17 63.3821H1760.08C1759.87 63.3821 1759.78 63.3251 1759.7 63.1787L1756.3 57.6962V63.0811C1756.3 63.3007 1756.22 63.3821 1756.01 63.3821H1754.97C1754.75 63.3821 1754.67 63.3007 1754.67 63.0811V55.1664C1754.67 54.963 1754.75 54.8735 1754.97 54.8735H1756.04C1756.26 54.8735 1756.34 54.9223 1756.43 55.0688L1759.82 60.5595V55.1664C1759.82 54.963 1759.91 54.8735 1760.12 54.8735H1761.17C1761.36 54.8735 1761.46 54.9549 1761.46 55.1501V63.0811Z" fill="white"/>
<path d="M1772.64 59.1275C1772.64 62.064 1771.24 63.52 1768.86 63.52C1766.48 63.52 1765.1 62.0721 1765.1 59.1275C1765.1 56.1829 1766.5 54.7268 1768.87 54.7268C1771.23 54.7268 1772.64 56.191 1772.64 59.1275ZM1770.91 59.1275C1770.91 57.1834 1770.24 56.1991 1768.87 56.1991C1767.51 56.1991 1766.82 57.1752 1766.82 59.1275C1766.82 61.0797 1767.49 62.0396 1768.87 62.0396C1770.26 62.0396 1770.91 61.0716 1770.91 59.1275Z" fill="white"/>
<path d="M1782.29 63.3902C1782.07 63.3902 1781.98 63.3089 1781.98 63.0892V55.1664C1781.98 54.963 1782.07 54.8735 1782.28 54.8735H1784.61C1787.34 54.8735 1788.83 55.9961 1788.83 59.0465C1788.83 62.2514 1787.34 63.3902 1784.63 63.3902H1782.29H1782.29ZM1783.68 56.3703V61.8854H1784.56C1786.2 61.8854 1787.11 61.3159 1787.11 59.0465C1787.11 56.9315 1786.2 56.3703 1784.55 56.3703H1783.68H1783.68Z" fill="white"/>
<path d="M1799.15 59.1212C1799.15 62.0252 1797.82 63.5138 1795.67 63.5138C1793.53 63.5138 1792.19 62.0252 1792.19 59.1375C1792.19 56.2498 1793.53 54.7368 1795.67 54.7368C1797.82 54.7368 1799.15 56.2254 1799.15 59.1294M1797.48 59.1212C1797.48 57.1771 1796.88 56.1929 1795.67 56.1929C1794.46 56.1929 1793.89 57.169 1793.89 59.1212C1793.89 61.0735 1794.48 62.0577 1795.67 62.0577C1796.87 62.0577 1797.48 61.0816 1797.48 59.1212Z" fill="white"/>
<path d="M1790.12 130.88C1786.74 130.88 1784.98 128.481 1784.98 122.071C1784.98 115.661 1786.74 113.261 1790.12 113.261C1793.49 113.261 1795.26 115.661 1795.26 122.071C1795.26 128.481 1793.49 130.88 1790.12 130.88ZM1790.12 104.151C1782.27 104.151 1776.62 107.624 1774.8 115.767L1775.3 117.271L1781.92 137.542C1782.02 137.835 1782.07 138.104 1782.07 138.348C1784.36 139.47 1787.08 139.991 1790.13 139.991C1799.77 139.991 1806.08 134.752 1806.08 122.071C1806.08 109.389 1799.77 104.151 1790.13 104.151" fill="white"/>
<path d="M1752.91 104.989H1745.76C1744.54 104.989 1744 105.526 1744 106.754V117.378H1736.17V106.754C1736.17 105.534 1735.63 104.989 1734.4 104.989H1727.26C1727.18 104.989 1727.1 104.989 1727.03 104.989C1728.1 105.054 1728.57 105.599 1728.57 106.746V137.885C1728.57 139.032 1728.1 139.577 1727.03 139.642C1727.1 139.642 1727.18 139.642 1727.26 139.642H1734.4C1735.62 139.642 1736.17 139.105 1736.17 137.877V126.765H1744V137.877C1744 139.097 1744.53 139.642 1745.76 139.642H1752.91H1749.97C1748.8 139.642 1748.21 138.812 1748.66 137.535L1754.68 119.111V106.738C1754.68 105.518 1754.14 104.973 1752.92 104.973" fill="white"/>
<path d="M1769.68 104.989H1760.88C1759.61 104.989 1759.11 105.526 1758.77 106.559L1754.67 119.127V137.893C1754.67 139.113 1754.13 139.658 1752.9 139.658H1757.4C1758.62 139.658 1759.26 139.121 1759.55 138.039L1765.23 115.474H1765.37L1768.18 126.732L1771 138.039C1771.06 138.242 1771.12 138.421 1771.2 138.584C1771.55 139.292 1772.16 139.65 1773.15 139.65H1780.59C1781.47 139.65 1782.02 139.178 1782.06 138.413C1782.06 138.397 1782.06 138.373 1782.06 138.356C1777.11 135.94 1774.16 130.751 1774.16 122.079C1774.16 119.729 1774.38 117.63 1774.8 115.775L1771.79 106.559C1771.79 106.559 1771.77 106.527 1771.77 106.502C1771.71 106.339 1771.65 106.185 1771.58 106.047V106.03C1771.24 105.347 1770.72 104.989 1769.69 104.989" fill="white"/>
<path d="M1774.8 115.767C1774.39 117.621 1774.17 119.72 1774.17 122.071C1774.17 130.742 1777.12 135.932 1782.06 138.348C1782.06 138.104 1782.01 137.835 1781.92 137.542L1775.29 117.272L1774.8 115.767H1774.8Z" fill="white"/>
<path d="M1754.67 119.118L1748.64 137.542C1748.21 138.811 1748.79 139.649 1749.97 139.649H1752.9C1754.12 139.649 1754.67 139.112 1754.67 137.884V119.118Z" fill="white"/>
<path d="M1726.82 104.989H1720.07C1718.85 104.989 1718.3 105.526 1718.3 106.754V121.738L1709.7 106.071C1709.26 105.29 1708.82 104.997 1707.59 104.997H1700.79C1699.57 104.997 1699.02 105.534 1699.02 106.762V137.901C1699.02 139.121 1699.56 139.666 1700.79 139.666H1707.53C1708.75 139.666 1709.3 139.129 1709.3 137.901V122.917L1717.91 138.584C1718.34 139.365 1718.78 139.658 1720.01 139.658H1726.82C1726.9 139.658 1726.97 139.658 1727.04 139.658C1725.98 139.593 1725.51 139.048 1725.51 137.901V106.762C1725.51 105.615 1725.98 105.07 1727.04 105.005C1726.97 105.005 1726.9 105.005 1726.82 105.005" fill="white"/>
<path d="M1727.05 104.989C1725.98 105.054 1725.51 105.599 1725.51 106.746V137.884C1725.51 139.031 1725.98 139.576 1727.05 139.642C1728.11 139.576 1728.58 139.031 1728.58 137.884V106.746C1728.58 105.599 1728.11 105.054 1727.05 104.989Z" fill="white"/>
<path d="M1728.11 67.132H1721.61C1720.58 67.132 1719.99 67.4736 1719.6 68.1081L1712.06 81.0824L1704.53 68.1081C1704.14 67.4736 1703.55 67.132 1702.52 67.132H1696.02C1694.8 67.132 1694.25 67.6688 1694.25 68.8971V100.035C1694.25 101.256 1694.79 101.801 1696.02 101.801H1702.76C1703.98 101.801 1704.53 101.264 1704.53 100.035V84.1246L1710.79 94.6505C1711.03 95.0409 1711.37 95.3826 1712.06 95.3826C1712.74 95.3826 1713.08 95.0409 1713.32 94.6505L1719.58 84.1246V100.035C1719.58 101.256 1720.12 101.801 1721.35 101.801H1728.09H1725.62C1724.75 101.801 1724.19 101.329 1724.16 100.564C1724.16 100.458 1724.16 100.345 1724.18 100.231C1724.2 100.068 1724.24 99.889 1724.31 99.7019L1729.86 82.7093V68.9052C1729.86 67.6851 1729.32 67.1401 1728.09 67.1401" fill="white"/>
<path d="M1810.71 99.6855L1800.58 68.6936C1800.24 67.6687 1799.75 67.1237 1798.47 67.1237H1789.67C1788.4 67.1237 1787.9 67.6605 1787.56 68.6936L1779.25 94.1297L1781.43 97.7495L1782.55 99.5879C1783.28 100.759 1782.79 101.792 1781.57 101.792H1809.38C1810.55 101.792 1811.14 100.963 1810.7 99.6855H1810.71ZM1802.85 84.458L1797.82 88.1266L1799.67 93.9508C1799.82 94.4063 1799.29 94.7886 1798.91 94.5039L1794.02 90.9004L1789.09 94.4958C1788.7 94.7805 1788.17 94.3982 1788.33 93.9345L1790.27 88.1347L1785.29 84.4661C1784.9 84.1814 1785.1 83.5713 1785.58 83.5713H1791.8L1793.66 77.9993C1793.81 77.5438 1794.46 77.5519 1794.6 77.9993L1796.37 83.5632H1802.57C1803.05 83.5632 1803.25 84.1814 1802.86 84.458H1802.85Z" fill="white"/>
<path d="M1764.45 83.1892V75.4534H1767.97C1771.05 75.4534 1772.28 76.6248 1772.28 79.0732C1772.28 79.1545 1772.28 79.2359 1772.28 79.3172C1772.28 79.3986 1772.28 79.4718 1772.28 79.5613C1772.28 80.4316 1772.12 81.1393 1771.78 81.6925C1771.36 82.3757 1770.66 82.8231 1769.62 83.0346H1769.6C1769.41 83.0753 1769.22 83.1078 1769.01 83.1322H1768.99C1768.9 83.1404 1768.81 83.1485 1768.72 83.1566C1768.69 83.1566 1768.66 83.1566 1768.63 83.1566C1768.55 83.1566 1768.48 83.1648 1768.4 83.1648C1768.37 83.1648 1768.34 83.1648 1768.31 83.1648C1768.2 83.1648 1768.09 83.1648 1767.98 83.1648H1764.46L1764.45 83.1892ZM1768.12 67.132H1766.95H1764.46H1755.65C1754.43 67.132 1753.89 67.6688 1753.89 68.8971V88.3626L1757.59 99.6938C1758.03 100.963 1757.44 101.801 1756.27 101.801H1755.65H1760.03C1760.35 100.751 1761.18 100.141 1762.43 100.141C1763.24 100.141 1763.89 100.288 1764.43 100.483C1764.45 100.345 1764.46 100.198 1764.46 100.044V91.5269H1766.95L1771.99 100.385C1772.53 101.313 1773.21 101.809 1774.44 101.809H1778.76C1777.89 101.809 1777.33 101.337 1777.3 100.572C1777.29 100.312 1777.33 100.027 1777.45 99.7101L1779.26 94.1543L1776.81 90.1115C1776.81 90.1115 1781.75 88.0617 1782.67 82.514C1782.83 81.546 1782.94 80.4967 1782.95 79.3416C1782.94 78.1866 1782.83 77.1372 1782.67 76.1692C1781.71 70.6948 1776.81 68.5717 1776.81 68.5717C1774.5 67.5712 1771.59 67.1482 1768.13 67.1482" fill="white"/>
<path d="M1762.42 100.133C1761.17 100.133 1760.34 100.743 1760.02 101.792H1762.68C1763.75 101.792 1764.29 101.385 1764.41 100.466C1763.87 100.271 1763.23 100.125 1762.41 100.125" fill="white"/>
<path d="M1779.24 94.138L1777.43 99.6938C1777.32 100.011 1777.28 100.304 1777.28 100.556C1777.32 101.329 1777.87 101.792 1778.75 101.792H1781.57C1782.79 101.792 1783.28 100.768 1782.54 99.588L1781.43 97.7497L1779.24 94.1299V94.138Z" fill="white"/>
<path d="M1745.35 67.132H1736.55C1735.52 67.132 1735 67.4899 1734.66 68.1732V68.1894C1734.58 68.3277 1734.52 68.4823 1734.46 68.6449C1734.46 68.6612 1734.45 68.6775 1734.45 68.7019L1730.94 79.423L1729.87 82.7011V100.035C1729.87 101.256 1729.33 101.801 1728.1 101.801H1733.07C1734.06 101.801 1734.67 101.443 1735.02 100.735V100.719C1735.1 100.556 1735.17 100.385 1735.23 100.19L1740.85 77.6253H1741L1746.67 100.19C1746.96 101.264 1747.6 101.809 1748.83 101.809H1755.64C1754.42 101.809 1753.87 101.272 1753.87 100.044V88.3708L1747.45 68.71C1747.11 67.6851 1746.62 67.1401 1745.35 67.1401" fill="white"/>
<path d="M1729.87 82.7009L1724.31 99.6936C1724.25 99.8807 1724.21 100.06 1724.18 100.222C1724.17 100.336 1724.16 100.45 1724.17 100.556C1724.2 101.329 1724.75 101.8 1725.63 101.8H1728.1C1729.32 101.8 1729.87 101.264 1729.87 100.035V82.7009Z" fill="white"/>
<path d="M1753.88 88.3622V100.035C1753.88 101.255 1754.42 101.8 1755.64 101.8H1756.26C1757.43 101.8 1758.02 100.97 1757.59 99.6933L1753.89 88.3622H1753.88Z" fill="white"/>
<path d="M1706.82 143.643C1706.82 143.578 1706.85 143.546 1706.92 143.546H1709.62C1709.69 143.546 1709.71 143.578 1709.71 143.643V143.92C1709.71 143.985 1709.68 144.018 1709.62 144.018H1708.53V147.613C1708.53 147.686 1708.49 147.711 1708.43 147.711H1708.12C1708.06 147.711 1708.02 147.678 1708.02 147.613V144.018H1706.93C1706.87 144.018 1706.84 143.985 1706.84 143.92V143.643H1706.82Z" fill="white"/>
<path d="M1712.33 143.554C1713.48 143.554 1714.01 143.985 1714.01 144.896C1714.01 145.677 1713.57 146.084 1712.81 146.173L1714.02 147.588C1714.06 147.645 1714.05 147.719 1713.96 147.719H1713.6C1713.52 147.719 1713.49 147.686 1713.45 147.637L1712.26 146.222H1711.53V147.621C1711.53 147.694 1711.5 147.719 1711.44 147.719H1711.13C1711.05 147.719 1711.03 147.686 1711.03 147.621V143.651C1711.03 143.586 1711.06 143.554 1711.13 143.554H1712.34H1712.33ZM1712.31 145.758C1713.19 145.758 1713.5 145.482 1713.5 144.896C1713.5 144.278 1713.16 144.026 1712.32 144.026H1711.53V145.758H1712.31H1712.31Z" fill="white"/>
<path d="M1717.02 143.554C1717.11 143.554 1717.13 143.586 1717.15 143.651L1718.64 147.621C1718.66 147.678 1718.63 147.719 1718.57 147.719H1718.23C1718.16 147.719 1718.14 147.686 1718.11 147.629L1717.74 146.637H1715.92L1715.54 147.629C1715.52 147.686 1715.5 147.719 1715.44 147.719H1715.09C1715.02 147.719 1714.99 147.67 1715.01 147.621L1716.49 143.651C1716.52 143.586 1716.53 143.554 1716.62 143.554H1717.02ZM1717.57 146.173L1716.84 144.058H1716.83L1716.08 146.173H1717.58H1717.57Z" fill="white"/>
<path d="M1720.03 147.719C1719.96 147.719 1719.93 147.686 1719.93 147.621V143.651C1719.93 143.586 1719.97 143.554 1720.03 143.554H1721.51C1722.57 143.554 1723.04 143.912 1723.04 144.628C1723.04 145.197 1722.75 145.449 1722.44 145.522C1722.84 145.612 1723.19 145.897 1723.19 146.539C1723.19 147.377 1722.67 147.719 1721.54 147.719H1720.03ZM1721.53 145.343C1722.28 145.343 1722.54 145.148 1722.54 144.668C1722.54 144.188 1722.26 144.017 1721.5 144.017H1720.43V145.343H1721.52H1721.53ZM1721.5 147.255C1722.37 147.255 1722.68 147.076 1722.68 146.515C1722.68 146.002 1722.41 145.799 1721.55 145.799H1720.44V147.263H1721.5L1721.5 147.255Z" fill="white"/>
<path d="M1726.32 143.554C1726.41 143.554 1726.42 143.586 1726.45 143.651L1727.93 147.621C1727.95 147.678 1727.93 147.719 1727.86 147.719H1727.52C1727.46 147.719 1727.43 147.686 1727.41 147.629L1727.03 146.637H1725.21L1724.84 147.629C1724.81 147.686 1724.8 147.719 1724.73 147.719H1724.38C1724.32 147.719 1724.28 147.67 1724.3 147.621L1725.79 143.651C1725.81 143.586 1725.83 143.554 1725.92 143.554H1726.32ZM1726.87 146.173L1726.13 144.058H1726.12L1725.37 146.173H1726.88H1726.87Z" fill="white"/>
<path d="M1729.73 147.247H1731.52C1731.59 147.247 1731.62 147.279 1731.62 147.336V147.621C1731.62 147.694 1731.59 147.719 1731.52 147.719H1729.31C1729.24 147.719 1729.22 147.686 1729.22 147.621V143.651C1729.22 143.586 1729.25 143.554 1729.31 143.554H1729.62C1729.69 143.554 1729.72 143.586 1729.72 143.651V147.247H1729.73Z" fill="white"/>
<path d="M1735.65 145.823H1733.52V147.613C1733.52 147.686 1733.49 147.711 1733.42 147.711H1733.11C1733.04 147.711 1733.01 147.678 1733.01 147.613V143.643C1733.01 143.578 1733.05 143.546 1733.11 143.546H1733.42C1733.49 143.546 1733.52 143.578 1733.52 143.643V145.352H1735.65V143.643C1735.65 143.578 1735.68 143.546 1735.75 143.546H1736.06C1736.13 143.546 1736.16 143.578 1736.16 143.643V147.613C1736.16 147.686 1736.13 147.711 1736.06 147.711H1735.75C1735.68 147.711 1735.65 147.678 1735.65 147.613V145.823Z" fill="white"/>
<path d="M1739.47 143.554C1739.56 143.554 1739.57 143.586 1739.6 143.651L1741.08 147.621C1741.1 147.678 1741.08 147.719 1741.01 147.719H1740.67C1740.6 147.719 1740.58 147.686 1740.56 147.629L1740.18 146.637H1738.36L1737.99 147.629C1737.96 147.686 1737.95 147.719 1737.88 147.719H1737.53C1737.47 147.719 1737.43 147.67 1737.45 147.621L1738.94 143.651C1738.96 143.586 1738.98 143.554 1739.07 143.554H1739.47ZM1740.01 146.173L1739.27 144.058H1739.26L1738.52 146.173H1740.02H1740.01Z" fill="white"/>
<path d="M1745.53 147.621C1745.53 147.694 1745.5 147.719 1745.44 147.719H1745.11C1745.04 147.719 1745.01 147.694 1744.97 147.637L1742.87 144.392V147.613C1742.87 147.686 1742.84 147.711 1742.78 147.711H1742.48C1742.4 147.711 1742.38 147.678 1742.38 147.613V143.643C1742.38 143.578 1742.41 143.546 1742.48 143.546H1742.79C1742.87 143.546 1742.9 143.562 1742.94 143.619L1745.04 146.865V143.643C1745.04 143.578 1745.07 143.546 1745.13 143.546H1745.44C1745.5 143.546 1745.53 143.578 1745.53 143.635V147.613V147.621Z" fill="white"/>
<path d="M1747.28 147.719C1747.21 147.719 1747.18 147.686 1747.18 147.621V143.651C1747.18 143.586 1747.22 143.554 1747.28 143.554H1748.3C1749.62 143.554 1750.39 144.066 1750.39 145.563C1750.39 147.206 1749.62 147.719 1748.31 147.719H1747.29H1747.28ZM1747.69 144.026V147.247H1748.3C1749.27 147.247 1749.85 146.913 1749.85 145.563C1749.85 144.351 1749.26 144.026 1748.28 144.026H1747.68H1747.69Z" fill="white"/>
<path d="M1755.21 145.636C1755.21 147.011 1754.58 147.783 1753.42 147.783C1752.25 147.783 1751.63 147.019 1751.63 145.636C1751.63 144.253 1752.26 143.488 1753.42 143.488C1754.57 143.488 1755.2 144.261 1755.2 145.636M1754.69 145.636C1754.69 144.554 1754.28 143.952 1753.42 143.952C1752.57 143.952 1752.16 144.554 1752.16 145.636C1752.16 146.718 1752.57 147.32 1753.42 147.32C1754.28 147.32 1754.69 146.718 1754.69 145.636Z" fill="white"/>
<path d="M1759.15 147.719C1759.07 147.719 1759.05 147.686 1759.05 147.621V143.651C1759.05 143.586 1759.08 143.554 1759.15 143.554H1760.3C1761.49 143.554 1762.04 143.969 1762.04 145.002C1762.04 146.035 1761.49 146.442 1760.3 146.442H1759.56V147.621C1759.56 147.686 1759.53 147.719 1759.46 147.719H1759.15H1759.15ZM1760.28 145.978C1761.13 145.978 1761.5 145.726 1761.5 145.002C1761.5 144.278 1761.14 144.017 1760.28 144.017H1759.54V145.97H1760.28V145.978Z" fill="white"/>
<path d="M1764.89 143.554C1764.98 143.554 1765 143.586 1765.02 143.651L1766.51 147.621C1766.52 147.678 1766.5 147.719 1766.43 147.719H1766.09C1766.03 147.719 1766 147.686 1765.98 147.629L1765.6 146.637H1763.78L1763.41 147.629C1763.39 147.686 1763.37 147.719 1763.3 147.719H1762.95C1762.89 147.719 1762.86 147.67 1762.87 147.621L1764.36 143.651C1764.39 143.586 1764.4 143.554 1764.49 143.554H1764.89ZM1765.44 146.173L1764.7 144.058H1764.69L1763.95 146.173H1765.45H1765.44Z" fill="white"/>
<path d="M1769.11 143.554C1770.26 143.554 1770.79 143.985 1770.79 144.896C1770.79 145.677 1770.34 146.084 1769.59 146.173L1770.8 147.588C1770.84 147.645 1770.83 147.719 1770.74 147.719H1770.37C1770.3 147.719 1770.27 147.686 1770.23 147.637L1769.03 146.222H1768.31V147.621C1768.31 147.694 1768.28 147.719 1768.21 147.719H1767.9C1767.83 147.719 1767.81 147.686 1767.81 147.621V143.651C1767.81 143.586 1767.84 143.554 1767.9 143.554H1769.11H1769.11ZM1769.09 145.758C1769.98 145.758 1770.29 145.482 1770.29 144.896C1770.29 144.278 1769.94 144.026 1769.11 144.026H1768.32V145.758H1769.1H1769.09Z" fill="white"/>
<path d="M1773.8 143.554C1773.89 143.554 1773.9 143.586 1773.93 143.651L1775.41 147.621C1775.43 147.678 1775.41 147.719 1775.33 147.719H1774.99C1774.93 147.719 1774.9 147.686 1774.88 147.629L1774.5 146.637H1772.68L1772.31 147.629C1772.28 147.686 1772.27 147.719 1772.2 147.719H1771.85C1771.79 147.719 1771.76 147.67 1771.78 147.621L1773.27 143.651C1773.29 143.586 1773.31 143.554 1773.4 143.554H1773.8ZM1774.35 146.173L1773.61 144.058H1773.6L1772.85 146.173H1774.36H1774.35Z" fill="white"/>
<path d="M1778.74 143.643C1778.74 143.578 1778.77 143.546 1778.83 143.546H1781.53C1781.61 143.546 1781.63 143.578 1781.63 143.643V143.92C1781.63 143.985 1781.6 144.018 1781.53 144.018H1780.44V147.613C1780.44 147.686 1780.41 147.711 1780.35 147.711H1780.04C1779.97 147.711 1779.94 147.678 1779.94 147.613V144.018H1778.85C1778.79 144.018 1778.75 143.985 1778.75 143.92V143.643H1778.74Z" fill="white"/>
<path d="M1786.14 145.636C1786.14 147.011 1785.5 147.783 1784.34 147.783C1783.18 147.783 1782.55 147.019 1782.55 145.636C1782.55 144.253 1783.19 143.488 1784.34 143.488C1785.49 143.488 1786.13 144.261 1786.13 145.636M1785.62 145.636C1785.62 144.554 1785.2 143.952 1784.35 143.952C1783.49 143.952 1783.08 144.554 1783.08 145.636C1783.08 146.718 1783.49 147.32 1784.35 147.32C1785.2 147.32 1785.62 146.718 1785.62 145.636Z" fill="white"/>
<path d="M1787.69 147.719C1787.61 147.719 1787.59 147.686 1787.59 147.621V143.651C1787.59 143.586 1787.62 143.554 1787.69 143.554H1788.71C1790.03 143.554 1790.79 144.066 1790.79 145.563C1790.79 147.206 1790.03 147.719 1788.72 147.719H1787.69H1787.69ZM1788.1 144.026V147.247H1788.71C1789.69 147.247 1790.26 146.913 1790.26 145.563C1790.26 144.351 1789.68 144.026 1788.69 144.026H1788.09H1788.1Z" fill="white"/>
<path d="M1795.63 145.636C1795.63 147.011 1795 147.783 1793.83 147.783C1792.67 147.783 1792.04 147.019 1792.04 145.636C1792.04 144.253 1792.68 143.488 1793.83 143.488C1794.99 143.488 1795.62 144.261 1795.62 145.636M1795.1 145.636C1795.1 144.554 1794.69 143.952 1793.83 143.952C1792.98 143.952 1792.57 144.554 1792.57 145.636C1792.57 146.718 1792.98 147.32 1793.83 147.32C1794.69 147.32 1795.1 146.718 1795.1 145.636Z" fill="white"/>
<path d="M1798.07 147.767C1797.59 147.767 1797.13 147.686 1796.9 147.58C1796.84 147.548 1796.81 147.523 1796.82 147.466L1796.92 147.198C1796.93 147.141 1796.96 147.1 1797.04 147.141C1797.26 147.23 1797.63 147.312 1798.06 147.312C1798.7 147.312 1799.11 147.084 1799.11 146.645C1799.11 146.173 1798.64 145.994 1798.11 145.782C1797.48 145.53 1796.93 145.311 1796.93 144.562C1796.93 143.895 1797.36 143.48 1798.36 143.48C1798.81 143.48 1799.16 143.562 1799.38 143.651C1799.44 143.676 1799.47 143.708 1799.46 143.765L1799.36 144.025C1799.34 144.082 1799.32 144.107 1799.24 144.082C1799.02 144.001 1798.77 143.944 1798.39 143.944C1797.71 143.944 1797.43 144.156 1797.43 144.562C1797.43 145.026 1797.86 145.148 1798.37 145.368C1799.01 145.644 1799.63 145.888 1799.63 146.653C1799.63 147.417 1799.02 147.759 1798.07 147.759" fill="white"/>
<path d="M1705.29 185.774C1704.16 186.547 1702.66 186.929 1700.77 186.929C1698.63 186.929 1696.95 186.628 1695.75 186.026C1695.41 185.856 1695.29 185.628 1695.4 185.335L1695.95 183.855C1696.07 183.48 1696.31 183.367 1696.65 183.505C1697.77 183.968 1698.99 184.196 1700.33 184.196C1701.38 184.196 1702.21 184.034 1702.82 183.708C1703.43 183.383 1703.74 182.895 1703.74 182.252C1703.74 181.992 1703.68 181.748 1703.54 181.52C1703.41 181.292 1703.28 181.113 1703.13 180.975C1702.98 180.837 1702.73 180.674 1702.37 180.487C1702.02 180.3 1701.74 180.17 1701.53 180.08C1701.32 179.991 1700.97 179.861 1700.47 179.674C1699.84 179.438 1699.34 179.251 1698.99 179.096C1698.63 178.941 1698.21 178.714 1697.73 178.413C1697.25 178.112 1696.88 177.803 1696.62 177.485C1696.37 177.168 1696.14 176.761 1695.94 176.265C1695.75 175.769 1695.65 175.216 1695.65 174.598C1695.65 171.629 1697.61 170.148 1701.54 170.148C1703.31 170.148 1704.79 170.417 1705.96 170.962C1706.3 171.132 1706.41 171.36 1706.31 171.661L1705.77 173.101C1705.63 173.443 1705.38 173.548 1705.03 173.426C1704.15 173.085 1703.09 172.914 1701.84 172.914C1699.88 172.914 1698.9 173.5 1698.9 174.679C1698.9 175.379 1699.33 175.948 1700.21 176.395C1700.49 176.534 1701.08 176.786 1701.99 177.16C1702.5 177.363 1702.83 177.494 1702.97 177.559C1703.11 177.624 1703.4 177.754 1703.84 177.949C1704.28 178.152 1704.57 178.307 1704.72 178.413C1704.86 178.518 1705.1 178.689 1705.42 178.909C1705.75 179.129 1705.97 179.348 1706.1 179.543C1706.22 179.747 1706.37 179.991 1706.54 180.275C1706.71 180.56 1706.82 180.869 1706.89 181.203C1706.95 181.536 1706.98 181.902 1706.98 182.301C1706.98 183.846 1706.41 185.01 1705.28 185.782L1705.29 185.774Z" fill="white"/>
<path d="M1712.07 179.744V183.942H1718.65C1719.03 183.942 1719.22 184.129 1719.22 184.495V186.138C1719.22 186.529 1719.03 186.716 1718.65 186.716H1709.44C1709.05 186.716 1708.87 186.52 1708.87 186.138V170.951C1708.87 170.577 1709.05 170.398 1709.42 170.398H1718.55C1718.94 170.398 1719.13 170.585 1719.13 170.951V172.594C1719.13 172.977 1718.93 173.172 1718.55 173.172H1712.06V177.044H1718.25C1718.62 177.044 1718.8 177.239 1718.8 177.621V179.151C1718.8 179.533 1718.61 179.728 1718.25 179.728H1712.06L1712.07 179.744Z" fill="white"/>
<path d="M1731.56 183.429C1731.92 183.29 1732.18 183.396 1732.35 183.754L1733 185.194C1733.1 185.454 1733 185.69 1732.65 185.893C1731.53 186.617 1730.06 186.983 1728.23 186.983C1725.83 186.983 1723.97 186.276 1722.66 184.852C1721.34 183.429 1720.67 181.338 1720.67 178.572C1720.67 175.807 1721.32 173.708 1722.63 172.276C1723.94 170.845 1725.76 170.129 1728.11 170.129C1729.89 170.129 1731.35 170.479 1732.49 171.17C1732.82 171.39 1732.92 171.626 1732.82 171.886L1732.19 173.301C1732.05 173.659 1731.79 173.749 1731.4 173.578C1730.57 173.196 1729.64 173 1728.62 173C1727.05 173 1725.88 173.456 1725.11 174.367C1724.35 175.278 1723.97 176.677 1723.97 178.564C1723.97 180.451 1724.36 181.842 1725.14 182.745C1725.92 183.648 1727.12 184.104 1728.74 184.104C1729.79 184.104 1730.73 183.876 1731.57 183.429H1731.56Z" fill="white"/>
<path d="M1746.83 172.252C1748.09 173.675 1748.72 175.774 1748.72 178.556C1748.72 181.338 1748.09 183.437 1746.83 184.852C1745.57 186.267 1743.78 186.975 1741.47 186.975C1739.15 186.975 1737.39 186.267 1736.13 184.844C1734.88 183.42 1734.26 181.33 1734.26 178.564C1734.26 175.799 1734.88 173.684 1736.14 172.26C1737.4 170.837 1739.18 170.129 1741.48 170.129C1743.78 170.129 1745.56 170.837 1746.82 172.26L1746.83 172.252ZM1745.41 178.556C1745.41 174.814 1744.1 172.943 1741.49 172.943C1738.88 172.943 1737.55 174.814 1737.55 178.556C1737.55 182.298 1738.87 184.144 1741.49 184.144C1744.12 184.144 1745.41 182.282 1745.41 178.556Z" fill="white"/>
<path d="M1758.08 182.478L1753.98 175.75V186.138C1753.98 186.529 1753.79 186.716 1753.42 186.716H1751.41C1751.02 186.716 1750.83 186.52 1750.83 186.138V170.951C1750.83 170.577 1751.03 170.398 1751.41 170.398H1753.37C1753.7 170.398 1753.92 170.504 1754.05 170.723L1758.59 178.191L1763.14 170.723C1763.26 170.504 1763.48 170.398 1763.79 170.398H1765.78C1766.16 170.398 1766.36 170.585 1766.36 170.951V186.138C1766.36 186.529 1766.16 186.716 1765.78 186.716H1763.76C1763.39 186.716 1763.21 186.52 1763.21 186.138V175.75L1759.11 182.478C1758.99 182.681 1758.82 182.779 1758.6 182.779C1758.37 182.779 1758.2 182.681 1758.09 182.478H1758.08Z" fill="white"/>
</g>
<path d="M127.885 435.042H139.405C145.645 435.042 150.061 434.082 152.749 432.066C155.437 430.05 156.781 426.786 156.781 422.37C156.781 417.762 155.437 414.498 152.749 412.482C150.061 410.562 145.645 409.506 139.597 409.506H127.885V435.042ZM119.341 400.194H139.789C149.101 400.194 156.013 402.018 160.525 405.57C165.037 409.218 167.341 414.786 167.341 422.37C167.341 434.178 161.293 440.994 149.197 442.914L167.341 465.186C167.725 465.762 167.821 466.242 167.629 466.818C167.437 467.394 166.957 467.682 166.189 467.682H158.893C157.741 467.682 156.781 467.202 156.013 466.146L138.349 444.258H127.885V465.762C127.885 467.106 127.213 467.682 125.869 467.682H119.341C117.997 467.682 117.325 467.106 117.325 465.762V402.114C117.325 400.866 117.997 400.194 119.341 400.194ZM220.259 434.562V465.858C220.259 467.106 219.587 467.682 218.339 467.682H212.867C211.715 467.682 211.139 467.202 211.043 466.05L210.851 460.002C207.395 465.762 201.443 468.546 192.803 468.546C187.619 468.546 183.491 467.298 180.611 464.802C177.635 462.306 176.195 458.754 176.195 454.338C176.195 451.65 176.771 449.346 177.923 447.33C179.075 445.314 180.515 443.682 182.435 442.53C184.355 441.378 186.755 440.322 189.827 439.554C192.899 438.786 195.971 438.306 199.235 438.018C202.403 437.73 206.147 437.538 210.563 437.442V434.946C210.563 431.49 209.603 428.898 207.779 427.266C205.859 425.634 202.787 424.77 198.563 424.77C193.379 424.77 188.387 425.826 183.587 427.842C182.531 428.226 181.763 427.842 181.379 426.69L179.939 422.082C179.651 421.218 180.035 420.546 180.995 420.066C186.275 417.666 192.515 416.418 199.619 416.418C206.723 416.418 211.907 417.954 215.267 421.026C218.531 424.098 220.259 428.61 220.259 434.562ZM210.563 448.386V444.162C206.435 444.354 203.075 444.546 200.579 444.738C198.083 445.026 195.491 445.506 192.995 446.082C190.499 446.754 188.675 447.714 187.523 448.962C186.371 450.306 185.795 451.842 185.795 453.762C185.795 455.97 186.563 457.794 188.291 459.138C189.923 460.482 192.323 461.154 195.395 461.154C200.195 461.154 203.939 460.002 206.627 457.506C209.219 455.106 210.563 452.034 210.563 448.386ZM277.9 434.754V465.858C277.9 467.106 277.228 467.682 275.98 467.682H269.74C268.492 467.682 267.916 467.106 267.916 465.858V436.386C267.916 432.738 267.052 429.954 265.324 428.034C263.596 426.21 260.812 425.25 256.972 425.25C252.844 425.25 249.58 426.498 247.276 428.802C244.876 431.202 243.724 434.37 243.724 438.306V465.858C243.724 467.106 243.052 467.682 241.9 467.682H235.564C234.412 467.682 233.836 467.106 233.836 465.858V419.394C233.836 418.242 234.412 417.57 235.564 417.57H241.516C242.668 417.57 243.34 418.146 243.34 419.202L243.628 424.962C246.7 419.298 252.268 416.418 260.236 416.418C266.092 416.418 270.508 418.05 273.484 421.314C276.364 424.578 277.9 428.994 277.9 434.754ZM331.908 467.682H323.748C322.692 467.682 321.828 467.298 321.06 466.338L301.86 445.794V465.858C301.86 467.106 301.188 467.682 300.036 467.682H293.7C292.452 467.682 291.876 467.106 291.876 465.858V401.922C291.876 400.77 292.452 400.194 293.7 400.194H300.036C301.188 400.194 301.86 400.77 301.86 401.922V434.466L320.388 418.626C321.06 417.954 321.924 417.57 322.98 417.57H331.044C331.716 417.57 332.196 417.858 332.388 418.338C332.58 418.914 332.388 419.394 331.812 419.874L308.484 439.746L332.868 465.474C333.252 465.954 333.348 466.434 333.156 466.914C332.964 467.49 332.484 467.682 331.908 467.682ZM351.731 419.394V465.858C351.731 467.106 351.059 467.682 349.907 467.682H343.571C342.323 467.682 341.747 467.106 341.747 465.858V419.394C341.747 418.242 342.323 417.57 343.571 417.57H349.907C351.059 417.57 351.731 418.242 351.731 419.394ZM351.731 402.306V409.602C351.731 410.946 351.059 411.522 349.907 411.522H343.475C342.323 411.522 341.747 410.946 341.747 409.602V402.306C341.747 401.154 342.323 400.482 343.475 400.482H349.907C351.059 400.482 351.731 401.154 351.731 402.306ZM409.994 434.754V465.858C409.994 467.106 409.322 467.682 408.074 467.682H401.834C400.586 467.682 400.01 467.106 400.01 465.858V436.386C400.01 432.738 399.146 429.954 397.418 428.034C395.69 426.21 392.906 425.25 389.066 425.25C384.938 425.25 381.674 426.498 379.37 428.802C376.97 431.202 375.818 434.37 375.818 438.306V465.858C375.818 467.106 375.146 467.682 373.994 467.682H367.658C366.506 467.682 365.93 467.106 365.93 465.858V419.394C365.93 418.242 366.506 417.57 367.658 417.57H373.61C374.762 417.57 375.434 418.146 375.434 419.202L375.722 424.962C378.794 419.298 384.362 416.418 392.33 416.418C398.186 416.418 402.602 418.05 405.578 421.314C408.458 424.578 409.994 428.994 409.994 434.754ZM457.186 439.17C457.186 434.178 456.034 430.53 453.73 428.034C451.426 425.538 448.258 424.29 444.13 424.29C435.49 424.29 431.266 429.474 431.266 439.746C431.266 450.018 435.49 455.106 444.13 455.106C448.162 455.106 451.426 453.762 453.73 451.074C456.034 448.386 457.186 444.354 457.186 439.17ZM466.978 419.394V459.906C466.978 466.242 464.866 471.042 460.834 474.402C456.706 477.762 451.042 479.394 443.842 479.394C436.162 479.394 430.402 478.434 426.658 476.514C425.506 475.938 425.122 475.266 425.506 474.498L427.042 469.986C427.33 468.834 428.098 468.45 429.25 468.834C433.666 470.466 438.274 471.234 443.266 471.234C447.682 471.234 451.234 470.274 453.73 468.162C456.226 466.05 457.474 463.17 457.474 459.426V454.53C456.13 457.218 454.114 459.234 451.33 460.578C448.546 462.018 445.474 462.69 442.018 462.69C435.682 462.69 430.69 460.866 426.946 457.026C423.106 453.282 421.282 447.522 421.282 439.746C421.282 431.97 423.106 426.114 426.85 422.274C430.498 418.434 435.49 416.418 441.634 416.418C444.994 416.418 448.162 417.186 451.138 418.722C454.018 420.258 456.13 422.178 457.378 424.482L457.57 419.202C457.666 418.146 458.242 417.57 459.394 417.57H465.25C466.402 417.57 466.978 418.242 466.978 419.394ZM162.925 554.674C162.925 561.394 160.429 566.482 155.629 569.746C150.829 573.01 144.493 574.642 136.813 574.642C127.597 574.642 120.301 573.298 114.829 570.418C113.293 569.65 112.717 568.498 113.293 566.962L115.981 559.666C116.557 557.938 117.709 557.362 119.533 558.034C123.949 559.954 128.845 560.914 134.125 560.914C142.285 560.914 146.413 558.802 146.413 554.482C146.413 553.138 145.741 551.986 144.589 550.834C143.437 549.682 142.093 548.818 140.749 548.242C139.405 547.666 137.293 546.802 134.413 545.746C131.821 544.882 129.805 544.114 128.269 543.442C126.733 542.77 124.909 541.81 122.893 540.562C120.781 539.314 119.245 537.97 118.093 536.626C116.941 535.282 115.981 533.458 115.213 531.25C114.445 529.138 114.061 526.642 114.061 523.858C114.061 517.522 116.173 512.818 120.493 509.65C124.813 506.482 131.053 504.85 139.213 504.85C147.085 504.85 153.517 506.194 158.509 508.69C160.045 509.65 160.621 510.802 160.141 512.146L157.453 519.058C156.781 520.786 155.629 521.362 153.901 520.69C149.965 519.346 145.645 518.674 140.845 518.674C133.933 518.674 130.573 520.594 130.573 524.338C130.573 525.202 130.765 525.97 131.149 526.738C131.533 527.506 132.013 528.082 132.493 528.466C132.973 528.946 133.837 529.522 135.085 530.098C136.333 530.77 137.293 531.25 138.061 531.538C138.829 531.922 140.077 532.402 141.997 533.074C144.301 534.034 145.837 534.61 146.701 534.898C147.469 535.282 148.909 535.858 150.829 536.722C152.749 537.682 154.093 538.45 154.861 539.026C155.629 539.698 156.685 540.562 158.029 541.714C159.277 542.866 160.141 544.018 160.717 545.17C161.293 546.322 161.773 547.762 162.253 549.394C162.637 551.026 162.925 552.754 162.925 554.674ZM199.196 563.794C203.516 563.794 207.74 562.834 211.772 560.914C213.404 560.146 214.556 560.722 215.228 562.546L216.956 567.634C217.34 569.074 216.86 570.13 215.324 570.898C210.044 573.586 204.188 574.834 197.852 574.834C188.924 574.834 182.012 572.53 177.116 567.922C172.22 563.314 169.82 556.69 169.82 548.146C169.82 539.698 172.028 533.074 176.636 528.466C181.148 523.858 187.292 521.458 195.164 521.458C202.652 521.458 208.604 523.762 212.828 528.178C217.052 532.69 219.164 538.642 219.164 546.13V550.834C219.164 552.562 218.204 553.426 216.476 553.426H185.276C185.852 556.69 187.292 559.282 189.692 561.106C192.092 562.93 195.26 563.794 199.196 563.794ZM195.452 532.498C188.924 532.498 185.372 536.53 184.796 544.498H205.244V543.826C205.244 540.274 204.38 537.49 202.748 535.474C201.02 533.554 198.62 532.498 195.452 532.498ZM226.351 548.05C226.351 539.41 228.655 532.882 233.359 528.274C238.063 523.762 244.495 521.458 252.655 521.458C259.183 521.458 264.271 522.61 268.015 524.914C269.551 525.874 270.031 527.026 269.455 528.466L266.767 534.61C266.095 536.146 264.847 536.626 262.927 535.858C260.143 534.706 257.359 534.13 254.479 534.13C246.319 534.13 242.287 538.834 242.287 548.05C242.287 552.85 243.343 556.306 245.455 558.61C247.567 560.914 250.639 562.066 254.479 562.066C257.839 562.066 260.815 561.394 263.407 560.05C265.135 559.282 266.383 559.762 267.151 561.394L269.839 567.442C270.415 568.882 269.935 570.13 268.399 571.09C266.767 572.146 264.559 573.01 261.679 573.682C258.799 574.45 255.919 574.738 253.039 574.738C244.783 574.738 238.255 572.53 233.455 567.922C228.655 563.41 226.351 556.786 226.351 548.05ZM281.118 522.61H290.43C291.966 522.61 292.926 523.378 293.118 524.914L293.886 531.442C295.038 528.946 296.862 526.834 299.454 524.914C302.046 522.994 305.118 522.034 308.574 522.034C310.206 522.034 311.07 522.898 311.07 524.434V534.994C311.07 536.434 310.302 537.106 308.766 537.106C308.382 537.106 307.902 537.106 307.134 537.01C306.366 537.01 305.79 536.914 305.214 536.914C301.758 536.914 299.07 538.066 297.054 540.37C295.038 542.674 294.078 545.65 294.078 549.106V570.994C294.078 572.818 293.214 573.682 291.486 573.682H281.118C279.294 573.682 278.43 572.818 278.43 570.994V525.202C278.43 523.474 279.294 522.61 281.118 522.61ZM345.727 563.794C350.047 563.794 354.271 562.834 358.303 560.914C359.935 560.146 361.087 560.722 361.759 562.546L363.487 567.634C363.871 569.074 363.391 570.13 361.855 570.898C356.575 573.586 350.719 574.834 344.383 574.834C335.455 574.834 328.543 572.53 323.647 567.922C318.751 563.314 316.351 556.69 316.351 548.146C316.351 539.698 318.559 533.074 323.167 528.466C327.679 523.858 333.823 521.458 341.695 521.458C349.183 521.458 355.135 523.762 359.359 528.178C363.583 532.69 365.695 538.642 365.695 546.13V550.834C365.695 552.562 364.735 553.426 363.007 553.426H331.807C332.383 556.69 333.823 559.282 336.223 561.106C338.623 562.93 341.791 563.794 345.727 563.794ZM341.983 532.498C335.455 532.498 331.903 536.53 331.327 544.498H351.775V543.826C351.775 540.274 350.911 537.49 349.279 535.474C347.551 533.554 345.151 532.498 341.983 532.498ZM401.874 535.57H392.562V556.594C392.562 558.898 392.946 560.53 393.714 561.394C394.482 562.258 396.018 562.642 398.322 562.642C398.802 562.642 399.474 562.642 400.242 562.45C401.01 562.258 401.682 562.162 402.162 562.162C403.506 562.162 404.274 563.026 404.37 564.562L404.754 570.898C404.754 571.762 404.562 572.338 404.178 572.722C403.794 573.106 403.122 573.394 402.354 573.586C399.858 574.258 397.074 574.546 393.81 574.546C387.954 574.546 383.73 573.394 381.138 570.898C378.45 568.402 377.202 564.274 377.202 558.322V535.57H372.786C370.962 535.57 370.098 534.706 370.098 532.978V526.738C370.098 525.01 370.962 524.05 372.786 524.05H377.394V512.434C377.394 510.898 378.258 510.13 380.082 510.13H389.682C391.41 510.13 392.37 510.898 392.37 512.434V524.05H401.874C403.602 524.05 404.466 525.01 404.466 526.738V532.978C404.466 534.706 403.602 535.57 401.874 535.57ZM457.893 539.698V570.994C457.893 572.818 457.029 573.682 455.301 573.682H446.565C445.029 573.682 444.069 573.01 443.877 571.57L443.301 567.346C439.845 572.146 434.181 574.45 426.405 574.45C421.413 574.45 417.477 573.202 414.501 570.61C411.525 568.114 410.085 564.37 410.085 559.474C410.085 556.69 410.565 554.29 411.621 552.178C412.677 550.162 414.117 548.53 415.845 547.282C417.573 546.13 419.877 545.17 422.853 544.402C425.733 543.73 428.709 543.25 431.685 542.962C434.661 542.674 438.309 542.482 442.725 542.386V540.562C442.725 535.762 439.365 533.362 432.837 533.362C428.421 533.362 423.813 534.322 419.013 536.05C417.285 536.818 416.229 536.242 415.749 534.418L413.829 528.466C413.253 527.026 413.829 525.97 415.365 525.202C421.125 522.706 427.653 521.458 435.141 521.458C450.309 521.458 457.893 527.602 457.893 539.698ZM442.725 554.77V550.738C436.485 550.93 431.973 551.506 429.189 552.562C426.309 553.618 424.965 555.538 424.965 558.418C424.965 560.242 425.541 561.682 426.885 562.738C428.133 563.89 429.861 564.37 432.165 564.37C435.621 564.37 438.309 563.506 440.037 561.778C441.765 560.05 442.725 557.65 442.725 554.77ZM471.711 522.61H481.023C482.559 522.61 483.519 523.378 483.711 524.914L484.479 531.442C485.631 528.946 487.455 526.834 490.047 524.914C492.639 522.994 495.711 522.034 499.167 522.034C500.799 522.034 501.663 522.898 501.663 524.434V534.994C501.663 536.434 500.895 537.106 499.359 537.106C498.975 537.106 498.495 537.106 497.727 537.01C496.959 537.01 496.383 536.914 495.807 536.914C492.351 536.914 489.663 538.066 487.647 540.37C485.631 542.674 484.671 545.65 484.671 549.106V570.994C484.671 572.818 483.807 573.682 482.079 573.682H471.711C469.887 573.682 469.023 572.818 469.023 570.994V525.202C469.023 523.474 469.887 522.61 471.711 522.61ZM525.555 525.202V570.994C525.555 572.818 524.691 573.682 522.963 573.682H512.499C510.771 573.682 509.907 572.818 509.907 570.994V525.202C509.907 523.474 510.771 522.61 512.499 522.61H522.963C524.691 522.61 525.555 523.474 525.555 525.202ZM525.651 508.69V514.738C525.651 516.562 524.787 517.426 523.059 517.426H512.403C510.675 517.426 509.811 516.562 509.811 514.738V508.69C509.811 506.962 510.675 506.098 512.403 506.098H523.059C524.787 506.098 525.651 506.962 525.651 508.69ZM582.393 539.698V570.994C582.393 572.818 581.529 573.682 579.801 573.682H571.065C569.529 573.682 568.569 573.01 568.377 571.57L567.801 567.346C564.345 572.146 558.681 574.45 550.905 574.45C545.913 574.45 541.977 573.202 539.001 570.61C536.025 568.114 534.585 564.37 534.585 559.474C534.585 556.69 535.065 554.29 536.121 552.178C537.177 550.162 538.617 548.53 540.345 547.282C542.073 546.13 544.377 545.17 547.353 544.402C550.233 543.73 553.209 543.25 556.185 542.962C559.161 542.674 562.809 542.482 567.225 542.386V540.562C567.225 535.762 563.865 533.362 557.337 533.362C552.921 533.362 548.313 534.322 543.513 536.05C541.785 536.818 540.729 536.242 540.249 534.418L538.329 528.466C537.753 527.026 538.329 525.97 539.865 525.202C545.625 522.706 552.153 521.458 559.641 521.458C574.809 521.458 582.393 527.602 582.393 539.698ZM567.225 554.77V550.738C560.985 550.93 556.473 551.506 553.689 552.562C550.809 553.618 549.465 555.538 549.465 558.418C549.465 560.242 550.041 561.682 551.385 562.738C552.633 563.89 554.361 564.37 556.665 564.37C560.121 564.37 562.809 563.506 564.537 561.778C566.265 560.05 567.225 557.65 567.225 554.77ZM631.347 559.57C631.347 569.746 624.051 574.738 609.651 574.738C603.219 574.738 597.555 573.874 592.755 571.954C591.123 571.378 590.547 570.322 591.027 568.786L592.659 563.218C593.043 561.586 594.099 561.01 595.923 561.586C599.667 562.834 603.315 563.41 606.963 563.41C612.915 563.41 615.987 561.97 615.987 559.09C615.987 557.746 615.219 556.594 613.875 555.73C612.531 554.962 610.227 554.002 607.059 552.946C601.779 551.218 598.227 549.586 596.403 548.146C592.851 545.554 591.123 541.618 591.123 536.434C591.123 531.442 592.851 527.698 596.403 525.202C599.955 522.706 604.947 521.458 611.475 521.458C617.907 521.458 623.187 522.322 627.315 524.05C628.851 524.722 629.427 525.778 629.043 527.314L627.411 532.69C626.835 534.418 625.779 534.994 624.147 534.418C620.595 533.362 617.139 532.786 613.875 532.786C608.883 532.786 606.483 534.226 606.483 536.914C606.483 538.354 607.155 539.506 608.499 540.274C609.843 541.138 612.243 542.194 615.603 543.346C618.195 544.306 620.211 545.17 621.747 545.842C623.283 546.61 624.819 547.57 626.547 548.818C628.179 550.066 629.427 551.602 630.195 553.33C630.963 555.058 631.347 557.17 631.347 559.57ZM142.477 669.794C146.797 669.794 151.021 668.834 155.053 666.914C156.685 666.146 157.837 666.722 158.509 668.546L160.237 673.634C160.621 675.074 160.141 676.13 158.605 676.898C153.325 679.586 147.469 680.834 141.133 680.834C132.205 680.834 125.293 678.53 120.397 673.922C115.501 669.314 113.101 662.69 113.101 654.146C113.101 645.698 115.309 639.074 119.917 634.466C124.429 629.858 130.573 627.458 138.445 627.458C145.933 627.458 151.885 629.762 156.109 634.178C160.333 638.69 162.445 644.642 162.445 652.13V656.834C162.445 658.562 161.485 659.426 159.757 659.426H128.557C129.133 662.69 130.573 665.282 132.973 667.106C135.373 668.93 138.541 669.794 142.477 669.794ZM138.733 638.498C132.205 638.498 128.653 642.53 128.077 650.498H148.525V649.826C148.525 646.274 147.661 643.49 146.029 641.474C144.301 639.554 141.901 638.498 138.733 638.498ZM218.699 652.994H234.731L226.955 628.13H226.763L218.699 652.994ZM220.043 611.906H233.579C235.211 611.906 236.363 612.77 236.939 614.498L258.347 676.418C258.635 677.378 258.539 678.242 258.155 678.818C257.771 679.394 257.099 679.682 256.235 679.682H244.811C243.083 679.682 242.027 678.818 241.451 677.09L237.899 666.722H215.627L212.171 677.09C211.595 678.818 210.443 679.682 208.907 679.682H197.387C196.427 679.682 195.755 679.394 195.371 678.818C194.987 678.242 194.891 677.378 195.275 676.418L216.683 614.498C217.259 612.77 218.315 611.906 220.043 611.906ZM265.293 662.306V631.202C265.293 629.474 266.157 628.61 267.981 628.61H278.349C280.077 628.61 280.941 629.474 280.941 631.202V659.234C280.941 662.114 281.421 664.322 282.477 665.762C283.533 667.298 285.453 667.97 288.141 667.97C291.021 667.97 293.229 667.106 294.861 665.282C296.397 663.554 297.261 661.154 297.261 658.082V631.202C297.261 629.474 298.125 628.61 299.949 628.61H310.317C312.045 628.61 312.909 629.474 312.909 631.202V676.994C312.909 678.818 312.045 679.682 310.317 679.682H301.005C299.373 679.682 298.413 679.01 298.221 677.57L297.549 673.154C294.381 678.242 289.389 680.738 282.573 680.738C276.621 680.738 272.301 679.298 269.517 676.322C266.637 673.346 265.293 668.642 265.293 662.306ZM351.343 641.57H342.031V662.594C342.031 664.898 342.415 666.53 343.183 667.394C343.951 668.258 345.487 668.642 347.791 668.642C348.271 668.642 348.943 668.642 349.711 668.45C350.479 668.258 351.151 668.162 351.631 668.162C352.975 668.162 353.743 669.026 353.839 670.562L354.223 676.898C354.223 677.762 354.031 678.338 353.647 678.722C353.263 679.106 352.591 679.394 351.823 679.586C349.327 680.258 346.543 680.546 343.279 680.546C337.423 680.546 333.199 679.394 330.607 676.898C327.919 674.402 326.671 670.274 326.671 664.322V641.57H322.255C320.431 641.57 319.567 640.706 319.567 638.978V632.738C319.567 631.01 320.431 630.05 322.255 630.05H326.863V618.434C326.863 616.898 327.727 616.13 329.551 616.13H339.151C340.879 616.13 341.839 616.898 341.839 618.434V630.05H351.343C353.071 630.05 353.935 631.01 353.935 632.738V638.978C353.935 640.706 353.071 641.57 351.343 641.57ZM407.362 645.698V676.994C407.362 678.818 406.498 679.682 404.77 679.682H396.034C394.498 679.682 393.538 679.01 393.346 677.57L392.77 673.346C389.314 678.146 383.65 680.45 375.874 680.45C370.882 680.45 366.946 679.202 363.97 676.61C360.994 674.114 359.554 670.37 359.554 665.474C359.554 662.69 360.034 660.29 361.09 658.178C362.146 656.162 363.586 654.53 365.314 653.282C367.042 652.13 369.346 651.17 372.322 650.402C375.202 649.73 378.178 649.25 381.154 648.962C384.13 648.674 387.778 648.482 392.194 648.386V646.562C392.194 641.762 388.834 639.362 382.306 639.362C377.89 639.362 373.282 640.322 368.482 642.05C366.754 642.818 365.698 642.242 365.218 640.418L363.298 634.466C362.722 633.026 363.298 631.97 364.834 631.202C370.594 628.706 377.122 627.458 384.61 627.458C399.778 627.458 407.362 633.602 407.362 645.698ZM392.194 660.77V656.738C385.954 656.93 381.442 657.506 378.658 658.562C375.778 659.618 374.434 661.538 374.434 664.418C374.434 666.242 375.01 667.682 376.354 668.738C377.602 669.89 379.33 670.37 381.634 670.37C385.09 670.37 387.778 669.506 389.506 667.778C391.234 666.05 392.194 663.65 392.194 660.77ZM421.18 628.61H430.492C432.028 628.61 432.988 629.378 433.18 630.914L433.948 637.442C435.1 634.946 436.924 632.834 439.516 630.914C442.108 628.994 445.18 628.034 448.636 628.034C450.268 628.034 451.132 628.898 451.132 630.434V640.994C451.132 642.434 450.364 643.106 448.828 643.106C448.444 643.106 447.964 643.106 447.196 643.01C446.428 643.01 445.852 642.914 445.276 642.914C441.82 642.914 439.132 644.066 437.116 646.37C435.1 648.674 434.14 651.65 434.14 655.106V676.994C434.14 678.818 433.276 679.682 431.548 679.682H421.18C419.356 679.682 418.492 678.818 418.492 676.994V631.202C418.492 629.474 419.356 628.61 421.18 628.61ZM492.702 654.146C492.702 644.546 489.246 639.65 482.43 639.65C479.07 639.65 476.574 640.802 474.942 643.106C473.214 645.41 472.446 649.058 472.446 654.146C472.446 659.234 473.214 662.882 474.942 665.186C476.574 667.49 479.07 668.546 482.43 668.546C489.246 668.546 492.702 663.746 492.702 654.146ZM493.182 634.946L493.662 630.722C493.854 629.378 494.718 628.61 496.35 628.61H505.566C507.294 628.61 508.254 629.474 508.254 631.202V687.554C508.254 689.378 507.294 690.242 505.566 690.242H495.198C493.47 690.242 492.606 689.378 492.606 687.554V673.826C491.262 676.13 489.246 677.858 486.462 679.01C483.678 680.162 480.702 680.738 477.534 680.738C470.814 680.738 465.63 678.53 461.982 674.018C458.334 669.602 456.51 662.978 456.51 654.146C456.51 645.314 458.334 638.69 461.982 634.178C465.63 629.762 470.814 627.458 477.534 627.458C480.606 627.458 483.678 628.226 486.654 629.57C489.63 630.914 491.838 632.738 493.182 634.946ZM519.075 662.306V631.202C519.075 629.474 519.939 628.61 521.763 628.61H532.131C533.859 628.61 534.723 629.474 534.723 631.202V659.234C534.723 662.114 535.203 664.322 536.259 665.762C537.315 667.298 539.235 667.97 541.923 667.97C544.803 667.97 547.011 667.106 548.643 665.282C550.179 663.554 551.043 661.154 551.043 658.082V631.202C551.043 629.474 551.907 628.61 553.731 628.61H564.099C565.827 628.61 566.691 629.474 566.691 631.202V676.994C566.691 678.818 565.827 679.682 564.099 679.682H554.787C553.155 679.682 552.195 679.01 552.003 677.57L551.331 673.154C548.163 678.242 543.171 680.738 536.355 680.738C530.403 680.738 526.083 679.298 523.299 676.322C520.419 673.346 519.075 668.642 519.075 662.306ZM594.18 631.202V676.994C594.18 678.818 593.316 679.682 591.588 679.682H581.124C579.396 679.682 578.532 678.818 578.532 676.994V631.202C578.532 629.474 579.396 628.61 581.124 628.61H591.588C593.316 628.61 594.18 629.474 594.18 631.202ZM594.276 614.69V620.738C594.276 622.562 593.412 623.426 591.684 623.426H581.028C579.3 623.426 578.436 622.562 578.436 620.738V614.69C578.436 612.962 579.3 612.098 581.028 612.098H591.684C593.412 612.098 594.276 612.962 594.276 614.69ZM651.018 645.698V676.994C651.018 678.818 650.154 679.682 648.426 679.682H639.69C638.154 679.682 637.194 679.01 637.002 677.57L636.426 673.346C632.97 678.146 627.306 680.45 619.53 680.45C614.538 680.45 610.602 679.202 607.626 676.61C604.65 674.114 603.21 670.37 603.21 665.474C603.21 662.69 603.69 660.29 604.746 658.178C605.802 656.162 607.242 654.53 608.97 653.282C610.698 652.13 613.002 651.17 615.978 650.402C618.858 649.73 621.834 649.25 624.81 648.962C627.786 648.674 631.434 648.482 635.85 648.386V646.562C635.85 641.762 632.49 639.362 625.962 639.362C621.546 639.362 616.938 640.322 612.138 642.05C610.41 642.818 609.354 642.242 608.874 640.418L606.954 634.466C606.378 633.026 606.954 631.97 608.49 631.202C614.25 628.706 620.778 627.458 628.266 627.458C643.434 627.458 651.018 633.602 651.018 645.698ZM635.85 660.77V656.738C629.61 656.93 625.098 657.506 622.314 658.562C619.434 659.618 618.09 661.538 618.09 664.418C618.09 666.242 618.666 667.682 620.01 668.738C621.258 669.89 622.986 670.37 625.29 670.37C628.746 670.37 631.434 669.506 633.162 667.778C634.89 666.05 635.85 663.65 635.85 660.77ZM699.972 665.57C699.972 675.746 692.676 680.738 678.276 680.738C671.844 680.738 666.18 679.874 661.38 677.954C659.748 677.378 659.172 676.322 659.652 674.786L661.284 669.218C661.668 667.586 662.724 667.01 664.548 667.586C668.292 668.834 671.94 669.41 675.588 669.41C681.54 669.41 684.612 667.97 684.612 665.09C684.612 663.746 683.844 662.594 682.5 661.73C681.156 660.962 678.852 660.002 675.684 658.946C670.404 657.218 666.852 655.586 665.028 654.146C661.476 651.554 659.748 647.618 659.748 642.434C659.748 637.442 661.476 633.698 665.028 631.202C668.58 628.706 673.572 627.458 680.1 627.458C686.532 627.458 691.812 628.322 695.94 630.05C697.476 630.722 698.052 631.778 697.668 633.314L696.036 638.69C695.46 640.418 694.404 640.994 692.772 640.418C689.22 639.362 685.764 638.786 682.5 638.786C677.508 638.786 675.108 640.226 675.108 642.914C675.108 644.354 675.78 645.506 677.124 646.274C678.468 647.138 680.868 648.194 684.228 649.346C686.82 650.306 688.836 651.17 690.372 651.842C691.908 652.61 693.444 653.57 695.172 654.818C696.804 656.066 698.052 657.602 698.82 659.33C699.588 661.058 699.972 663.17 699.972 665.57Z" fill="#121726"/>
</g>
<defs>
<clipPath id="clip0_2024_3207">
<rect width="1920" height="1080" fill="white"/>
</clipPath>
<clipPath id="clip1_2024_3207">
<rect width="70.6888" height="73.1264" fill="white" transform="translate(109.453 903.079)"/>
</clipPath>
<clipPath id="clip2_2024_3207">
<rect width="72.9691" height="72.9691" fill="white" transform="translate(212.142 903.158)"/>
</clipPath>
<clipPath id="clip3_2024_3207">
<rect width="116.595" height="132.257" fill="white" transform="translate(1694.25 54.7268)"/>
</clipPath>
</defs>
</svg>
