<svg width="1920" height="1081" viewBox="0 0 1920 1081" fill="none" xmlns="http://www.w3.org/2000/svg">
<g clip-path="url(#clip0_2024_3224)">
<rect width="1920" height="1080" transform="translate(0 0.115234)" fill="white"/>
<rect x="675.463" y="813.091" width="949.113" height="526.481" rx="36.4846" transform="rotate(3.5308 675.463 813.091)" fill="#FEBD11"/>
<rect x="-22.124" y="878.054" width="857.584" height="591.044" rx="36.4846" transform="rotate(-12.8261 -22.124 878.054)" fill="#D91A21"/>
<rect x="1308.88" y="760.243" width="761.615" height="761.615" rx="45.6057" transform="rotate(-14.1807 1308.88 760.243)" fill="#006395"/>
<rect x="-241.583" y="530.336" width="547.95" height="519.261" rx="36.4846" transform="rotate(21.9325 -241.583 530.336)" fill="#45B649"/>
<path d="M1081.27 527.992C1080.36 528.604 1079.16 528.923 1077.66 528.923C1075.93 528.923 1074.59 528.681 1073.64 528.196C1073.37 528.056 1073.27 527.877 1073.36 527.634L1073.8 526.448C1073.9 526.154 1074.08 526.052 1074.36 526.167C1075.26 526.537 1076.24 526.728 1077.31 526.728C1078.15 526.728 1078.82 526.601 1079.3 526.333C1079.79 526.077 1080.03 525.682 1080.03 525.159C1080.03 524.954 1079.98 524.75 1079.88 524.572C1079.77 524.393 1079.66 524.253 1079.55 524.138C1079.43 524.023 1079.23 523.895 1078.95 523.742C1078.66 523.589 1078.43 523.487 1078.27 523.423C1078.1 523.359 1077.82 523.244 1077.43 523.104C1076.92 522.913 1076.52 522.759 1076.24 522.645C1075.96 522.517 1075.61 522.338 1075.23 522.096C1074.84 521.853 1074.54 521.611 1074.34 521.356C1074.13 521.1 1073.96 520.781 1073.8 520.386C1073.65 519.99 1073.57 519.544 1073.57 519.046C1073.57 516.672 1075.14 515.485 1078.28 515.485C1079.7 515.485 1080.89 515.702 1081.82 516.136C1082.08 516.277 1082.19 516.455 1082.1 516.698L1081.68 517.846C1081.56 518.114 1081.37 518.204 1081.09 518.101C1080.39 517.833 1079.53 517.693 1078.54 517.693C1076.97 517.693 1076.19 518.165 1076.19 519.097C1076.19 519.658 1076.55 520.105 1077.25 520.475C1077.47 520.59 1077.95 520.794 1078.68 521.088C1079.09 521.254 1079.34 521.356 1079.46 521.407C1079.57 521.458 1079.8 521.56 1080.14 521.726C1080.5 521.892 1080.73 522.007 1080.85 522.096C1080.96 522.185 1081.15 522.313 1081.41 522.491C1081.66 522.67 1081.84 522.836 1081.94 523.002C1082.05 523.168 1082.16 523.359 1082.3 523.589C1082.44 523.819 1082.53 524.061 1082.58 524.329C1082.63 524.597 1082.66 524.891 1082.66 525.21C1082.66 526.448 1082.21 527.366 1081.31 527.992H1081.27Z" fill="#231F20"/>
<path d="M1086.64 523.181V526.538H1091.91C1092.22 526.538 1092.37 526.691 1092.37 526.984V528.299C1092.37 528.605 1092.22 528.758 1091.91 528.758H1084.55C1084.24 528.758 1084.09 528.605 1084.09 528.299V516.162C1084.09 515.869 1084.24 515.716 1084.53 515.716H1091.83C1092.14 515.716 1092.29 515.869 1092.29 516.162V517.477C1092.29 517.783 1092.14 517.936 1091.83 517.936H1086.64V521.037H1091.59C1091.89 521.037 1092.04 521.191 1092.04 521.497V522.722C1092.04 523.028 1091.89 523.181 1091.59 523.181H1086.64Z" fill="#231F20"/>
<path d="M1102.18 526.129C1102.46 526.014 1102.68 526.103 1102.81 526.384L1103.33 527.532C1103.42 527.749 1103.33 527.928 1103.05 528.094C1102.16 528.681 1100.98 528.962 1099.51 528.962C1097.6 528.962 1096.11 528.387 1095.06 527.252C1094 526.116 1093.48 524.444 1093.48 522.223C1093.48 520.003 1094 518.331 1095.05 517.195C1096.09 516.047 1097.55 515.485 1099.44 515.485C1100.85 515.485 1102.03 515.766 1102.95 516.315C1103.2 516.494 1103.29 516.685 1103.2 516.889L1102.71 518.025C1102.59 518.306 1102.39 518.382 1102.08 518.242C1101.42 517.936 1100.68 517.782 1099.86 517.782C1098.6 517.782 1097.66 518.153 1097.05 518.88C1096.44 519.607 1096.13 520.73 1096.13 522.236C1096.13 523.742 1096.45 524.865 1097.06 525.58C1097.69 526.307 1098.65 526.665 1099.95 526.665C1100.79 526.665 1101.54 526.486 1102.21 526.129H1102.18Z" fill="#231F20"/>
<path d="M1114.36 517.183C1115.37 518.319 1115.86 520.003 1115.86 522.224C1115.86 524.444 1115.37 526.129 1114.36 527.252C1113.35 528.375 1111.92 528.949 1110.07 528.949C1108.22 528.949 1106.8 528.375 1105.81 527.239C1104.81 526.103 1104.3 524.431 1104.3 522.211C1104.3 519.99 1104.8 518.306 1105.81 517.17C1106.81 516.034 1108.24 515.46 1110.08 515.46C1111.92 515.46 1113.35 516.034 1114.36 517.17V517.183ZM1113.21 522.224C1113.21 519.237 1112.16 517.732 1110.07 517.732C1107.98 517.732 1106.92 519.225 1106.92 522.224C1106.92 525.223 1107.96 526.69 1110.07 526.69C1112.17 526.69 1113.21 525.197 1113.21 522.224Z" fill="#231F20"/>
<path d="M1123.31 525.364L1120.03 519.991V528.299C1120.03 528.605 1119.87 528.758 1119.58 528.758H1117.97C1117.66 528.758 1117.51 528.605 1117.51 528.299V516.162C1117.51 515.869 1117.66 515.716 1117.97 515.716H1119.54C1119.8 515.716 1119.97 515.805 1120.08 515.971L1123.71 521.943L1127.35 515.971C1127.45 515.792 1127.62 515.716 1127.87 515.716H1129.47C1129.78 515.716 1129.93 515.869 1129.93 516.162V528.299C1129.93 528.605 1129.78 528.758 1129.47 528.758H1127.86C1127.57 528.758 1127.41 528.605 1127.41 528.299V519.991L1124.13 525.364C1124.03 525.53 1123.91 525.606 1123.73 525.606C1123.54 525.606 1123.41 525.53 1123.32 525.364H1123.31Z" fill="#231F20"/>
<path d="M1080.58 547.173C1079.77 547.76 1078.65 548.067 1077.21 548.067C1075.77 548.067 1074.54 547.875 1073.65 547.492C1073.48 547.416 1073.43 547.326 1073.46 547.212L1073.67 546.625C1073.73 546.471 1073.81 546.433 1073.96 546.497C1074.85 546.854 1075.92 547.033 1077.16 547.033C1078.24 547.033 1079.1 546.829 1079.71 546.408C1080.32 545.986 1080.63 545.412 1080.63 544.659C1080.63 544.264 1080.55 543.919 1080.41 543.626C1080.27 543.332 1080.03 543.064 1079.69 542.834C1079.34 542.605 1079.05 542.426 1078.78 542.286C1078.51 542.145 1078.12 541.979 1077.6 541.762C1077.55 541.762 1077.52 541.737 1077.49 541.724L1077.4 541.673C1077.4 541.673 1077.32 541.635 1077.29 541.622C1076.78 541.418 1076.41 541.252 1076.18 541.15C1075.95 541.048 1075.63 540.882 1075.24 540.652C1074.86 540.422 1074.58 540.193 1074.4 539.976C1074.22 539.759 1074.06 539.465 1073.92 539.108C1073.78 538.751 1073.7 538.355 1073.7 537.908C1073.7 536.9 1074.04 536.109 1074.73 535.535C1075.42 534.96 1076.49 534.68 1077.94 534.68C1079.17 534.68 1080.21 534.858 1081.04 535.216C1081.19 535.267 1081.24 535.356 1081.2 535.471L1080.99 536.045C1080.95 536.198 1080.85 536.237 1080.69 536.173C1079.95 535.879 1079.06 535.726 1078.03 535.726C1075.91 535.726 1074.86 536.454 1074.86 537.896C1074.86 538.113 1074.89 538.304 1074.94 538.483C1074.99 538.661 1075.04 538.814 1075.09 538.942C1075.14 539.07 1075.24 539.21 1075.4 539.338C1075.55 539.465 1075.67 539.58 1075.75 539.657C1075.84 539.733 1076 539.823 1076.21 539.937C1076.43 540.052 1076.6 540.129 1076.7 540.18C1076.8 540.231 1077.01 540.308 1077.29 540.435C1077.57 540.55 1077.76 540.639 1077.86 540.69C1078.24 540.856 1078.46 540.946 1078.52 540.971C1078.57 540.997 1078.78 541.086 1079.12 541.239C1079.47 541.392 1079.69 541.494 1079.76 541.558C1079.84 541.609 1080.02 541.724 1080.28 541.89C1080.55 542.056 1080.72 542.196 1080.81 542.298C1080.88 542.4 1081.01 542.554 1081.19 542.745C1081.37 542.936 1081.47 543.128 1081.54 543.307C1081.59 543.485 1081.65 543.702 1081.7 543.932C1081.75 544.174 1081.79 544.43 1081.79 544.685C1081.79 545.744 1081.38 546.574 1080.58 547.173Z" fill="#231F20"/>
<path d="M1090.35 546.56C1090.49 546.484 1090.6 546.535 1090.67 546.688L1090.86 547.173C1090.9 547.288 1090.86 547.364 1090.71 547.428C1089.84 547.887 1088.86 548.117 1087.76 548.117C1086.3 548.117 1085.15 547.67 1084.32 546.79C1083.5 545.909 1083.08 544.697 1083.08 543.153C1083.08 541.609 1083.46 540.345 1084.22 539.477C1084.97 538.61 1086.02 538.176 1087.36 538.176C1088.7 538.176 1089.65 538.584 1090.35 539.414C1091.06 540.243 1091.41 541.315 1091.41 542.668V543.434C1091.41 543.587 1091.34 543.651 1091.17 543.651H1084.16C1084.22 544.735 1084.56 545.603 1085.2 546.241C1085.84 546.879 1086.7 547.198 1087.81 547.198C1088.77 547.198 1089.61 546.994 1090.35 546.586V546.56ZM1084.15 542.719H1090.34V542.566C1090.34 541.519 1090.09 540.677 1089.58 540.039C1089.07 539.414 1088.33 539.095 1087.33 539.095C1085.3 539.095 1084.24 540.294 1084.14 542.706L1084.15 542.719Z" fill="#231F20"/>
<path d="M1093.97 539.465C1094.76 538.597 1095.83 538.163 1097.19 538.163C1098.25 538.163 1099.12 538.355 1099.78 538.737C1099.94 538.827 1099.99 538.916 1099.94 539.018L1099.72 539.541C1099.67 539.694 1099.57 539.733 1099.4 539.656C1098.8 539.337 1098.1 539.171 1097.31 539.171C1096.22 539.171 1095.38 539.503 1094.78 540.167C1094.18 540.83 1093.89 541.813 1093.89 543.115C1093.89 544.416 1094.18 545.399 1094.78 546.075C1095.37 546.752 1096.2 547.096 1097.24 547.096C1098.13 547.096 1098.88 546.905 1099.53 546.535C1099.67 546.471 1099.76 546.509 1099.81 546.65L1100.03 547.186C1100.07 547.288 1100.01 547.377 1099.86 547.441C1099.16 547.862 1098.29 548.066 1097.27 548.066C1095.89 548.066 1094.79 547.632 1093.99 546.764C1093.19 545.897 1092.79 544.672 1092.79 543.102C1092.79 541.532 1093.19 540.32 1093.98 539.452L1093.97 539.465Z" fill="#231F20"/>
<path d="M1102.64 538.393C1102.8 538.393 1102.86 538.469 1102.86 538.61V540.652C1103.07 540.09 1103.44 539.567 1104 539.082C1104.56 538.597 1105.26 538.354 1106.08 538.354C1106.2 538.354 1106.26 538.406 1106.26 538.52V539.312C1106.26 539.452 1106.19 539.516 1106.05 539.516C1106.05 539.516 1106 539.516 1105.92 539.503C1105.85 539.503 1105.77 539.49 1105.71 539.49C1104.94 539.49 1104.28 539.86 1103.7 540.588C1103.13 541.328 1102.85 542.145 1102.85 543.064V547.683C1102.85 547.836 1102.77 547.9 1102.63 547.9H1102.01C1101.84 547.9 1101.76 547.824 1101.76 547.683V538.635C1101.76 538.469 1101.84 538.393 1102.01 538.393H1102.63H1102.64Z" fill="#231F20"/>
<path d="M1114.55 546.56C1114.69 546.484 1114.79 546.535 1114.87 546.688L1115.06 547.173C1115.1 547.288 1115.06 547.364 1114.91 547.428C1114.04 547.887 1113.06 548.117 1111.96 548.117C1110.49 548.117 1109.34 547.67 1108.51 546.79C1107.7 545.909 1107.28 544.697 1107.28 543.153C1107.28 541.609 1107.66 540.345 1108.41 539.477C1109.16 538.61 1110.21 538.176 1111.55 538.176C1112.89 538.176 1113.85 538.584 1114.55 539.414C1115.25 540.243 1115.61 541.315 1115.61 542.668V543.434C1115.61 543.587 1115.53 543.651 1115.37 543.651H1108.36C1108.41 544.735 1108.76 545.603 1109.39 546.241C1110.03 546.879 1110.9 547.198 1112.01 547.198C1112.97 547.198 1113.81 546.994 1114.55 546.586V546.56ZM1108.36 542.719H1114.55V542.566C1114.55 541.519 1114.29 540.677 1113.78 540.039C1113.27 539.414 1112.53 539.095 1111.54 539.095C1109.51 539.095 1108.45 540.294 1108.35 542.706L1108.36 542.719Z" fill="#231F20"/>
<path d="M1119 539.375V545.042C1119 545.807 1119.12 546.331 1119.36 546.611C1119.59 546.892 1120.04 547.032 1120.68 547.032C1120.87 547.032 1121.17 546.994 1121.61 546.905C1121.72 546.905 1121.8 546.956 1121.82 547.096L1121.98 547.594C1122 547.709 1121.95 547.785 1121.82 547.811C1121.49 547.951 1121.05 548.015 1120.51 548.015C1119.57 548.015 1118.91 547.798 1118.53 547.364C1118.15 546.93 1117.96 546.19 1117.96 545.156V539.375H1116.52C1116.36 539.375 1116.3 539.299 1116.3 539.159V538.635C1116.3 538.469 1116.38 538.393 1116.52 538.393H1117.98V535.93C1117.98 535.777 1118.06 535.713 1118.2 535.713H1118.79C1118.94 535.713 1119 535.789 1119 535.93V538.393H1121.62C1121.77 538.393 1121.84 538.469 1121.84 538.635V539.159C1121.84 539.312 1121.76 539.375 1121.62 539.375H1119Z" fill="#231F20"/>
<path d="M1130.5 547.671C1130.5 547.824 1130.43 547.888 1130.28 547.888H1129.7C1129.56 547.888 1129.49 547.811 1129.49 547.671V546.127C1128.87 547.415 1127.64 548.054 1125.82 548.054C1124.81 548.054 1124.02 547.811 1123.47 547.326C1122.91 546.841 1122.64 546.19 1122.64 545.374C1122.64 544.94 1122.72 544.557 1122.86 544.238C1123.01 543.906 1123.24 543.638 1123.55 543.408C1123.85 543.191 1124.2 543 1124.55 542.86C1124.92 542.719 1125.38 542.604 1125.95 542.515C1126.51 542.426 1127.06 542.362 1127.58 542.324C1128.1 542.285 1128.73 542.26 1129.46 542.247V541.52C1129.46 540.677 1129.25 540.065 1128.86 539.682C1128.46 539.299 1127.78 539.108 1126.84 539.108C1125.82 539.108 1124.8 539.312 1123.8 539.733C1123.65 539.797 1123.56 539.746 1123.52 539.605L1123.36 539.069C1123.32 538.955 1123.36 538.878 1123.48 538.814C1124.53 538.355 1125.68 538.125 1126.92 538.125C1128.15 538.125 1129.09 538.406 1129.66 538.955C1130.23 539.503 1130.51 540.346 1130.51 541.481V547.632L1130.5 547.671ZM1129.44 543.153C1128.78 543.179 1128.26 543.204 1127.89 543.217C1127.52 543.23 1127.07 543.268 1126.55 543.332C1126.02 543.383 1125.63 543.459 1125.35 543.561C1125.07 543.664 1124.77 543.791 1124.49 543.944C1124.21 544.097 1123.99 544.289 1123.87 544.531C1123.74 544.761 1123.69 545.042 1123.69 545.361C1123.69 545.897 1123.88 546.331 1124.27 546.663C1124.66 546.994 1125.23 547.16 1125.98 547.16C1127.08 547.16 1127.94 546.879 1128.54 546.331C1129.14 545.769 1129.44 545.08 1129.44 544.238V543.166V543.153Z" fill="#231F20"/>
<path d="M1133.71 538.393C1133.86 538.393 1133.92 538.469 1133.92 538.61V540.652C1134.13 540.09 1134.5 539.567 1135.06 539.082C1135.62 538.597 1136.32 538.354 1137.14 538.354C1137.27 538.354 1137.32 538.406 1137.32 538.52V539.312C1137.32 539.452 1137.25 539.516 1137.11 539.516C1137.11 539.516 1137.06 539.516 1136.99 539.503C1136.91 539.503 1136.83 539.49 1136.77 539.49C1136 539.49 1135.34 539.86 1134.77 540.588C1134.19 541.328 1133.91 542.145 1133.91 543.064V547.683C1133.91 547.836 1133.83 547.9 1133.69 547.9H1133.07C1132.9 547.9 1132.83 547.824 1132.83 547.683V538.635C1132.83 538.469 1132.9 538.393 1133.07 538.393H1133.69H1133.71Z" fill="#231F20"/>
<path d="M1140 536.81C1140 536.963 1139.92 537.027 1139.78 537.027H1139.13C1138.99 537.027 1138.92 536.95 1138.92 536.81V535.266C1138.92 535.113 1138.99 535.049 1139.13 535.049H1139.78C1139.93 535.049 1140 535.125 1140 535.266V536.81ZM1140 547.67C1140 547.823 1139.92 547.887 1139.78 547.887H1139.13C1138.99 547.887 1138.92 547.81 1138.92 547.67V538.622C1138.92 538.456 1138.99 538.38 1139.13 538.38H1139.78C1139.93 538.38 1140 538.456 1140 538.622V547.67Z" fill="#231F20"/>
<path d="M1149.62 547.671C1149.62 547.824 1149.54 547.888 1149.4 547.888H1148.81C1148.67 547.888 1148.61 547.811 1148.61 547.671V546.127C1147.99 547.415 1146.76 548.054 1144.94 548.054C1143.93 548.054 1143.14 547.811 1142.59 547.326C1142.03 546.841 1141.76 546.19 1141.76 545.374C1141.76 544.94 1141.83 544.557 1141.97 544.238C1142.13 543.906 1142.36 543.638 1142.66 543.408C1142.97 543.191 1143.31 543 1143.67 542.86C1144.04 542.719 1144.5 542.604 1145.06 542.515C1145.62 542.426 1146.17 542.362 1146.7 542.324C1147.22 542.285 1147.85 542.26 1148.57 542.247V541.52C1148.57 540.677 1148.37 540.065 1147.97 539.682C1147.58 539.299 1146.9 539.108 1145.96 539.108C1144.94 539.108 1143.91 539.312 1142.92 539.733C1142.77 539.797 1142.68 539.746 1142.64 539.605L1142.47 539.069C1142.43 538.955 1142.47 538.878 1142.6 538.814C1143.65 538.355 1144.8 538.125 1146.03 538.125C1147.27 538.125 1148.2 538.406 1148.78 538.955C1149.35 539.503 1149.63 540.346 1149.63 541.481V547.632L1149.62 547.671ZM1148.56 543.153C1147.9 543.179 1147.37 543.204 1147 543.217C1146.63 543.23 1146.19 543.268 1145.66 543.332C1145.14 543.383 1144.74 543.459 1144.46 543.561C1144.18 543.664 1143.89 543.791 1143.61 543.944C1143.33 544.097 1143.11 544.289 1142.98 544.531C1142.86 544.761 1142.79 545.042 1142.79 545.361C1142.79 545.897 1142.98 546.331 1143.38 546.663C1143.76 546.994 1144.34 547.16 1145.09 547.16C1146.19 547.16 1147.04 546.879 1147.64 546.331C1148.24 545.769 1148.55 545.08 1148.55 544.238V543.166L1148.56 543.153Z" fill="#231F20"/>
<path d="M1164.17 546.025C1163.59 547.403 1162.42 548.079 1160.63 548.079C1159.32 548.079 1158.3 547.658 1157.57 546.803C1156.83 545.961 1156.47 544.736 1156.47 543.128C1156.47 541.52 1156.84 540.295 1157.57 539.44C1158.3 538.585 1159.33 538.163 1160.63 538.163C1161.48 538.163 1162.2 538.342 1162.82 538.712C1163.43 539.082 1163.87 539.593 1164.16 540.256V535.101C1164.16 534.96 1164.23 534.896 1164.37 534.896H1165C1165.16 534.896 1165.24 534.96 1165.24 535.101V547.671C1165.24 547.824 1165.16 547.888 1165 547.888H1164.37C1164.23 547.888 1164.17 547.811 1164.17 547.671V546.025ZM1163.29 540.167C1162.7 539.478 1161.87 539.133 1160.81 539.133C1158.64 539.133 1157.57 540.473 1157.57 543.14C1157.57 545.808 1158.65 547.122 1160.81 547.122C1161.87 547.122 1162.7 546.778 1163.29 546.088C1163.87 545.399 1164.17 544.417 1164.17 543.128C1164.17 541.839 1163.87 540.856 1163.29 540.167Z" fill="#231F20"/>
<path d="M1174.5 546.56C1174.64 546.484 1174.75 546.535 1174.82 546.688L1175.02 547.173C1175.05 547.288 1175.02 547.364 1174.86 547.428C1173.99 547.887 1173.01 548.117 1171.91 548.117C1170.45 548.117 1169.3 547.67 1168.47 546.79C1167.65 545.909 1167.23 544.697 1167.23 543.153C1167.23 541.609 1167.61 540.345 1168.37 539.477C1169.12 538.61 1170.17 538.176 1171.49 538.176C1172.82 538.176 1173.79 538.584 1174.49 539.414C1175.19 540.23 1175.55 541.315 1175.55 542.668V543.434C1175.55 543.587 1175.47 543.651 1175.31 543.651H1168.3C1168.35 544.735 1168.7 545.603 1169.34 546.241C1169.97 546.879 1170.84 547.198 1171.95 547.198C1172.91 547.198 1173.75 546.994 1174.49 546.586L1174.5 546.56ZM1168.3 542.719H1174.49V542.566C1174.49 541.519 1174.24 540.677 1173.73 540.039C1173.22 539.414 1172.48 539.095 1171.48 539.095C1169.45 539.095 1168.39 540.294 1168.29 542.706L1168.3 542.719Z" fill="#231F20"/>
<path d="M1183.83 541.762V546.841H1189.8C1189.97 546.841 1190.05 546.918 1190.05 547.058V547.645C1190.05 547.811 1189.97 547.888 1189.8 547.888H1182.93C1182.76 547.888 1182.68 547.811 1182.68 547.645V535.113C1182.68 534.96 1182.76 534.896 1182.9 534.896H1189.74C1189.91 534.896 1189.98 534.973 1189.98 535.113V535.7C1189.98 535.866 1189.91 535.943 1189.74 535.943H1183.83V540.703H1189.56C1189.72 540.703 1189.78 540.78 1189.78 540.945V541.507C1189.78 541.673 1189.7 541.749 1189.56 541.749H1183.83V541.762Z" fill="#231F20"/>
<path d="M1194.44 548.079C1193.25 548.079 1192.23 547.9 1191.37 547.543C1191.23 547.479 1191.18 547.402 1191.21 547.326L1191.39 546.79C1191.44 546.637 1191.53 546.598 1191.64 546.662C1192.45 546.981 1193.35 547.147 1194.35 547.147C1195.2 547.147 1195.83 547.019 1196.24 546.764C1196.64 546.509 1196.85 546.088 1196.85 545.526C1196.85 545.246 1196.8 544.99 1196.68 544.786C1196.57 544.582 1196.36 544.39 1196.08 544.212C1195.8 544.033 1195.53 543.906 1195.3 543.816C1195.07 543.727 1194.72 543.587 1194.22 543.395C1194.16 543.37 1194.02 543.319 1193.79 543.242C1193.56 543.165 1193.4 543.102 1193.33 543.076C1193.25 543.051 1193.12 542.987 1192.93 542.91C1192.74 542.834 1192.61 542.77 1192.53 542.719L1192.2 542.502C1192.05 542.4 1191.95 542.31 1191.88 542.234C1191.82 542.157 1191.74 542.055 1191.64 541.927C1191.54 541.8 1191.48 541.685 1191.42 541.557C1191.39 541.43 1191.35 541.289 1191.31 541.124C1191.28 540.958 1191.26 540.779 1191.26 540.6C1191.26 539.005 1192.33 538.214 1194.46 538.214C1195.58 538.214 1196.54 538.393 1197.32 538.75C1197.45 538.814 1197.49 538.89 1197.45 538.992L1197.28 539.49C1197.24 539.618 1197.15 539.656 1197.03 539.618C1196.26 539.311 1195.44 539.158 1194.58 539.158C1193.79 539.158 1193.21 539.273 1192.85 539.503C1192.5 539.733 1192.32 540.103 1192.32 540.6C1192.32 540.817 1192.37 541.021 1192.46 541.213C1192.55 541.404 1192.65 541.545 1192.75 541.66C1192.85 541.774 1193.05 541.889 1193.31 542.03C1193.58 542.17 1193.8 542.259 1193.98 542.323C1194.16 542.387 1194.44 542.489 1194.84 542.617C1195.33 542.795 1195.73 542.948 1196.03 543.102C1196.34 543.255 1196.66 543.433 1196.98 543.663C1197.29 543.893 1197.54 544.161 1197.69 544.467C1197.84 544.773 1197.92 545.131 1197.92 545.539C1197.92 547.262 1196.75 548.117 1194.41 548.117L1194.44 548.079Z" fill="#231F20"/>
<path d="M1201.23 539.375V545.042C1201.23 545.807 1201.34 546.331 1201.59 546.611C1201.82 546.892 1202.26 547.032 1202.9 547.032C1203.09 547.032 1203.4 546.994 1203.83 546.905C1203.95 546.905 1204.02 546.956 1204.05 547.096L1204.2 547.594C1204.23 547.709 1204.18 547.785 1204.05 547.811C1203.72 547.951 1203.27 548.015 1202.73 548.015C1201.79 548.015 1201.14 547.798 1200.76 547.364C1200.37 546.93 1200.18 546.19 1200.18 545.156V539.375H1198.74C1198.59 539.375 1198.52 539.299 1198.52 539.159V538.635C1198.52 538.469 1198.6 538.393 1198.74 538.393H1200.21V535.93C1200.21 535.777 1200.28 535.713 1200.42 535.713H1201.01C1201.17 535.713 1201.23 535.789 1201.23 535.93V538.393H1203.85C1204 538.393 1204.06 538.469 1204.06 538.635V539.159C1204.06 539.312 1203.99 539.375 1203.85 539.375H1201.23Z" fill="#231F20"/>
<path d="M1212.71 547.671C1212.71 547.824 1212.64 547.888 1212.5 547.888H1211.91C1211.77 547.888 1211.7 547.811 1211.7 547.671V546.127C1211.08 547.415 1209.85 548.054 1208.03 548.054C1207.02 548.054 1206.23 547.811 1205.68 547.326C1205.12 546.841 1204.85 546.19 1204.85 545.374C1204.85 544.94 1204.93 544.557 1205.07 544.238C1205.22 543.906 1205.45 543.638 1205.76 543.408C1206.06 543.191 1206.41 543 1206.77 542.86C1207.14 542.719 1207.6 542.604 1208.16 542.515C1208.72 542.426 1209.27 542.362 1209.79 542.324C1210.31 542.285 1210.94 542.26 1211.67 542.247V541.52C1211.67 540.677 1211.46 540.065 1211.07 539.682C1210.67 539.299 1209.99 539.108 1209.05 539.108C1208.03 539.108 1207.01 539.312 1206.01 539.733C1205.86 539.797 1205.77 539.746 1205.73 539.605L1205.57 539.069C1205.53 538.955 1205.57 538.878 1205.69 538.814C1206.74 538.355 1207.89 538.125 1209.13 538.125C1210.36 538.125 1211.3 538.406 1211.87 538.955C1212.44 539.503 1212.73 540.346 1212.73 541.481V547.632L1212.71 547.671ZM1211.65 543.153C1210.99 543.179 1210.47 543.204 1210.1 543.217C1209.73 543.23 1209.28 543.268 1208.76 543.332C1208.23 543.383 1207.84 543.459 1207.56 543.561C1207.28 543.664 1206.98 543.791 1206.7 543.944C1206.42 544.097 1206.2 544.289 1206.08 544.531C1205.95 544.761 1205.9 545.042 1205.9 545.361C1205.9 545.897 1206.09 546.331 1206.49 546.663C1206.87 546.994 1207.44 547.16 1208.2 547.16C1209.29 547.16 1210.15 546.879 1210.75 546.331C1211.35 545.769 1211.65 545.08 1211.65 544.238V543.166V543.153Z" fill="#231F20"/>
<path d="M1222.25 546.025C1221.67 547.403 1220.5 548.079 1218.71 548.079C1217.4 548.079 1216.38 547.658 1215.65 546.803C1214.91 545.961 1214.55 544.736 1214.55 543.128C1214.55 541.52 1214.92 540.295 1215.65 539.44C1216.38 538.585 1217.41 538.163 1218.71 538.163C1219.55 538.163 1220.28 538.342 1220.89 538.712C1221.51 539.082 1221.95 539.593 1222.23 540.256V535.101C1222.23 534.96 1222.31 534.896 1222.45 534.896H1223.08C1223.24 534.896 1223.32 534.96 1223.32 535.101V547.671C1223.32 547.824 1223.24 547.888 1223.08 547.888H1222.45C1222.31 547.888 1222.25 547.811 1222.25 547.671V546.025ZM1221.37 540.167C1220.78 539.478 1219.95 539.133 1218.89 539.133C1216.72 539.133 1215.65 540.473 1215.65 543.14C1215.65 545.808 1216.73 547.122 1218.89 547.122C1219.95 547.122 1220.78 546.778 1221.37 546.088C1221.95 545.399 1222.25 544.417 1222.25 543.128C1222.25 541.839 1221.95 540.856 1221.37 540.167Z" fill="#231F20"/>
<path d="M1226.47 546.79C1225.69 545.922 1225.31 544.71 1225.31 543.14C1225.31 541.57 1225.69 540.333 1226.47 539.465C1227.25 538.597 1228.32 538.163 1229.71 538.163C1231.1 538.163 1232.17 538.597 1232.95 539.465C1233.73 540.333 1234.13 541.558 1234.13 543.14C1234.13 544.723 1233.74 545.922 1232.95 546.79C1232.16 547.658 1231.09 548.092 1229.71 548.092C1228.33 548.092 1227.25 547.658 1226.47 546.79ZM1232.15 546.114C1232.72 545.437 1233 544.455 1233 543.14C1233 541.826 1232.72 540.83 1232.15 540.154C1231.57 539.478 1230.77 539.133 1229.7 539.133C1228.63 539.133 1227.82 539.478 1227.26 540.154C1226.7 540.83 1226.42 541.826 1226.42 543.14C1226.42 544.455 1226.7 545.437 1227.26 546.114C1227.82 546.79 1228.64 547.122 1229.7 547.122C1230.76 547.122 1231.57 546.79 1232.15 546.114Z" fill="#231F20"/>
<path d="M1081.28 565.167C1080.7 566.545 1079.53 567.222 1077.74 567.222C1076.43 567.222 1075.41 566.801 1074.68 565.946C1073.94 565.103 1073.58 563.878 1073.58 562.27C1073.58 560.662 1073.95 559.437 1074.68 558.582C1075.41 557.727 1076.44 557.306 1077.74 557.306C1078.59 557.306 1079.31 557.485 1079.93 557.855C1080.54 558.225 1080.99 558.735 1081.27 559.399V554.243C1081.27 554.103 1081.34 554.039 1081.48 554.039H1082.11C1082.27 554.039 1082.35 554.103 1082.35 554.243V566.813C1082.35 566.967 1082.27 567.03 1082.11 567.03H1081.48C1081.34 567.03 1081.28 566.954 1081.28 566.813V565.167ZM1080.4 559.31C1079.81 558.62 1078.98 558.276 1077.92 558.276C1075.75 558.276 1074.68 559.616 1074.68 562.283C1074.68 564.95 1075.77 566.265 1077.92 566.265C1078.98 566.265 1079.81 565.92 1080.4 565.231C1080.99 564.542 1081.28 563.559 1081.28 562.27C1081.28 560.981 1080.99 559.999 1080.4 559.31Z" fill="#231F20"/>
<path d="M1092.01 566.813C1092.01 566.966 1091.93 567.03 1091.79 567.03H1091.21C1091.07 567.03 1091 566.954 1091 566.813V565.269C1090.38 566.558 1089.15 567.196 1087.33 567.196C1086.32 567.196 1085.53 566.954 1084.98 566.469C1084.42 565.984 1084.15 565.333 1084.15 564.516C1084.15 564.082 1084.22 563.699 1084.37 563.38C1084.52 563.049 1084.75 562.781 1085.05 562.551C1085.36 562.334 1085.71 562.143 1086.06 562.002C1086.43 561.862 1086.89 561.747 1087.45 561.658C1088.02 561.568 1088.56 561.504 1089.09 561.466C1089.61 561.428 1090.24 561.402 1090.96 561.39V560.662C1090.96 559.82 1090.76 559.207 1090.36 558.824C1089.97 558.442 1089.29 558.25 1088.35 558.25C1087.33 558.25 1086.31 558.454 1085.31 558.876C1085.16 558.939 1085.07 558.888 1085.03 558.748L1084.86 558.212C1084.82 558.097 1084.86 558.021 1084.99 557.957C1086.04 557.497 1087.19 557.268 1088.42 557.268C1089.66 557.268 1090.59 557.548 1091.17 558.097C1091.74 558.646 1092.02 559.488 1092.02 560.624V566.775L1092.01 566.813ZM1090.96 562.296C1090.3 562.321 1089.78 562.347 1089.41 562.359C1089.04 562.372 1088.59 562.411 1088.07 562.474C1087.54 562.525 1087.15 562.602 1086.87 562.704C1086.59 562.806 1086.29 562.934 1086.01 563.087C1085.73 563.24 1085.51 563.431 1085.39 563.674C1085.26 563.904 1085.19 564.184 1085.19 564.503C1085.19 565.039 1085.39 565.473 1085.78 565.805C1086.16 566.137 1086.74 566.303 1087.49 566.303C1088.59 566.303 1089.44 566.022 1090.04 565.473C1090.64 564.912 1090.95 564.223 1090.95 563.38V562.308L1090.96 562.296Z" fill="#231F20"/>
<path d="M1107.52 565.524C1107.66 565.447 1107.76 565.498 1107.84 565.677L1108.08 566.238C1108.12 566.34 1108.07 566.43 1107.91 566.493C1107.05 566.991 1105.99 567.234 1104.72 567.234C1102.87 567.234 1101.44 566.647 1100.46 565.485C1099.47 564.324 1098.98 562.678 1098.98 560.534C1098.98 558.39 1099.47 556.756 1100.45 555.595C1101.42 554.421 1102.82 553.847 1104.63 553.847C1105.91 553.847 1106.96 554.089 1107.77 554.574C1107.94 554.651 1107.99 554.74 1107.94 554.829L1107.72 555.391C1107.66 555.557 1107.56 555.595 1107.4 555.518C1106.66 555.123 1105.8 554.931 1104.79 554.931C1103.27 554.931 1102.12 555.416 1101.34 556.373C1100.56 557.331 1100.17 558.722 1100.17 560.559C1100.17 562.397 1100.56 563.801 1101.34 564.758C1102.12 565.715 1103.29 566.2 1104.85 566.2C1105.81 566.2 1106.7 565.983 1107.52 565.549V565.524Z" fill="#231F20"/>
<path d="M1110.48 565.933C1109.7 565.065 1109.32 563.852 1109.32 562.283C1109.32 560.713 1109.7 559.475 1110.48 558.607C1111.26 557.74 1112.33 557.306 1113.72 557.306C1115.11 557.306 1116.18 557.74 1116.96 558.607C1117.74 559.475 1118.13 560.7 1118.13 562.283C1118.13 563.865 1117.75 565.065 1116.96 565.933C1116.17 566.8 1115.1 567.234 1113.72 567.234C1112.34 567.234 1111.26 566.8 1110.48 565.933ZM1116.16 565.256C1116.73 564.58 1117.01 563.597 1117.01 562.283C1117.01 560.968 1116.73 559.973 1116.16 559.296C1115.58 558.62 1114.78 558.276 1113.71 558.276C1112.63 558.276 1111.83 558.62 1111.27 559.296C1110.71 559.973 1110.43 560.968 1110.43 562.283C1110.43 563.597 1110.71 564.58 1111.27 565.256C1111.83 565.933 1112.65 566.264 1113.71 566.264C1114.77 566.264 1115.58 565.933 1116.16 565.256Z" fill="#231F20"/>
<path d="M1127.41 566.813C1127.41 566.966 1127.34 567.03 1127.2 567.03H1126.57C1126.42 567.03 1126.35 566.953 1126.35 566.813V560.739C1126.35 559.131 1125.6 558.327 1124.1 558.327C1123.21 558.327 1122.5 558.595 1121.96 559.118C1121.43 559.641 1121.15 560.33 1121.15 561.16V566.813C1121.15 566.966 1121.07 567.03 1120.93 567.03H1120.3C1120.14 567.03 1120.06 566.953 1120.06 566.813V557.765C1120.06 557.599 1120.14 557.523 1120.3 557.523H1120.93C1121.08 557.523 1121.15 557.599 1121.15 557.74V559.169C1121.33 558.671 1121.67 558.237 1122.22 557.867C1122.76 557.484 1123.46 557.306 1124.32 557.306C1125.91 557.306 1126.88 557.957 1127.22 559.258C1127.8 557.957 1128.92 557.306 1130.62 557.306C1131.64 557.306 1132.42 557.599 1132.94 558.199C1133.46 558.786 1133.73 559.603 1133.73 560.624V566.813C1133.73 566.966 1133.65 567.03 1133.51 567.03H1132.89C1132.73 567.03 1132.67 566.953 1132.67 566.813V560.751C1132.67 559.131 1131.91 558.327 1130.39 558.327C1129.53 558.327 1128.83 558.582 1128.28 559.092C1127.73 559.603 1127.45 560.241 1127.45 561.019V566.826L1127.41 566.813Z" fill="#231F20"/>
<path d="M1135.92 557.765C1135.92 557.599 1136 557.522 1136.14 557.522H1136.77C1136.92 557.522 1136.98 557.599 1136.98 557.765V563.61C1136.98 565.358 1137.81 566.226 1139.49 566.226C1140.39 566.226 1141.13 565.958 1141.71 565.435C1142.28 564.911 1142.57 564.21 1142.57 563.342V557.778C1142.57 557.612 1142.65 557.535 1142.79 557.535H1143.44C1143.58 557.535 1143.65 557.612 1143.65 557.778V566.826C1143.65 566.979 1143.58 567.043 1143.44 567.043H1142.79C1142.64 567.043 1142.57 566.966 1142.57 566.826V565.358C1142.36 565.869 1141.97 566.302 1141.44 566.673C1140.9 567.043 1140.19 567.234 1139.27 567.234C1138.15 567.234 1137.3 566.928 1136.74 566.328C1136.18 565.728 1135.91 564.873 1135.91 563.788V557.778L1135.92 557.765Z" fill="#231F20"/>
<path d="M1153.96 566.813C1153.96 566.966 1153.88 567.03 1153.74 567.03H1153.12C1152.96 567.03 1152.9 566.953 1152.9 566.813V560.828C1152.9 559.156 1152.06 558.327 1150.36 558.327C1149.42 558.327 1148.66 558.595 1148.08 559.143C1147.49 559.692 1147.21 560.394 1147.21 561.262V566.826C1147.21 566.979 1147.13 567.043 1146.99 567.043H1146.34C1146.2 567.043 1146.14 566.966 1146.14 566.826V557.778C1146.14 557.612 1146.2 557.535 1146.34 557.535H1146.97C1147.12 557.535 1147.18 557.612 1147.18 557.752V559.194C1147.8 557.931 1148.93 557.306 1150.59 557.306C1151.7 557.306 1152.54 557.599 1153.12 558.199C1153.69 558.799 1153.97 559.628 1153.97 560.687V566.8L1153.96 566.813Z" fill="#231F20"/>
<path d="M1157.44 555.953C1157.44 556.106 1157.36 556.169 1157.22 556.169H1156.57C1156.43 556.169 1156.37 556.093 1156.37 555.953V554.408C1156.37 554.255 1156.43 554.191 1156.57 554.191H1157.22C1157.38 554.191 1157.44 554.268 1157.44 554.408V555.953ZM1157.44 566.813C1157.44 566.966 1157.36 567.03 1157.22 567.03H1156.57C1156.43 567.03 1156.37 566.953 1156.37 566.813V557.765C1156.37 557.599 1156.43 557.522 1156.57 557.522H1157.22C1157.38 557.522 1157.44 557.599 1157.44 557.765V566.813Z" fill="#231F20"/>
<path d="M1160.58 558.607C1161.37 557.74 1162.44 557.306 1163.81 557.306C1164.87 557.306 1165.74 557.497 1166.4 557.88C1166.55 557.969 1166.6 558.059 1166.55 558.161L1166.34 558.684C1166.28 558.837 1166.18 558.875 1166.02 558.799C1165.42 558.48 1164.72 558.314 1163.92 558.314C1162.84 558.314 1162 558.646 1161.4 559.309C1160.8 559.973 1160.5 560.955 1160.5 562.257C1160.5 563.559 1160.8 564.541 1161.4 565.218C1161.98 565.894 1162.81 566.239 1163.86 566.239C1164.74 566.239 1165.49 566.047 1166.14 565.677C1166.28 565.613 1166.37 565.652 1166.43 565.792L1166.64 566.328C1166.68 566.43 1166.63 566.52 1166.48 566.583C1165.77 567.004 1164.91 567.209 1163.89 567.209C1162.51 567.209 1161.41 566.775 1160.61 565.907C1159.8 565.039 1159.41 563.814 1159.41 562.244C1159.41 560.675 1159.8 559.462 1160.59 558.595L1160.58 558.607Z" fill="#231F20"/>
<path d="M1175.54 566.813C1175.54 566.966 1175.46 567.03 1175.32 567.03H1174.73C1174.59 567.03 1174.53 566.954 1174.53 566.813V565.269C1173.9 566.558 1172.68 567.196 1170.85 567.196C1169.85 567.196 1169.05 566.954 1168.51 566.469C1167.94 565.984 1167.68 565.333 1167.68 564.516C1167.68 564.082 1167.75 563.699 1167.89 563.38C1168.05 563.049 1168.28 562.781 1168.58 562.551C1168.89 562.334 1169.23 562.143 1169.59 562.002C1169.96 561.862 1170.42 561.747 1170.98 561.658C1171.54 561.568 1172.09 561.504 1172.61 561.466C1173.14 561.428 1173.76 561.402 1174.49 561.39V560.662C1174.49 559.82 1174.29 559.207 1173.89 558.824C1173.5 558.442 1172.82 558.25 1171.87 558.25C1170.85 558.25 1169.83 558.454 1168.84 558.876C1168.68 558.939 1168.59 558.888 1168.56 558.748L1168.39 558.212C1168.35 558.097 1168.39 558.021 1168.52 557.957C1169.56 557.497 1170.71 557.268 1171.95 557.268C1173.19 557.268 1174.12 557.548 1174.69 558.097C1175.27 558.646 1175.55 559.488 1175.55 560.624V566.775L1175.54 566.813ZM1174.48 562.296C1173.81 562.321 1173.29 562.347 1172.92 562.359C1172.55 562.372 1172.1 562.411 1171.58 562.474C1171.06 562.525 1170.66 562.602 1170.38 562.704C1170.1 562.806 1169.81 562.934 1169.53 563.087C1169.25 563.24 1169.03 563.431 1168.9 563.674C1168.77 563.904 1168.71 564.184 1168.71 564.503C1168.71 565.039 1168.9 565.473 1169.3 565.805C1169.68 566.137 1170.25 566.303 1171.01 566.303C1172.1 566.303 1172.96 566.022 1173.56 565.473C1174.16 564.912 1174.46 564.223 1174.46 563.38V562.308L1174.48 562.296Z" fill="#231F20"/>
<path d="M1178.55 558.607C1179.34 557.74 1180.41 557.306 1181.78 557.306C1182.84 557.306 1183.7 557.497 1184.37 557.88C1184.52 557.969 1184.57 558.059 1184.52 558.161L1184.3 558.684C1184.25 558.837 1184.15 558.875 1183.99 558.799C1183.39 558.48 1182.68 558.314 1181.89 558.314C1180.81 558.314 1179.97 558.646 1179.37 559.309C1178.77 559.973 1178.47 560.955 1178.47 562.257C1178.47 563.559 1178.77 564.541 1179.37 565.218C1179.95 565.894 1180.78 566.239 1181.83 566.239C1182.71 566.239 1183.46 566.047 1184.11 565.677C1184.25 565.613 1184.34 565.652 1184.39 565.792L1184.61 566.328C1184.65 566.43 1184.6 566.52 1184.45 566.583C1183.74 567.004 1182.88 567.209 1181.85 567.209H1181.7C1182.34 567.566 1182.66 568.013 1182.66 568.561C1182.66 569.353 1182.08 569.748 1180.95 569.748C1180.63 569.748 1180.43 569.735 1180.34 569.697C1180.23 569.659 1180.18 569.595 1180.18 569.506V569.148C1180.18 569.059 1180.23 569.021 1180.35 569.021H1180.83C1181.5 569.021 1181.83 568.829 1181.83 568.434C1181.83 567.911 1181.43 567.464 1180.63 567.081C1179.61 566.851 1178.8 566.315 1178.22 565.473C1177.63 564.631 1177.35 563.559 1177.35 562.232C1177.35 560.662 1177.75 559.45 1178.54 558.582L1178.55 558.607Z" fill="#231F20"/>
<path d="M1193.51 566.813C1193.51 566.966 1193.43 567.03 1193.29 567.03H1192.7C1192.56 567.03 1192.5 566.953 1192.5 566.813V565.269C1191.87 566.558 1190.65 567.196 1188.82 567.196C1187.81 567.196 1187.02 566.953 1186.47 566.468C1185.91 565.983 1185.64 565.333 1185.64 564.516C1185.64 564.082 1185.72 563.699 1185.86 563.38C1186.01 563.048 1186.24 562.78 1186.55 562.551C1186.86 562.334 1187.2 562.142 1187.56 562.002C1187.93 561.861 1188.39 561.747 1188.95 561.657C1189.51 561.568 1190.06 561.504 1190.58 561.466C1191.11 561.428 1191.73 561.402 1192.46 561.389V560.662C1192.46 559.82 1192.26 559.207 1191.86 558.824C1191.46 558.441 1190.79 558.25 1189.84 558.25C1188.82 558.25 1187.8 558.454 1186.81 558.875C1186.65 558.939 1186.56 558.888 1186.53 558.748L1186.36 558.212C1186.32 558.097 1186.36 558.02 1186.49 557.956C1187.53 557.497 1188.68 557.267 1189.92 557.267C1191.16 557.267 1192.09 557.548 1192.66 558.097C1193.24 558.646 1193.52 559.488 1193.52 560.624V566.775L1193.51 566.813ZM1192.45 562.295C1191.78 562.321 1191.26 562.346 1190.89 562.359C1190.52 562.372 1190.07 562.41 1189.55 562.474C1189.03 562.525 1188.63 562.602 1188.35 562.704C1188.07 562.806 1187.78 562.933 1187.49 563.087C1187.21 563.24 1187 563.431 1186.87 563.674C1186.74 563.903 1186.68 564.184 1186.68 564.503C1186.68 565.039 1186.87 565.473 1187.27 565.805C1187.65 566.137 1188.22 566.303 1188.98 566.303C1190.07 566.303 1190.93 566.022 1191.53 565.473C1192.13 564.912 1192.43 564.222 1192.43 563.38V562.308L1192.45 562.295ZM1192.18 555.876C1191.99 556.093 1191.71 556.195 1191.34 556.195C1190.9 556.195 1190.42 556.08 1189.87 555.838L1189.46 555.672C1189.03 555.493 1188.69 555.417 1188.48 555.417C1188.22 555.417 1188.07 555.519 1188.02 555.736L1187.97 555.953C1187.93 556.093 1187.84 556.157 1187.69 556.157H1187.37C1187.23 556.157 1187.16 556.068 1187.16 555.876C1187.16 555.519 1187.27 555.225 1187.46 555.008C1187.65 554.792 1187.93 554.689 1188.3 554.689C1188.64 554.689 1189.13 554.817 1189.77 555.06L1190.21 555.225C1190.69 555.417 1191 555.506 1191.2 555.506C1191.45 555.506 1191.6 555.379 1191.66 555.111L1191.69 554.919C1191.69 554.779 1191.8 554.715 1191.95 554.715H1192.28C1192.41 554.715 1192.47 554.804 1192.47 554.996C1192.47 555.353 1192.37 555.647 1192.18 555.864V555.876Z" fill="#231F20"/>
<path d="M1196.48 565.933C1195.7 565.065 1195.32 563.852 1195.32 562.283C1195.32 560.713 1195.7 559.475 1196.48 558.607C1197.26 557.74 1198.33 557.306 1199.72 557.306C1201.11 557.306 1202.18 557.74 1202.96 558.607C1203.74 559.475 1204.14 560.7 1204.14 562.283C1204.14 563.865 1203.75 565.065 1202.96 565.933C1202.17 566.8 1201.1 567.234 1199.72 567.234C1198.34 567.234 1197.26 566.8 1196.48 565.933ZM1202.17 565.256C1202.75 564.58 1203.03 563.597 1203.03 562.283C1203.03 560.968 1202.75 559.973 1202.17 559.296C1201.6 558.62 1200.79 558.276 1199.72 558.276C1198.65 558.276 1197.85 558.62 1197.28 559.296C1196.72 559.973 1196.44 560.968 1196.44 562.283C1196.44 563.597 1196.72 564.58 1197.28 565.256C1197.85 565.933 1198.66 566.264 1199.72 566.264C1200.78 566.264 1201.6 565.933 1202.17 565.256Z" fill="#231F20"/>
<path d="M1217.56 566.316C1216.76 566.903 1215.63 567.209 1214.19 567.209C1212.75 567.209 1211.52 567.018 1210.63 566.635C1210.47 566.558 1210.41 566.469 1210.44 566.354L1210.66 565.767C1210.71 565.614 1210.8 565.576 1210.94 565.64C1211.83 565.997 1212.89 566.176 1214.14 566.176C1215.23 566.176 1216.08 565.971 1216.69 565.55C1217.31 565.129 1217.61 564.555 1217.61 563.802C1217.61 563.406 1217.54 563.062 1217.39 562.768C1217.25 562.475 1217.01 562.207 1216.67 561.977C1216.32 561.747 1216.03 561.569 1215.76 561.428C1215.49 561.288 1215.1 561.122 1214.59 560.905C1214.54 560.905 1214.5 560.879 1214.47 560.867L1214.38 560.816C1214.38 560.816 1214.31 560.777 1214.27 560.765C1213.76 560.56 1213.39 560.395 1213.16 560.292C1212.93 560.19 1212.61 560.024 1212.23 559.795C1211.84 559.565 1211.56 559.335 1211.38 559.118C1211.21 558.901 1211.04 558.608 1210.9 558.251C1210.76 557.893 1210.68 557.498 1210.68 557.051C1210.68 556.043 1211.03 555.252 1211.72 554.677C1212.41 554.103 1213.48 553.822 1214.92 553.822C1216.16 553.822 1217.19 554.001 1218.02 554.358C1218.17 554.409 1218.22 554.499 1218.19 554.613L1217.97 555.188C1217.93 555.341 1217.83 555.379 1217.68 555.315C1216.94 555.022 1216.04 554.869 1215.01 554.869C1212.89 554.869 1211.84 555.596 1211.84 557.038C1211.84 557.255 1211.87 557.447 1211.92 557.625C1211.97 557.804 1212.02 557.957 1212.07 558.085C1212.12 558.212 1212.23 558.353 1212.38 558.48C1212.53 558.608 1212.65 558.723 1212.74 558.799C1212.83 558.876 1212.98 558.965 1213.2 559.08C1213.41 559.195 1213.58 559.271 1213.68 559.323C1213.78 559.374 1213.99 559.45 1214.27 559.578C1214.55 559.693 1214.74 559.782 1214.84 559.833C1215.23 559.999 1215.44 560.088 1215.51 560.114C1215.56 560.139 1215.76 560.229 1216.11 560.382C1216.45 560.535 1216.67 560.637 1216.74 560.701C1216.82 560.752 1217 560.867 1217.27 561.033C1217.54 561.198 1217.7 561.339 1217.79 561.441C1217.87 561.543 1217.99 561.696 1218.17 561.888C1218.35 562.079 1218.45 562.27 1218.52 562.449C1218.57 562.628 1218.63 562.845 1218.68 563.074C1218.73 563.317 1218.77 563.572 1218.77 563.827C1218.77 564.887 1218.36 565.716 1217.56 566.316Z" fill="#231F20"/>
<path d="M1221.22 565.933C1220.45 565.065 1220.06 563.852 1220.06 562.283C1220.06 560.713 1220.45 559.475 1221.22 558.607C1222 557.74 1223.07 557.306 1224.47 557.306C1225.86 557.306 1226.93 557.74 1227.71 558.607C1228.49 559.475 1228.88 560.7 1228.88 562.283C1228.88 563.865 1228.5 565.065 1227.71 565.933C1226.92 566.8 1225.84 567.234 1224.47 567.234C1223.09 567.234 1222 566.8 1221.22 565.933ZM1226.9 565.256C1227.48 564.58 1227.76 563.597 1227.76 562.283C1227.76 560.968 1227.48 559.973 1226.9 559.296C1226.33 558.62 1225.52 558.276 1224.45 558.276C1223.38 558.276 1222.58 558.62 1222.02 559.296C1221.45 559.973 1221.17 560.968 1221.17 562.283C1221.17 563.597 1221.45 564.58 1222.02 565.256C1222.58 565.933 1223.39 566.264 1224.45 566.264C1225.51 566.264 1226.33 565.933 1226.9 565.256Z" fill="#231F20"/>
<path d="M1231.45 558.607C1232.24 557.74 1233.31 557.306 1234.68 557.306C1235.74 557.306 1236.6 557.497 1237.27 557.88C1237.42 557.969 1237.47 558.059 1237.42 558.161L1237.2 558.684C1237.15 558.837 1237.05 558.875 1236.88 558.799C1236.28 558.48 1235.58 558.314 1234.79 558.314C1233.71 558.314 1232.86 558.646 1232.26 559.309C1231.66 559.973 1231.37 560.955 1231.37 562.257C1231.37 563.559 1231.66 564.541 1232.26 565.218C1232.85 565.894 1233.68 566.239 1234.73 566.239C1235.61 566.239 1236.36 566.047 1237.01 565.677C1237.15 565.613 1237.24 565.652 1237.29 565.792L1237.51 566.328C1237.55 566.43 1237.5 566.52 1237.34 566.583C1236.64 567.004 1235.77 567.209 1234.75 567.209C1233.37 567.209 1232.28 566.775 1231.47 565.907C1230.67 565.039 1230.27 563.814 1230.27 562.244C1230.27 560.675 1230.67 559.462 1231.46 558.595L1231.45 558.607Z" fill="#231F20"/>
<path d="M1240.38 555.953C1240.38 556.106 1240.3 556.169 1240.16 556.169H1239.51C1239.37 556.169 1239.31 556.093 1239.31 555.953V554.408C1239.31 554.255 1239.37 554.191 1239.51 554.191H1240.16C1240.31 554.191 1240.38 554.268 1240.38 554.408V555.953ZM1240.38 566.813C1240.38 566.966 1240.3 567.03 1240.16 567.03H1239.51C1239.37 567.03 1239.31 566.953 1239.31 566.813V557.765C1239.31 557.599 1239.37 557.522 1239.51 557.522H1240.16C1240.31 557.522 1240.38 557.599 1240.38 557.765V566.813Z" fill="#231F20"/>
<path d="M1250.01 566.813C1250.01 566.966 1249.94 567.03 1249.8 567.03H1249.21C1249.07 567.03 1249.01 566.954 1249.01 566.813V565.269C1248.38 566.558 1247.15 567.196 1245.33 567.196C1244.32 567.196 1243.53 566.954 1242.98 566.469C1242.42 565.984 1242.15 565.333 1242.15 564.516C1242.15 564.082 1242.23 563.699 1242.37 563.38C1242.52 563.049 1242.75 562.781 1243.06 562.551C1243.36 562.334 1243.71 562.143 1244.07 562.002C1244.44 561.862 1244.9 561.747 1245.46 561.658C1246.02 561.568 1246.57 561.504 1247.09 561.466C1247.61 561.428 1248.24 561.402 1248.97 561.39V560.662C1248.97 559.82 1248.76 559.207 1248.37 558.824C1247.97 558.442 1247.3 558.25 1246.35 558.25C1245.33 558.25 1244.31 558.454 1243.31 558.876C1243.16 558.939 1243.07 558.888 1243.03 558.748L1242.87 558.212C1242.83 558.097 1242.87 558.021 1242.99 557.957C1244.04 557.497 1245.19 557.268 1246.43 557.268C1247.67 557.268 1248.6 557.548 1249.17 558.097C1249.75 558.646 1250.03 559.488 1250.03 560.624V566.775L1250.01 566.813ZM1248.95 562.296C1248.29 562.321 1247.77 562.347 1247.4 562.359C1247.03 562.372 1246.58 562.411 1246.06 562.474C1245.53 562.525 1245.14 562.602 1244.86 562.704C1244.58 562.806 1244.28 562.934 1244 563.087C1243.72 563.24 1243.51 563.431 1243.38 563.674C1243.25 563.904 1243.2 564.184 1243.2 564.503C1243.2 565.039 1243.39 565.473 1243.79 565.805C1244.17 566.137 1244.74 566.303 1245.5 566.303C1246.59 566.303 1247.45 566.022 1248.05 565.473C1248.65 564.912 1248.95 564.223 1248.95 563.38V562.308V562.296Z" fill="#231F20"/>
<path d="M1253.47 566.813C1253.47 566.967 1253.4 567.03 1253.26 567.03H1252.6C1252.46 567.03 1252.4 566.954 1252.4 566.813V554.243C1252.4 554.103 1252.46 554.039 1252.6 554.039H1253.26C1253.41 554.039 1253.47 554.103 1253.47 554.243V566.813Z" fill="#231F20"/>
<g style="mix-blend-mode:multiply">
<mask id="mask0_2024_3224" style="mask-type:luminance" maskUnits="userSpaceOnUse" x="1057" y="490" width="2" height="100">
<path d="M1058.97 490H1057.53V590H1058.97V490Z" fill="white"/>
</mask>
<g mask="url(#mask0_2024_3224)">
<path fill-rule="evenodd" clip-rule="evenodd" d="M1058.56 590H1057.94C1057.71 590 1057.53 589.821 1057.53 589.592V490.408C1057.53 490.179 1057.72 490 1057.94 490H1058.56C1058.79 490 1058.97 490.191 1058.97 490.408V589.579C1058.97 589.809 1058.79 589.987 1058.56 589.987" fill="#204181"/>
</g>
</g>
<path d="M722.896 510.533H712.151C710.453 510.533 709.483 511.095 708.832 512.154L696.39 533.555L683.947 512.154C683.297 511.107 682.327 510.533 680.629 510.533H669.91C667.893 510.533 667 511.427 667 513.443V564.821C667 566.837 667.893 567.731 669.91 567.731H681.063C683.08 567.731 683.973 566.837 683.973 564.821V538.57L694.31 555.939C694.718 556.59 695.28 557.151 696.415 557.151C697.551 557.151 698.113 556.59 698.521 555.939L708.858 538.57V564.821C708.858 566.837 709.751 567.731 711.768 567.731H722.909H718.825C717.37 567.731 716.464 566.952 716.4 565.689C716.4 565.51 716.4 565.319 716.426 565.127C716.464 564.847 716.528 564.566 716.63 564.26L725.793 536.222V513.443C725.793 511.427 724.899 510.533 722.883 510.533" fill="#B7292F"/>
<path d="M779.521 495.985C779.84 495.985 780.018 496.151 780.018 496.483V502.863C780.018 503.221 779.801 503.425 779.585 503.565C778.653 504.127 777.173 504.561 775.029 504.561C770.715 504.561 768.201 502.327 768.201 497.299C768.201 492.271 770.741 490.063 775.207 490.063C777.007 490.063 778.436 490.548 779.24 491.021C779.533 491.186 779.661 491.34 779.533 491.633L779.036 492.871C778.921 493.165 778.742 493.267 778.359 493.114C777.747 492.858 776.777 492.539 775.565 492.539C772.387 492.539 771.034 493.93 771.034 497.312C771.034 500.694 772.425 502.098 775.348 502.098C776.19 502.098 777.007 501.919 777.479 501.702V498.167H775.309C774.965 498.167 774.812 498.027 774.812 497.708V496.495C774.812 496.176 774.978 495.998 775.309 495.998H779.521V495.985Z" fill="#231F20"/>
<path d="M798.28 497.325C798.28 502.174 795.971 504.573 792.04 504.573C788.109 504.573 785.838 502.174 785.838 497.325C785.838 492.475 788.135 490.063 792.053 490.063C795.971 490.063 798.28 492.475 798.28 497.325ZM795.422 497.325C795.422 494.109 794.299 492.501 792.053 492.501C789.807 492.501 788.658 494.122 788.658 497.325C788.658 500.528 789.781 502.136 792.053 502.136C794.324 502.136 795.422 500.541 795.422 497.325Z" fill="#231F20"/>
<path d="M807.733 504.345C807.388 504.345 807.235 504.204 807.12 503.86L802.692 490.843C802.577 490.498 802.73 490.281 803.075 490.281H805.015C805.359 490.281 805.512 490.447 805.589 490.715L807.988 498.155L808.869 501.448H808.907L809.762 498.155L812.161 490.715C812.238 490.434 812.404 490.281 812.735 490.281H814.688C815.007 490.281 815.173 490.498 815.045 490.843L810.63 503.86C810.515 504.204 810.336 504.345 809.992 504.345H807.733Z" fill="#231F20"/>
<path d="M823.419 498.347V501.958H829.085C829.429 501.958 829.582 502.098 829.582 502.443V503.86C829.582 504.217 829.417 504.357 829.085 504.357H821.16C820.802 504.357 820.662 504.217 820.662 503.86V490.779C820.662 490.434 820.802 490.294 821.147 490.294H829.008C829.353 490.294 829.506 490.434 829.506 490.779V492.195C829.506 492.54 829.353 492.693 829.008 492.693H823.419V496.024H828.753C829.072 496.024 829.238 496.203 829.238 496.522V497.836C829.238 498.155 829.072 498.334 828.753 498.334H823.419V498.347Z" fill="#231F20"/>
<path d="M840.504 490.307C844.371 490.307 846.336 491.685 846.336 495.041C846.336 497.479 845.022 498.831 842.903 499.291L846.298 503.745C846.515 504.025 846.4 504.357 846.004 504.357H844.103C843.746 504.357 843.58 504.191 843.401 503.962L840.172 499.674H838.322V503.86C838.322 504.217 838.156 504.357 837.824 504.357H836.05C835.693 504.357 835.553 504.217 835.553 503.86V490.779C835.553 490.434 835.693 490.294 836.05 490.294H840.517L840.504 490.307ZM840.44 497.351C842.712 497.351 843.529 496.611 843.529 495.041C843.529 493.344 842.648 492.706 840.453 492.706H838.296V497.351H840.428H840.44Z" fill="#231F20"/>
<path d="M863.555 503.847C863.555 504.204 863.402 504.344 863.07 504.344H861.271C860.926 504.344 860.786 504.242 860.646 504L855.043 494.965V503.847C855.043 504.204 854.903 504.344 854.558 504.344H852.836C852.478 504.344 852.338 504.204 852.338 503.847V490.779C852.338 490.434 852.478 490.294 852.836 490.294H854.597C854.954 490.294 855.094 490.371 855.235 490.613L860.837 499.674V490.779C860.837 490.434 860.977 490.294 861.322 490.294H863.058C863.377 490.294 863.543 490.434 863.543 490.753V503.847H863.555Z" fill="#231F20"/>
<path d="M882.007 497.325C882.007 502.174 879.697 504.573 875.767 504.573C871.836 504.573 869.564 502.174 869.564 497.325C869.564 492.475 871.874 490.063 875.779 490.063C879.684 490.063 882.007 492.475 882.007 497.325ZM879.161 497.325C879.161 494.109 878.038 492.501 875.792 492.501C873.546 492.501 872.398 494.122 872.398 497.325C872.398 500.528 873.521 502.136 875.792 502.136C878.064 502.136 879.161 500.541 879.161 497.325Z" fill="#231F20"/>
<path d="M897.935 504.344C897.578 504.344 897.438 504.204 897.438 503.847V490.779C897.438 490.434 897.578 490.294 897.922 490.294H901.776C906.281 490.294 908.744 492.144 908.744 497.172C908.744 502.456 906.294 504.332 901.802 504.332H897.948L897.935 504.344ZM900.232 492.782V501.881H901.687C904.405 501.881 905.898 500.937 905.898 497.198C905.898 493.701 904.405 492.782 901.662 492.782H900.22H900.232Z" fill="#231F20"/>
<path d="M925.792 497.299C925.792 502.085 923.597 504.548 920.049 504.548C916.502 504.548 914.307 502.098 914.307 497.325C914.307 492.552 916.489 490.063 920.049 490.063C923.61 490.063 925.792 492.514 925.792 497.312M923.023 497.299C923.023 494.083 922.04 492.475 920.049 492.475C918.059 492.475 917.101 494.096 917.101 497.299C917.101 500.502 918.084 502.149 920.049 502.149C922.015 502.149 923.023 500.528 923.023 497.299Z" fill="#231F20"/>
<path d="M954.24 502.303C951.521 502.303 950.016 504.038 950.016 506.884C950.016 508.313 950.462 508.658 951.445 508.658H953.308C954.112 508.658 954.469 508.441 954.597 507.726L954.635 507.458C954.725 506.973 955.12 506.795 955.746 506.795C956.32 506.795 957.034 506.922 957.787 507.241L960.187 508.173C961.118 508.53 962.228 508.798 963.785 508.798C966.363 508.798 967.882 507.331 967.882 504.485C967.882 503.056 967.435 502.443 966.453 502.443H964.589C963.785 502.443 963.428 502.66 963.3 503.375L963.249 503.643C963.16 504.089 962.713 504.306 962.088 504.306C961.514 504.306 960.748 504.128 960.085 503.86L957.685 502.928C956.754 502.571 955.643 502.303 954.214 502.303" fill="#00A7BE"/>
<path d="M733.36 580.748C733.36 580.608 733.437 580.531 733.577 580.531H739.575C739.728 580.531 739.805 580.595 739.805 580.748V581.374C739.805 581.514 739.741 581.603 739.575 581.603H737.151V589.579C737.151 589.732 737.087 589.809 736.921 589.809H736.232C736.091 589.809 736.002 589.745 736.002 589.579V581.603H733.577C733.437 581.603 733.348 581.527 733.348 581.374V580.748H733.36Z" fill="#231F20"/>
<path d="M746.659 580.543C749.237 580.543 750.411 581.5 750.411 583.529C750.411 585.265 749.402 586.171 747.731 586.362L750.423 589.514C750.513 589.642 750.487 589.808 750.296 589.808H749.492C749.326 589.808 749.249 589.744 749.16 589.642L746.493 586.49H744.885V589.591C744.885 589.744 744.808 589.821 744.655 589.821H743.966C743.813 589.821 743.736 589.757 743.736 589.591V580.773C743.736 580.632 743.8 580.556 743.966 580.556H746.659V580.543ZM746.608 585.431C748.573 585.431 749.262 584.818 749.262 583.516C749.262 582.151 748.509 581.577 746.633 581.577H744.885V585.431H746.608Z" fill="#231F20"/>
<path d="M758.142 580.543C758.333 580.543 758.384 580.62 758.435 580.773L761.74 589.578C761.779 589.693 761.715 589.808 761.575 589.808H760.809C760.668 589.808 760.617 589.744 760.554 589.616L759.724 587.409H755.679L754.849 589.616C754.798 589.744 754.76 589.808 754.607 589.808H753.828C753.688 589.808 753.611 589.706 753.662 589.578L756.968 580.773C757.019 580.632 757.057 580.543 757.261 580.543H758.142ZM759.367 586.375L757.721 581.679H757.695L756.036 586.375H759.367Z" fill="#231F20"/>
<path d="M765.888 589.796C765.735 589.796 765.658 589.732 765.658 589.566V580.748C765.658 580.608 765.722 580.531 765.888 580.531H769.168C771.516 580.531 772.575 581.322 772.575 582.918C772.575 584.181 771.924 584.743 771.235 584.908C772.141 585.113 772.907 585.738 772.907 587.167C772.907 589.03 771.733 589.796 769.231 589.796H765.901H765.888ZM769.206 584.513C770.878 584.513 771.452 584.079 771.452 583.007C771.452 581.935 770.827 581.565 769.142 581.565H766.781V584.5H769.206V584.513ZM769.142 588.762C771.095 588.762 771.784 588.367 771.784 587.116C771.784 585.98 771.197 585.521 769.27 585.521H766.794V588.762H769.155H769.142Z" fill="#231F20"/>
<path d="M780.896 580.543C781.087 580.543 781.138 580.62 781.189 580.773L784.494 589.578C784.533 589.693 784.469 589.808 784.328 589.808H783.563C783.422 589.808 783.371 589.744 783.308 589.616L782.478 587.409H778.433L777.603 589.616C777.552 589.744 777.514 589.808 777.361 589.808H776.582C776.442 589.808 776.365 589.706 776.416 589.578L779.722 580.773C779.773 580.632 779.811 580.543 780.015 580.543H780.896ZM782.121 586.375L780.474 581.679H780.449L778.79 586.375H782.121Z" fill="#231F20"/>
<path d="M789.55 588.749H793.544C793.685 588.749 793.774 588.812 793.774 588.94V589.578C793.774 589.731 793.697 589.808 793.544 589.808H788.644C788.491 589.808 788.414 589.744 788.414 589.578V580.76C788.414 580.62 788.478 580.543 788.644 580.543H789.333C789.473 580.543 789.563 580.607 789.563 580.76V588.749H789.55Z" fill="#231F20"/>
<path d="M803.752 585.597H799.018V589.578C799.018 589.731 798.941 589.808 798.788 589.808H798.099C797.946 589.808 797.869 589.744 797.869 589.578V580.76C797.869 580.62 797.933 580.543 798.099 580.543H798.788C798.928 580.543 799.018 580.607 799.018 580.76V584.55H803.752V580.76C803.752 580.62 803.829 580.543 803.982 580.543H804.684C804.824 580.543 804.901 580.607 804.901 580.76V589.578C804.901 589.731 804.837 589.808 804.684 589.808H803.982C803.842 589.808 803.752 589.744 803.752 589.578V585.597Z" fill="#231F20"/>
<path d="M813.286 580.543C813.478 580.543 813.529 580.62 813.58 580.773L816.885 589.578C816.923 589.693 816.859 589.808 816.719 589.808H815.953C815.813 589.808 815.762 589.744 815.698 589.616L814.869 587.409H810.823L809.994 589.616C809.943 589.744 809.904 589.808 809.751 589.808H808.973C808.832 589.808 808.756 589.706 808.807 589.578L812.112 580.773C812.163 580.632 812.201 580.543 812.406 580.543H813.286ZM814.524 586.375L812.878 581.679H812.852L811.193 586.375H814.524Z" fill="#231F20"/>
<path d="M827.835 589.578C827.835 589.731 827.759 589.808 827.606 589.808H826.878C826.725 589.808 826.649 589.757 826.572 589.642L821.914 582.444V589.591C821.914 589.744 821.85 589.821 821.697 589.821H821.021C820.868 589.821 820.791 589.757 820.791 589.591V580.773C820.791 580.632 820.855 580.556 821.021 580.556H821.735C821.889 580.556 821.978 580.594 822.054 580.709L826.712 587.919V580.76C826.712 580.62 826.776 580.543 826.929 580.543H827.606C827.746 580.543 827.835 580.607 827.835 580.734V589.565V589.578Z" fill="#231F20"/>
<path d="M832.775 589.796C832.621 589.796 832.545 589.732 832.545 589.566V580.748C832.545 580.608 832.609 580.531 832.762 580.531H835.033C837.956 580.531 839.666 581.667 839.666 584.998C839.666 588.648 837.969 589.783 835.059 589.783H832.775V589.796ZM833.693 581.603V588.75H835.046C837.228 588.75 838.505 588.01 838.505 585.023C838.505 582.331 837.216 581.603 835.021 581.603H833.693Z" fill="#231F20"/>
<path d="M851.467 585.176C851.467 588.239 850.051 589.936 847.473 589.936C844.895 589.936 843.504 588.239 843.504 585.176C843.504 582.113 844.92 580.403 847.486 580.403C850.051 580.403 851.467 582.113 851.467 585.176ZM850.306 585.176C850.306 582.777 849.387 581.424 847.486 581.424C845.584 581.424 844.665 582.764 844.665 585.176C844.665 587.588 845.584 588.903 847.486 588.903C849.387 588.903 850.306 587.575 850.306 585.176Z" fill="#231F20"/>
<path d="M862.318 589.796C862.164 589.796 862.088 589.72 862.088 589.566V580.761C862.088 580.621 862.152 580.531 862.305 580.531H864.87C867.512 580.531 868.737 581.45 868.737 583.747C868.737 586.044 867.512 586.95 864.87 586.95H863.236V589.566C863.236 589.707 863.16 589.796 863.007 589.796H862.318ZM864.857 585.929C866.746 585.929 867.563 585.368 867.563 583.773C867.563 582.177 866.746 581.59 864.857 581.59H863.224V585.929H864.857Z" fill="#231F20"/>
<path d="M876.138 580.543C876.329 580.543 876.38 580.62 876.431 580.773L879.737 589.578C879.775 589.693 879.711 589.808 879.571 589.808H878.805C878.665 589.808 878.614 589.744 878.55 589.616L877.72 587.409H873.675L872.845 589.616C872.794 589.744 872.756 589.808 872.603 589.808H871.824C871.684 589.808 871.607 589.706 871.658 589.578L874.964 580.773C875.015 580.632 875.053 580.543 875.257 580.543H876.138ZM877.363 586.375L875.717 581.679H875.691L874.032 586.375H877.363Z" fill="#231F20"/>
<path d="M886.563 580.543C889.141 580.543 890.315 581.5 890.315 583.529C890.315 585.265 889.307 586.171 887.635 586.362L890.328 589.514C890.417 589.642 890.392 589.808 890.2 589.808H889.396C889.23 589.808 889.154 589.744 889.064 589.642L886.397 586.49H884.789V589.591C884.789 589.744 884.713 589.821 884.559 589.821H883.87C883.717 589.821 883.641 589.757 883.641 589.591V580.773C883.641 580.632 883.704 580.556 883.87 580.556H886.563V580.543ZM886.512 585.431C888.477 585.431 889.166 584.818 889.166 583.516C889.166 582.151 888.413 581.577 886.538 581.577H884.789V585.431H886.512Z" fill="#231F20"/>
<path d="M898.05 580.543C898.241 580.543 898.292 580.62 898.343 580.773L901.649 589.578C901.687 589.693 901.623 589.808 901.483 589.808H900.717C900.577 589.808 900.526 589.744 900.462 589.616L899.632 587.409H895.587L894.757 589.616C894.706 589.744 894.668 589.808 894.515 589.808H893.736C893.596 589.808 893.52 589.706 893.571 589.578L896.876 580.773C896.927 580.632 896.965 580.543 897.169 580.543H898.05ZM899.275 586.375L897.629 581.679H897.603L895.944 586.375H899.275Z" fill="#231F20"/>
<path d="M911.128 580.748C911.128 580.608 911.205 580.531 911.345 580.531H917.343C917.496 580.531 917.573 580.595 917.573 580.748V581.374C917.573 581.514 917.509 581.603 917.343 581.603H914.918V589.579C914.918 589.732 914.854 589.809 914.688 589.809H913.999C913.859 589.809 913.77 589.745 913.77 589.579V581.603H911.345C911.205 581.603 911.115 581.527 911.115 581.374V580.748H911.128Z" fill="#231F20"/>
<path d="M928.639 585.176C928.639 588.239 927.222 589.936 924.645 589.936C922.067 589.936 920.676 588.239 920.676 585.176C920.676 582.113 922.092 580.403 924.657 580.403C927.222 580.403 928.639 582.113 928.639 585.176ZM927.478 585.176C927.478 582.777 926.559 581.424 924.657 581.424C922.756 581.424 921.837 582.764 921.837 585.176C921.837 587.588 922.756 588.903 924.657 588.903C926.559 588.903 927.478 587.575 927.478 585.176Z" fill="#231F20"/>
<path d="M933.142 589.796C932.989 589.796 932.912 589.732 932.912 589.566V580.748C932.912 580.608 932.976 580.531 933.129 580.531H935.401C938.323 580.531 940.033 581.667 940.033 584.998C940.033 588.648 938.336 589.783 935.426 589.783H933.142V589.796ZM934.061 581.603V588.75H935.413C937.596 588.75 938.872 588.01 938.872 585.023C938.872 582.331 937.583 581.603 935.388 581.603H934.061Z" fill="#231F20"/>
<path d="M951.84 585.176C951.84 588.239 950.424 589.936 947.846 589.936C945.268 589.936 943.877 588.239 943.877 585.176C943.877 582.113 945.293 580.403 947.859 580.403C950.424 580.403 951.84 582.113 951.84 585.176ZM950.679 585.176C950.679 582.777 949.76 581.424 947.859 581.424C945.957 581.424 945.038 582.764 945.038 585.176C945.038 587.588 945.957 588.903 947.859 588.903C949.76 588.903 950.679 587.575 950.679 585.176Z" fill="#231F20"/>
<path d="M958.334 589.911C957.262 589.911 956.241 589.732 955.731 589.49C955.59 589.426 955.514 589.375 955.565 589.234L955.782 588.647C955.807 588.532 955.871 588.43 956.05 588.52C956.535 588.724 957.351 588.903 958.308 588.903C959.738 588.903 960.657 588.405 960.657 587.422C960.657 586.363 959.597 585.98 958.411 585.508C957.02 584.959 955.782 584.449 955.782 582.803C955.782 581.322 956.739 580.403 958.959 580.403C959.98 580.403 960.746 580.569 961.244 580.786C961.371 580.837 961.448 580.901 961.397 581.041L961.18 581.616C961.142 581.731 961.09 581.794 960.899 581.731C960.44 581.552 959.865 581.424 959.023 581.424C957.504 581.424 956.905 581.896 956.905 582.79C956.905 583.823 957.862 584.091 958.972 584.564C960.401 585.176 961.767 585.712 961.767 587.422C961.767 589.132 960.427 589.885 958.321 589.885" fill="#231F20"/>
<mask id="mask1_2024_3224" style="mask-type:luminance" maskUnits="userSpaceOnUse" x="974" y="509" width="53" height="60">
<path d="M991.475 538.724C991.475 528.145 994.385 524.189 999.961 524.189C1005.54 524.189 1008.45 528.145 1008.45 538.724C1008.45 549.303 1005.54 553.259 999.961 553.259C994.385 553.259 991.475 549.303 991.475 538.724ZM974.668 528.323L975.485 530.812L986.421 564.247C986.587 564.732 986.664 565.179 986.664 565.574C990.441 567.425 994.933 568.28 999.961 568.28C1015.88 568.28 1026.29 559.64 1026.29 538.711C1026.29 517.782 1015.86 509.143 999.961 509.143C986.996 509.143 977.68 514.873 974.668 528.311" fill="white"/>
</mask>
<g mask="url(#mask1_2024_3224)">
<path d="M1026.29 509.155H974.668V568.28H1026.29V509.155Z" fill="#F7901E"/>
</g>
<path d="M938.528 510.533H926.737C924.72 510.533 923.827 511.427 923.827 513.443V530.977H910.9V513.443C910.9 511.427 910.006 510.533 907.99 510.533H896.198C896.071 510.533 895.943 510.533 895.828 510.533C897.589 510.635 898.368 511.542 898.368 513.43V564.808C898.368 566.697 897.589 567.603 895.828 567.705C895.943 567.705 896.071 567.705 896.198 567.705H907.99C910.006 567.705 910.9 566.812 910.9 564.796V546.457H923.827V564.796C923.827 566.812 924.72 567.705 926.737 567.705H938.528H933.679C931.739 567.705 930.769 566.327 931.497 564.234L941.438 533.836V513.417C941.438 511.401 940.545 510.508 938.528 510.508" fill="#45B649"/>
<path d="M849.58 564.821V534.614L842.548 513.124C841.987 511.427 841.17 510.533 839.077 510.533H824.541C822.436 510.533 821.632 511.427 821.07 513.124L807.352 555.097L810.963 561.069L812.801 564.106C814.013 566.046 813.209 567.744 811.18 567.744H852.489C850.473 567.744 849.58 566.85 849.58 564.834V564.821ZM846.313 539.119L838.005 545.168L841.068 554.778C841.31 555.531 840.442 556.156 839.804 555.684L831.726 549.737L823.584 555.671C822.933 556.143 822.078 555.505 822.321 554.752L825.524 545.181L817.293 539.119C816.655 538.647 816.987 537.639 817.778 537.639H828.038L831.114 528.451C831.369 527.698 832.428 527.71 832.671 528.451L835.593 537.626H845.815C846.606 537.626 846.938 538.634 846.3 539.106L846.313 539.119Z" fill="#204181"/>
<path d="M782.902 537.026V524.265H788.721C793.813 524.265 795.83 526.204 795.83 530.237C795.83 530.378 795.83 530.505 795.83 530.633C795.83 530.773 795.83 530.888 795.83 531.028C795.83 532.47 795.574 533.632 795.013 534.551C794.324 535.674 793.162 536.414 791.44 536.771H791.414C791.108 536.835 790.776 536.886 790.431 536.924H790.393C790.24 536.937 790.087 536.963 789.934 536.963C789.883 536.963 789.844 536.963 789.793 536.963C789.666 536.963 789.538 536.975 789.398 536.988C789.347 536.988 789.296 536.988 789.245 536.988C789.066 536.988 788.887 536.988 788.696 536.988H782.877L782.902 537.026ZM788.964 510.533H787.024H782.902H768.367C766.35 510.533 765.457 511.427 765.457 513.443V545.564L771.57 564.26C772.297 566.365 771.327 567.731 769.388 567.731H768.367H779.992C782.009 567.731 782.902 566.837 782.902 564.821V550.771H787.024L795.345 565.383C796.238 566.914 797.361 567.731 799.377 567.731H806.511C805.056 567.731 804.15 566.952 804.086 565.689C804.074 565.268 804.137 564.783 804.329 564.26L807.328 555.097L803.282 548.422C803.282 548.422 811.437 545.041 812.943 535.891C813.211 534.295 813.402 532.56 813.415 530.658C813.39 528.757 813.224 527.021 812.943 525.426C811.36 516.391 803.282 512.894 803.282 512.894C799.467 511.248 794.656 510.546 788.951 510.546" fill="#006395"/>
<path d="M807.34 555.084L804.341 564.247C804.163 564.77 804.086 565.255 804.099 565.676C804.15 566.952 805.069 567.718 806.524 567.718H811.182C813.198 567.718 814.015 566.021 812.802 564.081L810.965 561.056L807.353 555.084H807.34Z" fill="#293469"/>
<path d="M966.234 510.533H951.698C949.593 510.533 948.789 511.427 948.227 513.124L941.451 533.861V564.821C941.451 566.837 940.557 567.731 938.541 567.731H945.968C947.985 567.731 949.044 566.837 949.516 565.064L958.883 527.825H959.125L963.758 546.406L968.416 565.064C968.505 565.395 968.62 565.702 968.748 565.97C969.322 567.144 970.33 567.731 971.964 567.731H984.24C985.695 567.731 986.601 566.952 986.665 565.689C986.665 565.651 986.665 565.625 986.665 565.587C978.498 561.605 973.635 553.029 973.635 538.736C973.635 534.857 973.993 531.398 974.682 528.336L969.705 513.137C969.705 513.137 969.679 513.073 969.679 513.047C969.59 512.779 969.488 512.524 969.373 512.294V512.269C968.799 511.133 967.944 510.546 966.246 510.546" fill="#FEBD11"/>
<path d="M974.669 528.323C973.98 531.386 973.623 534.844 973.623 538.724C973.623 553.03 978.498 561.593 986.653 565.574C986.653 565.179 986.576 564.732 986.41 564.247L975.473 530.812L974.657 528.323H974.669Z" fill="#F47820"/>
<path d="M941.437 533.861L931.495 564.259C930.768 566.365 931.738 567.731 933.678 567.731H938.527C940.543 567.731 941.437 566.837 941.437 564.821V533.861Z" fill="#5B9345"/>
<path d="M895.457 510.533H884.303C882.287 510.533 881.394 511.427 881.394 513.443V538.162L867.177 512.307C866.45 511.018 865.723 510.533 863.706 510.533H852.476C850.46 510.533 849.566 511.427 849.566 513.443V534.614L859.252 564.247C859.98 566.352 859.01 567.718 857.07 567.718H863.617C865.633 567.718 866.527 566.825 866.527 564.808V540.089L880.743 565.944C881.47 567.233 882.198 567.718 884.214 567.718H895.444C895.572 567.718 895.7 567.718 895.814 567.718C894.053 567.616 893.275 566.71 893.275 564.821V513.443C893.275 511.554 894.053 510.648 895.814 510.546C895.7 510.546 895.572 510.546 895.444 510.546" fill="#009C47"/>
<path d="M895.829 510.546C894.068 510.648 893.289 511.554 893.289 513.443V564.821C893.289 566.71 894.068 567.616 895.829 567.718C897.59 567.616 898.368 566.71 898.368 564.821V513.443C898.368 511.554 897.59 510.648 895.829 510.546Z" fill="#009849"/>
<path d="M849.578 534.614V564.821C849.578 566.837 850.471 567.731 852.488 567.731H857.095C859.034 567.731 860.004 566.352 859.277 564.259L849.591 534.627L849.578 534.614Z" fill="#273B32"/>
<path d="M751.367 510.533H736.831C735.121 510.533 734.266 511.12 733.705 512.256V512.282C733.577 512.511 733.475 512.766 733.386 513.034C733.386 513.06 733.36 513.098 733.347 513.124L727.566 530.811L725.792 536.222V564.821C725.792 566.837 724.899 567.731 722.883 567.731H731.089C732.735 567.731 733.73 567.144 734.304 565.97V565.944C734.445 565.676 734.547 565.395 734.636 565.064L743.927 527.825H744.169L753.536 565.064C754.021 566.837 755.068 567.731 757.097 567.731H768.352C766.336 567.731 765.443 566.837 765.443 564.821V545.564L754.838 513.124C754.276 511.427 753.46 510.533 751.367 510.533Z" fill="#D91A21"/>
<path d="M725.804 536.223L716.641 564.26C716.539 564.566 716.462 564.86 716.437 565.128C716.411 565.319 716.398 565.498 716.411 565.676C716.462 566.953 717.381 567.731 718.836 567.731H722.92C724.936 567.731 725.829 566.838 725.829 564.821V536.223H725.804Z" fill="#A82529"/>
<path d="M765.457 545.552V564.809C765.457 566.825 766.35 567.719 768.367 567.719H769.388C771.327 567.719 772.297 566.34 771.57 564.248L765.457 545.552Z" fill="#2F2C30"/>
<rect x="802.773" y="911.144" width="314.454" height="59.2423" rx="29.6211" fill="white"/>
<path d="M868.199 935.844H870.087C870.443 935.844 870.662 936.036 870.771 936.391L873.042 943.752L873.727 946.598H873.781L874.383 943.752L876.353 936.446C876.463 936.063 876.709 935.844 877.092 935.844H879.528C880.02 935.844 880.184 936.09 880.02 936.556L876.107 949.663C875.998 950.073 875.724 950.265 875.314 950.265H872.878C872.44 950.265 872.167 950.073 872.057 949.635L869.978 943.068L869.184 940.085H869.102L868.309 943.068L866.256 949.635C866.119 950.073 865.846 950.265 865.435 950.265H863C862.562 950.265 862.316 950.073 862.207 949.663L858.266 936.556C858.129 936.09 858.294 935.844 858.759 935.844H861.194C861.577 935.844 861.823 936.063 861.933 936.446L863.903 943.752L864.505 946.598H864.56L865.271 943.752L867.488 936.391C867.57 936.036 867.816 935.844 868.199 935.844ZM891.661 935.844H893.549C893.905 935.844 894.124 936.036 894.233 936.391L896.504 943.752L897.189 946.598H897.243L897.845 943.752L899.815 936.446C899.925 936.063 900.171 935.844 900.554 935.844H902.99C903.482 935.844 903.646 936.09 903.482 936.556L899.569 949.663C899.46 950.073 899.186 950.265 898.776 950.265H896.34C895.902 950.265 895.629 950.073 895.519 949.635L893.44 943.068L892.646 940.085H892.564L891.771 943.068L889.718 949.635C889.581 950.073 889.308 950.265 888.897 950.265H886.462C886.024 950.265 885.778 950.073 885.669 949.663L881.728 936.556C881.591 936.09 881.756 935.844 882.221 935.844H884.656C885.039 935.844 885.285 936.063 885.395 936.446L887.365 943.752L887.967 946.598H888.022L888.733 943.752L890.95 936.391C891.032 936.036 891.278 935.844 891.661 935.844ZM915.123 935.844H917.011C917.367 935.844 917.586 936.036 917.695 936.391L919.966 943.752L920.651 946.598H920.705L921.307 943.752L923.277 936.446C923.387 936.063 923.633 935.844 924.016 935.844H926.452C926.944 935.844 927.108 936.09 926.944 936.556L923.031 949.663C922.922 950.073 922.648 950.265 922.238 950.265H919.802C919.364 950.265 919.091 950.073 918.981 949.635L916.902 943.068L916.108 940.085H916.026L915.233 943.068L913.18 949.635C913.043 950.073 912.77 950.265 912.359 950.265H909.924C909.486 950.265 909.24 950.073 909.131 949.663L905.19 936.556C905.053 936.09 905.218 935.844 905.683 935.844H908.118C908.501 935.844 908.747 936.063 908.857 936.446L910.827 943.752L911.429 946.598H911.484L912.195 943.752L914.412 936.391C914.494 936.036 914.74 935.844 915.123 935.844ZM928.295 949.635V947.008C928.295 946.625 928.514 946.406 928.979 946.406H931.387C931.825 946.406 932.072 946.625 932.072 947.008V949.635C932.072 950.073 931.853 950.265 931.442 950.265H928.925C928.487 950.265 928.295 950.073 928.295 949.635ZM947.916 941.645V949.635C947.916 950.073 947.697 950.265 947.287 950.265H944.961C944.523 950.265 944.332 950.073 944.332 949.635V941.372C944.332 940.469 944.14 939.784 943.784 939.319C943.429 938.854 942.854 938.608 942.033 938.608C941.075 938.608 940.337 938.909 939.789 939.511C939.242 940.113 938.996 940.879 938.996 941.809V949.635C938.996 950.073 938.777 950.265 938.366 950.265H936.041C935.603 950.265 935.384 950.073 935.384 949.635V936.473C935.384 936.063 935.603 935.844 936.041 935.844H938.202C938.585 935.844 938.804 936.036 938.859 936.391L938.996 937.814C939.324 937.212 939.844 936.665 940.583 936.2C941.322 935.762 942.252 935.516 943.347 935.516C945.481 935.516 946.849 936.337 947.506 937.951C948.463 936.337 950.051 935.516 952.267 935.516C953.799 935.516 954.949 935.981 955.715 936.884C956.481 937.814 956.864 939.1 956.864 940.77V949.635C956.864 950.073 956.645 950.265 956.235 950.265H953.881C953.444 950.265 953.252 950.073 953.252 949.635V941.399C953.252 940.469 953.061 939.784 952.705 939.319C952.322 938.854 951.72 938.608 950.899 938.608C949.968 938.608 949.257 938.909 948.71 939.483C948.163 940.058 947.916 940.77 947.916 941.645ZM972.627 940.715V949.635C972.627 950.073 972.408 950.265 971.97 950.265H969.945C969.562 950.265 969.344 950.1 969.316 949.745L969.207 948.267C968.222 949.772 966.58 950.511 964.227 950.511C962.776 950.511 961.627 950.155 960.806 949.416C959.958 948.705 959.547 947.665 959.547 946.324C959.547 945.558 959.684 944.874 960.013 944.299C960.314 943.725 960.724 943.26 961.244 942.931C961.764 942.603 962.448 942.329 963.296 942.11C964.144 941.891 965.02 941.755 965.896 941.673C966.771 941.59 967.839 941.536 969.097 941.508V940.879C969.097 940.031 968.851 939.401 968.358 938.991C967.866 938.608 967.072 938.389 965.978 938.389C964.637 938.389 963.269 938.663 961.873 939.21C961.49 939.347 961.217 939.21 961.08 938.827L960.587 937.322C960.478 936.993 960.587 936.747 960.97 936.556C962.585 935.871 964.418 935.516 966.443 935.516C970.547 935.516 972.627 937.267 972.627 940.715ZM969.097 944.819V943.643C968.057 943.697 967.237 943.752 966.58 943.807C965.923 943.862 965.294 943.998 964.692 944.163C964.09 944.327 963.679 944.573 963.406 944.901C963.132 945.23 962.995 945.613 962.995 946.105C962.995 946.707 963.187 947.173 963.625 947.501C964.035 947.857 964.637 948.021 965.403 948.021C966.607 948.021 967.51 947.747 968.14 947.145C968.769 946.543 969.097 945.777 969.097 944.819ZM975.834 949.635V947.008C975.834 946.625 976.053 946.406 976.518 946.406H978.926C979.364 946.406 979.61 946.625 979.61 947.008V949.635C979.61 950.073 979.391 950.265 978.981 950.265H976.463C976.026 950.265 975.834 950.073 975.834 949.635ZM992.253 942.001C992.253 939.483 991.186 938.225 989.079 938.225C987 938.225 985.96 939.538 985.96 942.138C985.96 944.765 987 946.051 989.079 946.051C990.064 946.051 990.858 945.722 991.405 945.011C991.952 944.327 992.253 943.314 992.253 942.001ZM995.811 936.473V947.829C995.811 949.717 995.181 951.14 993.977 952.125C992.773 953.11 991.077 953.603 988.888 953.603C986.699 953.603 985.029 953.329 983.853 952.755C983.47 952.591 983.36 952.344 983.47 952.016L983.935 950.538C984.044 950.155 984.291 950.018 984.701 950.128C985.987 950.593 987.301 950.812 988.614 950.812C989.845 950.812 990.776 950.538 991.432 949.991C992.062 949.444 992.39 948.678 992.39 947.665V946.488C992.007 947.173 991.46 947.692 990.694 948.076C989.927 948.459 989.107 948.623 988.176 948.623C986.398 948.623 984.975 948.103 983.935 947.036C982.868 945.996 982.348 944.354 982.348 942.138C982.348 939.949 982.84 938.279 983.88 937.185C984.92 936.09 986.288 935.543 988.039 935.543C988.97 935.543 989.845 935.762 990.639 936.145C991.405 936.528 991.98 937.048 992.363 937.677L992.445 936.391C992.472 936.036 992.691 935.844 993.102 935.844H995.181C995.592 935.844 995.811 936.063 995.811 936.473ZM1005.92 950.566C1003.71 950.566 1001.95 949.936 1000.7 948.623C999.437 947.337 998.807 945.476 998.807 943.041C998.807 940.633 999.437 938.772 1000.7 937.459C1001.95 936.172 1003.71 935.516 1005.92 935.516C1008.11 935.516 1009.86 936.172 1011.15 937.459C1012.41 938.772 1013.06 940.633 1013.06 943.041C1013.06 945.476 1012.41 947.337 1011.15 948.623C1009.86 949.936 1008.11 950.566 1005.92 950.566ZM1005.92 947.665C1008.22 947.665 1009.37 946.133 1009.37 943.041C1009.37 939.976 1008.22 938.416 1005.92 938.416C1003.62 938.416 1002.5 939.976 1002.5 943.041C1002.5 946.133 1003.62 947.665 1005.92 947.665ZM1022.66 950.265H1019.98C1019.57 950.265 1019.29 950.1 1019.19 949.745L1014.48 936.556C1014.31 936.09 1014.48 935.844 1014.97 935.844H1017.38C1017.76 935.844 1018.01 936.063 1018.12 936.446L1020.17 942.658L1021.29 946.653H1021.37L1022.5 942.658L1024.52 936.446C1024.63 936.063 1024.88 935.844 1025.26 935.844H1027.72C1027.94 935.844 1028.08 935.926 1028.16 936.063C1028.24 936.2 1028.24 936.364 1028.19 936.556L1023.45 949.745C1023.32 950.1 1023.04 950.265 1022.66 950.265ZM1028.42 949.635V947.008C1028.42 946.625 1028.64 946.406 1029.11 946.406H1031.52C1031.95 946.406 1032.2 946.625 1032.2 947.008V949.635C1032.2 950.073 1031.98 950.265 1031.57 950.265H1029.05C1028.61 950.265 1028.42 950.073 1028.42 949.635ZM1039.23 943.041C1039.23 946.105 1040.41 947.638 1042.76 947.638C1043.91 947.638 1044.79 947.282 1045.36 946.571C1045.91 945.859 1046.21 944.683 1046.21 943.041C1046.21 941.426 1045.91 940.25 1045.36 939.538C1044.79 938.827 1043.91 938.444 1042.76 938.444C1040.41 938.444 1039.23 939.976 1039.23 943.041ZM1039.12 948.24L1039.04 949.745C1038.99 950.1 1038.8 950.265 1038.41 950.265H1036.25C1035.81 950.265 1035.62 950.073 1035.62 949.635V931.603C1035.62 931.22 1035.81 931.001 1036.25 931.001H1038.6C1039.01 931.001 1039.23 931.22 1039.23 931.603V937.787C1039.62 937.075 1040.22 936.528 1041.07 936.118C1041.89 935.735 1042.82 935.516 1043.8 935.516C1045.72 935.516 1047.22 936.172 1048.29 937.431C1049.36 938.69 1049.9 940.578 1049.9 943.041C1049.9 945.531 1049.36 947.419 1048.29 948.678C1047.22 949.936 1045.72 950.566 1043.8 950.566C1042.76 950.566 1041.83 950.374 1040.98 949.964C1040.14 949.581 1039.51 949.006 1039.12 948.24ZM1053.56 935.844H1055.73C1056.11 935.844 1056.33 936.036 1056.38 936.419L1056.52 938.58C1056.82 937.869 1057.37 937.212 1058.13 936.61C1058.9 936.036 1059.8 935.735 1060.87 935.735C1061.06 935.735 1061.2 935.789 1061.28 935.844C1061.36 935.926 1061.42 936.063 1061.42 936.282V938.827C1061.42 939.155 1061.23 939.319 1060.9 939.319C1060.82 939.319 1060.68 939.319 1060.51 939.292C1060.32 939.292 1060.16 939.265 1060.02 939.265C1059.01 939.265 1058.19 939.675 1057.53 940.496C1056.88 941.317 1056.55 942.247 1056.55 943.342V949.635C1056.55 950.073 1056.33 950.265 1055.92 950.265H1053.56C1053.13 950.265 1052.91 950.073 1052.91 949.635V936.473C1052.91 936.063 1053.13 935.844 1053.56 935.844Z" fill="#121726"/>
</g>
<defs>
<clipPath id="clip0_2024_3224">
<rect width="1920" height="1080" fill="white" transform="translate(0 0.115234)"/>
</clipPath>
</defs>
</svg>
