<svg width="1920" height="1081" viewBox="0 0 1920 1081" fill="none" xmlns="http://www.w3.org/2000/svg">
<g clip-path="url(#clip0_2024_3224)">
<rect width="1920" height="1080" transform="translate(0 0.115234)" fill="white"/>
<rect x="675.463" y="813.091" width="949.113" height="526.481" rx="36.4846" transform="rotate(3.5308 675.463 813.091)" fill="#FEBD11"/>
<rect x="-22.124" y="878.054" width="857.584" height="591.044" rx="36.4846" transform="rotate(-12.8261 -22.124 878.054)" fill="#D91A21"/>
<rect x="1308.88" y="760.243" width="761.615" height="761.615" rx="45.6057" transform="rotate(-14.1807 1308.88 760.243)" fill="#006395"/>
<rect x="-241.583" y="530.336" width="547.95" height="519.261" rx="36.4846" transform="rotate(21.9325 -241.583 530.336)" fill="#45B649"/>
<path d="M1097.12 561.949C1096.09 562.647 1094.72 563.011 1093 563.011C1091.04 563.011 1089.51 562.735 1088.42 562.182C1088.12 562.022 1088 561.818 1088.1 561.542L1088.61 560.188C1088.73 559.854 1088.93 559.737 1089.25 559.868C1090.27 560.29 1091.39 560.509 1092.61 560.509C1093.57 560.509 1094.33 560.363 1094.88 560.057C1095.43 559.766 1095.71 559.315 1095.71 558.719C1095.71 558.486 1095.65 558.253 1095.54 558.05C1095.42 557.846 1095.29 557.686 1095.16 557.555C1095.03 557.424 1094.79 557.278 1094.47 557.104C1094.15 556.929 1093.89 556.813 1093.7 556.74C1093.51 556.667 1093.19 556.536 1092.74 556.376C1092.16 556.158 1091.71 555.983 1091.39 555.853C1091.07 555.707 1090.68 555.503 1090.24 555.227C1089.79 554.95 1089.45 554.674 1089.22 554.383C1088.99 554.092 1088.79 553.728 1088.61 553.277C1088.44 552.826 1088.35 552.317 1088.35 551.749C1088.35 549.043 1090.14 547.69 1093.72 547.69C1095.33 547.69 1096.69 547.937 1097.75 548.432C1098.05 548.592 1098.17 548.796 1098.07 549.072L1097.59 550.382C1097.46 550.687 1097.24 550.789 1096.92 550.673C1096.12 550.367 1095.14 550.207 1094.01 550.207C1092.22 550.207 1091.33 550.745 1091.33 551.808C1091.33 552.448 1091.74 552.957 1092.54 553.379C1092.79 553.51 1093.34 553.743 1094.17 554.077C1094.63 554.267 1094.93 554.383 1095.06 554.441C1095.19 554.499 1095.45 554.616 1095.84 554.805C1096.25 554.994 1096.51 555.125 1096.64 555.227C1096.77 555.329 1096.99 555.474 1097.28 555.678C1097.57 555.882 1097.78 556.071 1097.89 556.26C1098.01 556.449 1098.14 556.667 1098.3 556.929C1098.46 557.191 1098.56 557.468 1098.62 557.773C1098.68 558.079 1098.71 558.413 1098.71 558.777C1098.71 560.188 1098.2 561.236 1097.17 561.949H1097.12Z" fill="#231F20"/>
<path d="M1103.25 556.464V560.291H1109.26C1109.61 560.291 1109.78 560.466 1109.78 560.8V562.299C1109.78 562.648 1109.61 562.823 1109.26 562.823H1100.86C1100.51 562.823 1100.34 562.648 1100.34 562.299V548.462C1100.34 548.127 1100.51 547.953 1100.85 547.953H1109.17C1109.52 547.953 1109.69 548.127 1109.69 548.462V549.961C1109.69 550.31 1109.52 550.484 1109.17 550.484H1103.25V554.02H1108.89C1109.23 554.02 1109.4 554.195 1109.4 554.544V555.941C1109.4 556.29 1109.23 556.464 1108.89 556.464H1103.25Z" fill="#231F20"/>
<path d="M1120.97 559.825C1121.29 559.694 1121.53 559.796 1121.68 560.116L1122.28 561.425C1122.38 561.673 1122.28 561.876 1121.96 562.065C1120.94 562.735 1119.6 563.055 1117.93 563.055C1115.74 563.055 1114.04 562.4 1112.85 561.105C1111.64 559.81 1111.04 557.904 1111.04 555.372C1111.04 552.841 1111.64 550.935 1112.83 549.64C1114.03 548.33 1115.69 547.69 1117.84 547.69C1119.45 547.69 1120.79 548.01 1121.84 548.636C1122.13 548.839 1122.23 549.058 1122.13 549.29L1121.56 550.585C1121.43 550.906 1121.2 550.993 1120.85 550.833C1120.09 550.484 1119.25 550.309 1118.32 550.309C1116.88 550.309 1115.82 550.731 1115.12 551.56C1114.42 552.39 1114.07 553.67 1114.07 555.387C1114.07 557.104 1114.43 558.384 1115.13 559.199C1115.85 560.028 1116.94 560.436 1118.42 560.436C1119.38 560.436 1120.24 560.232 1121 559.825H1120.97Z" fill="#231F20"/>
<path d="M1134.85 549.625C1136 550.92 1136.57 552.84 1136.57 555.372C1136.57 557.904 1136 559.824 1134.85 561.105C1133.7 562.385 1132.07 563.04 1129.96 563.04C1127.85 563.04 1126.24 562.385 1125.1 561.09C1123.97 559.795 1123.38 557.889 1123.38 555.358C1123.38 552.826 1123.95 550.905 1125.1 549.61C1126.25 548.315 1127.88 547.661 1129.97 547.661C1132.07 547.661 1133.7 548.315 1134.85 549.61V549.625ZM1133.54 555.372C1133.54 551.967 1132.35 550.251 1129.96 550.251C1127.57 550.251 1126.37 551.953 1126.37 555.372C1126.37 558.791 1127.56 560.465 1129.96 560.465C1132.36 560.465 1133.54 558.762 1133.54 555.372Z" fill="#231F20"/>
<path d="M1145.05 558.952L1141.31 552.827V562.299C1141.31 562.648 1141.14 562.823 1140.8 562.823H1138.97C1138.62 562.823 1138.45 562.648 1138.45 562.299V548.462C1138.45 548.127 1138.62 547.953 1138.97 547.953H1140.76C1141.05 547.953 1141.25 548.054 1141.37 548.244L1145.52 555.053L1149.66 548.244C1149.78 548.04 1149.97 547.953 1150.26 547.953H1152.08C1152.43 547.953 1152.6 548.127 1152.6 548.462V562.299C1152.6 562.648 1152.43 562.823 1152.08 562.823H1150.25C1149.91 562.823 1149.74 562.648 1149.74 562.299V552.827L1146 558.952C1145.88 559.142 1145.73 559.229 1145.53 559.229C1145.31 559.229 1145.17 559.142 1145.07 558.952H1145.05Z" fill="#231F20"/>
<path d="M1096.34 549.819C1095.42 550.488 1094.14 550.837 1092.49 550.837C1090.85 550.837 1089.45 550.619 1088.44 550.182C1088.25 550.095 1088.19 549.993 1088.22 549.862L1088.46 549.193C1088.52 549.018 1088.62 548.975 1088.78 549.048C1089.8 549.455 1091.03 549.659 1092.44 549.659C1093.67 549.659 1094.65 549.426 1095.35 548.946C1096.04 548.466 1096.39 547.811 1096.39 546.952C1096.39 546.501 1096.31 546.108 1096.15 545.774C1095.99 545.439 1095.71 545.134 1095.32 544.872C1094.92 544.61 1094.59 544.406 1094.28 544.246C1093.98 544.086 1093.53 543.897 1092.95 543.65C1092.89 543.65 1092.84 543.62 1092.81 543.606L1092.71 543.548C1092.71 543.548 1092.63 543.504 1092.58 543.489C1092 543.257 1091.58 543.068 1091.32 542.951C1091.05 542.835 1090.69 542.646 1090.25 542.384C1089.82 542.122 1089.5 541.86 1089.29 541.612C1089.09 541.365 1088.9 541.03 1088.74 540.623C1088.58 540.216 1088.49 539.765 1088.49 539.255C1088.49 538.106 1088.89 537.204 1089.67 536.549C1090.46 535.894 1091.68 535.574 1093.32 535.574C1094.74 535.574 1095.91 535.778 1096.86 536.185C1097.03 536.244 1097.09 536.345 1097.05 536.476L1096.8 537.131C1096.76 537.306 1096.64 537.349 1096.47 537.277C1095.62 536.942 1094.6 536.767 1093.43 536.767C1091.01 536.767 1089.82 537.597 1089.82 539.241C1089.82 539.488 1089.85 539.706 1089.9 539.91C1089.96 540.114 1090.02 540.288 1090.08 540.434C1090.14 540.579 1090.25 540.739 1090.43 540.885C1090.6 541.03 1090.73 541.161 1090.84 541.249C1090.94 541.336 1091.11 541.438 1091.36 541.569C1091.61 541.7 1091.8 541.787 1091.91 541.845C1092.03 541.903 1092.26 541.991 1092.58 542.136C1092.9 542.267 1093.12 542.369 1093.24 542.427C1093.67 542.616 1093.92 542.718 1093.99 542.747C1094.05 542.776 1094.28 542.878 1094.68 543.053C1095.07 543.228 1095.32 543.344 1095.4 543.417C1095.49 543.475 1095.7 543.606 1096 543.795C1096.31 543.984 1096.5 544.144 1096.6 544.261C1096.69 544.377 1096.83 544.552 1097.03 544.77C1097.24 544.988 1097.35 545.206 1097.43 545.41C1097.49 545.614 1097.56 545.861 1097.62 546.123C1097.67 546.399 1097.72 546.69 1097.72 546.981C1097.72 548.189 1097.25 549.135 1096.34 549.819Z" fill="#231F20"/>
<path d="M1107.48 549.119C1107.64 549.032 1107.76 549.09 1107.85 549.265L1108.06 549.818C1108.11 549.949 1108.06 550.036 1107.89 550.109C1106.9 550.633 1105.78 550.895 1104.53 550.895C1102.86 550.895 1101.55 550.385 1100.6 549.381C1099.67 548.377 1099.19 546.995 1099.19 545.235C1099.19 543.474 1099.62 542.034 1100.48 541.044C1101.34 540.055 1102.53 539.56 1104.06 539.56C1105.59 539.56 1106.68 540.026 1107.48 540.971C1108.28 541.917 1108.69 543.139 1108.69 544.682V545.555C1108.69 545.729 1108.6 545.802 1108.41 545.802H1100.43C1100.48 547.039 1100.88 548.028 1101.6 548.756C1102.33 549.483 1103.32 549.847 1104.59 549.847C1105.68 549.847 1106.64 549.614 1107.48 549.149V549.119ZM1100.41 544.74H1107.47V544.565C1107.47 543.372 1107.18 542.412 1106.59 541.684C1106.01 540.971 1105.17 540.608 1104.03 540.608C1101.72 540.608 1100.51 541.975 1100.4 544.725L1100.41 544.74Z" fill="#231F20"/>
<path d="M1111.6 541.03C1112.5 540.04 1113.72 539.545 1115.28 539.545C1116.49 539.545 1117.48 539.764 1118.23 540.2C1118.41 540.302 1118.47 540.404 1118.41 540.52L1118.16 541.117C1118.1 541.291 1117.99 541.335 1117.8 541.248C1117.11 540.884 1116.31 540.695 1115.41 540.695C1114.17 540.695 1113.21 541.073 1112.53 541.83C1111.85 542.586 1111.51 543.707 1111.51 545.191C1111.51 546.675 1111.85 547.795 1112.53 548.566C1113.2 549.338 1114.15 549.73 1115.34 549.73C1116.34 549.73 1117.2 549.512 1117.94 549.09C1118.1 549.017 1118.21 549.061 1118.26 549.221L1118.51 549.832C1118.55 549.949 1118.5 550.051 1118.32 550.123C1117.52 550.603 1116.53 550.836 1115.37 550.836C1113.8 550.836 1112.55 550.342 1111.63 549.352C1110.71 548.363 1110.26 546.966 1110.26 545.176C1110.26 543.387 1110.71 542.004 1111.61 541.015L1111.6 541.03Z" fill="#231F20"/>
<path d="M1121.49 539.807C1121.67 539.807 1121.74 539.895 1121.74 540.055V542.383C1121.97 541.742 1122.4 541.146 1123.04 540.593C1123.68 540.04 1124.48 539.764 1125.41 539.764C1125.55 539.764 1125.61 539.822 1125.61 539.953V540.855C1125.61 541.015 1125.54 541.088 1125.38 541.088C1125.38 541.088 1125.32 541.088 1125.23 541.073C1125.15 541.073 1125.06 541.059 1124.99 541.059C1124.11 541.059 1123.36 541.481 1122.7 542.31C1122.05 543.154 1121.73 544.085 1121.73 545.133V550.4C1121.73 550.574 1121.64 550.647 1121.48 550.647H1120.77C1120.58 550.647 1120.49 550.56 1120.49 550.4V540.084C1120.49 539.895 1120.58 539.807 1120.77 539.807H1121.48H1121.49Z" fill="#231F20"/>
<path d="M1135.07 549.119C1135.23 549.032 1135.34 549.09 1135.43 549.265L1135.65 549.818C1135.69 549.949 1135.65 550.036 1135.48 550.109C1134.49 550.633 1133.37 550.895 1132.11 550.895C1130.44 550.895 1129.13 550.385 1128.19 549.381C1127.25 548.377 1126.77 546.995 1126.77 545.235C1126.77 543.474 1127.21 542.034 1128.07 541.044C1128.93 540.055 1130.12 539.56 1131.65 539.56C1133.18 539.56 1134.27 540.026 1135.07 540.971C1135.87 541.917 1136.28 543.139 1136.28 544.682V545.555C1136.28 545.729 1136.19 545.802 1136 545.802H1128.01C1128.07 547.039 1128.46 548.028 1129.19 548.756C1129.92 549.483 1130.91 549.847 1132.17 549.847C1133.26 549.847 1134.22 549.614 1135.07 549.149V549.119ZM1128.01 544.74H1135.07V544.565C1135.07 543.372 1134.78 542.412 1134.19 541.684C1133.61 540.971 1132.77 540.608 1131.63 540.608C1129.32 540.608 1128.11 541.975 1128 544.725L1128.01 544.74Z" fill="#231F20"/>
<path d="M1140.15 540.928V547.388C1140.15 548.261 1140.28 548.858 1140.55 549.178C1140.82 549.498 1141.33 549.658 1142.05 549.658C1142.27 549.658 1142.62 549.614 1143.12 549.512C1143.25 549.512 1143.33 549.571 1143.36 549.731L1143.54 550.298C1143.57 550.429 1143.51 550.516 1143.36 550.545C1142.98 550.705 1142.48 550.778 1141.86 550.778C1140.79 550.778 1140.05 550.531 1139.61 550.036C1139.17 549.541 1138.95 548.698 1138.95 547.519V540.928H1137.31C1137.14 540.928 1137.06 540.841 1137.06 540.68V540.084C1137.06 539.895 1137.15 539.807 1137.31 539.807H1138.98V536.999C1138.98 536.825 1139.07 536.752 1139.23 536.752H1139.9C1140.07 536.752 1140.15 536.839 1140.15 536.999V539.807H1143.13C1143.3 539.807 1143.38 539.895 1143.38 540.084V540.68C1143.38 540.855 1143.29 540.928 1143.13 540.928H1140.15Z" fill="#231F20"/>
<path d="M1153.26 550.385C1153.26 550.56 1153.17 550.633 1153.01 550.633H1152.34C1152.18 550.633 1152.11 550.545 1152.11 550.385V548.625C1151.39 550.094 1150 550.822 1147.92 550.822C1146.77 550.822 1145.86 550.545 1145.24 549.993C1144.6 549.44 1144.29 548.698 1144.29 547.766C1144.29 547.272 1144.38 546.835 1144.54 546.471C1144.71 546.093 1144.98 545.788 1145.33 545.526C1145.68 545.278 1146.07 545.06 1146.48 544.9C1146.9 544.74 1147.42 544.609 1148.06 544.507C1148.7 544.405 1149.33 544.333 1149.92 544.289C1150.52 544.245 1151.23 544.216 1152.06 544.202V543.372C1152.06 542.412 1151.83 541.714 1151.38 541.277C1150.93 540.841 1150.16 540.622 1149.08 540.622C1147.92 540.622 1146.75 540.855 1145.62 541.335C1145.44 541.408 1145.34 541.35 1145.3 541.19L1145.11 540.579C1145.06 540.448 1145.11 540.36 1145.25 540.288C1146.45 539.764 1147.76 539.502 1149.17 539.502C1150.58 539.502 1151.64 539.822 1152.3 540.448C1152.95 541.073 1153.27 542.034 1153.27 543.329V550.342L1153.26 550.385ZM1152.05 545.235C1151.29 545.264 1150.69 545.293 1150.27 545.307C1149.85 545.322 1149.34 545.366 1148.75 545.438C1148.15 545.497 1147.7 545.584 1147.38 545.7C1147.06 545.817 1146.72 545.962 1146.4 546.137C1146.08 546.311 1145.84 546.53 1145.69 546.806C1145.54 547.068 1145.49 547.388 1145.49 547.752C1145.49 548.363 1145.7 548.858 1146.16 549.236C1146.59 549.614 1147.25 549.803 1148.11 549.803C1149.36 549.803 1150.33 549.483 1151.02 548.858C1151.7 548.217 1152.05 547.432 1152.05 546.471V545.249V545.235Z" fill="#231F20"/>
<path d="M1156.91 539.807C1157.08 539.807 1157.16 539.895 1157.16 540.055V542.383C1157.39 541.742 1157.81 541.146 1158.45 540.593C1159.09 540.04 1159.89 539.764 1160.82 539.764C1160.97 539.764 1161.03 539.822 1161.03 539.953V540.855C1161.03 541.015 1160.96 541.088 1160.8 541.088C1160.8 541.088 1160.74 541.088 1160.65 541.073C1160.56 541.073 1160.47 541.059 1160.4 541.059C1159.53 541.059 1158.77 541.481 1158.12 542.31C1157.46 543.154 1157.14 544.085 1157.14 545.133V550.4C1157.14 550.574 1157.06 550.647 1156.9 550.647H1156.18C1155.99 550.647 1155.91 550.56 1155.91 550.4V540.084C1155.91 539.895 1155.99 539.807 1156.18 539.807H1156.9H1156.91Z" fill="#231F20"/>
<path d="M1164.08 538.003C1164.08 538.177 1163.99 538.25 1163.83 538.25H1163.09C1162.93 538.25 1162.86 538.163 1162.86 538.003V536.242C1162.86 536.067 1162.93 535.995 1163.09 535.995H1163.83C1164.01 535.995 1164.08 536.082 1164.08 536.242V538.003ZM1164.08 550.385C1164.08 550.559 1163.99 550.632 1163.83 550.632H1163.09C1162.93 550.632 1162.86 550.545 1162.86 550.385V540.069C1162.86 539.879 1162.93 539.792 1163.09 539.792H1163.83C1164.01 539.792 1164.08 539.879 1164.08 540.069V550.385Z" fill="#231F20"/>
<path d="M1175.05 550.385C1175.05 550.56 1174.97 550.633 1174.81 550.633H1174.14C1173.98 550.633 1173.9 550.545 1173.9 550.385V548.625C1173.19 550.094 1171.79 550.822 1169.71 550.822C1168.56 550.822 1167.66 550.545 1167.04 549.993C1166.4 549.44 1166.09 548.698 1166.09 547.766C1166.09 547.272 1166.18 546.835 1166.34 546.471C1166.51 546.093 1166.77 545.788 1167.12 545.526C1167.47 545.278 1167.86 545.06 1168.27 544.9C1168.69 544.74 1169.22 544.609 1169.86 544.507C1170.5 544.405 1171.12 544.333 1171.72 544.289C1172.32 544.245 1173.03 544.216 1173.86 544.202V543.372C1173.86 542.412 1173.63 541.714 1173.18 541.277C1172.72 540.841 1171.95 540.622 1170.88 540.622C1169.71 540.622 1168.55 540.855 1167.41 541.335C1167.24 541.408 1167.14 541.35 1167.09 541.19L1166.9 540.579C1166.86 540.448 1166.9 540.36 1167.05 540.288C1168.24 539.764 1169.55 539.502 1170.96 539.502C1172.38 539.502 1173.44 539.822 1174.09 540.448C1174.75 541.073 1175.07 542.034 1175.07 543.329V550.342L1175.05 550.385ZM1173.85 545.235C1173.09 545.264 1172.49 545.293 1172.07 545.307C1171.65 545.322 1171.14 545.366 1170.54 545.438C1169.95 545.497 1169.49 545.584 1169.17 545.7C1168.85 545.817 1168.52 545.962 1168.2 546.137C1167.88 546.311 1167.63 546.53 1167.49 546.806C1167.34 547.068 1167.27 547.388 1167.27 547.752C1167.27 548.363 1167.49 548.858 1167.94 549.236C1168.37 549.614 1169.03 549.803 1169.89 549.803C1171.14 549.803 1172.11 549.483 1172.8 548.858C1173.48 548.217 1173.83 547.432 1173.83 546.471V545.249L1173.85 545.235Z" fill="#231F20"/>
<path d="M1191.64 548.509C1190.99 550.08 1189.65 550.851 1187.61 550.851C1186.11 550.851 1184.95 550.371 1184.12 549.396C1183.27 548.436 1182.87 547.039 1182.87 545.206C1182.87 543.373 1183.29 541.976 1184.12 541.001C1184.95 540.026 1186.13 539.546 1187.61 539.546C1188.57 539.546 1189.4 539.75 1190.1 540.172C1190.8 540.594 1191.31 541.176 1191.63 541.932V536.054C1191.63 535.894 1191.71 535.821 1191.87 535.821H1192.59C1192.77 535.821 1192.86 535.894 1192.86 536.054V550.386C1192.86 550.56 1192.77 550.633 1192.59 550.633H1191.87C1191.71 550.633 1191.64 550.546 1191.64 550.386V548.509ZM1190.64 541.83C1189.97 541.045 1189.02 540.652 1187.81 540.652C1185.34 540.652 1184.12 542.18 1184.12 545.221C1184.12 548.262 1185.35 549.76 1187.81 549.76C1189.02 549.76 1189.97 549.367 1190.64 548.582C1191.31 547.796 1191.64 546.676 1191.64 545.206C1191.64 543.737 1191.31 542.616 1190.64 541.83Z" fill="#231F20"/>
<path d="M1203.43 549.119C1203.59 549.032 1203.7 549.09 1203.79 549.265L1204.01 549.818C1204.05 549.949 1204.01 550.036 1203.83 550.109C1202.84 550.633 1201.72 550.895 1200.47 550.895C1198.8 550.895 1197.49 550.385 1196.54 549.381C1195.61 548.377 1195.13 546.995 1195.13 545.235C1195.13 543.474 1195.57 542.034 1196.43 541.044C1197.29 540.055 1198.48 539.56 1199.99 539.56C1201.5 539.56 1202.61 540.026 1203.41 540.971C1204.21 541.903 1204.62 543.139 1204.62 544.682V545.555C1204.62 545.729 1204.53 545.802 1204.34 545.802H1196.35C1196.41 547.039 1196.81 548.028 1197.53 548.756C1198.26 549.483 1199.25 549.847 1200.52 549.847C1201.61 549.847 1202.57 549.614 1203.41 549.149L1203.43 549.119ZM1196.35 544.74H1203.41V544.565C1203.41 543.372 1203.12 542.412 1202.54 541.684C1201.96 540.971 1201.11 540.608 1199.98 540.608C1197.66 540.608 1196.46 541.975 1196.34 544.725L1196.35 544.74Z" fill="#231F20"/>
<path d="M1214.06 543.649V549.44H1220.87C1221.06 549.44 1221.15 549.527 1221.15 549.687V550.357C1221.15 550.546 1221.06 550.633 1220.87 550.633H1213.03C1212.84 550.633 1212.75 550.546 1212.75 550.357V536.069C1212.75 535.894 1212.84 535.821 1213 535.821H1220.8C1220.99 535.821 1221.07 535.909 1221.07 536.069V536.738C1221.07 536.927 1220.99 537.014 1220.8 537.014H1214.06V542.442H1220.59C1220.77 542.442 1220.84 542.529 1220.84 542.718V543.358C1220.84 543.547 1220.75 543.635 1220.59 543.635H1214.06V543.649Z" fill="#231F20"/>
<path d="M1226.15 550.851C1224.8 550.851 1223.63 550.647 1222.66 550.24C1222.5 550.167 1222.44 550.08 1222.47 549.992L1222.67 549.381C1222.73 549.207 1222.83 549.163 1222.96 549.236C1223.88 549.599 1224.91 549.789 1226.05 549.789C1227.02 549.789 1227.74 549.643 1228.2 549.352C1228.67 549.061 1228.9 548.581 1228.9 547.941C1228.9 547.621 1228.84 547.33 1228.71 547.097C1228.58 546.864 1228.35 546.646 1228.03 546.442C1227.71 546.238 1227.4 546.093 1227.14 545.991C1226.88 545.889 1226.47 545.729 1225.9 545.511C1225.83 545.482 1225.67 545.424 1225.41 545.336C1225.15 545.249 1224.97 545.176 1224.88 545.147C1224.8 545.118 1224.65 545.045 1224.43 544.958C1224.22 544.871 1224.07 544.798 1223.98 544.74L1223.6 544.492C1223.43 544.376 1223.31 544.274 1223.24 544.187C1223.17 544.099 1223.08 543.983 1222.96 543.838C1222.85 543.692 1222.77 543.561 1222.72 543.416C1222.67 543.27 1222.63 543.11 1222.59 542.921C1222.56 542.732 1222.53 542.528 1222.53 542.324C1222.53 540.506 1223.75 539.604 1226.18 539.604C1227.46 539.604 1228.55 539.807 1229.44 540.215C1229.58 540.287 1229.63 540.375 1229.58 540.491L1229.39 541.059C1229.35 541.204 1229.25 541.248 1229.1 541.204C1228.23 540.855 1227.3 540.68 1226.31 540.68C1225.41 540.68 1224.75 540.811 1224.35 541.073C1223.94 541.335 1223.74 541.757 1223.74 542.324C1223.74 542.572 1223.79 542.805 1223.9 543.023C1224 543.241 1224.11 543.401 1224.23 543.532C1224.35 543.663 1224.56 543.794 1224.87 543.954C1225.18 544.114 1225.42 544.216 1225.63 544.289C1225.83 544.361 1226.15 544.478 1226.62 544.623C1227.17 544.827 1227.62 545.002 1227.97 545.176C1228.32 545.351 1228.68 545.554 1229.05 545.816C1229.41 546.078 1229.69 546.384 1229.86 546.733C1230.04 547.082 1230.12 547.49 1230.12 547.955C1230.12 549.92 1228.78 550.894 1226.12 550.894L1226.15 550.851Z" fill="#231F20"/>
<path d="M1233.9 540.928V547.388C1233.9 548.261 1234.03 548.858 1234.3 549.178C1234.56 549.498 1235.07 549.658 1235.8 549.658C1236.02 549.658 1236.37 549.614 1236.86 549.512C1236.99 549.512 1237.08 549.571 1237.11 549.731L1237.29 550.298C1237.31 550.429 1237.26 550.516 1237.11 550.545C1236.73 550.705 1236.22 550.778 1235.61 550.778C1234.54 550.778 1233.79 550.531 1233.36 550.036C1232.92 549.541 1232.7 548.698 1232.7 547.519V540.928H1231.06C1230.88 540.928 1230.81 540.841 1230.81 540.68V540.084C1230.81 539.895 1230.9 539.807 1231.06 539.807H1232.73V536.999C1232.73 536.825 1232.82 536.752 1232.98 536.752H1233.65C1233.82 536.752 1233.9 536.839 1233.9 536.999V539.807H1236.88C1237.05 539.807 1237.13 539.895 1237.13 540.084V540.68C1237.13 540.855 1237.04 540.928 1236.88 540.928H1233.9Z" fill="#231F20"/>
<path d="M1246.99 550.385C1246.99 550.56 1246.9 550.633 1246.74 550.633H1246.07C1245.91 550.633 1245.84 550.545 1245.84 550.385V548.625C1245.13 550.094 1243.73 550.822 1241.65 550.822C1240.5 550.822 1239.6 550.545 1238.97 549.993C1238.33 549.44 1238.03 548.698 1238.03 547.766C1238.03 547.272 1238.11 546.835 1238.27 546.471C1238.45 546.093 1238.71 545.788 1239.06 545.526C1239.41 545.278 1239.8 545.06 1240.21 544.9C1240.63 544.74 1241.15 544.609 1241.79 544.507C1242.43 544.405 1243.06 544.333 1243.66 544.289C1244.25 544.245 1244.97 544.216 1245.8 544.202V543.372C1245.8 542.412 1245.56 541.714 1245.11 541.277C1244.66 540.841 1243.89 540.622 1242.81 540.622C1241.65 540.622 1240.48 540.855 1239.35 541.335C1239.17 541.408 1239.07 541.35 1239.03 541.19L1238.84 540.579C1238.8 540.448 1238.84 540.36 1238.99 540.288C1240.18 539.764 1241.49 539.502 1242.9 539.502C1244.31 539.502 1245.37 539.822 1246.03 540.448C1246.68 541.073 1247 542.034 1247 543.329V550.342L1246.99 550.385ZM1245.78 545.235C1245.02 545.264 1244.43 545.293 1244.01 545.307C1243.58 545.322 1243.07 545.366 1242.48 545.438C1241.88 545.497 1241.43 545.584 1241.11 545.7C1240.79 545.817 1240.46 545.962 1240.14 546.137C1239.82 546.311 1239.57 546.53 1239.42 546.806C1239.28 547.068 1239.22 547.388 1239.22 547.752C1239.22 548.363 1239.44 548.858 1239.89 549.236C1240.32 549.614 1240.98 549.803 1241.84 549.803C1243.09 549.803 1244.06 549.483 1244.75 548.858C1245.43 548.217 1245.78 547.432 1245.78 546.471V545.249V545.235Z" fill="#231F20"/>
<path d="M1257.86 548.509C1257.2 550.08 1255.86 550.851 1253.83 550.851C1252.33 550.851 1251.16 550.371 1250.34 549.396C1249.49 548.436 1249.08 547.039 1249.08 545.206C1249.08 543.373 1249.51 541.976 1250.34 541.001C1251.16 540.026 1252.34 539.546 1253.83 539.546C1254.79 539.546 1255.62 539.75 1256.32 540.172C1257.01 540.594 1257.52 541.176 1257.84 541.932V536.054C1257.84 535.894 1257.93 535.821 1258.09 535.821H1258.8C1258.99 535.821 1259.08 535.894 1259.08 536.054V550.386C1259.08 550.56 1258.99 550.633 1258.8 550.633H1258.09C1257.93 550.633 1257.86 550.546 1257.86 550.386V548.509ZM1256.85 541.83C1256.18 541.045 1255.24 540.652 1254.03 540.652C1251.56 540.652 1250.34 542.18 1250.34 545.221C1250.34 548.262 1251.57 549.76 1254.03 549.76C1255.24 549.76 1256.18 549.367 1256.85 548.582C1257.52 547.796 1257.86 546.676 1257.86 545.206C1257.86 543.737 1257.52 542.616 1256.85 541.83Z" fill="#231F20"/>
<path d="M1262.67 549.381C1261.79 548.392 1261.35 547.01 1261.35 545.22C1261.35 543.43 1261.79 542.019 1262.67 541.03C1263.56 540.04 1264.78 539.545 1266.37 539.545C1267.96 539.545 1269.18 540.04 1270.07 541.03C1270.95 542.019 1271.4 543.416 1271.4 545.22C1271.4 547.024 1270.97 548.392 1270.07 549.381C1269.16 550.371 1267.94 550.865 1266.37 550.865C1264.8 550.865 1263.56 550.371 1262.67 549.381ZM1269.15 548.61C1269.8 547.839 1270.12 546.719 1270.12 545.22C1270.12 543.721 1269.8 542.586 1269.15 541.815C1268.49 541.044 1267.58 540.651 1266.35 540.651C1265.13 540.651 1264.22 541.044 1263.58 541.815C1262.94 542.586 1262.62 543.721 1262.62 545.22C1262.62 546.719 1262.94 547.839 1263.58 548.61C1264.22 549.381 1265.15 549.76 1266.35 549.76C1267.56 549.76 1268.49 549.381 1269.15 548.61Z" fill="#231F20"/>
<path d="M1097.13 535.334C1096.48 536.906 1095.14 537.677 1093.1 537.677C1091.61 537.677 1090.44 537.197 1089.61 536.222C1088.77 535.261 1088.36 533.865 1088.36 532.031C1088.36 530.198 1088.78 528.801 1089.61 527.826C1090.44 526.851 1091.62 526.371 1093.1 526.371C1094.06 526.371 1094.89 526.575 1095.59 526.997C1096.29 527.419 1096.8 528.001 1097.12 528.758V522.879C1097.12 522.719 1097.21 522.646 1097.37 522.646H1098.08C1098.27 522.646 1098.36 522.719 1098.36 522.879V537.211C1098.36 537.386 1098.27 537.458 1098.08 537.458H1097.37C1097.21 537.458 1097.13 537.371 1097.13 537.211V535.334ZM1096.13 528.656C1095.46 527.87 1094.52 527.477 1093.31 527.477C1090.83 527.477 1089.61 529.005 1089.61 532.046C1089.61 535.087 1090.85 536.585 1093.31 536.585C1094.52 536.585 1095.46 536.193 1096.13 535.407C1096.8 534.621 1097.13 533.501 1097.13 532.031C1097.13 530.562 1096.8 529.441 1096.13 528.656Z" fill="#231F20"/>
<path d="M1109.37 537.211C1109.37 537.386 1109.28 537.458 1109.12 537.458H1108.45C1108.29 537.458 1108.22 537.371 1108.22 537.211V535.451C1107.51 536.92 1106.11 537.648 1104.03 537.648C1102.88 537.648 1101.98 537.371 1101.35 536.818C1100.71 536.265 1100.41 535.523 1100.41 534.592C1100.41 534.097 1100.49 533.661 1100.65 533.297C1100.83 532.919 1101.09 532.613 1101.44 532.351C1101.79 532.104 1102.18 531.886 1102.59 531.726C1103.01 531.566 1103.54 531.435 1104.18 531.333C1104.82 531.231 1105.44 531.158 1106.04 531.115C1106.63 531.071 1107.35 531.042 1108.18 531.027V530.198C1108.18 529.238 1107.94 528.539 1107.49 528.103C1107.04 527.666 1106.27 527.448 1105.19 527.448C1104.03 527.448 1102.87 527.681 1101.73 528.161C1101.56 528.234 1101.45 528.175 1101.41 528.015L1101.22 527.404C1101.18 527.273 1101.22 527.186 1101.37 527.113C1102.56 526.59 1103.87 526.328 1105.28 526.328C1106.69 526.328 1107.75 526.648 1108.41 527.273C1109.06 527.899 1109.38 528.859 1109.38 530.154V537.167L1109.37 537.211ZM1108.18 532.06C1107.42 532.089 1106.82 532.119 1106.4 532.133C1105.98 532.148 1105.47 532.191 1104.87 532.264C1104.28 532.322 1103.83 532.41 1103.51 532.526C1103.19 532.642 1102.85 532.788 1102.53 532.962C1102.21 533.137 1101.96 533.355 1101.82 533.632C1101.67 533.894 1101.6 534.214 1101.6 534.578C1101.6 535.189 1101.82 535.683 1102.27 536.062C1102.71 536.44 1103.36 536.629 1104.22 536.629C1105.47 536.629 1106.45 536.309 1107.13 535.683C1107.81 535.043 1108.16 534.257 1108.16 533.297V532.075L1108.18 532.06Z" fill="#231F20"/>
<path d="M1127.05 535.741C1127.21 535.653 1127.33 535.711 1127.42 535.915L1127.69 536.555C1127.74 536.672 1127.68 536.774 1127.5 536.846C1126.51 537.414 1125.31 537.69 1123.86 537.69C1121.76 537.69 1120.13 537.021 1119.01 535.697C1117.87 534.373 1117.32 532.496 1117.32 530.051C1117.32 527.607 1117.87 525.745 1118.99 524.421C1120.1 523.082 1121.7 522.427 1123.76 522.427C1125.22 522.427 1126.41 522.704 1127.34 523.257C1127.53 523.344 1127.59 523.446 1127.53 523.548L1127.28 524.188C1127.21 524.377 1127.1 524.421 1126.92 524.333C1126.08 523.882 1125.09 523.664 1123.94 523.664C1122.21 523.664 1120.9 524.217 1120.01 525.308C1119.12 526.399 1118.67 527.985 1118.67 530.081C1118.67 532.176 1119.12 533.776 1120.01 534.868C1120.9 535.959 1122.24 536.512 1124.01 536.512C1125.1 536.512 1126.12 536.264 1127.05 535.77V535.741Z" fill="#231F20"/>
<path d="M1130.43 536.206C1129.54 535.217 1129.1 533.835 1129.1 532.045C1129.1 530.255 1129.54 528.844 1130.43 527.855C1131.31 526.865 1132.54 526.371 1134.12 526.371C1135.71 526.371 1136.93 526.865 1137.82 527.855C1138.7 528.844 1139.16 530.241 1139.16 532.045C1139.16 533.849 1138.72 535.217 1137.82 536.206C1136.91 537.196 1135.69 537.691 1134.12 537.691C1132.55 537.691 1131.31 537.196 1130.43 536.206ZM1136.9 535.435C1137.56 534.664 1137.88 533.544 1137.88 532.045C1137.88 530.546 1137.56 529.412 1136.9 528.64C1136.25 527.869 1135.33 527.476 1134.11 527.476C1132.88 527.476 1131.97 527.869 1131.33 528.64C1130.69 529.412 1130.37 530.546 1130.37 532.045C1130.37 533.544 1130.69 534.664 1131.33 535.435C1131.97 536.206 1132.9 536.585 1134.11 536.585C1135.31 536.585 1136.25 536.206 1136.9 535.435Z" fill="#231F20"/>
<path d="M1149.73 537.21C1149.73 537.385 1149.65 537.458 1149.49 537.458H1148.77C1148.6 537.458 1148.53 537.37 1148.53 537.21V530.285C1148.53 528.451 1147.67 527.535 1145.95 527.535C1144.95 527.535 1144.13 527.84 1143.52 528.437C1142.91 529.033 1142.59 529.819 1142.59 530.765V537.21C1142.59 537.385 1142.5 537.458 1142.34 537.458H1141.63C1141.44 537.458 1141.35 537.37 1141.35 537.21V526.894C1141.35 526.705 1141.44 526.618 1141.63 526.618H1142.34C1142.52 526.618 1142.59 526.705 1142.59 526.865V528.495C1142.79 527.927 1143.19 527.433 1143.81 527.011C1144.42 526.574 1145.22 526.371 1146.21 526.371C1148.02 526.371 1149.12 527.113 1149.52 528.597C1150.17 527.113 1151.45 526.371 1153.39 526.371C1154.55 526.371 1155.44 526.705 1156.03 527.389C1156.63 528.058 1156.94 528.99 1156.94 530.154V537.21C1156.94 537.385 1156.85 537.458 1156.69 537.458H1155.98C1155.8 537.458 1155.73 537.37 1155.73 537.21V530.299C1155.73 528.451 1154.86 527.535 1153.12 527.535C1152.15 527.535 1151.35 527.826 1150.72 528.408C1150.1 528.99 1149.78 529.717 1149.78 530.605V537.225L1149.73 537.21Z" fill="#231F20"/>
<path d="M1159.44 526.895C1159.44 526.705 1159.53 526.618 1159.69 526.618H1160.4C1160.57 526.618 1160.65 526.705 1160.65 526.895V533.559C1160.65 535.552 1161.59 536.541 1163.5 536.541C1164.53 536.541 1165.38 536.236 1166.03 535.639C1166.69 535.043 1167.02 534.242 1167.02 533.253V526.909C1167.02 526.72 1167.11 526.633 1167.27 526.633H1168.01C1168.17 526.633 1168.24 526.72 1168.24 526.909V537.225C1168.24 537.4 1168.17 537.473 1168.01 537.473H1167.27C1167.09 537.473 1167.02 537.385 1167.02 537.225V535.552C1166.77 536.134 1166.34 536.629 1165.72 537.051C1165.11 537.473 1164.3 537.691 1163.25 537.691C1161.97 537.691 1161.01 537.342 1160.37 536.658C1159.73 535.974 1159.42 534.999 1159.42 533.762V526.909L1159.44 526.895Z" fill="#231F20"/>
<path d="M1180 537.21C1180 537.385 1179.91 537.458 1179.75 537.458H1179.04C1178.87 537.458 1178.79 537.37 1178.79 537.21V530.386C1178.79 528.48 1177.83 527.535 1175.9 527.535C1174.82 527.535 1173.96 527.84 1173.29 528.466C1172.62 529.091 1172.3 529.892 1172.3 530.881V537.225C1172.3 537.4 1172.22 537.472 1172.06 537.472H1171.31C1171.15 537.472 1171.08 537.385 1171.08 537.225V526.909C1171.08 526.72 1171.15 526.633 1171.31 526.633H1172.03C1172.2 526.633 1172.28 526.72 1172.28 526.88V528.524C1172.97 527.084 1174.27 526.371 1176.16 526.371C1177.43 526.371 1178.39 526.705 1179.04 527.389C1179.7 528.073 1180.02 529.019 1180.02 530.226V537.196L1180 537.21Z" fill="#231F20"/>
<path d="M1183.97 524.828C1183.97 525.003 1183.88 525.076 1183.72 525.076H1182.98C1182.82 525.076 1182.75 524.988 1182.75 524.828V523.068C1182.75 522.893 1182.82 522.82 1182.98 522.82H1183.72C1183.9 522.82 1183.97 522.908 1183.97 523.068V524.828ZM1183.97 537.21C1183.97 537.385 1183.88 537.458 1183.72 537.458H1182.98C1182.82 537.458 1182.75 537.37 1182.75 537.21V526.894C1182.75 526.705 1182.82 526.618 1182.98 526.618H1183.72C1183.9 526.618 1183.97 526.705 1183.97 526.894V537.21Z" fill="#231F20"/>
<path d="M1187.55 527.855C1188.45 526.865 1189.67 526.371 1191.23 526.371C1192.44 526.371 1193.43 526.589 1194.18 527.025C1194.36 527.127 1194.42 527.229 1194.36 527.345L1194.11 527.942C1194.05 528.117 1193.94 528.16 1193.75 528.073C1193.06 527.709 1192.26 527.52 1191.36 527.52C1190.12 527.52 1189.16 527.898 1188.48 528.655C1187.8 529.412 1187.46 530.532 1187.46 532.016C1187.46 533.5 1187.8 534.62 1188.48 535.392C1189.15 536.163 1190.1 536.556 1191.29 536.556C1192.29 536.556 1193.15 536.337 1193.89 535.915C1194.05 535.843 1194.16 535.886 1194.21 536.046L1194.46 536.657C1194.5 536.774 1194.45 536.876 1194.27 536.948C1193.47 537.429 1192.48 537.661 1191.32 537.661C1189.75 537.661 1188.5 537.167 1187.58 536.177C1186.66 535.188 1186.21 533.791 1186.21 532.001C1186.21 530.212 1186.66 528.83 1187.56 527.84L1187.55 527.855Z" fill="#231F20"/>
<path d="M1204.6 537.211C1204.6 537.386 1204.52 537.458 1204.36 537.458H1203.69C1203.53 537.458 1203.45 537.371 1203.45 537.211V535.451C1202.74 536.92 1201.34 537.648 1199.26 537.648C1198.11 537.648 1197.21 537.371 1196.59 536.818C1195.95 536.265 1195.64 535.523 1195.64 534.592C1195.64 534.097 1195.73 533.661 1195.89 533.297C1196.06 532.919 1196.32 532.613 1196.67 532.351C1197.02 532.104 1197.41 531.886 1197.82 531.726C1198.24 531.566 1198.77 531.435 1199.41 531.333C1200.05 531.231 1200.67 531.158 1201.27 531.115C1201.87 531.071 1202.58 531.042 1203.41 531.027V530.198C1203.41 529.238 1203.18 528.539 1202.73 528.103C1202.27 527.666 1201.5 527.448 1200.43 527.448C1199.26 527.448 1198.1 527.681 1196.96 528.161C1196.79 528.234 1196.69 528.175 1196.64 528.015L1196.45 527.404C1196.41 527.273 1196.45 527.186 1196.6 527.113C1197.79 526.59 1199.1 526.328 1200.51 526.328C1201.93 526.328 1202.99 526.648 1203.64 527.273C1204.3 527.899 1204.62 528.859 1204.62 530.154V537.167L1204.6 537.211ZM1203.39 532.06C1202.64 532.089 1202.04 532.119 1201.62 532.133C1201.2 532.148 1200.69 532.191 1200.09 532.264C1199.5 532.322 1199.04 532.41 1198.72 532.526C1198.4 532.642 1198.07 532.788 1197.75 532.962C1197.43 533.137 1197.18 533.355 1197.04 533.632C1196.89 533.894 1196.82 534.214 1196.82 534.578C1196.82 535.189 1197.04 535.683 1197.49 536.062C1197.92 536.44 1198.58 536.629 1199.44 536.629C1200.69 536.629 1201.66 536.309 1202.35 535.683C1203.03 535.043 1203.38 534.257 1203.38 533.297V532.075L1203.39 532.06Z" fill="#231F20"/>
<path d="M1208.04 527.855C1208.94 526.865 1210.16 526.371 1211.72 526.371C1212.93 526.371 1213.91 526.589 1214.67 527.025C1214.85 527.127 1214.9 527.229 1214.85 527.345L1214.6 527.942C1214.54 528.117 1214.42 528.16 1214.23 528.073C1213.55 527.709 1212.75 527.52 1211.85 527.52C1210.61 527.52 1209.65 527.898 1208.97 528.655C1208.28 529.412 1207.95 530.532 1207.95 532.016C1207.95 533.5 1208.28 534.62 1208.97 535.392C1209.64 536.163 1210.58 536.556 1211.78 536.556C1212.78 536.556 1213.64 536.337 1214.38 535.915C1214.54 535.843 1214.64 535.886 1214.7 536.046L1214.95 536.657C1214.99 536.774 1214.93 536.876 1214.76 536.948C1213.96 537.429 1212.97 537.661 1211.81 537.661H1211.63C1212.36 538.069 1212.72 538.578 1212.72 539.204C1212.72 540.106 1212.07 540.557 1210.77 540.557C1210.41 540.557 1210.18 540.542 1210.07 540.499C1209.96 540.455 1209.9 540.382 1209.9 540.28V539.873C1209.9 539.771 1209.96 539.728 1210.09 539.728H1210.64C1211.4 539.728 1211.78 539.509 1211.78 539.058C1211.78 538.462 1211.32 537.952 1210.41 537.516C1209.24 537.254 1208.33 536.643 1207.66 535.683C1206.99 534.722 1206.67 533.5 1206.67 531.987C1206.67 530.197 1207.12 528.815 1208.02 527.826L1208.04 527.855Z" fill="#231F20"/>
<path d="M1225.09 537.211C1225.09 537.385 1225 537.458 1224.84 537.458H1224.17C1224.01 537.458 1223.94 537.371 1223.94 537.211V535.45C1223.23 536.92 1221.83 537.647 1219.75 537.647C1218.6 537.647 1217.7 537.371 1217.07 536.818C1216.43 536.265 1216.13 535.523 1216.13 534.592C1216.13 534.097 1216.21 533.661 1216.37 533.297C1216.55 532.918 1216.81 532.613 1217.16 532.351C1217.51 532.104 1217.9 531.885 1218.31 531.725C1218.73 531.565 1219.26 531.434 1219.9 531.333C1220.54 531.231 1221.16 531.158 1221.76 531.114C1222.35 531.071 1223.07 531.042 1223.9 531.027V530.198C1223.9 529.237 1223.66 528.539 1223.21 528.102C1222.76 527.666 1221.99 527.448 1220.91 527.448C1219.75 527.448 1218.59 527.68 1217.45 528.161C1217.28 528.233 1217.17 528.175 1217.13 528.015L1216.94 527.404C1216.9 527.273 1216.94 527.186 1217.09 527.113C1218.28 526.589 1219.59 526.327 1221 526.327C1222.41 526.327 1223.47 526.647 1224.13 527.273C1224.78 527.899 1225.1 528.859 1225.1 530.154V537.167L1225.09 537.211ZM1223.88 532.06C1223.13 532.089 1222.53 532.118 1222.11 532.133C1221.69 532.147 1221.18 532.191 1220.58 532.264C1219.98 532.322 1219.53 532.409 1219.21 532.526C1218.89 532.642 1218.56 532.788 1218.24 532.962C1217.92 533.137 1217.67 533.355 1217.52 533.631C1217.38 533.893 1217.31 534.213 1217.31 534.577C1217.31 535.188 1217.52 535.683 1217.97 536.061C1218.41 536.44 1219.07 536.629 1219.92 536.629C1221.18 536.629 1222.15 536.309 1222.83 535.683C1223.52 535.043 1223.87 534.257 1223.87 533.297V532.075L1223.88 532.06ZM1223.58 524.741C1223.36 524.989 1223.04 525.105 1222.62 525.105C1222.12 525.105 1221.57 524.974 1220.94 524.698L1220.48 524.509C1219.98 524.305 1219.6 524.218 1219.36 524.218C1219.07 524.218 1218.89 524.334 1218.83 524.581L1218.78 524.829C1218.73 524.989 1218.63 525.061 1218.45 525.061H1218.09C1217.93 525.061 1217.86 524.96 1217.86 524.741C1217.86 524.334 1217.97 523.999 1218.19 523.752C1218.41 523.505 1218.73 523.388 1219.15 523.388C1219.55 523.388 1220.1 523.534 1220.83 523.81L1221.34 523.999C1221.87 524.218 1222.24 524.319 1222.46 524.319C1222.75 524.319 1222.92 524.174 1222.98 523.868L1223.02 523.65C1223.02 523.49 1223.14 523.417 1223.31 523.417H1223.69C1223.84 523.417 1223.91 523.519 1223.91 523.737C1223.91 524.145 1223.79 524.479 1223.58 524.727V524.741Z" fill="#231F20"/>
<path d="M1228.48 536.206C1227.59 535.217 1227.16 533.835 1227.16 532.045C1227.16 530.255 1227.59 528.844 1228.48 527.855C1229.37 526.865 1230.59 526.371 1232.18 526.371C1233.76 526.371 1234.98 526.865 1235.87 527.855C1236.76 528.844 1237.21 530.241 1237.21 532.045C1237.21 533.849 1236.77 535.217 1235.87 536.206C1234.97 537.196 1233.75 537.691 1232.18 537.691C1230.6 537.691 1229.37 537.196 1228.48 536.206ZM1234.97 535.435C1235.62 534.664 1235.94 533.544 1235.94 532.045C1235.94 530.546 1235.62 529.412 1234.97 528.64C1234.31 527.869 1233.4 527.476 1232.18 527.476C1230.95 527.476 1230.04 527.869 1229.4 528.64C1228.76 529.412 1228.44 530.546 1228.44 532.045C1228.44 533.544 1228.76 534.664 1229.4 535.435C1230.04 536.206 1230.97 536.585 1232.18 536.585C1233.38 536.585 1234.31 536.206 1234.97 535.435Z" fill="#231F20"/>
<path d="M1252.52 536.644C1251.6 537.313 1250.32 537.662 1248.67 537.662C1247.03 537.662 1245.63 537.444 1244.61 537.008C1244.43 536.92 1244.37 536.819 1244.4 536.688L1244.64 536.018C1244.7 535.844 1244.8 535.8 1244.96 535.873C1245.98 536.28 1247.19 536.484 1248.62 536.484C1249.85 536.484 1250.83 536.251 1251.53 535.771C1252.22 535.291 1252.57 534.636 1252.57 533.778C1252.57 533.327 1252.49 532.934 1252.33 532.599C1252.17 532.264 1251.89 531.959 1251.5 531.697C1251.1 531.435 1250.77 531.231 1250.46 531.071C1250.16 530.911 1249.71 530.722 1249.13 530.475C1249.07 530.475 1249.02 530.446 1248.99 530.431L1248.89 530.373C1248.89 530.373 1248.81 530.329 1248.76 530.315C1248.18 530.082 1247.76 529.893 1247.5 529.776C1247.23 529.66 1246.87 529.471 1246.43 529.209C1246 528.947 1245.68 528.685 1245.47 528.438C1245.27 528.19 1245.08 527.856 1244.92 527.448C1244.76 527.041 1244.67 526.59 1244.67 526.081C1244.67 524.931 1245.07 524.029 1245.85 523.374C1246.64 522.72 1247.86 522.399 1249.5 522.399C1250.92 522.399 1252.09 522.603 1253.04 523.011C1253.21 523.069 1253.27 523.171 1253.23 523.302L1252.98 523.956C1252.94 524.131 1252.82 524.175 1252.65 524.102C1251.8 523.767 1250.78 523.593 1249.61 523.593C1247.19 523.593 1246 524.422 1246 526.066C1246 526.313 1246.03 526.532 1246.08 526.735C1246.14 526.939 1246.2 527.114 1246.26 527.259C1246.32 527.405 1246.43 527.565 1246.61 527.71C1246.78 527.856 1246.91 527.987 1247.02 528.074C1247.12 528.161 1247.29 528.263 1247.54 528.394C1247.79 528.525 1247.98 528.612 1248.09 528.67C1248.21 528.729 1248.44 528.816 1248.76 528.961C1249.08 529.092 1249.3 529.194 1249.42 529.252C1249.85 529.442 1250.1 529.543 1250.17 529.573C1250.23 529.602 1250.46 529.704 1250.86 529.878C1251.25 530.053 1251.5 530.169 1251.58 530.242C1251.67 530.3 1251.88 530.431 1252.18 530.62C1252.49 530.809 1252.68 530.969 1252.78 531.086C1252.86 531.202 1253.01 531.377 1253.21 531.595C1253.42 531.813 1253.53 532.032 1253.61 532.235C1253.67 532.439 1253.74 532.686 1253.8 532.948C1253.85 533.225 1253.9 533.516 1253.9 533.807C1253.9 535.014 1253.43 535.96 1252.52 536.644Z" fill="#231F20"/>
<path d="M1256.69 536.206C1255.8 535.217 1255.37 533.835 1255.37 532.045C1255.37 530.255 1255.8 528.844 1256.69 527.855C1257.58 526.865 1258.8 526.371 1260.39 526.371C1261.97 526.371 1263.2 526.865 1264.08 527.855C1264.97 528.844 1265.42 530.241 1265.42 532.045C1265.42 533.849 1264.99 535.217 1264.08 536.206C1263.18 537.196 1261.96 537.691 1260.39 537.691C1258.82 537.691 1257.58 537.196 1256.69 536.206ZM1263.17 535.435C1263.82 534.664 1264.14 533.544 1264.14 532.045C1264.14 530.546 1263.82 529.412 1263.17 528.64C1262.51 527.869 1261.6 527.476 1260.37 527.476C1259.15 527.476 1258.23 527.869 1257.59 528.64C1256.95 529.412 1256.63 530.546 1256.63 532.045C1256.63 533.544 1256.95 534.664 1257.59 535.435C1258.23 536.206 1259.17 536.585 1260.37 536.585C1261.58 536.585 1262.51 536.206 1263.17 535.435Z" fill="#231F20"/>
<path d="M1268.35 527.855C1269.25 526.865 1270.47 526.371 1272.03 526.371C1273.24 526.371 1274.23 526.589 1274.98 527.025C1275.16 527.127 1275.22 527.229 1275.16 527.345L1274.91 527.942C1274.85 528.117 1274.74 528.16 1274.55 528.073C1273.86 527.709 1273.06 527.52 1272.16 527.52C1270.92 527.52 1269.96 527.898 1269.28 528.655C1268.6 529.412 1268.26 530.532 1268.26 532.016C1268.26 533.5 1268.6 534.62 1269.28 535.392C1269.95 536.163 1270.89 536.556 1272.09 536.556C1273.09 536.556 1273.95 536.337 1274.69 535.915C1274.85 535.843 1274.95 535.886 1275.01 536.046L1275.26 536.657C1275.3 536.774 1275.25 536.876 1275.07 536.948C1274.27 537.429 1273.28 537.661 1272.12 537.661C1270.55 537.661 1269.29 537.167 1268.38 536.177C1267.46 535.188 1267.01 533.791 1267.01 532.001C1267.01 530.212 1267.46 528.83 1268.36 527.84L1268.35 527.855Z" fill="#231F20"/>
<path d="M1278.53 524.828C1278.53 525.003 1278.44 525.076 1278.28 525.076H1277.54C1277.38 525.076 1277.31 524.988 1277.31 524.828V523.068C1277.31 522.893 1277.38 522.82 1277.54 522.82H1278.28C1278.46 522.82 1278.53 522.908 1278.53 523.068V524.828ZM1278.53 537.21C1278.53 537.385 1278.44 537.458 1278.28 537.458H1277.54C1277.38 537.458 1277.31 537.37 1277.31 537.21V526.894C1277.31 526.705 1277.38 526.618 1277.54 526.618H1278.28C1278.46 526.618 1278.53 526.705 1278.53 526.894V537.21Z" fill="#231F20"/>
<path d="M1289.52 537.211C1289.52 537.386 1289.43 537.458 1289.27 537.458H1288.6C1288.44 537.458 1288.37 537.371 1288.37 537.211V535.451C1287.65 536.92 1286.26 537.648 1284.18 537.648C1283.03 537.648 1282.13 537.371 1281.5 536.818C1280.86 536.265 1280.55 535.523 1280.55 534.592C1280.55 534.097 1280.64 533.661 1280.8 533.297C1280.98 532.919 1281.24 532.613 1281.59 532.351C1281.94 532.104 1282.33 531.886 1282.74 531.726C1283.16 531.566 1283.68 531.435 1284.32 531.333C1284.96 531.231 1285.59 531.158 1286.18 531.115C1286.78 531.071 1287.49 531.042 1288.32 531.027V530.198C1288.32 529.238 1288.09 528.539 1287.64 528.103C1287.19 527.666 1286.42 527.448 1285.34 527.448C1284.18 527.448 1283.01 527.681 1281.88 528.161C1281.7 528.234 1281.6 528.175 1281.56 528.015L1281.37 527.404C1281.32 527.273 1281.37 527.186 1281.51 527.113C1282.71 526.59 1284.02 526.328 1285.43 526.328C1286.84 526.328 1287.9 526.648 1288.56 527.273C1289.21 527.899 1289.53 528.859 1289.53 530.154V537.167L1289.52 537.211ZM1288.31 532.06C1287.55 532.089 1286.96 532.119 1286.53 532.133C1286.11 532.148 1285.6 532.191 1285.01 532.264C1284.41 532.322 1283.96 532.41 1283.64 532.526C1283.32 532.642 1282.98 532.788 1282.66 532.962C1282.34 533.137 1282.1 533.355 1281.95 533.632C1281.81 533.894 1281.75 534.214 1281.75 534.578C1281.75 535.189 1281.97 535.683 1282.42 536.062C1282.85 536.44 1283.51 536.629 1284.37 536.629C1285.62 536.629 1286.59 536.309 1287.28 535.683C1287.96 535.043 1288.31 534.257 1288.31 533.297V532.075V532.06Z" fill="#231F20"/>
<path d="M1293.46 537.211C1293.46 537.386 1293.37 537.458 1293.21 537.458H1292.47C1292.31 537.458 1292.24 537.371 1292.24 537.211V522.879C1292.24 522.719 1292.31 522.646 1292.47 522.646H1293.21C1293.39 522.646 1293.46 522.719 1293.46 522.879V537.211Z" fill="#231F20"/>
<g style="mix-blend-mode:multiply">
<mask id="mask0_2024_3224" style="mask-type:luminance" maskUnits="userSpaceOnUse" x="1070" y="484" width="2" height="115">
<path d="M1071.7 484.633H1070.06V598.647H1071.7V484.633Z" fill="white"/>
</mask>
<g mask="url(#mask0_2024_3224)">
<path fill-rule="evenodd" clip-rule="evenodd" d="M1071.24 598.647H1070.53C1070.26 598.647 1070.06 598.443 1070.06 598.181V485.098C1070.06 484.837 1070.28 484.633 1070.53 484.633H1071.24C1071.5 484.633 1071.7 484.851 1071.7 485.098V598.167C1071.7 598.429 1071.5 598.633 1071.24 598.633" fill="#204181"/>
</g>
</g>
<path d="M688.527 508.044H676.276C674.341 508.044 673.235 508.684 672.493 509.892L658.307 534.292L644.12 509.892C643.378 508.699 642.272 508.044 640.337 508.044H628.115C625.816 508.044 624.798 509.062 624.798 511.361V569.94C624.798 572.239 625.816 573.257 628.115 573.257H640.832C643.131 573.257 644.149 572.239 644.149 569.94V540.01L655.935 559.813C656.401 560.555 657.041 561.195 658.336 561.195C659.631 561.195 660.271 560.555 660.736 559.813L672.522 540.01V569.94C672.522 572.239 673.54 573.257 675.839 573.257H688.542H683.886C682.227 573.257 681.194 572.37 681.121 570.929C681.121 570.726 681.121 570.507 681.15 570.289C681.194 569.969 681.267 569.649 681.383 569.3L691.83 537.333V511.361C691.83 509.062 690.811 508.044 688.512 508.044" fill="#B7292F"/>
<path d="M753.088 525.457C753.451 525.457 753.655 525.646 753.655 526.024V533.299C753.655 533.707 753.408 533.939 753.16 534.1C752.098 534.74 750.41 535.234 747.966 535.234C743.048 535.234 740.182 532.688 740.182 526.955C740.182 521.223 743.077 518.706 748.17 518.706C750.221 518.706 751.851 519.258 752.767 519.797C753.102 519.986 753.248 520.161 753.102 520.495L752.535 521.907C752.404 522.241 752.2 522.358 751.763 522.183C751.065 521.892 749.959 521.528 748.577 521.528C744.954 521.528 743.412 523.114 743.412 526.97C743.412 530.826 744.998 532.426 748.33 532.426C749.29 532.426 750.221 532.223 750.76 531.975V527.945H748.286C747.893 527.945 747.719 527.785 747.719 527.421V526.039C747.719 525.675 747.908 525.471 748.286 525.471H753.088V525.457Z" fill="#231F20"/>
<path d="M774.476 526.985C774.476 532.514 771.843 535.249 767.361 535.249C762.88 535.249 760.29 532.514 760.29 526.985C760.29 521.456 762.909 518.706 767.376 518.706C771.843 518.706 774.476 521.456 774.476 526.985ZM771.217 526.985C771.217 523.318 769.937 521.485 767.376 521.485C764.815 521.485 763.506 523.332 763.506 526.985C763.506 530.637 764.786 532.47 767.376 532.47C769.966 532.47 771.217 530.651 771.217 526.985Z" fill="#231F20"/>
<path d="M785.253 534.988C784.86 534.988 784.686 534.828 784.555 534.435L779.506 519.594C779.375 519.201 779.55 518.954 779.942 518.954H782.154C782.547 518.954 782.721 519.143 782.809 519.448L785.544 527.931L786.548 531.685H786.592L787.567 527.931L790.302 519.448C790.389 519.128 790.578 518.954 790.957 518.954H793.183C793.547 518.954 793.736 519.201 793.59 519.594L788.556 534.435C788.425 534.828 788.221 534.988 787.829 534.988H785.253Z" fill="#231F20"/>
<path d="M803.138 528.149V532.267H809.598C809.991 532.267 810.166 532.427 810.166 532.82V534.435C810.166 534.842 809.976 535.002 809.598 535.002H800.563C800.155 535.002 799.995 534.842 799.995 534.435V519.521C799.995 519.128 800.155 518.968 800.548 518.968H809.511C809.904 518.968 810.078 519.128 810.078 519.521V521.136C810.078 521.529 809.904 521.704 809.511 521.704H803.138V525.501H809.22C809.584 525.501 809.773 525.705 809.773 526.069V527.567C809.773 527.931 809.584 528.135 809.22 528.135H803.138V528.149Z" fill="#231F20"/>
<path d="M822.618 518.983C827.027 518.983 829.267 520.554 829.267 524.381C829.267 527.16 827.769 528.702 825.353 529.226L829.224 534.304C829.471 534.624 829.34 535.002 828.889 535.002H826.721C826.314 535.002 826.125 534.813 825.921 534.551L822.24 529.663H820.13V534.435C820.13 534.842 819.941 535.002 819.563 535.002H817.54C817.133 535.002 816.973 534.842 816.973 534.435V519.521C816.973 519.128 817.133 518.968 817.54 518.968H822.633L822.618 518.983ZM822.545 527.014C825.135 527.014 826.066 526.171 826.066 524.381C826.066 522.446 825.062 521.718 822.56 521.718H820.101V527.014H822.531H822.545Z" fill="#231F20"/>
<path d="M848.899 534.42C848.899 534.828 848.724 534.988 848.346 534.988H846.294C845.902 534.988 845.742 534.871 845.581 534.595L839.194 524.294V534.42C839.194 534.828 839.034 534.988 838.641 534.988H836.677C836.269 534.988 836.109 534.828 836.109 534.42V519.521C836.109 519.128 836.269 518.968 836.677 518.968H838.685C839.092 518.968 839.252 519.056 839.412 519.332L845.8 529.663V519.521C845.8 519.128 845.96 518.968 846.353 518.968H848.331C848.695 518.968 848.884 519.128 848.884 519.492V534.42H848.899Z" fill="#231F20"/>
<path d="M869.936 526.985C869.936 532.514 867.303 535.249 862.821 535.249C858.34 535.249 855.75 532.514 855.75 526.985C855.75 521.456 858.384 518.706 862.836 518.706C867.288 518.706 869.936 521.456 869.936 526.985ZM866.692 526.985C866.692 523.318 865.411 521.485 862.85 521.485C860.29 521.485 858.98 523.332 858.98 526.985C858.98 530.637 860.261 532.47 862.85 532.47C865.44 532.47 866.692 530.651 866.692 526.985Z" fill="#231F20"/>
<path d="M888.097 534.988C887.689 534.988 887.529 534.828 887.529 534.42V519.521C887.529 519.128 887.689 518.968 888.082 518.968H892.476C897.612 518.968 900.421 521.078 900.421 526.811C900.421 532.834 897.627 534.973 892.505 534.973H888.111L888.097 534.988ZM890.716 521.806V532.18H892.374C895.474 532.18 897.176 531.103 897.176 526.84C897.176 522.853 895.474 521.806 892.345 521.806H890.701H890.716Z" fill="#231F20"/>
<path d="M919.858 526.955C919.858 532.412 917.355 535.22 913.31 535.22C909.265 535.22 906.763 532.426 906.763 526.985C906.763 521.543 909.251 518.706 913.31 518.706C917.37 518.706 919.858 521.499 919.858 526.97M916.7 526.955C916.7 523.289 915.58 521.456 913.31 521.456C911.04 521.456 909.949 523.303 909.949 526.955C909.949 530.608 911.07 532.484 913.31 532.484C915.551 532.484 916.7 530.637 916.7 526.955Z" fill="#231F20"/>
<path d="M952.293 532.66C949.193 532.66 947.477 534.638 947.477 537.883C947.477 539.513 947.986 539.906 949.106 539.906H951.23C952.147 539.906 952.555 539.658 952.7 538.843L952.744 538.538C952.846 537.985 953.297 537.781 954.01 537.781C954.664 537.781 955.479 537.927 956.338 538.291L959.073 539.353C960.135 539.76 961.401 540.066 963.176 540.066C966.115 540.066 967.847 538.392 967.847 535.148C967.847 533.518 967.337 532.82 966.217 532.82H964.093C963.176 532.82 962.769 533.067 962.623 533.882L962.565 534.187C962.463 534.697 961.954 534.944 961.241 534.944C960.586 534.944 959.713 534.74 958.957 534.435L956.221 533.373C955.159 532.965 953.893 532.66 952.264 532.66" fill="#00A7BE"/>
<path d="M700.459 553.099C700.459 552.939 700.546 552.852 700.706 552.852H707.545C707.719 552.852 707.807 552.924 707.807 553.099V553.812C707.807 553.972 707.734 554.074 707.545 554.074H704.78V563.168C704.78 563.342 704.707 563.429 704.518 563.429H703.733C703.573 563.429 703.471 563.357 703.471 563.168V554.074H700.706C700.546 554.074 700.444 553.986 700.444 553.812V553.099H700.459Z" fill="#231F20"/>
<path d="M715.62 552.865C718.559 552.865 719.898 553.956 719.898 556.269C719.898 558.248 718.748 559.281 716.842 559.5L719.912 563.093C720.014 563.239 719.985 563.428 719.767 563.428H718.85C718.661 563.428 718.574 563.355 718.472 563.239L715.431 559.645H713.598V563.181C713.598 563.355 713.51 563.443 713.336 563.443H712.55C712.375 563.443 712.288 563.37 712.288 563.181V553.127C712.288 552.967 712.361 552.879 712.55 552.879H715.62V552.865ZM715.562 558.437C717.803 558.437 718.588 557.739 718.588 556.255C718.588 554.698 717.73 554.043 715.591 554.043H713.598V558.437H715.562Z" fill="#231F20"/>
<path d="M728.713 552.865C728.931 552.865 728.989 552.952 729.048 553.127L732.816 563.166C732.86 563.297 732.787 563.428 732.627 563.428H731.754C731.594 563.428 731.536 563.355 731.463 563.21L730.517 560.693H725.905L724.959 563.21C724.901 563.355 724.857 563.428 724.683 563.428H723.795C723.635 563.428 723.548 563.312 723.606 563.166L727.374 553.127C727.433 552.967 727.476 552.865 727.709 552.865H728.713ZM730.11 559.514L728.233 554.16H728.204L726.312 559.514H730.11Z" fill="#231F20"/>
<path d="M737.544 563.415C737.37 563.415 737.282 563.342 737.282 563.153V553.099C737.282 552.939 737.355 552.852 737.544 552.852H741.283C743.961 552.852 745.168 553.754 745.168 555.572C745.168 557.013 744.426 557.653 743.641 557.842C744.674 558.075 745.547 558.788 745.547 560.418C745.547 562.542 744.208 563.415 741.356 563.415H737.559H737.544ZM741.327 557.391C743.233 557.391 743.888 556.896 743.888 555.674C743.888 554.452 743.175 554.03 741.254 554.03H738.563V557.377H741.327V557.391ZM741.254 562.236C743.481 562.236 744.266 561.785 744.266 560.359C744.266 559.064 743.597 558.541 741.4 558.541H738.577V562.236H741.269H741.254Z" fill="#231F20"/>
<path d="M754.655 552.865C754.874 552.865 754.932 552.952 754.99 553.127L758.759 563.166C758.802 563.297 758.729 563.428 758.569 563.428H757.696C757.536 563.428 757.478 563.355 757.405 563.21L756.46 560.693H751.847L750.902 563.21C750.843 563.355 750.8 563.428 750.625 563.428H749.738C749.577 563.428 749.49 563.312 749.548 563.166L753.317 553.127C753.375 552.967 753.419 552.865 753.651 552.865H754.655ZM756.052 559.514L754.175 554.16H754.146L752.255 559.514H756.052Z" fill="#231F20"/>
<path d="M764.522 562.22H769.077C769.237 562.22 769.339 562.293 769.339 562.439V563.166C769.339 563.341 769.251 563.428 769.077 563.428H763.489C763.315 563.428 763.228 563.355 763.228 563.166V553.112C763.228 552.952 763.3 552.865 763.489 552.865H764.275C764.435 552.865 764.537 552.938 764.537 553.112V562.22H764.522Z" fill="#231F20"/>
<path d="M780.715 558.627H775.317V563.166C775.317 563.341 775.23 563.428 775.055 563.428H774.27C774.095 563.428 774.008 563.355 774.008 563.166V553.112C774.008 552.952 774.081 552.865 774.27 552.865H775.055C775.215 552.865 775.317 552.938 775.317 553.112V557.433H780.715V553.112C780.715 552.952 780.803 552.865 780.977 552.865H781.778C781.938 552.865 782.025 552.938 782.025 553.112V563.166C782.025 563.341 781.952 563.428 781.778 563.428H780.977C780.817 563.428 780.715 563.355 780.715 563.166V558.627Z" fill="#231F20"/>
<path d="M791.585 552.865C791.803 552.865 791.862 552.952 791.92 553.127L795.688 563.166C795.732 563.297 795.659 563.428 795.499 563.428H794.626C794.466 563.428 794.408 563.355 794.335 563.21L793.389 560.693H788.777L787.831 563.21C787.773 563.355 787.729 563.428 787.555 563.428H786.667C786.507 563.428 786.42 563.312 786.478 563.166L790.247 553.127C790.305 552.967 790.348 552.865 790.581 552.865H791.585ZM792.996 559.514L791.12 554.16H791.09L789.199 559.514H792.996Z" fill="#231F20"/>
<path d="M808.173 563.166C808.173 563.341 808.086 563.428 807.911 563.428H807.082C806.907 563.428 806.82 563.37 806.733 563.239L801.422 555.033V563.181C801.422 563.355 801.349 563.443 801.175 563.443H800.404C800.229 563.443 800.142 563.37 800.142 563.181V553.127C800.142 552.967 800.214 552.879 800.404 552.879H801.218C801.393 552.879 801.495 552.923 801.582 553.054L806.893 561.275V553.112C806.893 552.952 806.966 552.865 807.14 552.865H807.911C808.071 552.865 808.173 552.937 808.173 553.083V563.152V563.166Z" fill="#231F20"/>
<path d="M813.805 563.415C813.63 563.415 813.543 563.342 813.543 563.153V553.099C813.543 552.939 813.616 552.852 813.79 552.852H816.38C819.712 552.852 821.662 554.147 821.662 557.944C821.662 562.105 819.727 563.4 816.409 563.4H813.805V563.415ZM814.852 554.074V562.222H816.395C818.883 562.222 820.338 561.378 820.338 557.973C820.338 554.903 818.868 554.074 816.366 554.074H814.852Z" fill="#231F20"/>
<path d="M835.117 558.147C835.117 561.639 833.502 563.574 830.563 563.574C827.624 563.574 826.038 561.639 826.038 558.147C826.038 554.655 827.653 552.706 830.578 552.706C833.502 552.706 835.117 554.655 835.117 558.147ZM833.793 558.147C833.793 555.412 832.746 553.87 830.578 553.87C828.41 553.87 827.362 555.397 827.362 558.147C827.362 560.897 828.41 562.396 830.578 562.396C832.746 562.396 833.793 560.883 833.793 558.147Z" fill="#231F20"/>
<path d="M847.488 563.415C847.314 563.415 847.227 563.328 847.227 563.153V553.113C847.227 552.953 847.299 552.852 847.474 552.852H850.398C853.41 552.852 854.807 553.899 854.807 556.518C854.807 559.137 853.41 560.17 850.398 560.17H848.536V563.153C848.536 563.313 848.449 563.415 848.274 563.415H847.488ZM850.384 559.006C852.537 559.006 853.469 558.366 853.469 556.547C853.469 554.729 852.537 554.059 850.384 554.059H848.522V559.006H850.384Z" fill="#231F20"/>
<path d="M863.245 552.865C863.464 552.865 863.522 552.952 863.58 553.127L867.348 563.166C867.392 563.297 867.319 563.428 867.159 563.428H866.286C866.126 563.428 866.068 563.355 865.995 563.21L865.049 560.693H860.437L859.491 563.21C859.433 563.355 859.39 563.428 859.215 563.428H858.327C858.167 563.428 858.08 563.312 858.138 563.166L861.907 553.127C861.965 552.967 862.009 552.865 862.241 552.865H863.245ZM864.642 559.514L862.765 554.16H862.736L860.845 559.514H864.642Z" fill="#231F20"/>
<path d="M875.131 552.865C878.07 552.865 879.409 553.956 879.409 556.269C879.409 558.248 878.259 559.281 876.353 559.5L879.423 563.093C879.525 563.239 879.496 563.428 879.278 563.428H878.361C878.172 563.428 878.084 563.355 877.983 563.239L874.942 559.645H873.108V563.181C873.108 563.355 873.021 563.443 872.846 563.443H872.061C871.886 563.443 871.799 563.37 871.799 563.181V553.127C871.799 552.967 871.872 552.879 872.061 552.879H875.131V552.865ZM875.073 558.437C877.313 558.437 878.099 557.739 878.099 556.255C878.099 554.698 877.241 554.043 875.102 554.043H873.108V558.437H875.073Z" fill="#231F20"/>
<path d="M888.228 552.865C888.446 552.865 888.504 552.952 888.562 553.127L892.331 563.166C892.374 563.297 892.302 563.428 892.142 563.428H891.269C891.109 563.428 891.05 563.355 890.978 563.21L890.032 560.693H885.42L884.474 563.21C884.416 563.355 884.372 563.428 884.197 563.428H883.31C883.15 563.428 883.062 563.312 883.121 563.166L886.889 553.127C886.947 552.967 886.991 552.865 887.224 552.865H888.228ZM889.624 559.514L887.748 554.16H887.718L885.827 559.514H889.624Z" fill="#231F20"/>
<path d="M903.139 553.099C903.139 552.939 903.226 552.852 903.386 552.852H910.224C910.399 552.852 910.486 552.924 910.486 553.099V553.812C910.486 553.972 910.414 554.074 910.224 554.074H907.46V563.168C907.46 563.342 907.387 563.429 907.198 563.429H906.412C906.252 563.429 906.15 563.357 906.15 563.168V554.074H903.386C903.226 554.074 903.124 553.986 903.124 553.812V553.099H903.139Z" fill="#231F20"/>
<path d="M923.104 558.147C923.104 561.639 921.489 563.574 918.549 563.574C915.61 563.574 914.024 561.639 914.024 558.147C914.024 554.655 915.639 552.706 918.564 552.706C921.489 552.706 923.104 554.655 923.104 558.147ZM921.78 558.147C921.78 555.412 920.732 553.87 918.564 553.87C916.396 553.87 915.348 555.397 915.348 558.147C915.348 560.897 916.396 562.396 918.564 562.396C920.732 562.396 921.78 560.883 921.78 558.147Z" fill="#231F20"/>
<path d="M928.237 563.415C928.063 563.415 927.976 563.342 927.976 563.153V553.099C927.976 552.939 928.048 552.852 928.223 552.852H930.813C934.145 552.852 936.095 554.147 936.095 557.944C936.095 562.105 934.159 563.4 930.842 563.4H928.237V563.415ZM929.285 554.074V562.222H930.827C933.315 562.222 934.77 561.378 934.77 557.973C934.77 554.903 933.301 554.074 930.798 554.074H929.285Z" fill="#231F20"/>
<path d="M949.557 558.147C949.557 561.639 947.942 563.574 945.003 563.574C942.063 563.574 940.478 561.639 940.478 558.147C940.478 554.655 942.093 552.706 945.017 552.706C947.942 552.706 949.557 554.655 949.557 558.147ZM948.233 558.147C948.233 555.412 947.185 553.87 945.017 553.87C942.849 553.87 941.802 555.397 941.802 558.147C941.802 560.897 942.849 562.396 945.017 562.396C947.185 562.396 948.233 560.883 948.233 558.147Z" fill="#231F20"/>
<path d="M956.961 563.545C955.738 563.545 954.574 563.342 953.992 563.065C953.832 562.992 953.745 562.934 953.803 562.774L954.051 562.105C954.08 561.974 954.152 561.858 954.356 561.959C954.909 562.192 955.84 562.396 956.932 562.396C958.561 562.396 959.609 561.828 959.609 560.708C959.609 559.5 958.401 559.064 957.048 558.526C955.462 557.9 954.051 557.318 954.051 555.441C954.051 553.753 955.142 552.706 957.674 552.706C958.838 552.706 959.711 552.895 960.278 553.142C960.424 553.2 960.511 553.273 960.453 553.433L960.205 554.088C960.162 554.219 960.103 554.292 959.885 554.219C959.361 554.015 958.707 553.87 957.746 553.87C956.015 553.87 955.331 554.408 955.331 555.426C955.331 556.605 956.422 556.911 957.688 557.449C959.318 558.147 960.875 558.758 960.875 560.708C960.875 562.658 959.347 563.516 956.946 563.516" fill="#231F20"/>
<mask id="mask1_2024_3224" style="mask-type:luminance" maskUnits="userSpaceOnUse" x="975" y="506" width="60" height="68">
<path d="M994.745 540.185C994.745 528.123 998.063 523.613 1004.42 523.613C1010.78 523.613 1014.1 528.123 1014.1 540.185C1014.1 552.247 1010.78 556.758 1004.42 556.758C998.063 556.758 994.745 552.247 994.745 540.185ZM975.583 528.327L976.514 531.164L988.984 569.285C989.173 569.838 989.26 570.347 989.26 570.798C993.567 572.908 998.688 573.883 1004.42 573.883C1022.57 573.883 1034.44 564.033 1034.44 540.17C1034.44 516.308 1022.55 506.458 1004.42 506.458C989.638 506.458 979.017 512.991 975.583 528.312" fill="white"/>
</mask>
<g mask="url(#mask1_2024_3224)">
<path d="M1034.44 506.473H975.583V573.883H1034.44V506.473Z" fill="#F7901E"/>
</g>
<path d="M934.379 508.044H920.935C918.636 508.044 917.617 509.062 917.617 511.361V531.353H902.878V511.361C902.878 509.062 901.859 508.044 899.561 508.044H886.116C885.971 508.044 885.825 508.044 885.694 508.044C887.702 508.16 888.59 509.193 888.59 511.347V569.925C888.59 572.079 887.702 573.112 885.694 573.228C885.825 573.228 885.971 573.228 886.116 573.228H899.561C901.859 573.228 902.878 572.21 902.878 569.911V549.002H917.617V569.911C917.617 572.21 918.636 573.228 920.935 573.228H934.379H928.85C926.638 573.228 925.532 571.657 926.362 569.27L937.696 534.612V511.332C937.696 509.033 936.678 508.015 934.379 508.015" fill="#45B649"/>
<path d="M832.965 569.94V535.5L824.948 510.998C824.308 509.062 823.377 508.044 820.991 508.044H804.418C802.017 508.044 801.101 509.062 800.461 510.998L784.819 558.853L788.937 565.662L791.032 569.125C792.414 571.337 791.498 573.272 789.184 573.272H836.283C833.984 573.272 832.965 572.253 832.965 569.954V569.94ZM829.241 540.636L819.769 547.533L823.261 558.489C823.537 559.347 822.548 560.06 821.82 559.522L812.61 552.742L803.327 559.508C802.585 560.046 801.61 559.318 801.887 558.46L805.539 547.547L796.154 540.636C795.426 540.098 795.805 538.948 796.707 538.948H808.405L811.912 528.472C812.203 527.614 813.41 527.628 813.687 528.472L817.019 538.934H828.673C829.575 538.934 829.954 540.083 829.226 540.622L829.241 540.636Z" fill="#204181"/>
<path d="M756.943 538.25V523.7H763.577C769.383 523.7 771.682 525.911 771.682 530.509C771.682 530.669 771.682 530.815 771.682 530.96C771.682 531.12 771.682 531.251 771.682 531.411C771.682 533.055 771.391 534.38 770.751 535.427C769.965 536.708 768.641 537.551 766.677 537.959H766.647C766.298 538.032 765.92 538.09 765.527 538.133H765.484C765.309 538.148 765.134 538.177 764.96 538.177C764.901 538.177 764.858 538.177 764.8 538.177C764.654 538.177 764.509 538.192 764.349 538.206C764.29 538.206 764.232 538.206 764.174 538.206C763.97 538.206 763.767 538.206 763.548 538.206H756.914L756.943 538.25ZM763.854 508.044H761.642H756.943H740.37C738.071 508.044 737.053 509.062 737.053 511.361V547.984L744.022 569.3C744.852 571.7 743.746 573.257 741.534 573.257H740.37H753.625C755.924 573.257 756.943 572.239 756.943 569.94V553.92H761.642L771.129 570.58C772.147 572.326 773.428 573.257 775.727 573.257H783.86C782.201 573.257 781.168 572.37 781.096 570.929C781.081 570.449 781.154 569.896 781.372 569.3L784.791 558.853L780.179 551.243C780.179 551.243 789.477 547.387 791.193 536.955C791.499 535.136 791.717 533.157 791.732 530.989C791.703 528.821 791.514 526.843 791.193 525.024C789.389 514.722 780.179 510.736 780.179 510.736C775.829 508.859 770.343 508.058 763.839 508.058" fill="#006395"/>
<path d="M784.807 523.838L781.387 534.285C781.184 534.881 781.096 535.434 781.111 535.914C781.169 537.369 782.217 538.242 783.875 538.242H789.186C791.485 538.242 792.416 536.307 791.034 534.096L788.939 530.647L784.821 523.838H784.807Z" fill="#293469"/>
<path d="M965.967 508.044H949.395C946.994 508.044 946.077 509.062 945.437 510.998L937.711 534.641V569.94C937.711 572.239 936.692 573.257 934.394 573.257H942.862C945.161 573.257 946.368 572.239 946.907 570.216L957.586 527.759H957.863L963.144 548.944L968.455 570.216C968.557 570.595 968.688 570.944 968.833 571.249C969.488 572.588 970.638 573.257 972.5 573.257H986.497C988.156 573.257 989.189 572.37 989.262 570.929C989.262 570.886 989.262 570.857 989.262 570.813C979.95 566.273 974.406 556.496 974.406 540.2C974.406 535.776 974.814 531.833 975.599 528.341L969.925 511.012C969.925 511.012 969.896 510.939 969.896 510.91C969.794 510.605 969.677 510.314 969.546 510.052V510.023C968.892 508.728 967.917 508.058 965.982 508.058" fill="#FEBD11"/>
<path d="M975.585 528.327C974.799 531.819 974.392 535.762 974.392 540.185C974.392 556.496 979.95 566.259 989.247 570.799C989.247 570.348 989.16 569.838 988.971 569.286L976.501 531.164L975.57 528.327H975.585Z" fill="#F47820"/>
<path d="M937.695 499.641L926.36 534.299C925.531 536.7 926.637 538.257 928.848 538.257H934.377C936.676 538.257 937.695 537.238 937.695 534.94V499.641Z" fill="#5B9345"/>
<path d="M885.272 508.044H872.555C870.256 508.044 869.238 509.062 869.238 511.361V539.545L853.029 510.066C852.2 508.597 851.371 508.044 849.072 508.044H836.268C833.969 508.044 832.95 509.062 832.95 511.361V535.5L843.994 569.285C844.823 571.686 843.717 573.243 841.506 573.243H848.97C851.269 573.243 852.287 572.224 852.287 569.925V541.742L868.496 571.22C869.325 572.69 870.155 573.243 872.454 573.243H885.258C885.403 573.243 885.549 573.243 885.68 573.243C883.672 573.126 882.784 572.093 882.784 569.94V511.361C882.784 509.208 883.672 508.175 885.68 508.058C885.549 508.058 885.403 508.058 885.258 508.058" fill="#009C47"/>
<path d="M885.695 508.058C883.687 508.175 882.8 509.208 882.8 511.361V569.939C882.8 572.093 883.687 573.126 885.695 573.242C887.703 573.126 888.591 572.093 888.591 569.939V511.361C888.591 509.208 887.703 508.175 885.695 508.058Z" fill="#009849"/>
<path d="M832.963 500.5V534.94C832.963 537.238 833.981 538.257 836.28 538.257H841.533C843.744 538.257 844.85 536.686 844.021 534.299L832.977 500.514L832.963 500.5Z" fill="#273B32"/>
<path d="M720.988 508.044H704.416C702.466 508.044 701.491 508.713 700.851 510.008V510.037C700.706 510.299 700.589 510.59 700.487 510.896C700.487 510.925 700.458 510.969 700.444 510.998L693.853 531.164L691.83 537.333V569.94C691.83 572.239 690.812 573.257 688.513 573.257H697.868C699.745 573.257 700.88 572.588 701.535 571.249V571.22C701.695 570.915 701.811 570.595 701.913 570.216L712.506 527.759H712.782L723.462 570.216C724.015 572.239 725.208 573.257 727.521 573.257H740.354C738.056 573.257 737.037 572.239 737.037 569.94V547.984L724.946 510.998C724.306 509.062 723.375 508.044 720.988 508.044Z" fill="#D91A21"/>
<path d="M691.842 502.333L681.396 534.3C681.279 534.649 681.192 534.984 681.163 535.289C681.134 535.508 681.119 535.711 681.134 535.915C681.192 537.37 682.239 538.258 683.898 538.258H688.554C690.853 538.258 691.872 537.239 691.872 534.94V502.333H691.842Z" fill="#A82529"/>
<path d="M737.053 512.97V534.926C737.053 537.225 738.071 538.243 740.37 538.243H741.534C743.746 538.243 744.852 536.672 744.022 534.286L737.053 512.97Z" fill="#2F2C30"/>
<rect x="802.773" y="911.144" width="314.454" height="59.2423" rx="29.6211" fill="white"/>
<path d="M868.199 935.844H870.087C870.443 935.844 870.662 936.036 870.771 936.391L873.042 943.752L873.727 946.598H873.781L874.383 943.752L876.353 936.446C876.463 936.063 876.709 935.844 877.092 935.844H879.528C880.02 935.844 880.184 936.09 880.02 936.556L876.107 949.663C875.998 950.073 875.724 950.265 875.314 950.265H872.878C872.44 950.265 872.167 950.073 872.057 949.635L869.978 943.068L869.184 940.085H869.102L868.309 943.068L866.256 949.635C866.119 950.073 865.846 950.265 865.435 950.265H863C862.562 950.265 862.316 950.073 862.207 949.663L858.266 936.556C858.129 936.09 858.294 935.844 858.759 935.844H861.194C861.577 935.844 861.823 936.063 861.933 936.446L863.903 943.752L864.505 946.598H864.56L865.271 943.752L867.488 936.391C867.57 936.036 867.816 935.844 868.199 935.844ZM891.661 935.844H893.549C893.905 935.844 894.124 936.036 894.233 936.391L896.504 943.752L897.189 946.598H897.243L897.845 943.752L899.815 936.446C899.925 936.063 900.171 935.844 900.554 935.844H902.99C903.482 935.844 903.646 936.09 903.482 936.556L899.569 949.663C899.46 950.073 899.186 950.265 898.776 950.265H896.34C895.902 950.265 895.629 950.073 895.519 949.635L893.44 943.068L892.646 940.085H892.564L891.771 943.068L889.718 949.635C889.581 950.073 889.308 950.265 888.897 950.265H886.462C886.024 950.265 885.778 950.073 885.669 949.663L881.728 936.556C881.591 936.09 881.756 935.844 882.221 935.844H884.656C885.039 935.844 885.285 936.063 885.395 936.446L887.365 943.752L887.967 946.598H888.022L888.733 943.752L890.95 936.391C891.032 936.036 891.278 935.844 891.661 935.844ZM915.123 935.844H917.011C917.367 935.844 917.586 936.036 917.695 936.391L919.966 943.752L920.651 946.598H920.705L921.307 943.752L923.277 936.446C923.387 936.063 923.633 935.844 924.016 935.844H926.452C926.944 935.844 927.108 936.09 926.944 936.556L923.031 949.663C922.922 950.073 922.648 950.265 922.238 950.265H919.802C919.364 950.265 919.091 950.073 918.981 949.635L916.902 943.068L916.108 940.085H916.026L915.233 943.068L913.18 949.635C913.043 950.073 912.77 950.265 912.359 950.265H909.924C909.486 950.265 909.24 950.073 909.131 949.663L905.19 936.556C905.053 936.09 905.218 935.844 905.683 935.844H908.118C908.501 935.844 908.747 936.063 908.857 936.446L910.827 943.752L911.429 946.598H911.484L912.195 943.752L914.412 936.391C914.494 936.036 914.74 935.844 915.123 935.844ZM928.295 949.635V947.008C928.295 946.625 928.514 946.406 928.979 946.406H931.387C931.825 946.406 932.072 946.625 932.072 947.008V949.635C932.072 950.073 931.853 950.265 931.442 950.265H928.925C928.487 950.265 928.295 950.073 928.295 949.635ZM947.916 941.645V949.635C947.916 950.073 947.697 950.265 947.287 950.265H944.961C944.523 950.265 944.332 950.073 944.332 949.635V941.372C944.332 940.469 944.14 939.784 943.784 939.319C943.429 938.854 942.854 938.608 942.033 938.608C941.075 938.608 940.337 938.909 939.789 939.511C939.242 940.113 938.996 940.879 938.996 941.809V949.635C938.996 950.073 938.777 950.265 938.366 950.265H936.041C935.603 950.265 935.384 950.073 935.384 949.635V936.473C935.384 936.063 935.603 935.844 936.041 935.844H938.202C938.585 935.844 938.804 936.036 938.859 936.391L938.996 937.814C939.324 937.212 939.844 936.665 940.583 936.2C941.322 935.762 942.252 935.516 943.347 935.516C945.481 935.516 946.849 936.337 947.506 937.951C948.463 936.337 950.051 935.516 952.267 935.516C953.799 935.516 954.949 935.981 955.715 936.884C956.481 937.814 956.864 939.1 956.864 940.77V949.635C956.864 950.073 956.645 950.265 956.235 950.265H953.881C953.444 950.265 953.252 950.073 953.252 949.635V941.399C953.252 940.469 953.061 939.784 952.705 939.319C952.322 938.854 951.72 938.608 950.899 938.608C949.968 938.608 949.257 938.909 948.71 939.483C948.163 940.058 947.916 940.77 947.916 941.645ZM972.627 940.715V949.635C972.627 950.073 972.408 950.265 971.97 950.265H969.945C969.562 950.265 969.344 950.1 969.316 949.745L969.207 948.267C968.222 949.772 966.58 950.511 964.227 950.511C962.776 950.511 961.627 950.155 960.806 949.416C959.958 948.705 959.547 947.665 959.547 946.324C959.547 945.558 959.684 944.874 960.013 944.299C960.314 943.725 960.724 943.26 961.244 942.931C961.764 942.603 962.448 942.329 963.296 942.11C964.144 941.891 965.02 941.755 965.896 941.673C966.771 941.59 967.839 941.536 969.097 941.508V940.879C969.097 940.031 968.851 939.401 968.358 938.991C967.866 938.608 967.072 938.389 965.978 938.389C964.637 938.389 963.269 938.663 961.873 939.21C961.49 939.347 961.217 939.21 961.08 938.827L960.587 937.322C960.478 936.993 960.587 936.747 960.97 936.556C962.585 935.871 964.418 935.516 966.443 935.516C970.547 935.516 972.627 937.267 972.627 940.715ZM969.097 944.819V943.643C968.057 943.697 967.237 943.752 966.58 943.807C965.923 943.862 965.294 943.998 964.692 944.163C964.09 944.327 963.679 944.573 963.406 944.901C963.132 945.23 962.995 945.613 962.995 946.105C962.995 946.707 963.187 947.173 963.625 947.501C964.035 947.857 964.637 948.021 965.403 948.021C966.607 948.021 967.51 947.747 968.14 947.145C968.769 946.543 969.097 945.777 969.097 944.819ZM975.834 949.635V947.008C975.834 946.625 976.053 946.406 976.518 946.406H978.926C979.364 946.406 979.61 946.625 979.61 947.008V949.635C979.61 950.073 979.391 950.265 978.981 950.265H976.463C976.026 950.265 975.834 950.073 975.834 949.635ZM992.253 942.001C992.253 939.483 991.186 938.225 989.079 938.225C987 938.225 985.96 939.538 985.96 942.138C985.96 944.765 987 946.051 989.079 946.051C990.064 946.051 990.858 945.722 991.405 945.011C991.952 944.327 992.253 943.314 992.253 942.001ZM995.811 936.473V947.829C995.811 949.717 995.181 951.14 993.977 952.125C992.773 953.11 991.077 953.603 988.888 953.603C986.699 953.603 985.029 953.329 983.853 952.755C983.47 952.591 983.36 952.344 983.47 952.016L983.935 950.538C984.044 950.155 984.291 950.018 984.701 950.128C985.987 950.593 987.301 950.812 988.614 950.812C989.845 950.812 990.776 950.538 991.432 949.991C992.062 949.444 992.39 948.678 992.39 947.665V946.488C992.007 947.173 991.46 947.692 990.694 948.076C989.927 948.459 989.107 948.623 988.176 948.623C986.398 948.623 984.975 948.103 983.935 947.036C982.868 945.996 982.348 944.354 982.348 942.138C982.348 939.949 982.84 938.279 983.88 937.185C984.92 936.09 986.288 935.543 988.039 935.543C988.97 935.543 989.845 935.762 990.639 936.145C991.405 936.528 991.98 937.048 992.363 937.677L992.445 936.391C992.472 936.036 992.691 935.844 993.102 935.844H995.181C995.592 935.844 995.811 936.063 995.811 936.473ZM1005.92 950.566C1003.71 950.566 1001.95 949.936 1000.7 948.623C999.437 947.337 998.807 945.476 998.807 943.041C998.807 940.633 999.437 938.772 1000.7 937.459C1001.95 936.172 1003.71 935.516 1005.92 935.516C1008.11 935.516 1009.86 936.172 1011.15 937.459C1012.41 938.772 1013.06 940.633 1013.06 943.041C1013.06 945.476 1012.41 947.337 1011.15 948.623C1009.86 949.936 1008.11 950.566 1005.92 950.566ZM1005.92 947.665C1008.22 947.665 1009.37 946.133 1009.37 943.041C1009.37 939.976 1008.22 938.416 1005.92 938.416C1003.62 938.416 1002.5 939.976 1002.5 943.041C1002.5 946.133 1003.62 947.665 1005.92 947.665ZM1022.66 950.265H1019.98C1019.57 950.265 1019.29 950.1 1019.19 949.745L1014.48 936.556C1014.31 936.09 1014.48 935.844 1014.97 935.844H1017.38C1017.76 935.844 1018.01 936.063 1018.12 936.446L1020.17 942.658L1021.29 946.653H1021.37L1022.5 942.658L1024.52 936.446C1024.63 936.063 1024.88 935.844 1025.26 935.844H1027.72C1027.94 935.844 1028.08 935.926 1028.16 936.063C1028.24 936.2 1028.24 936.364 1028.19 936.556L1023.45 949.745C1023.32 950.1 1023.04 950.265 1022.66 950.265ZM1028.42 949.635V947.008C1028.42 946.625 1028.64 946.406 1029.11 946.406H1031.52C1031.95 946.406 1032.2 946.625 1032.2 947.008V949.635C1032.2 950.073 1031.98 950.265 1031.57 950.265H1029.05C1028.61 950.265 1028.42 950.073 1028.42 949.635ZM1039.23 943.041C1039.23 946.105 1040.41 947.638 1042.76 947.638C1043.91 947.638 1044.79 947.282 1045.36 946.571C1045.91 945.859 1046.21 944.683 1046.21 943.041C1046.21 941.426 1045.91 940.25 1045.36 939.538C1044.79 938.827 1043.91 938.444 1042.76 938.444C1040.41 938.444 1039.23 939.976 1039.23 943.041ZM1039.12 948.24L1039.04 949.745C1038.99 950.1 1038.8 950.265 1038.41 950.265H1036.25C1035.81 950.265 1035.62 950.073 1035.62 949.635V931.603C1035.62 931.22 1035.81 931.001 1036.25 931.001H1038.6C1039.01 931.001 1039.23 931.22 1039.23 931.603V937.787C1039.62 937.075 1040.22 936.528 1041.07 936.118C1041.89 935.735 1042.82 935.516 1043.8 935.516C1045.72 935.516 1047.22 936.172 1048.29 937.431C1049.36 938.69 1049.9 940.578 1049.9 943.041C1049.9 945.531 1049.36 947.419 1048.29 948.678C1047.22 949.936 1045.72 950.566 1043.8 950.566C1042.76 950.566 1041.83 950.374 1040.98 949.964C1040.14 949.581 1039.51 949.006 1039.12 948.24ZM1053.56 935.844H1055.73C1056.11 935.844 1056.33 936.036 1056.38 936.419L1056.52 938.58C1056.82 937.869 1057.37 937.212 1058.13 936.61C1058.9 936.036 1059.8 935.735 1060.87 935.735C1061.06 935.735 1061.2 935.789 1061.28 935.844C1061.36 935.926 1061.42 936.063 1061.42 936.282V938.827C1061.42 939.155 1061.23 939.319 1060.9 939.319C1060.82 939.319 1060.68 939.319 1060.51 939.292C1060.32 939.292 1060.16 939.265 1060.02 939.265C1059.01 939.265 1058.19 939.675 1057.53 940.496C1056.88 941.317 1056.55 942.247 1056.55 943.342V949.635C1056.55 950.073 1056.33 950.265 1055.92 950.265H1053.56C1053.13 950.265 1052.91 950.073 1052.91 949.635V936.473C1052.91 936.063 1053.13 935.844 1053.56 935.844Z" fill="#121726"/>
</g>
<defs>
<clipPath id="clip0_2024_3224">
<rect width="1920" height="1080" fill="white" transform="translate(0 0.115234)"/>
</clipPath>
</defs>
</svg>
