<svg width="1920" height="306" viewBox="0 0 1920 306" fill="none" xmlns="http://www.w3.org/2000/svg">
<g clip-path="url(#clip0_2024_3407)">
<rect width="1920" height="200" fill="url(#paint0_linear_2024_3407)"/>
<g clip-path="url(#clip1_2024_3407)">
<path d="M157.454 60.6437C170.279 60.6437 171.798 60.7 176.842 60.925C181.529 61.1312 184.06 61.9188 185.748 62.575C187.979 63.4375 189.592 64.4875 191.26 66.1562C192.948 67.8438 193.979 69.4375 194.842 71.6688C195.498 73.3563 196.285 75.9062 196.492 80.575C196.717 85.6375 196.773 87.1563 196.773 99.9625C196.773 112.788 196.717 114.306 196.492 119.35C196.285 124.038 195.498 126.569 194.842 128.256C193.979 130.488 192.929 132.1 191.26 133.769C189.573 135.456 187.979 136.488 185.748 137.35C184.06 138.006 181.51 138.794 176.842 139C171.779 139.225 170.26 139.281 157.454 139.281C144.629 139.281 143.11 139.225 138.067 139C133.379 138.794 130.848 138.006 129.16 137.35C126.929 136.488 125.317 135.438 123.648 133.769C121.96 132.081 120.929 130.488 120.067 128.256C119.41 126.569 118.623 124.019 118.417 119.35C118.192 114.288 118.135 112.769 118.135 99.9625C118.135 87.1375 118.192 85.6187 118.417 80.575C118.623 75.8875 119.41 73.3563 120.067 71.6688C120.929 69.4375 121.979 67.825 123.648 66.1562C125.335 64.4688 126.929 63.4375 129.16 62.575C130.848 61.9188 133.398 61.1312 138.067 60.925C143.11 60.7 144.629 60.6437 157.454 60.6437ZM157.454 52C144.423 52 142.792 52.0562 137.673 52.2812C132.573 52.5063 129.067 53.3312 126.029 54.5125C122.86 55.75 120.179 57.3812 117.517 60.0625C114.835 62.725 113.204 65.4063 111.967 68.5563C110.785 71.6125 109.96 75.1 109.735 80.2C109.51 85.3375 109.454 86.9688 109.454 100C109.454 113.031 109.51 114.663 109.735 119.781C109.96 124.881 110.785 128.388 111.967 131.425C113.204 134.594 114.835 137.275 117.517 139.938C120.179 142.6 122.86 144.25 126.01 145.469C129.067 146.65 132.554 147.475 137.654 147.7C142.773 147.925 144.404 147.981 157.435 147.981C170.467 147.981 172.098 147.925 177.217 147.7C182.317 147.475 185.823 146.65 188.86 145.469C192.01 144.25 194.692 142.6 197.354 139.938C200.017 137.275 201.667 134.594 202.885 131.444C204.067 128.388 204.892 124.9 205.117 119.8C205.342 114.681 205.398 113.05 205.398 100.019C205.398 86.9875 205.342 85.3563 205.117 80.2375C204.892 75.1375 204.067 71.6313 202.885 68.5938C201.704 65.4062 200.073 62.725 197.392 60.0625C194.729 57.4 192.048 55.75 188.898 54.5312C185.842 53.35 182.354 52.525 177.254 52.3C172.117 52.0563 170.485 52 157.454 52Z" fill="white"/>
<path d="M157.454 75.3437C143.842 75.3437 132.798 86.3874 132.798 99.9999C132.798 113.612 143.842 124.656 157.454 124.656C171.067 124.656 182.11 113.612 182.11 99.9999C182.11 86.3874 171.067 75.3437 157.454 75.3437ZM157.454 115.994C148.623 115.994 141.46 108.831 141.46 99.9999C141.46 91.1687 148.623 84.0062 157.454 84.0062C166.285 84.0062 173.448 91.1687 173.448 99.9999C173.448 108.831 166.285 115.994 157.454 115.994Z" fill="white"/>
<path d="M188.841 74.3686C188.841 77.5561 186.253 80.1249 183.084 80.1249C179.897 80.1249 177.328 77.5374 177.328 74.3686C177.328 71.1811 179.916 68.6124 183.084 68.6124C186.253 68.6124 188.841 71.1999 188.841 74.3686Z" fill="white"/>
</g>
<path d="M251.338 75.48H255.058C256.898 75.48 258.178 75.2 258.978 74.56C259.778 73.92 260.178 72.92 260.178 71.52C260.178 70.08 259.778 69.04 259.018 68.44C258.218 67.88 256.938 67.56 255.098 67.56H251.338V75.48ZM245.698 61.76H255.178C259.138 61.76 262.098 62.56 264.098 64.08C266.058 65.6 267.058 68.08 267.058 71.52C267.058 75.96 264.978 78.8 260.858 80.04L266.858 88.52C267.098 88.88 267.178 89.2 267.018 89.52C266.858 89.84 266.578 90 266.178 90H261.538C260.818 90 260.298 89.72 259.898 89.08L254.378 81H251.338V88.84C251.338 89.64 250.938 90 250.178 90H245.698C244.898 90 244.538 89.64 244.538 88.84V62.92C244.538 62.16 244.898 61.76 245.698 61.76ZM289.388 75.84V88.88C289.388 89.64 289.028 90 288.308 90H284.668C284.028 90 283.628 89.72 283.548 89.12L283.308 87.36C281.868 89.36 279.508 90.32 276.268 90.32C274.188 90.32 272.548 89.8 271.308 88.72C270.068 87.68 269.468 86.12 269.468 84.08C269.468 82.92 269.668 81.92 270.108 81.04C270.548 80.2 271.148 79.52 271.868 79C272.588 78.52 273.548 78.12 274.788 77.8C275.988 77.52 277.228 77.32 278.468 77.2C279.708 77.08 281.228 77 283.068 76.96V76.2C283.068 74.2 281.668 73.2 278.948 73.2C277.108 73.2 275.188 73.6 273.188 74.32C272.468 74.64 272.028 74.4 271.828 73.64L271.028 71.16C270.788 70.56 271.028 70.12 271.668 69.8C274.068 68.76 276.788 68.24 279.908 68.24C286.228 68.24 289.388 70.8 289.388 75.84ZM283.068 82.12V80.44C280.468 80.52 278.588 80.76 277.428 81.2C276.228 81.64 275.668 82.44 275.668 83.64C275.668 84.4 275.908 85 276.468 85.44C276.988 85.92 277.708 86.12 278.668 86.12C280.108 86.12 281.228 85.76 281.948 85.04C282.668 84.32 283.068 83.32 283.068 82.12ZM314.025 76.2V88.88C314.025 89.64 313.665 90 312.945 90H308.625C307.865 90 307.505 89.64 307.505 88.88V77.44C307.505 76.16 307.265 75.24 306.785 74.6C306.305 74 305.465 73.68 304.345 73.68C303.065 73.68 302.145 74.08 301.505 74.84C300.865 75.6 300.545 76.64 300.545 77.92V88.88C300.545 89.64 300.145 90 299.425 90H295.105C294.385 90 294.025 89.64 294.025 88.88V69.8C294.025 69.08 294.385 68.72 295.105 68.72H298.985C299.625 68.72 300.025 69.04 300.105 69.6L300.425 71.4C301.785 69.32 303.945 68.24 306.945 68.24C311.665 68.24 314.025 70.92 314.025 76.2ZM337.873 90H333.073C332.393 90 331.833 89.72 331.393 89.12L325.313 81.68V88.88C325.313 89.64 324.913 90 324.193 90H319.873C319.153 90 318.793 89.64 318.793 88.88V62.84C318.793 62.12 319.153 61.76 319.873 61.76H324.193C324.913 61.76 325.313 62.12 325.313 62.84V75.44L331.033 69.52C331.513 69 332.073 68.72 332.713 68.72H337.393C337.793 68.72 338.033 68.88 338.193 69.2C338.313 69.52 338.233 69.8 337.913 70.12L329.833 78.32L338.353 88.6C338.593 88.96 338.673 89.28 338.593 89.56C338.473 89.88 338.233 90 337.873 90ZM348.127 69.8V88.88C348.127 89.64 347.767 90 347.047 90H342.687C341.967 90 341.607 89.64 341.607 88.88V69.8C341.607 69.08 341.967 68.72 342.687 68.72H347.047C347.767 68.72 348.127 69.08 348.127 69.8ZM348.167 62.92V65.44C348.167 66.2 347.807 66.56 347.087 66.56H342.647C341.927 66.56 341.567 66.2 341.567 65.44V62.92C341.567 62.2 341.927 61.84 342.647 61.84H347.087C347.807 61.84 348.167 62.2 348.167 62.92ZM373.009 76.2V88.88C373.009 89.64 372.649 90 371.929 90H367.609C366.849 90 366.489 89.64 366.489 88.88V77.44C366.489 76.16 366.249 75.24 365.769 74.6C365.289 74 364.449 73.68 363.329 73.68C362.049 73.68 361.129 74.08 360.489 74.84C359.849 75.6 359.529 76.64 359.529 77.92V88.88C359.529 89.64 359.129 90 358.409 90H354.089C353.369 90 353.009 89.64 353.009 88.88V69.8C353.009 69.08 353.369 68.72 354.089 68.72H357.969C358.609 68.72 359.009 69.04 359.089 69.6L359.409 71.4C360.769 69.32 362.929 68.24 365.929 68.24C370.649 68.24 373.009 70.92 373.009 76.2ZM390.938 77.72C390.938 74.52 389.658 72.88 387.138 72.88C384.618 72.88 383.378 74.56 383.378 77.84C383.378 81.2 384.618 82.84 387.138 82.84C389.658 82.84 390.938 81.16 390.938 77.72ZM397.298 69.8V86.08C397.298 88.96 396.378 91.16 394.538 92.64C392.698 94.16 390.058 94.88 386.618 94.88C383.298 94.88 380.778 94.48 379.098 93.64C378.458 93.32 378.258 92.88 378.418 92.28L379.138 89.8C379.338 89.08 379.778 88.88 380.498 89.12C382.298 89.76 384.138 90.08 386.058 90.08C389.458 90.08 391.178 88.68 391.178 85.8V84.4C390.618 85.32 389.858 86.04 388.818 86.52C387.778 87 386.618 87.24 385.338 87.24C382.778 87.24 380.698 86.48 379.178 84.96C377.658 83.44 376.898 81.08 376.898 77.84C376.898 74.64 377.618 72.24 379.098 70.64C380.578 69.08 382.578 68.28 385.098 68.28C386.378 68.28 387.578 68.56 388.658 69.08C389.738 69.64 390.578 70.32 391.138 71.2L391.338 69.6C391.418 69.04 391.778 68.72 392.458 68.72H396.178C396.898 68.72 397.298 69.08 397.298 69.8ZM258.578 127.36C258.578 123.36 257.138 121.32 254.298 121.32C252.898 121.32 251.858 121.8 251.178 122.76C250.458 123.72 250.138 125.24 250.138 127.36C250.138 129.48 250.458 131 251.178 131.96C251.858 132.92 252.898 133.36 254.298 133.36C257.138 133.36 258.578 131.36 258.578 127.36ZM258.978 137.12L258.778 135.36C258.178 136.32 257.258 137.08 256.058 137.64C254.858 138.2 253.578 138.44 252.258 138.44C249.458 138.44 247.298 137.52 245.778 135.64C244.258 133.8 243.498 131.04 243.498 127.36C243.498 123.68 244.258 120.92 245.778 119.04C247.298 117.2 249.458 116.24 252.258 116.24C253.538 116.24 254.738 116.52 255.938 117.04C257.138 117.56 257.978 118.28 258.538 119.16V110.84C258.538 110.12 258.898 109.76 259.618 109.76H263.938C264.658 109.76 265.058 110.12 265.058 110.84V136.88C265.058 137.64 264.658 138 263.938 138H260.098C259.458 138 259.058 137.72 258.978 137.12ZM281.245 133.88C283.045 133.88 284.805 133.48 286.485 132.68C287.165 132.36 287.645 132.6 287.925 133.36L288.645 135.48C288.805 136.08 288.605 136.52 287.965 136.84C285.765 137.96 283.325 138.48 280.685 138.48C276.965 138.48 274.085 137.52 272.045 135.6C270.005 133.68 269.005 130.92 269.005 127.36C269.005 123.84 269.925 121.08 271.845 119.16C273.725 117.24 276.285 116.24 279.565 116.24C282.685 116.24 285.165 117.2 286.925 119.04C288.685 120.92 289.565 123.4 289.565 126.52V128.48C289.565 129.2 289.165 129.56 288.445 129.56H275.445C275.685 130.92 276.285 132 277.285 132.76C278.285 133.52 279.605 133.88 281.245 133.88ZM279.685 120.84C276.965 120.84 275.485 122.52 275.245 125.84H283.765V125.56C283.765 124.08 283.405 122.92 282.725 122.08C282.005 121.28 281.005 120.84 279.685 120.84ZM320.644 132.12C320.644 136.36 317.604 138.44 311.604 138.44C308.924 138.44 306.564 138.08 304.564 137.28C303.884 137.04 303.644 136.6 303.844 135.96L304.524 133.64C304.684 132.96 305.124 132.72 305.884 132.96C307.444 133.48 308.964 133.72 310.484 133.72C312.964 133.72 314.244 133.12 314.244 131.92C314.244 131.36 313.924 130.88 313.364 130.52C312.804 130.2 311.844 129.8 310.524 129.36C308.324 128.64 306.844 127.96 306.084 127.36C304.604 126.28 303.884 124.64 303.884 122.48C303.884 120.4 304.604 118.84 306.084 117.8C307.564 116.76 309.644 116.24 312.364 116.24C315.044 116.24 317.244 116.6 318.964 117.32C319.604 117.6 319.844 118.04 319.684 118.68L319.004 120.92C318.764 121.64 318.324 121.88 317.644 121.64C316.164 121.2 314.724 120.96 313.364 120.96C311.284 120.96 310.284 121.56 310.284 122.68C310.284 123.28 310.564 123.76 311.124 124.08C311.684 124.44 312.684 124.88 314.084 125.36C315.164 125.76 316.004 126.12 316.644 126.4C317.284 126.72 317.924 127.12 318.644 127.64C319.324 128.16 319.844 128.8 320.164 129.52C320.484 130.24 320.644 131.12 320.644 132.12ZM335.464 133.88C337.264 133.88 339.024 133.48 340.704 132.68C341.384 132.36 341.864 132.6 342.144 133.36L342.864 135.48C343.024 136.08 342.824 136.52 342.184 136.84C339.984 137.96 337.544 138.48 334.904 138.48C331.184 138.48 328.304 137.52 326.264 135.6C324.224 133.68 323.224 130.92 323.224 127.36C323.224 123.84 324.144 121.08 326.064 119.16C327.944 117.24 330.504 116.24 333.784 116.24C336.904 116.24 339.384 117.2 341.144 119.04C342.904 120.92 343.784 123.4 343.784 126.52V128.48C343.784 129.2 343.384 129.56 342.664 129.56H329.664C329.904 130.92 330.504 132 331.504 132.76C332.504 133.52 333.824 133.88 335.464 133.88ZM333.904 120.84C331.184 120.84 329.704 122.52 329.464 125.84H337.984V125.56C337.984 124.08 337.624 122.92 336.944 122.08C336.224 121.28 335.224 120.84 333.904 120.84ZM360.899 125.72C360.899 122.52 359.619 120.88 357.099 120.88C354.579 120.88 353.339 122.56 353.339 125.84C353.339 129.2 354.579 130.84 357.099 130.84C359.619 130.84 360.899 129.16 360.899 125.72ZM367.259 117.8V134.08C367.259 136.96 366.339 139.16 364.499 140.64C362.659 142.16 360.019 142.88 356.579 142.88C353.259 142.88 350.739 142.48 349.059 141.64C348.419 141.32 348.219 140.88 348.379 140.28L349.099 137.8C349.299 137.08 349.739 136.88 350.459 137.12C352.259 137.76 354.099 138.08 356.019 138.08C359.419 138.08 361.139 136.68 361.139 133.8V132.4C360.579 133.32 359.819 134.04 358.779 134.52C357.739 135 356.579 135.24 355.299 135.24C352.739 135.24 350.659 134.48 349.139 132.96C347.619 131.44 346.859 129.08 346.859 125.84C346.859 122.64 347.579 120.24 349.059 118.64C350.539 117.08 352.539 116.28 355.059 116.28C356.339 116.28 357.539 116.56 358.619 117.08C359.699 117.64 360.539 118.32 361.099 119.2L361.299 117.6C361.379 117.04 361.739 116.72 362.419 116.72H366.139C366.859 116.72 367.259 117.08 367.259 117.8ZM371.794 130.76V117.8C371.794 117.08 372.154 116.72 372.914 116.72H377.234C377.954 116.72 378.314 117.08 378.314 117.8V129.48C378.314 130.68 378.514 131.6 378.954 132.2C379.394 132.84 380.194 133.12 381.314 133.12C382.514 133.12 383.434 132.76 384.114 132C384.754 131.28 385.114 130.28 385.114 129V117.8C385.114 117.08 385.474 116.72 386.234 116.72H390.554C391.274 116.72 391.634 117.08 391.634 117.8V136.88C391.634 137.64 391.274 138 390.554 138H386.674C385.994 138 385.594 137.72 385.514 137.12L385.234 135.28C383.914 137.4 381.834 138.44 378.994 138.44C376.514 138.44 374.714 137.84 373.554 136.6C372.354 135.36 371.794 133.4 371.794 130.76ZM403.088 117.8V136.88C403.088 137.64 402.728 138 402.008 138H397.648C396.928 138 396.568 137.64 396.568 136.88V117.8C396.568 117.08 396.928 116.72 397.648 116.72H402.008C402.728 116.72 403.088 117.08 403.088 117.8ZM403.128 110.92V113.44C403.128 114.2 402.768 114.56 402.048 114.56H397.608C396.888 114.56 396.528 114.2 396.528 113.44V110.92C396.528 110.2 396.888 109.84 397.608 109.84H402.048C402.768 109.84 403.128 110.2 403.128 110.92ZM422.25 127.36C422.25 123.36 420.81 121.32 417.97 121.32C416.57 121.32 415.53 121.8 414.85 122.76C414.13 123.72 413.81 125.24 413.81 127.36C413.81 129.48 414.13 131 414.85 131.96C415.53 132.92 416.57 133.36 417.97 133.36C420.81 133.36 422.25 131.36 422.25 127.36ZM422.65 137.12L422.45 135.36C421.85 136.32 420.93 137.08 419.73 137.64C418.53 138.2 417.25 138.44 415.93 138.44C413.13 138.44 410.97 137.52 409.45 135.64C407.93 133.8 407.17 131.04 407.17 127.36C407.17 123.68 407.93 120.92 409.45 119.04C410.97 117.2 413.13 116.24 415.93 116.24C417.21 116.24 418.41 116.52 419.61 117.04C420.81 117.56 421.65 118.28 422.21 119.16V110.84C422.21 110.12 422.57 109.76 423.29 109.76H427.61C428.33 109.76 428.73 110.12 428.73 110.84V136.88C428.73 137.64 428.33 138 427.61 138H423.77C423.13 138 422.73 137.72 422.65 137.12ZM443.397 138.44C440.037 138.44 437.437 137.52 435.517 135.6C433.597 133.72 432.677 130.96 432.677 127.36C432.677 123.76 433.597 121 435.517 119.08C437.437 117.2 440.037 116.24 443.397 116.24C446.717 116.24 449.357 117.2 451.277 119.08C453.197 121 454.157 123.76 454.157 127.36C454.157 130.96 453.197 133.72 451.277 135.6C449.357 137.52 446.717 138.44 443.397 138.44ZM443.397 133.4C446.117 133.4 447.517 131.4 447.517 127.36C447.517 123.32 446.117 121.28 443.397 121.28C440.677 121.28 439.317 123.32 439.317 127.36C439.317 131.4 440.677 133.4 443.397 133.4ZM459.129 116.72H463.009C463.649 116.72 464.049 117.04 464.129 117.68L464.449 120.4C464.929 119.36 465.689 118.48 466.769 117.68C467.849 116.88 469.129 116.48 470.569 116.48C471.249 116.48 471.609 116.84 471.609 117.48V121.88C471.609 122.48 471.289 122.76 470.649 122.76C470.489 122.76 470.289 122.76 469.969 122.72C469.649 122.72 469.409 122.68 469.169 122.68C467.729 122.68 466.609 123.16 465.769 124.12C464.929 125.08 464.529 126.32 464.529 127.76V136.88C464.529 137.64 464.169 138 463.449 138H459.129C458.369 138 458.009 137.64 458.009 136.88V117.8C458.009 117.08 458.369 116.72 459.129 116.72ZM486.05 133.88C487.85 133.88 489.61 133.48 491.29 132.68C491.97 132.36 492.45 132.6 492.73 133.36L493.45 135.48C493.61 136.08 493.41 136.52 492.77 136.84C490.57 137.96 488.13 138.48 485.49 138.48C481.77 138.48 478.89 137.52 476.85 135.6C474.81 133.68 473.81 130.92 473.81 127.36C473.81 123.84 474.73 121.08 476.65 119.16C478.53 117.24 481.09 116.24 484.37 116.24C487.49 116.24 489.97 117.2 491.73 119.04C493.49 120.92 494.37 123.4 494.37 126.52V128.48C494.37 129.2 493.97 129.56 493.25 129.56H480.25C480.49 130.92 481.09 132 482.09 132.76C483.09 133.52 484.41 133.88 486.05 133.88ZM484.49 120.84C481.77 120.84 480.29 122.52 480.05 125.84H488.57V125.56C488.57 124.08 488.21 122.92 487.53 122.08C486.81 121.28 485.81 120.84 484.49 120.84ZM513.965 132.12C513.965 136.36 510.925 138.44 504.925 138.44C502.245 138.44 499.885 138.08 497.885 137.28C497.205 137.04 496.965 136.6 497.165 135.96L497.845 133.64C498.005 132.96 498.445 132.72 499.205 132.96C500.765 133.48 502.285 133.72 503.805 133.72C506.285 133.72 507.565 133.12 507.565 131.92C507.565 131.36 507.245 130.88 506.685 130.52C506.125 130.2 505.165 129.8 503.845 129.36C501.645 128.64 500.165 127.96 499.405 127.36C497.925 126.28 497.205 124.64 497.205 122.48C497.205 120.4 497.925 118.84 499.405 117.8C500.885 116.76 502.965 116.24 505.685 116.24C508.365 116.24 510.565 116.6 512.285 117.32C512.925 117.6 513.165 118.04 513.005 118.68L512.325 120.92C512.085 121.64 511.645 121.88 510.965 121.64C509.485 121.2 508.045 120.96 506.685 120.96C504.605 120.96 503.605 121.56 503.605 122.68C503.605 123.28 503.885 123.76 504.445 124.08C505.005 124.44 506.005 124.88 507.405 125.36C508.485 125.76 509.325 126.12 509.965 126.4C510.605 126.72 511.245 127.12 511.965 127.64C512.645 128.16 513.165 128.8 513.485 129.52C513.805 130.24 513.965 131.12 513.965 132.12Z" fill="white"/>
<rect x="1483.85" y="-241.318" width="572.378" height="572.378" rx="45.6057" transform="rotate(-17.1871 1483.85 -241.318)" fill="url(#paint1_linear_2024_3407)"/>
<g clip-path="url(#clip2_2024_3407)">
<path fill-rule="evenodd" clip-rule="evenodd" d="M1693.8 158.895V158.716C1693.8 158.529 1693.96 158.383 1694.14 158.383H1807C1807.19 158.383 1807.34 158.537 1807.34 158.716V158.895C1807.34 159.082 1807.18 159.229 1807 159.229H1694.14C1693.95 159.229 1693.8 159.074 1693.8 158.895Z" fill="white"/>
<path d="M1769.22 100.215H1768.09C1767.6 100.215 1767.39 100.353 1767.31 100.784L1767.28 100.947C1767.23 101.215 1766.96 101.353 1766.58 101.353C1766.23 101.353 1765.78 101.248 1765.37 101.085L1763.92 100.516C1763.92 100.516 1763.84 100.491 1763.81 100.475C1763.69 101.394 1763.14 101.801 1762.08 101.801H1759.41C1759.32 102.134 1759.26 102.5 1759.26 102.915C1759.26 103.777 1759.53 103.997 1760.12 103.997H1761.25C1761.74 103.997 1761.95 103.859 1762.03 103.428L1762.06 103.265C1762.11 102.972 1762.35 102.858 1762.73 102.858C1763.08 102.858 1763.51 102.94 1763.97 103.127L1765.42 103.696C1765.99 103.916 1766.66 104.07 1767.6 104.07C1769.16 104.07 1770.08 103.184 1770.08 101.451C1770.08 100.589 1769.81 100.215 1769.22 100.215Z" fill="white"/>
<path d="M1709.94 58.3221C1710.13 58.3221 1710.24 58.4197 1710.24 58.6231V62.4951C1710.24 62.7147 1710.11 62.8367 1709.97 62.918C1709.4 63.2597 1708.51 63.52 1707.22 63.52C1704.61 63.52 1703.09 62.1615 1703.09 59.1193C1703.09 56.077 1704.62 54.7267 1707.33 54.7267C1708.42 54.7267 1709.29 55.0196 1709.77 55.3043C1709.95 55.4019 1710.02 55.4995 1709.95 55.6785L1709.65 56.4268C1709.57 56.6058 1709.47 56.6709 1709.23 56.5732C1708.86 56.4187 1708.28 56.2235 1707.54 56.2235C1705.62 56.2235 1704.8 57.0694 1704.8 59.1112C1704.8 61.1529 1705.65 62.0151 1707.41 62.0151C1707.91 62.0151 1708.41 61.9094 1708.7 61.7711V59.6318H1707.39C1707.18 59.6318 1707.09 59.5504 1707.09 59.3552V58.615C1707.09 58.4197 1707.18 58.314 1707.39 58.314H1709.94V58.3221Z" fill="white"/>
<path d="M1721.3 59.1274C1721.3 62.0639 1719.91 63.52 1717.52 63.52C1715.14 63.52 1713.77 62.0721 1713.77 59.1274C1713.77 56.1828 1715.17 54.7267 1717.53 54.7267C1719.9 54.7267 1721.3 56.1909 1721.3 59.1274ZM1719.57 59.1274C1719.57 57.1833 1718.9 56.1991 1717.53 56.1991C1716.17 56.1991 1715.47 57.1752 1715.47 59.1274C1715.47 61.0797 1716.15 62.0395 1717.53 62.0395C1718.91 62.0395 1719.57 61.0715 1719.57 59.1274Z" fill="white"/>
<path d="M1727.04 63.3904C1726.84 63.3904 1726.74 63.309 1726.66 63.0976L1723.98 55.2154C1723.91 55.012 1724.01 54.8737 1724.21 54.8737H1725.38C1725.58 54.8737 1725.68 54.9713 1725.73 55.1422L1727.18 59.6567L1727.71 61.6496H1727.73L1728.25 59.6567L1729.7 55.1422C1729.75 54.9713 1729.84 54.8737 1730.05 54.8737H1731.23C1731.43 54.8737 1731.53 55.0039 1731.45 55.2154L1728.78 63.0976C1728.71 63.3009 1728.6 63.3904 1728.39 63.3904H1727.02H1727.04Z" fill="white"/>
<path d="M1736.53 59.7462V61.9343H1739.96C1740.17 61.9343 1740.26 62.0157 1740.26 62.2272V63.0894C1740.26 63.309 1740.17 63.3904 1739.96 63.3904H1735.17C1734.95 63.3904 1734.87 63.309 1734.87 63.0894V55.1666C1734.87 54.9632 1734.95 54.8737 1735.16 54.8737H1739.92C1740.12 54.8737 1740.22 54.9551 1740.22 55.1666V56.0288C1740.22 56.2322 1740.12 56.3298 1739.92 56.3298H1736.54V58.3471H1739.77C1739.96 58.3471 1740.06 58.4528 1740.06 58.6481V59.4452C1740.06 59.6405 1739.96 59.7462 1739.77 59.7462H1736.54H1736.53Z" fill="white"/>
<path d="M1746.88 54.8737C1749.22 54.8737 1750.41 55.7116 1750.41 57.737C1750.41 59.2093 1749.61 60.039 1748.33 60.3156L1750.39 63.0162C1750.52 63.187 1750.44 63.3904 1750.21 63.3904H1749.06C1748.84 63.3904 1748.74 63.2928 1748.64 63.1464L1746.68 60.5434H1745.56V63.0813C1745.56 63.3009 1745.46 63.3823 1745.26 63.3823H1744.18C1743.96 63.3823 1743.88 63.3009 1743.88 63.0813V55.1666C1743.88 54.9632 1743.96 54.8737 1744.18 54.8737H1746.89H1746.88ZM1746.84 59.1443C1748.21 59.1443 1748.71 58.6969 1748.71 57.7451C1748.71 56.7202 1748.18 56.3298 1746.85 56.3298H1745.54V59.1443H1746.83H1746.84Z" fill="white"/>
<path d="M1760.84 63.0813C1760.84 63.3009 1760.74 63.3823 1760.55 63.3823H1759.46C1759.25 63.3823 1759.16 63.3253 1759.08 63.1789L1755.68 57.6963V63.0813C1755.68 63.3009 1755.6 63.3823 1755.39 63.3823H1754.35C1754.13 63.3823 1754.05 63.3009 1754.05 63.0813V55.1666C1754.05 54.9632 1754.13 54.8737 1754.35 54.8737H1755.42C1755.64 54.8737 1755.72 54.9225 1755.81 55.0689L1759.2 60.5596V55.1666C1759.2 54.9632 1759.29 54.8737 1759.5 54.8737H1760.55C1760.74 54.8737 1760.84 54.9551 1760.84 55.1503V63.0813Z" fill="white"/>
<path d="M1772.02 59.1274C1772.02 62.0639 1770.62 63.52 1768.24 63.52C1765.86 63.52 1764.48 62.0721 1764.48 59.1274C1764.48 56.1828 1765.88 54.7267 1768.25 54.7267C1770.61 54.7267 1772.02 56.1909 1772.02 59.1274ZM1770.29 59.1274C1770.29 57.1833 1769.62 56.1991 1768.25 56.1991C1766.89 56.1991 1766.2 57.1752 1766.2 59.1274C1766.2 61.0797 1766.87 62.0395 1768.25 62.0395C1769.64 62.0395 1770.29 61.0715 1770.29 59.1274Z" fill="white"/>
<path d="M1781.67 63.3904C1781.45 63.3904 1781.37 63.309 1781.37 63.0894V55.1666C1781.37 54.9632 1781.45 54.8737 1781.66 54.8737H1783.99C1786.72 54.8737 1788.21 55.9963 1788.21 59.0466C1788.21 62.2516 1786.72 63.3904 1784.01 63.3904H1781.67H1781.67ZM1783.06 56.3704V61.8855H1783.94C1785.58 61.8855 1786.49 61.3161 1786.49 59.0466C1786.49 56.9317 1785.58 56.3704 1783.93 56.3704H1783.06H1783.06Z" fill="white"/>
<path d="M1798.53 59.1212C1798.53 62.0251 1797.2 63.5137 1795.05 63.5137C1792.91 63.5137 1791.58 62.0251 1791.58 59.1374C1791.58 56.2497 1792.91 54.7368 1795.05 54.7368C1797.2 54.7368 1798.53 56.2253 1798.53 59.1293M1796.86 59.1212C1796.86 57.1771 1796.27 56.1928 1795.05 56.1928C1793.84 56.1928 1793.27 57.1689 1793.27 59.1212C1793.27 61.0734 1793.86 62.0577 1795.05 62.0577C1796.25 62.0577 1796.86 61.0816 1796.86 59.1212Z" fill="white"/>
<path d="M1789.5 130.88C1786.13 130.88 1784.36 128.48 1784.36 122.07C1784.36 115.66 1786.13 113.261 1789.5 113.261C1792.87 113.261 1794.64 115.66 1794.64 122.07C1794.64 128.48 1792.87 130.88 1789.5 130.88ZM1789.5 104.15C1781.65 104.15 1776 107.624 1774.18 115.766L1774.68 117.271L1781.3 137.542C1781.4 137.835 1781.45 138.103 1781.45 138.347C1783.74 139.47 1786.46 139.99 1789.51 139.99C1799.15 139.99 1805.46 134.752 1805.46 122.07C1805.46 109.389 1799.15 104.15 1789.51 104.15" fill="white"/>
<path d="M1752.29 104.989H1745.14C1743.92 104.989 1743.38 105.526 1743.38 106.755V117.378H1735.55V106.755C1735.55 105.534 1735.01 104.989 1733.79 104.989H1726.64C1726.56 104.989 1726.49 104.989 1726.41 104.989C1727.48 105.055 1727.95 105.6 1727.95 106.746V137.885C1727.95 139.032 1727.48 139.577 1726.41 139.642C1726.49 139.642 1726.56 139.642 1726.64 139.642H1733.79C1735 139.642 1735.55 139.105 1735.55 137.877V126.765H1743.38V137.877C1743.38 139.097 1743.91 139.642 1745.14 139.642H1752.29H1749.35C1748.18 139.642 1747.59 138.812 1748.04 137.535L1754.06 119.111V106.738C1754.06 105.518 1753.52 104.973 1752.3 104.973" fill="white"/>
<path d="M1769.06 104.989H1760.26C1758.99 104.989 1758.5 105.526 1758.15 106.559L1754.05 119.126V137.892C1754.05 139.112 1753.51 139.657 1752.28 139.657H1756.78C1758 139.657 1758.64 139.12 1758.93 138.039L1764.61 115.474H1764.75L1767.56 126.732L1770.38 138.039C1770.44 138.242 1770.5 138.421 1770.58 138.584C1770.93 139.291 1771.54 139.649 1772.53 139.649H1779.97C1780.85 139.649 1781.4 139.177 1781.44 138.413C1781.44 138.397 1781.44 138.372 1781.44 138.356C1776.49 135.94 1773.54 130.75 1773.54 122.079C1773.54 119.728 1773.76 117.63 1774.18 115.775L1771.17 106.559C1771.17 106.559 1771.15 106.526 1771.15 106.502C1771.1 106.339 1771.03 106.184 1770.97 106.046V106.03C1770.62 105.347 1770.1 104.989 1769.07 104.989" fill="white"/>
<path d="M1774.18 115.767C1773.77 117.621 1773.55 119.72 1773.55 122.071C1773.55 130.742 1776.5 135.932 1781.44 138.348C1781.44 138.104 1781.4 137.835 1781.3 137.542L1774.67 117.272L1774.18 115.767H1774.18Z" fill="white"/>
<path d="M1754.05 119.118L1748.03 137.542C1747.59 138.811 1748.17 139.649 1749.35 139.649H1752.29C1753.5 139.649 1754.05 139.112 1754.05 137.884V119.118Z" fill="white"/>
<path d="M1726.2 104.989H1719.45C1718.23 104.989 1717.69 105.526 1717.69 106.754V121.737L1709.08 106.071C1708.64 105.29 1708.2 104.997 1706.97 104.997H1700.17C1698.95 104.997 1698.4 105.534 1698.4 106.762V137.9C1698.4 139.12 1698.94 139.665 1700.17 139.665H1706.91C1708.13 139.665 1708.68 139.129 1708.68 137.9V122.917L1717.29 138.584C1717.73 139.365 1718.16 139.657 1719.39 139.657H1726.2C1726.28 139.657 1726.35 139.657 1726.42 139.657C1725.36 139.592 1724.89 139.047 1724.89 137.9V106.762C1724.89 105.615 1725.36 105.07 1726.42 105.005C1726.35 105.005 1726.28 105.005 1726.2 105.005" fill="white"/>
<path d="M1726.43 104.989C1725.36 105.054 1724.89 105.599 1724.89 106.746V137.884C1724.89 139.031 1725.36 139.576 1726.43 139.641C1727.49 139.576 1727.96 139.031 1727.96 137.884V106.746C1727.96 105.599 1727.49 105.054 1726.43 104.989Z" fill="white"/>
<path d="M1727.49 67.1319H1720.99C1719.96 67.1319 1719.37 67.4736 1718.98 68.1081L1711.44 81.0824L1703.91 68.1081C1703.52 67.4736 1702.93 67.1319 1701.9 67.1319H1695.4C1694.18 67.1319 1693.63 67.6688 1693.63 68.8971V100.035C1693.63 101.256 1694.17 101.801 1695.4 101.801H1702.14C1703.36 101.801 1703.91 101.264 1703.91 100.035V84.1246L1710.17 94.6505C1710.41 95.0409 1710.75 95.3826 1711.44 95.3826C1712.12 95.3826 1712.46 95.0409 1712.7 94.6505L1718.96 84.1246V100.035C1718.96 101.256 1719.5 101.801 1720.73 101.801H1727.48H1725C1724.13 101.801 1723.57 101.329 1723.54 100.564C1723.54 100.458 1723.54 100.345 1723.56 100.231C1723.58 100.068 1723.62 99.889 1723.69 99.7019L1729.24 82.7092V68.9052C1729.24 67.6851 1728.7 67.1401 1727.48 67.1401" fill="white"/>
<path d="M1810.09 99.6853L1799.96 68.6934C1799.62 67.6685 1799.13 67.1235 1797.85 67.1235H1789.05C1787.78 67.1235 1787.28 67.6603 1786.94 68.6934L1778.63 94.1295L1780.81 97.7493L1781.93 99.5877C1782.66 100.759 1782.17 101.792 1780.95 101.792H1808.76C1809.93 101.792 1810.53 100.962 1810.08 99.6853H1810.09ZM1802.23 84.4578L1797.2 88.1264L1799.06 93.9506C1799.2 94.4061 1798.67 94.7884 1798.29 94.5037L1793.41 90.9002L1788.47 94.4956C1788.08 94.7803 1787.55 94.398 1787.71 93.9343L1789.65 88.1345L1784.67 84.4659C1784.28 84.1812 1784.48 83.5711 1784.96 83.5711H1791.18L1793.04 77.9991C1793.19 77.5436 1793.84 77.5517 1793.98 77.9991L1795.75 83.563H1801.95C1802.43 83.563 1802.63 84.1812 1802.24 84.4578H1802.23Z" fill="white"/>
<path d="M1763.83 83.1892V75.4535H1767.35C1770.43 75.4535 1771.66 76.6248 1771.66 79.0733C1771.66 79.1546 1771.66 79.2359 1771.66 79.3173C1771.66 79.3986 1771.66 79.4718 1771.66 79.5613C1771.66 80.4317 1771.5 81.1394 1771.16 81.6925C1770.74 82.3758 1770.04 82.8232 1769 83.0347H1768.98C1768.8 83.0754 1768.6 83.1079 1768.39 83.1323H1768.37C1768.28 83.1404 1768.19 83.1486 1768.1 83.1567C1768.07 83.1567 1768.04 83.1567 1768.02 83.1567C1767.93 83.1567 1767.86 83.1648 1767.78 83.1648C1767.75 83.1648 1767.72 83.1648 1767.69 83.1648C1767.58 83.1648 1767.47 83.1648 1767.36 83.1648H1763.84L1763.83 83.1892ZM1767.5 67.132H1766.33H1763.84H1755.03C1753.81 67.132 1753.27 67.6689 1753.27 68.8972V88.3627L1756.97 99.6939C1757.41 100.963 1756.82 101.801 1755.65 101.801H1755.03H1759.41C1759.73 100.751 1760.56 100.141 1761.81 100.141C1762.63 100.141 1763.27 100.288 1763.81 100.483C1763.83 100.345 1763.84 100.198 1763.84 100.044V91.527H1766.33L1771.37 100.385C1771.91 101.313 1772.59 101.809 1773.82 101.809H1778.14C1777.27 101.809 1776.71 101.337 1776.68 100.572C1776.67 100.312 1776.71 100.027 1776.83 99.7101L1778.64 94.1544L1776.19 90.1116C1776.19 90.1116 1781.13 88.0617 1782.05 82.5141C1782.21 81.5461 1782.32 80.4968 1782.33 79.3417C1782.32 78.1866 1782.21 77.1373 1782.05 76.1693C1781.09 70.6949 1776.19 68.5718 1776.19 68.5718C1773.88 67.5713 1770.97 67.1483 1767.51 67.1483" fill="white"/>
<path d="M1761.8 100.132C1760.55 100.132 1759.72 100.742 1759.4 101.792H1762.06C1763.13 101.792 1763.67 101.385 1763.8 100.466C1763.25 100.271 1762.61 100.124 1761.8 100.124" fill="white"/>
<path d="M1778.62 94.1377L1776.81 99.6935C1776.7 100.011 1776.66 100.304 1776.67 100.556C1776.7 101.328 1777.25 101.792 1778.13 101.792H1780.95C1782.17 101.792 1782.66 100.767 1781.92 99.5877L1780.81 97.7494L1778.62 94.1296V94.1377Z" fill="white"/>
<path d="M1744.74 67.1319H1735.93C1734.9 67.1319 1734.38 67.4898 1734.04 68.1731V68.1894C1733.96 68.3277 1733.9 68.4822 1733.84 68.6449C1733.84 68.6612 1733.83 68.6775 1733.83 68.7019L1730.32 79.4229L1729.25 82.7011V100.035C1729.25 101.256 1728.71 101.801 1727.49 101.801H1732.45C1733.44 101.801 1734.05 101.443 1734.4 100.735V100.719C1734.48 100.556 1734.55 100.385 1734.61 100.19L1740.23 77.6253H1740.38L1746.05 100.19C1746.35 101.264 1746.98 101.809 1748.21 101.809H1755.02C1753.8 101.809 1753.26 101.272 1753.26 100.044V88.3707L1746.83 68.71C1746.49 67.6851 1746 67.1401 1744.73 67.1401" fill="white"/>
<path d="M1729.25 82.7009L1723.7 99.6935C1723.63 99.8806 1723.59 100.06 1723.57 100.222C1723.55 100.336 1723.54 100.45 1723.55 100.556C1723.58 101.329 1724.13 101.8 1725.01 101.8H1727.48C1728.7 101.8 1729.25 101.263 1729.25 100.035V82.7009Z" fill="white"/>
<path d="M1753.26 88.362V100.035C1753.26 101.255 1753.8 101.8 1755.02 101.8H1755.64C1756.81 101.8 1757.41 100.97 1756.97 99.6932L1753.27 88.362H1753.26Z" fill="white"/>
<path d="M1706.2 143.643C1706.2 143.578 1706.23 143.545 1706.3 143.545H1709C1709.07 143.545 1709.1 143.578 1709.1 143.643V143.92C1709.1 143.985 1709.06 144.017 1709 144.017H1707.91V147.613C1707.91 147.686 1707.88 147.71 1707.81 147.71H1707.5C1707.44 147.71 1707.4 147.678 1707.4 147.613V144.017H1706.31C1706.25 144.017 1706.22 143.985 1706.22 143.92V143.643H1706.2Z" fill="white"/>
<path d="M1711.71 143.554C1712.87 143.554 1713.39 143.985 1713.39 144.896C1713.39 145.677 1712.95 146.084 1712.19 146.173L1713.4 147.588C1713.44 147.645 1713.43 147.719 1713.34 147.719H1712.98C1712.9 147.719 1712.87 147.686 1712.83 147.637L1711.64 146.222H1710.91V147.621C1710.91 147.694 1710.88 147.719 1710.82 147.719H1710.51C1710.43 147.719 1710.41 147.686 1710.41 147.621V143.651C1710.41 143.586 1710.44 143.554 1710.51 143.554H1711.72H1711.71ZM1711.69 145.758C1712.57 145.758 1712.88 145.482 1712.88 144.896C1712.88 144.278 1712.54 144.026 1711.7 144.026H1710.91V145.758H1711.69H1711.69Z" fill="white"/>
<path d="M1716.4 143.554C1716.49 143.554 1716.51 143.586 1716.53 143.651L1718.02 147.621C1718.04 147.678 1718.01 147.719 1717.95 147.719H1717.61C1717.54 147.719 1717.52 147.686 1717.49 147.629L1717.12 146.637H1715.3L1714.92 147.629C1714.9 147.686 1714.88 147.719 1714.82 147.719H1714.47C1714.4 147.719 1714.37 147.67 1714.39 147.621L1715.87 143.651C1715.9 143.586 1715.92 143.554 1716 143.554H1716.4ZM1716.96 146.173L1716.22 144.058H1716.21L1715.46 146.173H1716.96H1716.96Z" fill="white"/>
<path d="M1719.41 147.719C1719.34 147.719 1719.32 147.686 1719.32 147.621V143.651C1719.32 143.586 1719.35 143.554 1719.41 143.554H1720.89C1721.95 143.554 1722.42 143.912 1722.42 144.628C1722.42 145.197 1722.13 145.449 1721.82 145.522C1722.23 145.612 1722.58 145.896 1722.58 146.539C1722.58 147.377 1722.05 147.719 1720.92 147.719H1719.41ZM1720.91 145.343C1721.66 145.343 1721.92 145.148 1721.92 144.668C1721.92 144.188 1721.64 144.017 1720.88 144.017H1719.81V145.343H1720.9H1720.91ZM1720.88 147.255C1721.75 147.255 1722.06 147.076 1722.06 146.515C1722.06 146.002 1721.79 145.799 1720.93 145.799H1719.82V147.263H1720.88L1720.88 147.255Z" fill="white"/>
<path d="M1725.7 143.554C1725.79 143.554 1725.8 143.586 1725.83 143.651L1727.32 147.621C1727.33 147.678 1727.31 147.719 1727.24 147.719H1726.9C1726.84 147.719 1726.81 147.686 1726.79 147.629L1726.41 146.637H1724.59L1724.22 147.629C1724.19 147.686 1724.18 147.719 1724.11 147.719H1723.76C1723.7 147.719 1723.67 147.67 1723.68 147.621L1725.17 143.651C1725.19 143.586 1725.21 143.554 1725.3 143.554H1725.7ZM1726.25 146.173L1725.51 144.058H1725.5L1724.75 146.173H1726.26H1726.25Z" fill="white"/>
<path d="M1729.11 147.247H1730.91C1730.97 147.247 1731 147.279 1731 147.336V147.621C1731 147.694 1730.97 147.719 1730.91 147.719H1728.69C1728.62 147.719 1728.6 147.686 1728.6 147.621V143.651C1728.6 143.586 1728.63 143.554 1728.69 143.554H1729C1729.07 143.554 1729.1 143.586 1729.1 143.651V147.247H1729.11Z" fill="white"/>
<path d="M1735.03 145.823H1732.9V147.613C1732.9 147.686 1732.87 147.71 1732.8 147.71H1732.49C1732.42 147.71 1732.4 147.678 1732.4 147.613V143.643C1732.4 143.578 1732.43 143.545 1732.49 143.545H1732.8C1732.87 143.545 1732.9 143.578 1732.9 143.643V145.351H1735.03V143.643C1735.03 143.578 1735.06 143.545 1735.13 143.545H1735.44C1735.51 143.545 1735.54 143.578 1735.54 143.643V147.613C1735.54 147.686 1735.51 147.71 1735.44 147.71H1735.13C1735.06 147.71 1735.03 147.678 1735.03 147.613V145.823Z" fill="white"/>
<path d="M1738.85 143.554C1738.94 143.554 1738.95 143.586 1738.98 143.651L1740.47 147.621C1740.48 147.678 1740.46 147.719 1740.39 147.719H1740.05C1739.99 147.719 1739.96 147.686 1739.94 147.629L1739.56 146.637H1737.74L1737.37 147.629C1737.34 147.686 1737.33 147.719 1737.26 147.719H1736.91C1736.85 147.719 1736.82 147.67 1736.83 147.621L1738.32 143.651C1738.34 143.586 1738.36 143.554 1738.45 143.554H1738.85ZM1739.39 146.173L1738.65 144.058H1738.64L1737.9 146.173H1739.4H1739.39Z" fill="white"/>
<path d="M1744.91 147.621C1744.91 147.694 1744.88 147.718 1744.82 147.718H1744.49C1744.42 147.718 1744.39 147.694 1744.35 147.637L1742.26 144.391V147.613C1742.26 147.686 1742.22 147.71 1742.16 147.71H1741.86C1741.78 147.71 1741.76 147.678 1741.76 147.613V143.643C1741.76 143.578 1741.79 143.545 1741.86 143.545H1742.17C1742.25 143.545 1742.28 143.562 1742.32 143.619L1744.42 146.864V143.643C1744.42 143.578 1744.45 143.545 1744.52 143.545H1744.82C1744.88 143.545 1744.91 143.578 1744.91 143.635V147.613V147.621Z" fill="white"/>
<path d="M1746.66 147.718C1746.59 147.718 1746.56 147.686 1746.56 147.621V143.651C1746.56 143.586 1746.6 143.554 1746.66 143.554H1747.69C1749 143.554 1749.77 144.066 1749.77 145.563C1749.77 147.206 1749 147.718 1747.69 147.718H1746.67H1746.66ZM1747.07 144.025V147.247H1747.68C1748.65 147.247 1749.23 146.913 1749.23 145.563C1749.23 144.351 1748.64 144.025 1747.66 144.025H1747.06H1747.07Z" fill="white"/>
<path d="M1754.59 145.636C1754.59 147.011 1753.96 147.784 1752.8 147.784C1751.63 147.784 1751.01 147.019 1751.01 145.636C1751.01 144.253 1751.64 143.489 1752.8 143.489C1753.95 143.489 1754.59 144.261 1754.59 145.636M1754.07 145.636C1754.07 144.554 1753.66 143.952 1752.81 143.952C1751.95 143.952 1751.54 144.554 1751.54 145.636C1751.54 146.718 1751.95 147.32 1752.81 147.32C1753.66 147.32 1754.07 146.718 1754.07 145.636Z" fill="white"/>
<path d="M1758.53 147.718C1758.45 147.718 1758.43 147.686 1758.43 147.621V143.651C1758.43 143.586 1758.46 143.554 1758.53 143.554H1759.68C1760.87 143.554 1761.42 143.969 1761.42 145.002C1761.42 146.035 1760.87 146.441 1759.68 146.441H1758.94V147.621C1758.94 147.686 1758.91 147.718 1758.84 147.718H1758.53H1758.53ZM1759.66 145.978C1760.51 145.978 1760.88 145.726 1760.88 145.002C1760.88 144.278 1760.52 144.017 1759.66 144.017H1758.92V145.97H1759.66V145.978Z" fill="white"/>
<path d="M1764.27 143.554C1764.36 143.554 1764.38 143.586 1764.4 143.651L1765.89 147.621C1765.9 147.678 1765.88 147.718 1765.81 147.718H1765.47C1765.41 147.718 1765.38 147.686 1765.36 147.629L1764.99 146.637H1763.16L1762.79 147.629C1762.77 147.686 1762.75 147.718 1762.68 147.718H1762.34C1762.27 147.718 1762.24 147.67 1762.25 147.621L1763.74 143.651C1763.77 143.586 1763.78 143.554 1763.87 143.554H1764.27ZM1764.82 146.173L1764.08 144.058H1764.08L1763.33 146.173H1764.83H1764.82Z" fill="white"/>
<path d="M1768.49 143.554C1769.64 143.554 1770.17 143.985 1770.17 144.896C1770.17 145.677 1769.72 146.083 1768.97 146.173L1770.18 147.588C1770.22 147.645 1770.21 147.718 1770.12 147.718H1769.76C1769.68 147.718 1769.65 147.686 1769.61 147.637L1768.41 146.222H1767.69V147.621C1767.69 147.694 1767.66 147.718 1767.59 147.718H1767.28C1767.21 147.718 1767.19 147.686 1767.19 147.621V143.651C1767.19 143.586 1767.22 143.554 1767.28 143.554H1768.5H1768.49ZM1768.47 145.758C1769.36 145.758 1769.67 145.481 1769.67 144.896C1769.67 144.278 1769.32 144.025 1768.49 144.025H1767.7V145.758H1768.48H1768.47Z" fill="white"/>
<path d="M1773.18 143.554C1773.27 143.554 1773.28 143.586 1773.31 143.651L1774.79 147.621C1774.81 147.678 1774.79 147.718 1774.71 147.718H1774.37C1774.31 147.718 1774.28 147.686 1774.26 147.629L1773.88 146.637H1772.06L1771.69 147.629C1771.66 147.686 1771.65 147.718 1771.58 147.718H1771.23C1771.17 147.718 1771.14 147.67 1771.16 147.621L1772.65 143.651C1772.67 143.586 1772.69 143.554 1772.78 143.554H1773.18ZM1773.73 146.173L1772.99 144.058H1772.98L1772.23 146.173H1773.74H1773.73Z" fill="white"/>
<path d="M1778.12 143.643C1778.12 143.578 1778.15 143.545 1778.22 143.545H1780.91C1780.99 143.545 1781.01 143.578 1781.01 143.643V143.92C1781.01 143.985 1780.98 144.017 1780.91 144.017H1779.83V147.613C1779.83 147.686 1779.79 147.71 1779.73 147.71H1779.42C1779.35 147.71 1779.32 147.678 1779.32 147.613V144.017H1778.23C1778.17 144.017 1778.13 143.985 1778.13 143.92V143.643H1778.12Z" fill="white"/>
<path d="M1785.52 145.636C1785.52 147.011 1784.88 147.784 1783.72 147.784C1782.56 147.784 1781.93 147.019 1781.93 145.636C1781.93 144.253 1782.57 143.489 1783.72 143.489C1784.88 143.489 1785.51 144.261 1785.51 145.636M1785 145.636C1785 144.554 1784.58 143.952 1783.73 143.952C1782.88 143.952 1782.46 144.554 1782.46 145.636C1782.46 146.718 1782.88 147.32 1783.73 147.32C1784.58 147.32 1785 146.718 1785 145.636Z" fill="white"/>
<path d="M1787.07 147.718C1786.99 147.718 1786.97 147.686 1786.97 147.621V143.651C1786.97 143.586 1787 143.554 1787.07 143.554H1788.09C1789.41 143.554 1790.17 144.066 1790.17 145.563C1790.17 147.206 1789.41 147.718 1788.1 147.718H1787.08H1787.07ZM1787.48 144.025V147.247H1788.09C1789.07 147.247 1789.64 146.913 1789.64 145.563C1789.64 144.351 1789.06 144.025 1788.08 144.025H1787.47H1787.48Z" fill="white"/>
<path d="M1795.01 145.636C1795.01 147.011 1794.38 147.784 1793.21 147.784C1792.05 147.784 1791.43 147.019 1791.43 145.636C1791.43 144.253 1792.06 143.489 1793.21 143.489C1794.37 143.489 1795 144.261 1795 145.636M1794.48 145.636C1794.48 144.554 1794.07 143.952 1793.21 143.952C1792.36 143.952 1791.95 144.554 1791.95 145.636C1791.95 146.718 1792.36 147.32 1793.21 147.32C1794.07 147.32 1794.48 146.718 1794.48 145.636Z" fill="white"/>
<path d="M1797.45 147.767C1796.97 147.767 1796.51 147.686 1796.28 147.58C1796.22 147.547 1796.19 147.523 1796.2 147.466L1796.3 147.198C1796.31 147.141 1796.34 147.1 1796.42 147.141C1796.64 147.23 1797.01 147.311 1797.44 147.311C1798.08 147.311 1798.49 147.084 1798.49 146.644C1798.49 146.173 1798.02 145.994 1797.49 145.782C1796.86 145.53 1796.31 145.31 1796.31 144.562C1796.31 143.895 1796.74 143.48 1797.74 143.48C1798.19 143.48 1798.54 143.562 1798.76 143.651C1798.82 143.675 1798.85 143.708 1798.84 143.765L1798.74 144.025C1798.72 144.082 1798.7 144.107 1798.62 144.082C1798.41 144.001 1798.15 143.944 1797.77 143.944C1797.09 143.944 1796.81 144.155 1796.81 144.562C1796.81 145.026 1797.24 145.148 1797.75 145.367C1798.39 145.644 1799.01 145.888 1799.01 146.653C1799.01 147.417 1798.41 147.759 1797.45 147.759" fill="white"/>
<path d="M1704.67 185.774C1703.54 186.547 1702.04 186.929 1700.15 186.929C1698.01 186.929 1696.33 186.628 1695.13 186.026C1694.79 185.855 1694.67 185.628 1694.78 185.335L1695.33 183.854C1695.45 183.48 1695.69 183.366 1696.03 183.505C1697.15 183.968 1698.37 184.196 1699.71 184.196C1700.76 184.196 1701.59 184.033 1702.2 183.708C1702.81 183.382 1703.12 182.894 1703.12 182.252C1703.12 181.992 1703.06 181.747 1702.93 181.52C1702.8 181.292 1702.66 181.113 1702.51 180.975C1702.36 180.836 1702.11 180.674 1701.76 180.487C1701.4 180.3 1701.12 180.169 1700.91 180.08C1700.7 179.99 1700.35 179.86 1699.85 179.673C1699.22 179.437 1698.72 179.25 1698.37 179.096C1698.02 178.941 1697.59 178.713 1697.11 178.412C1696.63 178.111 1696.26 177.802 1696 177.485C1695.75 177.168 1695.52 176.761 1695.32 176.265C1695.13 175.769 1695.03 175.216 1695.03 174.597C1695.03 171.628 1696.99 170.148 1700.92 170.148C1702.69 170.148 1704.17 170.416 1705.34 170.961C1705.68 171.132 1705.8 171.36 1705.69 171.661L1705.15 173.101C1705.02 173.442 1704.76 173.548 1704.41 173.426C1703.54 173.084 1702.47 172.914 1701.22 172.914C1699.26 172.914 1698.28 173.499 1698.28 174.679C1698.28 175.378 1698.71 175.948 1699.59 176.395C1699.87 176.533 1700.46 176.786 1701.37 177.16C1701.89 177.363 1702.21 177.493 1702.35 177.558C1702.49 177.623 1702.78 177.754 1703.22 177.949C1703.66 178.152 1703.95 178.307 1704.1 178.412C1704.24 178.518 1704.48 178.689 1704.8 178.909C1705.13 179.128 1705.35 179.348 1705.48 179.543C1705.6 179.746 1705.75 179.99 1705.92 180.275C1706.09 180.56 1706.2 180.869 1706.27 181.202C1706.33 181.536 1706.36 181.902 1706.36 182.301C1706.36 183.846 1705.8 185.009 1704.67 185.782L1704.67 185.774Z" fill="white"/>
<path d="M1711.45 179.744V183.942H1718.03C1718.41 183.942 1718.6 184.129 1718.6 184.495V186.138C1718.6 186.528 1718.41 186.715 1718.03 186.715H1708.83C1708.44 186.715 1708.25 186.52 1708.25 186.138V170.951C1708.25 170.577 1708.44 170.398 1708.8 170.398H1717.93C1718.32 170.398 1718.51 170.585 1718.51 170.951V172.594C1718.51 172.976 1718.31 173.172 1717.93 173.172H1711.44V177.044H1717.63C1718 177.044 1718.18 177.239 1718.18 177.621V179.15C1718.18 179.533 1718 179.728 1717.63 179.728H1711.44L1711.45 179.744Z" fill="white"/>
<path d="M1730.94 183.429C1731.3 183.29 1731.56 183.396 1731.73 183.754L1732.38 185.194C1732.48 185.454 1732.38 185.69 1732.03 185.893C1730.92 186.617 1729.44 186.983 1727.61 186.983C1725.21 186.983 1723.36 186.276 1722.04 184.852C1720.72 183.429 1720.05 181.338 1720.05 178.572C1720.05 175.807 1720.71 173.708 1722.01 172.276C1723.32 170.845 1725.14 170.129 1727.49 170.129C1729.27 170.129 1730.73 170.479 1731.87 171.17C1732.2 171.39 1732.31 171.626 1732.2 171.886L1731.57 173.301C1731.44 173.659 1731.18 173.749 1730.79 173.578C1729.95 173.196 1729.02 173 1728.01 173C1726.43 173 1725.26 173.456 1724.49 174.367C1723.73 175.278 1723.35 176.677 1723.35 178.564C1723.35 180.451 1723.74 181.842 1724.52 182.745C1725.3 183.648 1726.5 184.104 1728.12 184.104C1729.17 184.104 1730.11 183.876 1730.95 183.429H1730.94Z" fill="white"/>
<path d="M1746.21 172.252C1747.47 173.675 1748.1 175.774 1748.1 178.556C1748.1 181.338 1747.47 183.437 1746.21 184.852C1744.95 186.267 1743.17 186.975 1740.85 186.975C1738.53 186.975 1736.77 186.267 1735.52 184.844C1734.26 183.42 1733.64 181.33 1733.64 178.564C1733.64 175.799 1734.26 173.684 1735.52 172.26C1736.78 170.837 1738.56 170.129 1740.86 170.129C1743.17 170.129 1744.95 170.837 1746.21 172.26L1746.21 172.252ZM1744.79 178.556C1744.79 174.814 1743.48 172.943 1740.87 172.943C1738.26 172.943 1736.93 174.814 1736.93 178.556C1736.93 182.298 1738.25 184.144 1740.87 184.144C1743.5 184.144 1744.79 182.282 1744.79 178.556Z" fill="white"/>
<path d="M1757.46 182.477L1753.36 175.75V186.138C1753.36 186.528 1753.17 186.715 1752.8 186.715H1750.79C1750.4 186.715 1750.21 186.52 1750.21 186.138V170.951C1750.21 170.577 1750.41 170.398 1750.79 170.398H1752.76C1753.08 170.398 1753.3 170.504 1753.43 170.723L1757.97 178.191L1762.52 170.723C1762.64 170.504 1762.86 170.398 1763.17 170.398H1765.16C1765.54 170.398 1765.74 170.585 1765.74 170.951V186.138C1765.74 186.528 1765.54 186.715 1765.16 186.715H1763.14C1762.77 186.715 1762.59 186.52 1762.59 186.138V175.75L1758.49 182.477C1758.37 182.681 1758.2 182.778 1757.98 182.778C1757.75 182.778 1757.58 182.681 1757.47 182.477H1757.46Z" fill="white"/>
</g>
</g>
<defs>
<linearGradient id="paint0_linear_2024_3407" x1="0" y1="0" x2="1906.3" y2="290.035" gradientUnits="userSpaceOnUse">
<stop stop-color="#C128D9"/>
<stop offset="1" stop-color="#D559A3"/>
</linearGradient>
<linearGradient id="paint1_linear_2024_3407" x1="1770.65" y1="45.09" x2="1433.45" y2="425.327" gradientUnits="userSpaceOnUse">
<stop stop-color="#C128D9"/>
<stop offset="1" stop-color="#D559A3"/>
</linearGradient>
<clipPath id="clip0_2024_3407">
<rect width="1920" height="306" fill="white"/>
</clipPath>
<clipPath id="clip1_2024_3407">
<rect width="96" height="96" fill="white" transform="translate(109.454 52)"/>
</clipPath>
<clipPath id="clip2_2024_3407">
<rect width="116.595" height="132.257" fill="white" transform="translate(1693.63 54.7267)"/>
</clipPath>
</defs>
</svg>
