<svg width="1920" height="306" viewBox="0 0 1920 306" fill="none" xmlns="http://www.w3.org/2000/svg">
<g clip-path="url(#clip0_2024_3330)">
<rect width="1920" height="200" fill="#009C47"/>
<path d="M118.854 75.48H122.574C124.414 75.48 125.694 75.2 126.494 74.56C127.294 73.92 127.694 72.92 127.694 71.52C127.694 70.08 127.294 69.04 126.534 68.44C125.734 67.88 124.454 67.56 122.614 67.56H118.854V75.48ZM113.214 61.76H122.694C126.654 61.76 129.614 62.56 131.614 64.08C133.574 65.6 134.574 68.08 134.574 71.52C134.574 75.96 132.494 78.8 128.374 80.04L134.374 88.52C134.614 88.88 134.694 89.2 134.534 89.52C134.374 89.84 134.094 90 133.694 90H129.054C128.334 90 127.814 89.72 127.414 89.08L121.894 81H118.854V88.84C118.854 89.64 118.454 90 117.694 90H113.214C112.414 90 112.054 89.64 112.054 88.84V62.92C112.054 62.16 112.414 61.76 113.214 61.76ZM156.903 75.84V88.88C156.903 89.64 156.543 90 155.823 90H152.183C151.543 90 151.143 89.72 151.063 89.12L150.823 87.36C149.383 89.36 147.023 90.32 143.783 90.32C141.703 90.32 140.063 89.8 138.823 88.72C137.583 87.68 136.983 86.12 136.983 84.08C136.983 82.92 137.183 81.92 137.623 81.04C138.063 80.2 138.663 79.52 139.383 79C140.103 78.52 141.063 78.12 142.303 77.8C143.503 77.52 144.743 77.32 145.983 77.2C147.223 77.08 148.743 77 150.583 76.96V76.2C150.583 74.2 149.183 73.2 146.463 73.2C144.623 73.2 142.703 73.6 140.703 74.32C139.983 74.64 139.543 74.4 139.343 73.64L138.543 71.16C138.303 70.56 138.543 70.12 139.183 69.8C141.583 68.76 144.303 68.24 147.423 68.24C153.743 68.24 156.903 70.8 156.903 75.84ZM150.583 82.12V80.44C147.983 80.52 146.103 80.76 144.943 81.2C143.743 81.64 143.183 82.44 143.183 83.64C143.183 84.4 143.423 85 143.983 85.44C144.503 85.92 145.223 86.12 146.183 86.12C147.623 86.12 148.743 85.76 149.463 85.04C150.183 84.32 150.583 83.32 150.583 82.12ZM181.541 76.2V88.88C181.541 89.64 181.181 90 180.461 90H176.141C175.381 90 175.021 89.64 175.021 88.88V77.44C175.021 76.16 174.781 75.24 174.301 74.6C173.821 74 172.981 73.68 171.861 73.68C170.581 73.68 169.661 74.08 169.021 74.84C168.381 75.6 168.061 76.64 168.061 77.92V88.88C168.061 89.64 167.661 90 166.941 90H162.621C161.901 90 161.541 89.64 161.541 88.88V69.8C161.541 69.08 161.901 68.72 162.621 68.72H166.501C167.141 68.72 167.541 69.04 167.621 69.6L167.941 71.4C169.301 69.32 171.461 68.24 174.461 68.24C179.181 68.24 181.541 70.92 181.541 76.2ZM205.389 90H200.589C199.909 90 199.349 89.72 198.909 89.12L192.829 81.68V88.88C192.829 89.64 192.429 90 191.709 90H187.389C186.669 90 186.309 89.64 186.309 88.88V62.84C186.309 62.12 186.669 61.76 187.389 61.76H191.709C192.429 61.76 192.829 62.12 192.829 62.84V75.44L198.549 69.52C199.029 69 199.589 68.72 200.229 68.72H204.909C205.309 68.72 205.549 68.88 205.709 69.2C205.829 69.52 205.749 69.8 205.429 70.12L197.349 78.32L205.869 88.6C206.109 88.96 206.189 89.28 206.109 89.56C205.989 89.88 205.749 90 205.389 90ZM215.643 69.8V88.88C215.643 89.64 215.283 90 214.563 90H210.203C209.483 90 209.123 89.64 209.123 88.88V69.8C209.123 69.08 209.483 68.72 210.203 68.72H214.563C215.283 68.72 215.643 69.08 215.643 69.8ZM215.683 62.92V65.44C215.683 66.2 215.323 66.56 214.603 66.56H210.163C209.443 66.56 209.083 66.2 209.083 65.44V62.92C209.083 62.2 209.443 61.84 210.163 61.84H214.603C215.323 61.84 215.683 62.2 215.683 62.92ZM240.525 76.2V88.88C240.525 89.64 240.165 90 239.445 90H235.125C234.365 90 234.005 89.64 234.005 88.88V77.44C234.005 76.16 233.765 75.24 233.285 74.6C232.805 74 231.965 73.68 230.845 73.68C229.565 73.68 228.645 74.08 228.005 74.84C227.365 75.6 227.045 76.64 227.045 77.92V88.88C227.045 89.64 226.645 90 225.925 90H221.605C220.885 90 220.525 89.64 220.525 88.88V69.8C220.525 69.08 220.885 68.72 221.605 68.72H225.485C226.125 68.72 226.525 69.04 226.605 69.6L226.925 71.4C228.285 69.32 230.445 68.24 233.445 68.24C238.165 68.24 240.525 70.92 240.525 76.2ZM258.453 77.72C258.453 74.52 257.173 72.88 254.653 72.88C252.133 72.88 250.893 74.56 250.893 77.84C250.893 81.2 252.133 82.84 254.653 82.84C257.173 82.84 258.453 81.16 258.453 77.72ZM264.813 69.8V86.08C264.813 88.96 263.893 91.16 262.053 92.64C260.213 94.16 257.573 94.88 254.133 94.88C250.813 94.88 248.293 94.48 246.613 93.64C245.973 93.32 245.773 92.88 245.933 92.28L246.653 89.8C246.853 89.08 247.293 88.88 248.013 89.12C249.813 89.76 251.653 90.08 253.573 90.08C256.973 90.08 258.693 88.68 258.693 85.8V84.4C258.133 85.32 257.373 86.04 256.333 86.52C255.293 87 254.133 87.24 252.853 87.24C250.293 87.24 248.213 86.48 246.693 84.96C245.173 83.44 244.413 81.08 244.413 77.84C244.413 74.64 245.133 72.24 246.613 70.64C248.093 69.08 250.093 68.28 252.613 68.28C253.893 68.28 255.093 68.56 256.173 69.08C257.253 69.64 258.093 70.32 258.653 71.2L258.853 69.6C258.933 69.04 259.293 68.72 259.973 68.72H263.693C264.413 68.72 264.813 69.08 264.813 69.8ZM295.313 79.36C295.313 75.36 293.873 73.32 291.033 73.32C289.633 73.32 288.593 73.8 287.913 74.76C287.193 75.72 286.873 77.24 286.873 79.36C286.873 81.48 287.193 83 287.913 83.96C288.593 84.92 289.633 85.36 291.033 85.36C293.873 85.36 295.313 83.36 295.313 79.36ZM295.713 89.12L295.513 87.36C294.913 88.32 293.993 89.08 292.793 89.64C291.593 90.2 290.313 90.44 288.993 90.44C286.193 90.44 284.033 89.52 282.513 87.64C280.993 85.8 280.233 83.04 280.233 79.36C280.233 75.68 280.993 72.92 282.513 71.04C284.033 69.2 286.193 68.24 288.993 68.24C290.273 68.24 291.473 68.52 292.673 69.04C293.873 69.56 294.713 70.28 295.273 71.16V62.84C295.273 62.12 295.633 61.76 296.353 61.76H300.673C301.393 61.76 301.793 62.12 301.793 62.84V88.88C301.793 89.64 301.393 90 300.673 90H296.833C296.193 90 295.793 89.72 295.713 89.12ZM317.98 85.88C319.78 85.88 321.54 85.48 323.22 84.68C323.9 84.36 324.38 84.6 324.66 85.36L325.38 87.48C325.54 88.08 325.34 88.52 324.7 88.84C322.5 89.96 320.06 90.48 317.42 90.48C313.7 90.48 310.82 89.52 308.78 87.6C306.74 85.68 305.74 82.92 305.74 79.36C305.74 75.84 306.66 73.08 308.58 71.16C310.46 69.24 313.02 68.24 316.3 68.24C319.42 68.24 321.9 69.2 323.66 71.04C325.42 72.92 326.3 75.4 326.3 78.52V80.48C326.3 81.2 325.9 81.56 325.18 81.56H312.18C312.42 82.92 313.02 84 314.02 84.76C315.02 85.52 316.34 85.88 317.98 85.88ZM316.42 72.84C313.7 72.84 312.22 74.52 311.98 77.84H320.5V77.56C320.5 76.08 320.14 74.92 319.46 74.08C318.74 73.28 317.74 72.84 316.42 72.84ZM354.899 77.72C354.899 74.52 353.619 72.88 351.099 72.88C348.579 72.88 347.339 74.56 347.339 77.84C347.339 81.2 348.579 82.84 351.099 82.84C353.619 82.84 354.899 81.16 354.899 77.72ZM361.259 69.8V86.08C361.259 88.96 360.339 91.16 358.499 92.64C356.659 94.16 354.019 94.88 350.579 94.88C347.259 94.88 344.739 94.48 343.059 93.64C342.419 93.32 342.219 92.88 342.379 92.28L343.099 89.8C343.299 89.08 343.739 88.88 344.459 89.12C346.259 89.76 348.099 90.08 350.019 90.08C353.419 90.08 355.139 88.68 355.139 85.8V84.4C354.579 85.32 353.819 86.04 352.779 86.52C351.739 87 350.579 87.24 349.299 87.24C346.739 87.24 344.659 86.48 343.139 84.96C341.619 83.44 340.859 81.08 340.859 77.84C340.859 74.64 341.579 72.24 343.059 70.64C344.539 69.08 346.539 68.28 349.059 68.28C350.339 68.28 351.539 68.56 352.619 69.08C353.699 69.64 354.539 70.32 355.099 71.2L355.299 69.6C355.379 69.04 355.739 68.72 356.419 68.72H360.139C360.859 68.72 361.259 69.08 361.259 69.8ZM384.794 75.84V88.88C384.794 89.64 384.434 90 383.714 90H380.074C379.434 90 379.034 89.72 378.954 89.12L378.714 87.36C377.274 89.36 374.914 90.32 371.674 90.32C369.594 90.32 367.954 89.8 366.714 88.72C365.474 87.68 364.874 86.12 364.874 84.08C364.874 82.92 365.074 81.92 365.514 81.04C365.954 80.2 366.554 79.52 367.274 79C367.994 78.52 368.954 78.12 370.194 77.8C371.394 77.52 372.634 77.32 373.874 77.2C375.114 77.08 376.634 77 378.474 76.96V76.2C378.474 74.2 377.074 73.2 374.354 73.2C372.514 73.2 370.594 73.6 368.594 74.32C367.874 74.64 367.434 74.4 367.234 73.64L366.434 71.16C366.194 70.56 366.434 70.12 367.074 69.8C369.474 68.76 372.194 68.24 375.314 68.24C381.634 68.24 384.794 70.8 384.794 75.84ZM378.474 82.12V80.44C375.874 80.52 373.994 80.76 372.834 81.2C371.634 81.64 371.074 82.44 371.074 83.64C371.074 84.4 371.314 85 371.874 85.44C372.394 85.92 373.114 86.12 374.074 86.12C375.514 86.12 376.634 85.76 377.354 85.04C378.074 84.32 378.474 83.32 378.474 82.12ZM409.431 76.2V88.88C409.431 89.64 409.071 90 408.351 90H404.031C403.271 90 402.911 89.64 402.911 88.88V77.44C402.911 76.16 402.671 75.24 402.191 74.6C401.711 74 400.871 73.68 399.751 73.68C398.471 73.68 397.551 74.08 396.911 74.84C396.271 75.6 395.951 76.64 395.951 77.92V88.88C395.951 89.64 395.551 90 394.831 90H390.511C389.791 90 389.431 89.64 389.431 88.88V69.8C389.431 69.08 389.791 68.72 390.511 68.72H394.391C395.031 68.72 395.431 69.04 395.511 69.6L395.831 71.4C397.191 69.32 399.351 68.24 402.351 68.24C407.071 68.24 409.431 70.92 409.431 76.2ZM434.28 76.24V88.88C434.28 89.64 433.88 90 433.16 90H428.84C428.12 90 427.76 89.64 427.76 88.88V77.44C427.76 76.2 427.48 75.28 427 74.64C426.52 74 425.68 73.68 424.56 73.68C423.28 73.68 422.32 74.08 421.68 74.84C421.04 75.64 420.72 76.64 420.72 77.92V88.92C420.72 89.64 420.32 90 419.6 90H415.28C414.56 90 414.2 89.64 414.2 88.88V62.84C414.2 62.12 414.56 61.76 415.28 61.76H419.6C420.32 61.76 420.72 62.12 420.72 62.84V71.24C421.96 69.24 424.08 68.24 427.12 68.24C431.88 68.24 434.28 70.92 434.28 76.24ZM448.764 90.44C445.404 90.44 442.804 89.52 440.884 87.6C438.964 85.72 438.044 82.96 438.044 79.36C438.044 75.76 438.964 73 440.884 71.08C442.804 69.2 445.404 68.24 448.764 68.24C452.084 68.24 454.724 69.2 456.644 71.08C458.564 73 459.524 75.76 459.524 79.36C459.524 82.96 458.564 85.72 456.644 87.6C454.724 89.52 452.084 90.44 448.764 90.44ZM448.764 85.4C451.484 85.4 452.884 83.4 452.884 79.36C452.884 75.32 451.484 73.28 448.764 73.28C446.044 73.28 444.684 75.32 444.684 79.36C444.684 83.4 446.044 85.4 448.764 85.4ZM126.094 127.36C126.094 123.36 124.654 121.32 121.814 121.32C120.414 121.32 119.374 121.8 118.694 122.76C117.974 123.72 117.654 125.24 117.654 127.36C117.654 129.48 117.974 131 118.694 131.96C119.374 132.92 120.414 133.36 121.814 133.36C124.654 133.36 126.094 131.36 126.094 127.36ZM126.494 137.12L126.294 135.36C125.694 136.32 124.774 137.08 123.574 137.64C122.374 138.2 121.094 138.44 119.774 138.44C116.974 138.44 114.814 137.52 113.294 135.64C111.774 133.8 111.014 131.04 111.014 127.36C111.014 123.68 111.774 120.92 113.294 119.04C114.814 117.2 116.974 116.24 119.774 116.24C121.054 116.24 122.254 116.52 123.454 117.04C124.654 117.56 125.494 118.28 126.054 119.16V110.84C126.054 110.12 126.414 109.76 127.134 109.76H131.454C132.174 109.76 132.574 110.12 132.574 110.84V136.88C132.574 137.64 132.174 138 131.454 138H127.614C126.974 138 126.574 137.72 126.494 137.12ZM148.761 133.88C150.561 133.88 152.321 133.48 154.001 132.68C154.681 132.36 155.161 132.6 155.441 133.36L156.161 135.48C156.321 136.08 156.121 136.52 155.481 136.84C153.281 137.96 150.841 138.48 148.201 138.48C144.481 138.48 141.601 137.52 139.561 135.6C137.521 133.68 136.521 130.92 136.521 127.36C136.521 123.84 137.441 121.08 139.361 119.16C141.241 117.24 143.801 116.24 147.081 116.24C150.201 116.24 152.681 117.2 154.441 119.04C156.201 120.92 157.081 123.4 157.081 126.52V128.48C157.081 129.2 156.681 129.56 155.961 129.56H142.961C143.201 130.92 143.801 132 144.801 132.76C145.801 133.52 147.121 133.88 148.761 133.88ZM147.201 120.84C144.481 120.84 143.001 122.52 142.761 125.84H151.281V125.56C151.281 124.08 150.921 122.92 150.241 122.08C149.521 121.28 148.521 120.84 147.201 120.84ZM188.16 132.12C188.16 136.36 185.12 138.44 179.12 138.44C176.44 138.44 174.08 138.08 172.08 137.28C171.4 137.04 171.16 136.6 171.36 135.96L172.04 133.64C172.2 132.96 172.64 132.72 173.4 132.96C174.96 133.48 176.48 133.72 178 133.72C180.48 133.72 181.76 133.12 181.76 131.92C181.76 131.36 181.44 130.88 180.88 130.52C180.32 130.2 179.36 129.8 178.04 129.36C175.84 128.64 174.36 127.96 173.6 127.36C172.12 126.28 171.4 124.64 171.4 122.48C171.4 120.4 172.12 118.84 173.6 117.8C175.08 116.76 177.16 116.24 179.88 116.24C182.56 116.24 184.76 116.6 186.48 117.32C187.12 117.6 187.36 118.04 187.2 118.68L186.52 120.92C186.28 121.64 185.84 121.88 185.16 121.64C183.68 121.2 182.24 120.96 180.88 120.96C178.8 120.96 177.8 121.56 177.8 122.68C177.8 123.28 178.08 123.76 178.64 124.08C179.2 124.44 180.2 124.88 181.6 125.36C182.68 125.76 183.52 126.12 184.16 126.4C184.8 126.72 185.44 127.12 186.16 127.64C186.84 128.16 187.36 128.8 187.68 129.52C188 130.24 188.16 131.12 188.16 132.12ZM202.98 133.88C204.78 133.88 206.54 133.48 208.22 132.68C208.9 132.36 209.38 132.6 209.66 133.36L210.38 135.48C210.54 136.08 210.34 136.52 209.7 136.84C207.5 137.96 205.06 138.48 202.42 138.48C198.7 138.48 195.82 137.52 193.78 135.6C191.74 133.68 190.74 130.92 190.74 127.36C190.74 123.84 191.66 121.08 193.58 119.16C195.46 117.24 198.02 116.24 201.3 116.24C204.42 116.24 206.9 117.2 208.66 119.04C210.42 120.92 211.3 123.4 211.3 126.52V128.48C211.3 129.2 210.9 129.56 210.18 129.56H197.18C197.42 130.92 198.02 132 199.02 132.76C200.02 133.52 201.34 133.88 202.98 133.88ZM201.42 120.84C198.7 120.84 197.22 122.52 196.98 125.84H205.5V125.56C205.5 124.08 205.14 122.92 204.46 122.08C203.74 121.28 202.74 120.84 201.42 120.84ZM228.414 125.72C228.414 122.52 227.134 120.88 224.614 120.88C222.094 120.88 220.854 122.56 220.854 125.84C220.854 129.2 222.094 130.84 224.614 130.84C227.134 130.84 228.414 129.16 228.414 125.72ZM234.774 117.8V134.08C234.774 136.96 233.854 139.16 232.014 140.64C230.174 142.16 227.534 142.88 224.094 142.88C220.774 142.88 218.254 142.48 216.574 141.64C215.934 141.32 215.734 140.88 215.894 140.28L216.614 137.8C216.814 137.08 217.254 136.88 217.974 137.12C219.774 137.76 221.614 138.08 223.534 138.08C226.934 138.08 228.654 136.68 228.654 133.8V132.4C228.094 133.32 227.334 134.04 226.294 134.52C225.254 135 224.094 135.24 222.814 135.24C220.254 135.24 218.174 134.48 216.654 132.96C215.134 131.44 214.374 129.08 214.374 125.84C214.374 122.64 215.094 120.24 216.574 118.64C218.054 117.08 220.054 116.28 222.574 116.28C223.854 116.28 225.054 116.56 226.134 117.08C227.214 117.64 228.054 118.32 228.614 119.2L228.814 117.6C228.894 117.04 229.254 116.72 229.934 116.72H233.654C234.374 116.72 234.774 117.08 234.774 117.8ZM239.309 130.76V117.8C239.309 117.08 239.669 116.72 240.429 116.72H244.749C245.469 116.72 245.829 117.08 245.829 117.8V129.48C245.829 130.68 246.029 131.6 246.469 132.2C246.909 132.84 247.709 133.12 248.829 133.12C250.029 133.12 250.949 132.76 251.629 132C252.269 131.28 252.629 130.28 252.629 129V117.8C252.629 117.08 252.989 116.72 253.749 116.72H258.069C258.789 116.72 259.149 117.08 259.149 117.8V136.88C259.149 137.64 258.789 138 258.069 138H254.189C253.509 138 253.109 137.72 253.029 137.12L252.749 135.28C251.429 137.4 249.349 138.44 246.509 138.44C244.029 138.44 242.229 137.84 241.069 136.6C239.869 135.36 239.309 133.4 239.309 130.76ZM270.603 117.8V136.88C270.603 137.64 270.243 138 269.523 138H265.163C264.443 138 264.083 137.64 264.083 136.88V117.8C264.083 117.08 264.443 116.72 265.163 116.72H269.523C270.243 116.72 270.603 117.08 270.603 117.8ZM270.643 110.92V113.44C270.643 114.2 270.283 114.56 269.563 114.56H265.123C264.403 114.56 264.043 114.2 264.043 113.44V110.92C264.043 110.2 264.403 109.84 265.123 109.84H269.563C270.283 109.84 270.643 110.2 270.643 110.92ZM289.766 127.36C289.766 123.36 288.326 121.32 285.486 121.32C284.086 121.32 283.046 121.8 282.366 122.76C281.646 123.72 281.326 125.24 281.326 127.36C281.326 129.48 281.646 131 282.366 131.96C283.046 132.92 284.086 133.36 285.486 133.36C288.326 133.36 289.766 131.36 289.766 127.36ZM290.166 137.12L289.966 135.36C289.366 136.32 288.446 137.08 287.246 137.64C286.046 138.2 284.766 138.44 283.446 138.44C280.646 138.44 278.486 137.52 276.966 135.64C275.446 133.8 274.686 131.04 274.686 127.36C274.686 123.68 275.446 120.92 276.966 119.04C278.486 117.2 280.646 116.24 283.446 116.24C284.726 116.24 285.926 116.52 287.126 117.04C288.326 117.56 289.166 118.28 289.726 119.16V110.84C289.726 110.12 290.086 109.76 290.806 109.76H295.126C295.846 109.76 296.246 110.12 296.246 110.84V136.88C296.246 137.64 295.846 138 295.126 138H291.286C290.646 138 290.246 137.72 290.166 137.12ZM310.913 138.44C307.553 138.44 304.953 137.52 303.033 135.6C301.113 133.72 300.193 130.96 300.193 127.36C300.193 123.76 301.113 121 303.033 119.08C304.953 117.2 307.553 116.24 310.913 116.24C314.233 116.24 316.873 117.2 318.793 119.08C320.713 121 321.673 123.76 321.673 127.36C321.673 130.96 320.713 133.72 318.793 135.6C316.873 137.52 314.233 138.44 310.913 138.44ZM310.913 133.4C313.633 133.4 315.033 131.4 315.033 127.36C315.033 123.32 313.633 121.28 310.913 121.28C308.193 121.28 306.833 123.32 306.833 127.36C306.833 131.4 308.193 133.4 310.913 133.4ZM326.645 116.72H330.525C331.165 116.72 331.565 117.04 331.645 117.68L331.965 120.4C332.445 119.36 333.205 118.48 334.285 117.68C335.365 116.88 336.645 116.48 338.085 116.48C338.765 116.48 339.125 116.84 339.125 117.48V121.88C339.125 122.48 338.805 122.76 338.165 122.76C338.005 122.76 337.805 122.76 337.485 122.72C337.165 122.72 336.925 122.68 336.685 122.68C335.245 122.68 334.125 123.16 333.285 124.12C332.445 125.08 332.045 126.32 332.045 127.76V136.88C332.045 137.64 331.685 138 330.965 138H326.645C325.885 138 325.525 137.64 325.525 136.88V117.8C325.525 117.08 325.885 116.72 326.645 116.72ZM353.566 133.88C355.366 133.88 357.126 133.48 358.806 132.68C359.486 132.36 359.966 132.6 360.246 133.36L360.966 135.48C361.126 136.08 360.926 136.52 360.286 136.84C358.086 137.96 355.646 138.48 353.006 138.48C349.286 138.48 346.406 137.52 344.366 135.6C342.326 133.68 341.326 130.92 341.326 127.36C341.326 123.84 342.246 121.08 344.166 119.16C346.046 117.24 348.606 116.24 351.886 116.24C355.006 116.24 357.486 117.2 359.246 119.04C361.006 120.92 361.886 123.4 361.886 126.52V128.48C361.886 129.2 361.486 129.56 360.766 129.56H347.766C348.006 130.92 348.606 132 349.606 132.76C350.606 133.52 351.926 133.88 353.566 133.88ZM352.006 120.84C349.286 120.84 347.806 122.52 347.566 125.84H356.086V125.56C356.086 124.08 355.726 122.92 355.046 122.08C354.326 121.28 353.326 120.84 352.006 120.84ZM381.48 132.12C381.48 136.36 378.44 138.44 372.44 138.44C369.76 138.44 367.4 138.08 365.4 137.28C364.72 137.04 364.48 136.6 364.68 135.96L365.36 133.64C365.52 132.96 365.96 132.72 366.72 132.96C368.28 133.48 369.8 133.72 371.32 133.72C373.8 133.72 375.08 133.12 375.08 131.92C375.08 131.36 374.76 130.88 374.2 130.52C373.64 130.2 372.68 129.8 371.36 129.36C369.16 128.64 367.68 127.96 366.92 127.36C365.44 126.28 364.72 124.64 364.72 122.48C364.72 120.4 365.44 118.84 366.92 117.8C368.4 116.76 370.48 116.24 373.2 116.24C375.88 116.24 378.08 116.6 379.8 117.32C380.44 117.6 380.68 118.04 380.52 118.68L379.84 120.92C379.6 121.64 379.16 121.88 378.48 121.64C377 121.2 375.56 120.96 374.2 120.96C372.12 120.96 371.12 121.56 371.12 122.68C371.12 123.28 371.4 123.76 371.96 124.08C372.52 124.44 373.52 124.88 374.92 125.36C376 125.76 376.84 126.12 377.48 126.4C378.12 126.72 378.76 127.12 379.48 127.64C380.16 128.16 380.68 128.8 381 129.52C381.32 130.24 381.48 131.12 381.48 132.12Z" fill="white"/>
<g clip-path="url(#clip1_2024_3330)">
<path d="M580.028 76.6206C587.34 76.6206 588.205 76.6526 591.081 76.7809C593.753 76.8985 595.196 77.3474 596.158 77.7215C597.43 78.2132 598.349 78.8118 599.3 79.7631C600.262 80.7251 600.85 81.6336 601.342 82.9056C601.716 83.8676 602.165 85.3213 602.283 87.9828C602.411 90.8688 602.443 91.7346 602.443 99.0351C602.443 106.346 602.411 107.212 602.283 110.087C602.165 112.76 601.716 114.203 601.342 115.165C600.85 116.436 600.252 117.356 599.3 118.307C598.338 119.269 597.43 119.857 596.158 120.349C595.196 120.723 593.742 121.172 591.081 121.289C588.195 121.417 587.329 121.45 580.028 121.45C572.717 121.45 571.852 121.417 568.976 121.289C566.304 121.172 564.861 120.723 563.899 120.349C562.627 119.857 561.708 119.258 560.756 118.307C559.794 117.345 559.207 116.436 558.715 115.165C558.341 114.203 557.892 112.749 557.774 110.087C557.646 107.201 557.614 106.336 557.614 99.0351C557.614 91.7239 557.646 90.8581 557.774 87.9828C557.892 85.3106 558.341 83.8676 558.715 82.9056C559.207 81.6336 559.805 80.7144 560.756 79.7631C561.718 78.8011 562.627 78.2132 563.899 77.7215C564.861 77.3474 566.315 76.8985 568.976 76.7809C571.852 76.6526 572.717 76.6206 580.028 76.6206ZM580.028 71.693C572.6 71.693 571.67 71.7251 568.752 71.8534C565.844 71.9816 563.846 72.4519 562.114 73.1253C560.308 73.8308 558.779 74.7607 557.261 76.2892C555.733 77.807 554.803 79.3355 554.097 81.1313C553.424 82.8735 552.954 84.8617 552.825 87.769C552.697 90.6978 552.665 91.6277 552.665 99.0564C552.665 106.485 552.697 107.415 552.825 110.333C552.954 113.241 553.424 115.239 554.097 116.971C554.803 118.777 555.733 120.306 557.261 121.824C558.779 123.341 560.308 124.282 562.103 124.977C563.846 125.65 565.834 126.121 568.741 126.249C571.659 126.377 572.589 126.409 580.018 126.409C587.447 126.409 588.376 126.377 591.294 126.249C594.202 126.121 596.201 125.65 597.932 124.977C599.728 124.282 601.256 123.341 602.774 121.824C604.292 120.306 605.233 118.777 605.928 116.982C606.601 115.239 607.071 113.251 607.199 110.344C607.328 107.426 607.36 106.496 607.36 99.0671C607.36 91.6384 607.328 90.7085 607.199 87.7904C607.071 84.883 606.601 82.8842 605.928 81.1526C605.254 79.3355 604.324 77.807 602.796 76.2892C601.278 74.7714 599.749 73.8308 597.954 73.136C596.211 72.4626 594.223 71.9923 591.316 71.864C588.387 71.7251 587.457 71.693 580.028 71.693Z" fill="white"/>
<path d="M580.028 85.0006C572.268 85.0006 565.973 91.2963 565.973 99.0564C565.973 106.817 572.268 113.112 580.028 113.112C587.789 113.112 594.084 106.817 594.084 99.0564C594.084 91.2963 587.789 85.0006 580.028 85.0006ZM580.028 108.174C574.994 108.174 570.911 104.091 570.911 99.0564C570.911 94.022 574.994 89.9389 580.028 89.9389C585.063 89.9389 589.146 94.022 589.146 99.0564C589.146 104.091 585.063 108.174 580.028 108.174Z" fill="white"/>
<path d="M597.921 84.4447C597.921 86.2618 596.446 87.7262 594.64 87.7262C592.823 87.7262 591.358 86.2511 591.358 84.4447C591.358 82.6276 592.833 81.1632 594.64 81.1632C596.446 81.1632 597.921 82.6383 597.921 84.4447Z" fill="white"/>
</g>
<g clip-path="url(#clip2_2024_3330)">
<path d="M725.967 72.6366C710.855 72.6366 698.604 84.8877 698.604 100C698.604 112.832 707.439 123.6 719.357 126.558V108.362H713.715V100H719.357V96.3968C719.357 87.0834 723.572 82.7665 732.716 82.7665C734.45 82.7665 737.441 83.1069 738.665 83.4462V91.0259C738.019 90.958 736.897 90.9241 735.504 90.9241C731.017 90.9241 729.283 92.6239 729.283 97.0426V100H738.221L736.686 108.362H729.283V127.163C742.833 125.527 753.331 113.99 753.331 100C753.33 84.8877 741.079 72.6366 725.967 72.6366Z" fill="white"/>
</g>
<path d="M886.331 76.0345H894.024L877.218 95.2425L896.989 121.38H881.508L869.383 105.528L855.51 121.38H847.813L865.788 100.835L846.822 76.0345H862.696L873.655 90.5242L886.331 76.0345ZM883.631 116.776H887.894L860.379 80.397H855.805L883.631 116.776Z" fill="white"/>
<rect x="1483.85" y="-241.318" width="572.378" height="572.378" rx="45.6057" transform="rotate(-17.1871 1483.85 -241.318)" fill="#D91A21"/>
<g clip-path="url(#clip3_2024_3330)">
<path fill-rule="evenodd" clip-rule="evenodd" d="M1693.8 158.895V158.716C1693.8 158.529 1693.96 158.383 1694.14 158.383H1807C1807.19 158.383 1807.34 158.537 1807.34 158.716V158.895C1807.34 159.082 1807.18 159.229 1807 159.229H1694.14C1693.95 159.229 1693.8 159.074 1693.8 158.895Z" fill="white"/>
<path d="M1769.22 100.214H1768.09C1767.6 100.214 1767.39 100.353 1767.31 100.784L1767.28 100.946C1767.23 101.215 1766.96 101.353 1766.58 101.353C1766.23 101.353 1765.78 101.247 1765.37 101.085L1763.92 100.515C1763.92 100.515 1763.84 100.491 1763.81 100.475C1763.69 101.394 1763.14 101.8 1762.08 101.8H1759.41C1759.32 102.134 1759.26 102.5 1759.26 102.915C1759.26 103.777 1759.53 103.997 1760.12 103.997H1761.25C1761.74 103.997 1761.95 103.858 1762.03 103.427L1762.06 103.265C1762.11 102.972 1762.35 102.858 1762.73 102.858C1763.08 102.858 1763.51 102.939 1763.97 103.126L1765.42 103.696C1765.99 103.915 1766.66 104.07 1767.6 104.07C1769.16 104.07 1770.08 103.183 1770.08 101.451C1770.08 100.588 1769.81 100.214 1769.22 100.214Z" fill="white"/>
<path d="M1709.94 58.3222C1710.13 58.3222 1710.24 58.4198 1710.24 58.6232V62.4951C1710.24 62.7147 1710.11 62.8368 1709.97 62.9181C1709.4 63.2597 1708.51 63.52 1707.22 63.52C1704.61 63.52 1703.09 62.1616 1703.09 59.1194C1703.09 56.0771 1704.62 54.7268 1707.33 54.7268C1708.42 54.7268 1709.29 55.0196 1709.77 55.3043C1709.95 55.402 1710.02 55.4996 1709.95 55.6785L1709.65 56.4269C1709.57 56.6058 1709.47 56.6709 1709.23 56.5733C1708.86 56.4188 1708.28 56.2235 1707.54 56.2235C1705.62 56.2235 1704.8 57.0695 1704.8 59.1112C1704.8 61.1529 1705.65 62.0152 1707.41 62.0152C1707.91 62.0152 1708.41 61.9094 1708.7 61.7712V59.6318H1707.39C1707.18 59.6318 1707.09 59.5505 1707.09 59.3553V58.615C1707.09 58.4198 1707.18 58.3141 1707.39 58.3141H1709.94V58.3222Z" fill="white"/>
<path d="M1721.3 59.1275C1721.3 62.064 1719.91 63.52 1717.52 63.52C1715.14 63.52 1713.77 62.0721 1713.77 59.1275C1713.77 56.1829 1715.17 54.7268 1717.53 54.7268C1719.9 54.7268 1721.3 56.191 1721.3 59.1275ZM1719.57 59.1275C1719.57 57.1834 1718.9 56.1991 1717.53 56.1991C1716.17 56.1991 1715.47 57.1752 1715.47 59.1275C1715.47 61.0797 1716.15 62.0396 1717.53 62.0396C1718.91 62.0396 1719.57 61.0716 1719.57 59.1275Z" fill="white"/>
<path d="M1727.04 63.3902C1726.84 63.3902 1726.74 63.3088 1726.66 63.0973L1723.98 55.2151C1723.91 55.0118 1724.01 54.8735 1724.21 54.8735H1725.38C1725.58 54.8735 1725.68 54.9711 1725.73 55.1419L1727.18 59.6565L1727.71 61.6494H1727.73L1728.25 59.6565L1729.7 55.1419C1729.75 54.9711 1729.84 54.8735 1730.05 54.8735H1731.23C1731.43 54.8735 1731.53 55.0037 1731.45 55.2151L1728.78 63.0973C1728.71 63.3007 1728.6 63.3902 1728.39 63.3902H1727.02H1727.04Z" fill="white"/>
<path d="M1736.53 59.746V61.9341H1739.96C1740.17 61.9341 1740.26 62.0155 1740.26 62.227V63.0892C1740.26 63.3088 1740.17 63.3902 1739.96 63.3902H1735.17C1734.95 63.3902 1734.87 63.3088 1734.87 63.0892V55.1663C1734.87 54.963 1734.95 54.8735 1735.16 54.8735H1739.92C1740.12 54.8735 1740.22 54.9548 1740.22 55.1663V56.0286C1740.22 56.2319 1740.12 56.3296 1739.92 56.3296H1736.54V58.3469H1739.77C1739.96 58.3469 1740.06 58.4526 1740.06 58.6478V59.445C1740.06 59.6402 1739.96 59.746 1739.77 59.746H1736.54H1736.53Z" fill="white"/>
<path d="M1746.88 54.8735C1749.22 54.8735 1750.41 55.7113 1750.41 57.7368C1750.41 59.2091 1749.61 60.0388 1748.33 60.3154L1750.39 63.016C1750.52 63.1868 1750.44 63.3902 1750.21 63.3902H1749.06C1748.84 63.3902 1748.74 63.2926 1748.64 63.1461L1746.68 60.5432H1745.56V63.0811C1745.56 63.3007 1745.46 63.382 1745.26 63.382H1744.18C1743.96 63.382 1743.88 63.3007 1743.88 63.0811V55.1663C1743.88 54.963 1743.96 54.8735 1744.18 54.8735H1746.89H1746.88ZM1746.84 59.144C1748.21 59.144 1748.71 58.6967 1748.71 57.7449C1748.71 56.72 1748.18 56.3296 1746.85 56.3296H1745.54V59.144H1746.83H1746.84Z" fill="white"/>
<path d="M1760.84 63.081C1760.84 63.3007 1760.74 63.382 1760.55 63.382H1759.46C1759.25 63.382 1759.16 63.3251 1759.08 63.1787L1755.68 57.6961V63.081C1755.68 63.3007 1755.6 63.382 1755.39 63.382H1754.35C1754.13 63.382 1754.05 63.3007 1754.05 63.081V55.1663C1754.05 54.963 1754.13 54.8735 1754.35 54.8735H1755.42C1755.64 54.8735 1755.72 54.9223 1755.81 55.0687L1759.2 60.5594V55.1663C1759.2 54.963 1759.29 54.8735 1759.5 54.8735H1760.55C1760.74 54.8735 1760.84 54.9548 1760.84 55.15V63.081Z" fill="white"/>
<path d="M1772.02 59.1275C1772.02 62.064 1770.62 63.52 1768.24 63.52C1765.86 63.52 1764.48 62.0721 1764.48 59.1275C1764.48 56.1829 1765.88 54.7268 1768.25 54.7268C1770.61 54.7268 1772.02 56.191 1772.02 59.1275ZM1770.29 59.1275C1770.29 57.1834 1769.62 56.1991 1768.25 56.1991C1766.89 56.1991 1766.2 57.1752 1766.2 59.1275C1766.2 61.0797 1766.87 62.0396 1768.25 62.0396C1769.64 62.0396 1770.29 61.0716 1770.29 59.1275Z" fill="white"/>
<path d="M1781.67 63.3901C1781.45 63.3901 1781.37 63.3088 1781.37 63.0892V55.1663C1781.37 54.963 1781.45 54.8735 1781.66 54.8735H1783.99C1786.72 54.8735 1788.21 55.996 1788.21 59.0464C1788.21 62.2513 1786.72 63.3901 1784.01 63.3901H1781.67H1781.67ZM1783.06 56.3702V61.8853H1783.94C1785.58 61.8853 1786.49 61.3159 1786.49 59.0464C1786.49 56.9315 1785.58 56.3702 1783.93 56.3702H1783.06H1783.06Z" fill="white"/>
<path d="M1798.53 59.1214C1798.53 62.0253 1797.2 63.5139 1795.05 63.5139C1792.91 63.5139 1791.58 62.0253 1791.58 59.1376C1791.58 56.2499 1792.91 54.7369 1795.05 54.7369C1797.2 54.7369 1798.53 56.2255 1798.53 59.1295M1796.86 59.1214C1796.86 57.1772 1796.27 56.193 1795.05 56.193C1793.84 56.193 1793.27 57.1691 1793.27 59.1214C1793.27 61.0736 1793.86 62.0579 1795.05 62.0579C1796.25 62.0579 1796.86 61.0817 1796.86 59.1214Z" fill="white"/>
<path d="M1789.5 130.88C1786.13 130.88 1784.36 128.481 1784.36 122.071C1784.36 115.661 1786.13 113.261 1789.5 113.261C1792.87 113.261 1794.64 115.661 1794.64 122.071C1794.64 128.481 1792.87 130.88 1789.5 130.88ZM1789.5 104.151C1781.65 104.151 1776 107.624 1774.18 115.767L1774.68 117.271L1781.3 137.542C1781.4 137.835 1781.45 138.104 1781.45 138.348C1783.74 139.47 1786.46 139.991 1789.51 139.991C1799.15 139.991 1805.46 134.752 1805.46 122.071C1805.46 109.389 1799.15 104.151 1789.51 104.151" fill="white"/>
<path d="M1752.29 104.989H1745.14C1743.92 104.989 1743.38 105.526 1743.38 106.754V117.378H1735.55V106.754C1735.55 105.534 1735.01 104.989 1733.79 104.989H1726.64C1726.56 104.989 1726.49 104.989 1726.41 104.989C1727.48 105.054 1727.95 105.599 1727.95 106.746V137.885C1727.95 139.032 1727.48 139.577 1726.41 139.642C1726.49 139.642 1726.56 139.642 1726.64 139.642H1733.79C1735 139.642 1735.55 139.105 1735.55 137.876V126.765H1743.38V137.876C1743.38 139.097 1743.91 139.642 1745.14 139.642H1752.29H1749.35C1748.18 139.642 1747.59 138.812 1748.04 137.535L1754.06 119.11V106.738C1754.06 105.518 1753.52 104.973 1752.3 104.973" fill="white"/>
<path d="M1769.06 104.989H1760.26C1758.99 104.989 1758.5 105.526 1758.15 106.559L1754.05 119.127V137.893C1754.05 139.113 1753.51 139.658 1752.28 139.658H1756.78C1758 139.658 1758.64 139.121 1758.93 138.039L1764.61 115.474H1764.75L1767.56 126.732L1770.38 138.039C1770.44 138.242 1770.5 138.421 1770.58 138.584C1770.93 139.292 1771.54 139.65 1772.53 139.65H1779.97C1780.85 139.65 1781.4 139.178 1781.44 138.413C1781.44 138.397 1781.44 138.373 1781.44 138.356C1776.49 135.94 1773.54 130.751 1773.54 122.079C1773.54 119.729 1773.76 117.63 1774.18 115.775L1771.17 106.559C1771.17 106.559 1771.15 106.527 1771.15 106.502C1771.1 106.339 1771.03 106.185 1770.97 106.047V106.03C1770.62 105.347 1770.1 104.989 1769.07 104.989" fill="white"/>
<path d="M1774.18 115.767C1773.77 117.621 1773.55 119.72 1773.55 122.071C1773.55 130.742 1776.5 135.932 1781.44 138.348C1781.44 138.104 1781.4 137.835 1781.3 137.542L1774.67 117.272L1774.18 115.767H1774.18Z" fill="white"/>
<path d="M1754.05 119.118L1748.03 137.542C1747.59 138.811 1748.17 139.649 1749.35 139.649H1752.29C1753.5 139.649 1754.05 139.112 1754.05 137.884V119.118Z" fill="white"/>
<path d="M1726.2 104.989H1719.45C1718.23 104.989 1717.69 105.526 1717.69 106.754V121.738L1709.08 106.071C1708.64 105.29 1708.2 104.997 1706.97 104.997H1700.17C1698.95 104.997 1698.4 105.534 1698.4 106.762V137.901C1698.4 139.121 1698.94 139.666 1700.17 139.666H1706.91C1708.13 139.666 1708.68 139.129 1708.68 137.901V122.917L1717.29 138.584C1717.73 139.365 1718.16 139.658 1719.39 139.658H1726.2C1726.28 139.658 1726.35 139.658 1726.42 139.658C1725.36 139.593 1724.89 139.048 1724.89 137.901V106.762C1724.89 105.615 1725.36 105.07 1726.42 105.005C1726.35 105.005 1726.28 105.005 1726.2 105.005" fill="white"/>
<path d="M1726.43 104.989C1725.36 105.054 1724.89 105.599 1724.89 106.746V137.884C1724.89 139.031 1725.36 139.576 1726.43 139.642C1727.49 139.576 1727.96 139.031 1727.96 137.884V106.746C1727.96 105.599 1727.49 105.054 1726.43 104.989Z" fill="white"/>
<path d="M1727.49 67.132H1720.99C1719.96 67.132 1719.37 67.4736 1718.98 68.1081L1711.44 81.0824L1703.91 68.1081C1703.52 67.4736 1702.93 67.132 1701.9 67.132H1695.4C1694.18 67.132 1693.63 67.6689 1693.63 68.8971V100.035C1693.63 101.256 1694.17 101.801 1695.4 101.801H1702.14C1703.36 101.801 1703.91 101.264 1703.91 100.035V84.1247L1710.17 94.6505C1710.41 95.041 1710.75 95.3826 1711.44 95.3826C1712.12 95.3826 1712.46 95.041 1712.7 94.6505L1718.96 84.1247V100.035C1718.96 101.256 1719.5 101.801 1720.73 101.801H1727.48H1725C1724.13 101.801 1723.57 101.329 1723.54 100.564C1723.54 100.458 1723.54 100.345 1723.56 100.231C1723.58 100.068 1723.62 99.8891 1723.69 99.702L1729.24 82.7093V68.9053C1729.24 67.6851 1728.7 67.1401 1727.48 67.1401" fill="white"/>
<path d="M1810.09 99.6856L1799.96 68.6937C1799.62 67.6688 1799.13 67.1238 1797.85 67.1238H1789.05C1787.78 67.1238 1787.28 67.6606 1786.94 68.6937L1778.63 94.1299L1780.81 97.7496L1781.93 99.588C1782.66 100.759 1782.17 101.792 1780.95 101.792H1808.76C1809.93 101.792 1810.53 100.963 1810.08 99.6856H1810.09ZM1802.23 84.4581L1797.2 88.1267L1799.06 93.9509C1799.2 94.4064 1798.67 94.7887 1798.29 94.504L1793.41 90.9005L1788.47 94.4959C1788.08 94.7806 1787.55 94.3983 1787.71 93.9346L1789.65 88.1348L1784.67 84.4662C1784.28 84.1815 1784.48 83.5715 1784.96 83.5715H1791.18L1793.04 77.9994C1793.19 77.5439 1793.84 77.552 1793.98 77.9994L1795.75 83.5633H1801.95C1802.43 83.5633 1802.63 84.1815 1802.24 84.4581H1802.23Z" fill="white"/>
<path d="M1763.83 83.1891V75.4533H1767.35C1770.43 75.4533 1771.66 76.6246 1771.66 79.0731C1771.66 79.1544 1771.66 79.2358 1771.66 79.3171C1771.66 79.3984 1771.66 79.4717 1771.66 79.5611C1771.66 80.4315 1771.5 81.1392 1771.16 81.6923C1770.74 82.3756 1770.04 82.823 1769 83.0345H1768.98C1768.8 83.0752 1768.6 83.1077 1768.39 83.1321H1768.37C1768.28 83.1403 1768.19 83.1484 1768.1 83.1565C1768.07 83.1565 1768.04 83.1565 1768.02 83.1565C1767.93 83.1565 1767.86 83.1647 1767.78 83.1647C1767.75 83.1647 1767.72 83.1647 1767.69 83.1647C1767.58 83.1647 1767.47 83.1647 1767.36 83.1647H1763.84L1763.83 83.1891ZM1767.5 67.1318H1766.33H1763.84H1755.03C1753.81 67.1318 1753.27 67.6687 1753.27 68.897V88.3625L1756.97 99.6937C1757.41 100.963 1756.82 101.8 1755.65 101.8H1755.03H1759.41C1759.73 100.751 1760.56 100.141 1761.81 100.141C1762.63 100.141 1763.27 100.287 1763.81 100.483C1763.83 100.344 1763.84 100.198 1763.84 100.043V91.5268H1766.33L1771.37 100.385C1771.91 101.312 1772.59 101.809 1773.82 101.809H1778.14C1777.27 101.809 1776.71 101.337 1776.68 100.572C1776.67 100.312 1776.71 100.027 1776.83 99.7099L1778.64 94.1542L1776.19 90.1114C1776.19 90.1114 1781.13 88.0615 1782.05 82.5139C1782.21 81.5459 1782.32 80.4966 1782.33 79.3415C1782.32 78.1864 1782.21 77.1371 1782.05 76.1691C1781.09 70.6947 1776.19 68.5716 1776.19 68.5716C1773.88 67.5711 1770.97 67.1481 1767.51 67.1481" fill="white"/>
<path d="M1761.8 100.133C1760.55 100.133 1759.72 100.743 1759.4 101.792H1762.06C1763.13 101.792 1763.67 101.385 1763.8 100.466C1763.25 100.271 1762.61 100.125 1761.8 100.125" fill="white"/>
<path d="M1778.62 94.1381L1776.81 99.6938C1776.7 100.011 1776.66 100.304 1776.67 100.556C1776.7 101.329 1777.25 101.793 1778.13 101.793H1780.95C1782.17 101.793 1782.66 100.768 1781.92 99.5881L1780.81 97.7497L1778.62 94.1299V94.1381Z" fill="white"/>
<path d="M1744.74 67.1318H1735.93C1734.9 67.1318 1734.38 67.4897 1734.04 68.173V68.1893C1733.96 68.3276 1733.9 68.4821 1733.84 68.6448C1733.84 68.6611 1733.83 68.6774 1733.83 68.7018L1730.32 79.4229L1729.25 82.701V100.035C1729.25 101.255 1728.71 101.8 1727.49 101.8H1732.45C1733.44 101.8 1734.05 101.443 1734.4 100.735V100.719C1734.48 100.556 1734.55 100.385 1734.61 100.19L1740.23 77.6252H1740.38L1746.05 100.19C1746.35 101.264 1746.98 101.809 1748.21 101.809H1755.02C1753.8 101.809 1753.26 101.272 1753.26 100.043V88.3706L1746.83 68.7099C1746.49 67.685 1746 67.14 1744.73 67.14" fill="white"/>
<path d="M1729.25 82.701L1723.7 99.6937C1723.63 99.8808 1723.59 100.06 1723.57 100.222C1723.55 100.336 1723.54 100.45 1723.55 100.556C1723.58 101.329 1724.13 101.801 1725.01 101.801H1727.48C1728.7 101.801 1729.25 101.264 1729.25 100.035V82.701Z" fill="white"/>
<path d="M1753.26 88.362V100.035C1753.26 101.255 1753.8 101.8 1755.02 101.8H1755.64C1756.81 101.8 1757.41 100.97 1756.97 99.6932L1753.27 88.362H1753.26Z" fill="white"/>
<path d="M1706.2 143.643C1706.2 143.578 1706.23 143.546 1706.3 143.546H1709C1709.07 143.546 1709.1 143.578 1709.1 143.643V143.92C1709.1 143.985 1709.06 144.018 1709 144.018H1707.91V147.613C1707.91 147.686 1707.88 147.711 1707.81 147.711H1707.5C1707.44 147.711 1707.4 147.678 1707.4 147.613V144.018H1706.31C1706.25 144.018 1706.22 143.985 1706.22 143.92V143.643H1706.2Z" fill="white"/>
<path d="M1711.71 143.554C1712.87 143.554 1713.39 143.985 1713.39 144.896C1713.39 145.677 1712.95 146.084 1712.19 146.173L1713.4 147.588C1713.44 147.645 1713.43 147.719 1713.34 147.719H1712.98C1712.9 147.719 1712.87 147.686 1712.83 147.637L1711.64 146.222H1710.91V147.621C1710.91 147.694 1710.88 147.719 1710.82 147.719H1710.51C1710.43 147.719 1710.41 147.686 1710.41 147.621V143.651C1710.41 143.586 1710.44 143.554 1710.51 143.554H1711.72H1711.71ZM1711.69 145.758C1712.57 145.758 1712.88 145.482 1712.88 144.896C1712.88 144.278 1712.54 144.026 1711.7 144.026H1710.91V145.758H1711.69H1711.69Z" fill="white"/>
<path d="M1716.4 143.554C1716.49 143.554 1716.51 143.586 1716.53 143.651L1718.02 147.621C1718.04 147.678 1718.01 147.719 1717.95 147.719H1717.61C1717.54 147.719 1717.52 147.686 1717.49 147.629L1717.12 146.637H1715.3L1714.92 147.629C1714.9 147.686 1714.88 147.719 1714.82 147.719H1714.47C1714.4 147.719 1714.37 147.67 1714.39 147.621L1715.87 143.651C1715.9 143.586 1715.92 143.554 1716 143.554H1716.4ZM1716.96 146.173L1716.22 144.058H1716.21L1715.46 146.173H1716.96H1716.96Z" fill="white"/>
<path d="M1719.41 147.719C1719.34 147.719 1719.32 147.686 1719.32 147.621V143.651C1719.32 143.586 1719.35 143.554 1719.41 143.554H1720.89C1721.95 143.554 1722.42 143.912 1722.42 144.628C1722.42 145.197 1722.13 145.449 1721.82 145.522C1722.23 145.612 1722.58 145.897 1722.58 146.539C1722.58 147.377 1722.05 147.719 1720.92 147.719H1719.41ZM1720.91 145.343C1721.66 145.343 1721.92 145.148 1721.92 144.668C1721.92 144.188 1721.64 144.017 1720.88 144.017H1719.81V145.343H1720.9H1720.91ZM1720.88 147.255C1721.75 147.255 1722.06 147.076 1722.06 146.515C1722.06 146.002 1721.79 145.799 1720.93 145.799H1719.82V147.263H1720.88L1720.88 147.255Z" fill="white"/>
<path d="M1725.7 143.554C1725.79 143.554 1725.8 143.586 1725.83 143.651L1727.32 147.621C1727.33 147.678 1727.31 147.719 1727.24 147.719H1726.9C1726.84 147.719 1726.81 147.686 1726.79 147.629L1726.41 146.637H1724.59L1724.22 147.629C1724.19 147.686 1724.18 147.719 1724.11 147.719H1723.76C1723.7 147.719 1723.67 147.67 1723.68 147.621L1725.17 143.651C1725.19 143.586 1725.21 143.554 1725.3 143.554H1725.7ZM1726.25 146.173L1725.51 144.058H1725.5L1724.75 146.173H1726.26H1726.25Z" fill="white"/>
<path d="M1729.11 147.247H1730.91C1730.97 147.247 1731 147.279 1731 147.336V147.621C1731 147.694 1730.97 147.719 1730.91 147.719H1728.69C1728.62 147.719 1728.6 147.686 1728.6 147.621V143.651C1728.6 143.586 1728.63 143.554 1728.69 143.554H1729C1729.07 143.554 1729.1 143.586 1729.1 143.651V147.247H1729.11Z" fill="white"/>
<path d="M1735.03 145.823H1732.9V147.613C1732.9 147.686 1732.87 147.711 1732.8 147.711H1732.49C1732.42 147.711 1732.4 147.678 1732.4 147.613V143.643C1732.4 143.578 1732.43 143.546 1732.49 143.546H1732.8C1732.87 143.546 1732.9 143.578 1732.9 143.643V145.352H1735.03V143.643C1735.03 143.578 1735.06 143.546 1735.13 143.546H1735.44C1735.51 143.546 1735.54 143.578 1735.54 143.643V147.613C1735.54 147.686 1735.51 147.711 1735.44 147.711H1735.13C1735.06 147.711 1735.03 147.678 1735.03 147.613V145.823Z" fill="white"/>
<path d="M1738.85 143.554C1738.94 143.554 1738.95 143.586 1738.98 143.651L1740.47 147.621C1740.48 147.678 1740.46 147.719 1740.39 147.719H1740.05C1739.99 147.719 1739.96 147.686 1739.94 147.629L1739.56 146.637H1737.74L1737.37 147.629C1737.34 147.686 1737.33 147.719 1737.26 147.719H1736.91C1736.85 147.719 1736.82 147.67 1736.83 147.621L1738.32 143.651C1738.34 143.586 1738.36 143.554 1738.45 143.554H1738.85ZM1739.39 146.173L1738.65 144.058H1738.64L1737.9 146.173H1739.4H1739.39Z" fill="white"/>
<path d="M1744.91 147.621C1744.91 147.694 1744.88 147.719 1744.82 147.719H1744.49C1744.42 147.719 1744.39 147.694 1744.35 147.637L1742.26 144.392V147.613C1742.26 147.686 1742.22 147.711 1742.16 147.711H1741.86C1741.78 147.711 1741.76 147.678 1741.76 147.613V143.643C1741.76 143.578 1741.79 143.546 1741.86 143.546H1742.17C1742.25 143.546 1742.28 143.562 1742.32 143.619L1744.42 146.865V143.643C1744.42 143.578 1744.45 143.546 1744.52 143.546H1744.82C1744.88 143.546 1744.91 143.578 1744.91 143.635V147.613V147.621Z" fill="white"/>
<path d="M1746.66 147.719C1746.59 147.719 1746.56 147.686 1746.56 147.621V143.651C1746.56 143.586 1746.6 143.554 1746.66 143.554H1747.69C1749 143.554 1749.77 144.066 1749.77 145.563C1749.77 147.206 1749 147.719 1747.69 147.719H1746.67H1746.66ZM1747.07 144.026V147.247H1747.68C1748.65 147.247 1749.23 146.913 1749.23 145.563C1749.23 144.351 1748.64 144.026 1747.66 144.026H1747.06H1747.07Z" fill="white"/>
<path d="M1754.59 145.636C1754.59 147.011 1753.96 147.783 1752.8 147.783C1751.63 147.783 1751.01 147.019 1751.01 145.636C1751.01 144.253 1751.64 143.488 1752.8 143.488C1753.95 143.488 1754.59 144.261 1754.59 145.636M1754.07 145.636C1754.07 144.554 1753.66 143.952 1752.81 143.952C1751.95 143.952 1751.54 144.554 1751.54 145.636C1751.54 146.718 1751.95 147.32 1752.81 147.32C1753.66 147.32 1754.07 146.718 1754.07 145.636Z" fill="white"/>
<path d="M1758.53 147.719C1758.45 147.719 1758.43 147.686 1758.43 147.621V143.651C1758.43 143.586 1758.46 143.554 1758.53 143.554H1759.68C1760.87 143.554 1761.42 143.969 1761.42 145.002C1761.42 146.035 1760.87 146.442 1759.68 146.442H1758.94V147.621C1758.94 147.686 1758.91 147.719 1758.84 147.719H1758.53H1758.53ZM1759.66 145.978C1760.51 145.978 1760.88 145.726 1760.88 145.002C1760.88 144.278 1760.52 144.017 1759.66 144.017H1758.92V145.97H1759.66V145.978Z" fill="white"/>
<path d="M1764.27 143.554C1764.36 143.554 1764.38 143.586 1764.4 143.651L1765.89 147.621C1765.9 147.678 1765.88 147.719 1765.81 147.719H1765.47C1765.41 147.719 1765.38 147.686 1765.36 147.629L1764.99 146.637H1763.16L1762.79 147.629C1762.77 147.686 1762.75 147.719 1762.68 147.719H1762.34C1762.27 147.719 1762.24 147.67 1762.25 147.621L1763.74 143.651C1763.77 143.586 1763.78 143.554 1763.87 143.554H1764.27ZM1764.82 146.173L1764.08 144.058H1764.08L1763.33 146.173H1764.83H1764.82Z" fill="white"/>
<path d="M1768.49 143.554C1769.64 143.554 1770.17 143.985 1770.17 144.896C1770.17 145.677 1769.72 146.084 1768.97 146.173L1770.18 147.588C1770.22 147.645 1770.21 147.719 1770.12 147.719H1769.76C1769.68 147.719 1769.65 147.686 1769.61 147.637L1768.41 146.222H1767.69V147.621C1767.69 147.694 1767.66 147.719 1767.59 147.719H1767.28C1767.21 147.719 1767.19 147.686 1767.19 147.621V143.651C1767.19 143.586 1767.22 143.554 1767.28 143.554H1768.5H1768.49ZM1768.47 145.758C1769.36 145.758 1769.67 145.482 1769.67 144.896C1769.67 144.278 1769.32 144.026 1768.49 144.026H1767.7V145.758H1768.48H1768.47Z" fill="white"/>
<path d="M1773.18 143.554C1773.27 143.554 1773.28 143.586 1773.31 143.651L1774.79 147.621C1774.81 147.678 1774.79 147.719 1774.71 147.719H1774.37C1774.31 147.719 1774.28 147.686 1774.26 147.629L1773.88 146.637H1772.06L1771.69 147.629C1771.66 147.686 1771.65 147.719 1771.58 147.719H1771.23C1771.17 147.719 1771.14 147.67 1771.16 147.621L1772.65 143.651C1772.67 143.586 1772.69 143.554 1772.78 143.554H1773.18ZM1773.73 146.173L1772.99 144.058H1772.98L1772.23 146.173H1773.74H1773.73Z" fill="white"/>
<path d="M1778.12 143.643C1778.12 143.578 1778.15 143.546 1778.22 143.546H1780.91C1780.99 143.546 1781.01 143.578 1781.01 143.643V143.92C1781.01 143.985 1780.98 144.018 1780.91 144.018H1779.83V147.613C1779.83 147.686 1779.79 147.711 1779.73 147.711H1779.42C1779.35 147.711 1779.32 147.678 1779.32 147.613V144.018H1778.23C1778.17 144.018 1778.13 143.985 1778.13 143.92V143.643H1778.12Z" fill="white"/>
<path d="M1785.52 145.636C1785.52 147.011 1784.88 147.783 1783.72 147.783C1782.56 147.783 1781.93 147.019 1781.93 145.636C1781.93 144.253 1782.57 143.488 1783.72 143.488C1784.88 143.488 1785.51 144.261 1785.51 145.636M1785 145.636C1785 144.554 1784.58 143.952 1783.73 143.952C1782.88 143.952 1782.46 144.554 1782.46 145.636C1782.46 146.718 1782.88 147.32 1783.73 147.32C1784.58 147.32 1785 146.718 1785 145.636Z" fill="white"/>
<path d="M1787.07 147.719C1786.99 147.719 1786.97 147.686 1786.97 147.621V143.651C1786.97 143.586 1787 143.554 1787.07 143.554H1788.09C1789.41 143.554 1790.17 144.066 1790.17 145.563C1790.17 147.206 1789.41 147.719 1788.1 147.719H1787.08H1787.07ZM1787.48 144.026V147.247H1788.09C1789.07 147.247 1789.64 146.913 1789.64 145.563C1789.64 144.351 1789.06 144.026 1788.08 144.026H1787.47H1787.48Z" fill="white"/>
<path d="M1795.01 145.636C1795.01 147.011 1794.38 147.783 1793.21 147.783C1792.05 147.783 1791.43 147.019 1791.43 145.636C1791.43 144.253 1792.06 143.488 1793.21 143.488C1794.37 143.488 1795 144.261 1795 145.636M1794.48 145.636C1794.48 144.554 1794.07 143.952 1793.21 143.952C1792.36 143.952 1791.95 144.554 1791.95 145.636C1791.95 146.718 1792.36 147.32 1793.21 147.32C1794.07 147.32 1794.48 146.718 1794.48 145.636Z" fill="white"/>
<path d="M1797.45 147.767C1796.97 147.767 1796.51 147.686 1796.28 147.58C1796.22 147.548 1796.19 147.523 1796.2 147.466L1796.3 147.198C1796.31 147.141 1796.34 147.1 1796.42 147.141C1796.64 147.23 1797.01 147.312 1797.44 147.312C1798.08 147.312 1798.49 147.084 1798.49 146.645C1798.49 146.173 1798.02 145.994 1797.49 145.782C1796.86 145.53 1796.31 145.311 1796.31 144.562C1796.31 143.895 1796.74 143.48 1797.74 143.48C1798.19 143.48 1798.54 143.562 1798.76 143.651C1798.82 143.676 1798.85 143.708 1798.84 143.765L1798.74 144.025C1798.72 144.082 1798.7 144.107 1798.62 144.082C1798.41 144.001 1798.15 143.944 1797.77 143.944C1797.09 143.944 1796.81 144.156 1796.81 144.562C1796.81 145.026 1797.24 145.148 1797.75 145.368C1798.39 145.644 1799.01 145.888 1799.01 146.653C1799.01 147.417 1798.41 147.759 1797.45 147.759" fill="white"/>
<path d="M1704.67 185.774C1703.54 186.547 1702.04 186.929 1700.15 186.929C1698.01 186.929 1696.33 186.628 1695.13 186.026C1694.79 185.855 1694.67 185.628 1694.78 185.335L1695.33 183.854C1695.45 183.48 1695.69 183.366 1696.03 183.505C1697.15 183.968 1698.37 184.196 1699.71 184.196C1700.76 184.196 1701.59 184.033 1702.2 183.708C1702.81 183.383 1703.12 182.895 1703.12 182.252C1703.12 181.992 1703.06 181.748 1702.93 181.52C1702.8 181.292 1702.66 181.113 1702.51 180.975C1702.36 180.837 1702.11 180.674 1701.76 180.487C1701.4 180.3 1701.12 180.17 1700.91 180.08C1700.7 179.991 1700.35 179.86 1699.85 179.673C1699.22 179.437 1698.72 179.25 1698.37 179.096C1698.02 178.941 1697.59 178.713 1697.11 178.413C1696.63 178.112 1696.26 177.802 1696 177.485C1695.75 177.168 1695.52 176.761 1695.32 176.265C1695.13 175.769 1695.03 175.216 1695.03 174.598C1695.03 171.628 1696.99 170.148 1700.92 170.148C1702.69 170.148 1704.17 170.416 1705.34 170.961C1705.68 171.132 1705.8 171.36 1705.69 171.661L1705.15 173.101C1705.02 173.442 1704.76 173.548 1704.41 173.426C1703.54 173.085 1702.47 172.914 1701.22 172.914C1699.26 172.914 1698.28 173.499 1698.28 174.679C1698.28 175.378 1698.71 175.948 1699.59 176.395C1699.87 176.533 1700.46 176.786 1701.37 177.16C1701.89 177.363 1702.21 177.493 1702.35 177.558C1702.49 177.623 1702.78 177.754 1703.22 177.949C1703.66 178.152 1703.95 178.307 1704.1 178.413C1704.24 178.518 1704.48 178.689 1704.8 178.909C1705.13 179.128 1705.35 179.348 1705.48 179.543C1705.6 179.747 1705.75 179.991 1705.92 180.275C1706.09 180.56 1706.2 180.869 1706.27 181.203C1706.33 181.536 1706.36 181.902 1706.36 182.301C1706.36 183.846 1705.8 185.009 1704.67 185.782L1704.67 185.774Z" fill="white"/>
<path d="M1711.45 179.745V183.942H1718.03C1718.41 183.942 1718.6 184.129 1718.6 184.495V186.138C1718.6 186.529 1718.41 186.716 1718.03 186.716H1708.83C1708.44 186.716 1708.25 186.52 1708.25 186.138V170.951C1708.25 170.577 1708.44 170.398 1708.8 170.398H1717.93C1718.32 170.398 1718.51 170.585 1718.51 170.951V172.594C1718.51 172.977 1718.31 173.172 1717.93 173.172H1711.44V177.044H1717.63C1718 177.044 1718.18 177.239 1718.18 177.621V179.151C1718.18 179.533 1718 179.728 1717.63 179.728H1711.44L1711.45 179.745Z" fill="white"/>
<path d="M1730.94 183.429C1731.3 183.29 1731.56 183.396 1731.73 183.754L1732.38 185.194C1732.48 185.454 1732.38 185.69 1732.03 185.893C1730.92 186.617 1729.44 186.983 1727.61 186.983C1725.21 186.983 1723.36 186.276 1722.04 184.852C1720.72 183.429 1720.05 181.338 1720.05 178.572C1720.05 175.807 1720.71 173.708 1722.01 172.276C1723.32 170.845 1725.14 170.129 1727.49 170.129C1729.27 170.129 1730.73 170.479 1731.87 171.17C1732.2 171.39 1732.31 171.626 1732.2 171.886L1731.57 173.301C1731.44 173.659 1731.18 173.749 1730.79 173.578C1729.95 173.196 1729.02 173 1728.01 173C1726.43 173 1725.26 173.456 1724.49 174.367C1723.73 175.278 1723.35 176.677 1723.35 178.564C1723.35 180.451 1723.74 181.842 1724.52 182.745C1725.3 183.648 1726.5 184.104 1728.12 184.104C1729.17 184.104 1730.11 183.876 1730.95 183.429H1730.94Z" fill="white"/>
<path d="M1746.21 172.252C1747.47 173.676 1748.1 175.774 1748.1 178.556C1748.1 181.338 1747.47 183.437 1746.21 184.852C1744.95 186.268 1743.17 186.975 1740.85 186.975C1738.53 186.975 1736.77 186.268 1735.52 184.844C1734.26 183.421 1733.64 181.33 1733.64 178.564C1733.64 175.799 1734.26 173.684 1735.52 172.26C1736.78 170.837 1738.56 170.129 1740.86 170.129C1743.17 170.129 1744.95 170.837 1746.21 172.26L1746.21 172.252ZM1744.79 178.556C1744.79 174.814 1743.48 172.943 1740.87 172.943C1738.26 172.943 1736.93 174.814 1736.93 178.556C1736.93 182.298 1738.25 184.144 1740.87 184.144C1743.5 184.144 1744.79 182.282 1744.79 178.556Z" fill="white"/>
<path d="M1757.46 182.478L1753.36 175.751V186.138C1753.36 186.529 1753.17 186.716 1752.8 186.716H1750.79C1750.4 186.716 1750.21 186.52 1750.21 186.138V170.951C1750.21 170.577 1750.41 170.398 1750.79 170.398H1752.76C1753.08 170.398 1753.3 170.504 1753.43 170.724L1757.97 178.191L1762.52 170.724C1762.64 170.504 1762.86 170.398 1763.17 170.398H1765.16C1765.54 170.398 1765.74 170.585 1765.74 170.951V186.138C1765.74 186.529 1765.54 186.716 1765.16 186.716H1763.14C1762.77 186.716 1762.59 186.52 1762.59 186.138V175.751L1758.49 182.478C1758.37 182.681 1758.2 182.779 1757.98 182.779C1757.75 182.779 1757.58 182.681 1757.47 182.478H1757.46Z" fill="white"/>
</g>
</g>
<defs>
<clipPath id="clip0_2024_3330">
<rect width="1920" height="306" fill="white"/>
</clipPath>
<clipPath id="clip1_2024_3330">
<rect width="54.7268" height="56.614" fill="white" transform="translate(552.665 71.693)"/>
</clipPath>
<clipPath id="clip2_2024_3330">
<rect width="54.7268" height="54.7268" fill="white" transform="translate(698.604 72.6366)"/>
</clipPath>
<clipPath id="clip3_2024_3330">
<rect width="116.595" height="132.257" fill="white" transform="translate(1693.63 54.7268)"/>
</clipPath>
</defs>
</svg>
