<svg width="280" height="22" viewBox="0 0 280 22" fill="none" xmlns="http://www.w3.org/2000/svg">
<rect x="1.29883" y="1" width="277.403" height="20" rx="10" fill="white"/>
<rect x="1.29883" y="1" width="277.403" height="20" rx="10" stroke="#B8BCCC" stroke-width="2"/>
<rect x="9.29883" y="5.5" width="12" height="12" rx="6" fill="#00C661"/>
<path d="M15.2988 14.4167V8.58337M15.2988 8.58337L12.7988 11.0834M15.2988 8.58337L17.7988 11.0834" stroke="white" stroke-width="1.59943" stroke-linecap="round" stroke-linejoin="round"/>
<path d="M31.9986 10.648H33.6866C33.8146 10.648 33.8866 10.72 33.8866 10.848V13.408C33.8866 13.52 33.8226 13.616 33.7106 13.688C33.2626 13.96 32.6546 14.088 31.8866 14.088C30.0626 14.088 29.1506 13.12 29.1506 11.176C29.1506 9.24 30.0866 8.272 31.9586 8.272C32.6066 8.272 33.1426 8.4 33.5746 8.656C33.6946 8.72 33.7346 8.808 33.6946 8.904L33.4946 9.4C33.4466 9.528 33.3506 9.56 33.2226 9.496C32.8546 9.344 32.4786 9.264 32.1026 9.264C31.4626 9.264 30.9986 9.416 30.7106 9.72C30.4226 10.024 30.2866 10.504 30.2866 11.176C30.2866 11.856 30.4226 12.344 30.7026 12.648C30.9826 12.952 31.4226 13.096 32.0146 13.096C32.3506 13.096 32.6306 13.048 32.8706 12.936V11.52H31.9986C31.8626 11.52 31.7986 11.464 31.7986 11.336V10.848C31.7986 10.72 31.8626 10.648 31.9986 10.648ZM38.5034 11.208V13.816C38.5034 13.944 38.4394 14 38.3114 14H37.7194C37.6074 14 37.5434 13.952 37.5354 13.848L37.5034 13.416C37.2154 13.856 36.7354 14.072 36.0474 14.072C35.6234 14.072 35.2874 13.968 35.0474 13.752C34.7994 13.544 34.6794 13.24 34.6794 12.848C34.6794 12.624 34.7194 12.424 34.8154 12.256C34.9034 12.088 35.0234 11.952 35.1754 11.856C35.3274 11.76 35.5274 11.68 35.7754 11.616C36.0234 11.552 36.2794 11.512 36.5354 11.488C36.7914 11.464 37.1034 11.448 37.4714 11.44V11.256C37.4714 11.008 37.3994 10.824 37.2554 10.704C37.1114 10.592 36.8794 10.528 36.5594 10.528C36.1674 10.528 35.7674 10.608 35.3594 10.768C35.2474 10.808 35.1674 10.768 35.1274 10.656L34.9834 10.216C34.9514 10.12 34.9834 10.048 35.0954 9.992C35.5674 9.792 36.1034 9.688 36.6954 9.688C37.8954 9.688 38.5034 10.2 38.5034 11.208ZM37.4714 12.408V12.064C37.1674 12.08 36.9274 12.096 36.7354 12.112C36.5434 12.128 36.3594 12.168 36.1834 12.216C36.0074 12.264 35.8874 12.336 35.8074 12.432C35.7274 12.528 35.6874 12.64 35.6874 12.784C35.6874 12.96 35.7434 13.096 35.8714 13.192C35.9914 13.296 36.1674 13.344 36.3914 13.344C36.7434 13.344 37.0074 13.264 37.1914 13.088C37.3754 12.912 37.4714 12.688 37.4714 12.408ZM43.361 11.248V13.816C43.361 13.944 43.297 14 43.177 14H42.489C42.361 14 42.297 13.944 42.297 13.816V11.44C42.297 11.16 42.233 10.952 42.113 10.808C41.993 10.672 41.793 10.6 41.521 10.6C41.217 10.6 40.985 10.688 40.825 10.864C40.665 11.04 40.585 11.272 40.585 11.568V13.816C40.585 13.944 40.521 14 40.401 14H39.713C39.585 14 39.529 13.944 39.529 13.816V9.968C39.529 9.848 39.585 9.784 39.713 9.784H40.345C40.457 9.784 40.513 9.84 40.529 9.944L40.569 10.36C40.833 9.912 41.281 9.688 41.913 9.688C42.393 9.688 42.761 9.824 43.001 10.096C43.241 10.368 43.361 10.752 43.361 11.248ZM48.2762 11.256V13.816C48.2762 13.944 48.2122 14 48.0922 14H47.4042C47.2762 14 47.2202 13.944 47.2202 13.816V11.44C47.2202 11.16 47.1562 10.952 47.0362 10.808C46.9082 10.672 46.7082 10.6 46.4362 10.6C46.1322 10.6 45.8922 10.696 45.7322 10.872C45.5642 11.048 45.4842 11.28 45.4842 11.568V13.816C45.4842 13.944 45.4202 14 45.3002 14H44.6122C44.4842 14 44.4282 13.944 44.4282 13.816V8.544C44.4282 8.432 44.4842 8.368 44.6122 8.368H45.3002C45.4202 8.368 45.4842 8.432 45.4842 8.544V10.344C45.5802 10.168 45.7482 10.008 45.9722 9.88C46.1962 9.752 46.4762 9.688 46.8202 9.688C47.3082 9.688 47.6762 9.824 47.9162 10.096C48.1562 10.368 48.2762 10.76 48.2762 11.256ZM51.2062 14.088C50.5582 14.088 50.0462 13.904 49.6782 13.52C49.3102 13.144 49.1262 12.6 49.1262 11.888C49.1262 11.184 49.3102 10.64 49.6782 10.256C50.0462 9.88 50.5582 9.688 51.2062 9.688C51.8462 9.688 52.3582 9.88 52.7342 10.256C53.1022 10.64 53.2942 11.184 53.2942 11.888C53.2942 12.6 53.1022 13.144 52.7342 13.52C52.3582 13.904 51.8462 14.088 51.2062 14.088ZM51.2062 13.24C51.8782 13.24 52.2142 12.792 52.2142 11.888C52.2142 10.992 51.8782 10.536 51.2062 10.536C50.5342 10.536 50.2062 10.992 50.2062 11.888C50.2062 12.792 50.5342 13.24 51.2062 13.24ZM54.1216 12.56V9.968C54.1216 9.848 54.1856 9.784 54.3136 9.784H55.0016C55.1136 9.784 55.1776 9.848 55.1776 9.968V12.36C55.1776 12.632 55.2336 12.84 55.3456 12.984C55.4576 13.128 55.6496 13.192 55.9216 13.192C56.2096 13.192 56.4336 13.112 56.6016 12.936C56.7696 12.768 56.8576 12.536 56.8576 12.248V9.968C56.8576 9.848 56.9136 9.784 57.0416 9.784H57.7376C57.8496 9.784 57.9136 9.848 57.9136 9.968V13.816C57.9136 13.944 57.8496 14 57.7376 14H57.0976C56.9776 14 56.9136 13.952 56.9056 13.848L56.8736 13.416C56.6176 13.864 56.1776 14.088 55.5696 14.088C54.6016 14.088 54.1216 13.584 54.1216 12.56ZM62.3662 11.888C62.3662 12.784 62.7102 13.232 63.4062 13.232C63.7422 13.232 63.9982 13.128 64.1662 12.92C64.3262 12.712 64.4142 12.368 64.4142 11.888C64.4142 11.416 64.3262 11.072 64.1662 10.864C63.9982 10.656 63.7422 10.544 63.4062 10.544C62.7102 10.544 62.3662 10.992 62.3662 11.888ZM62.3182 9.944L62.3422 10.376C62.4542 10.168 62.6302 10 62.8862 9.872C63.1422 9.752 63.4142 9.688 63.7102 9.688C64.2702 9.688 64.7102 9.88 65.0222 10.248C65.3342 10.616 65.4942 11.168 65.4942 11.888C65.4942 12.616 65.3342 13.168 65.0222 13.536C64.7102 13.904 64.2702 14.088 63.7102 14.088C63.4062 14.088 63.1422 14.04 62.9022 13.928C62.6622 13.816 62.4862 13.656 62.3742 13.432V14.696C62.3742 14.824 62.3102 14.88 62.1902 14.88H61.5022C61.3742 14.88 61.3102 14.824 61.3102 14.696V9.968C61.3102 9.848 61.3742 9.784 61.5022 9.784H62.1262C62.2382 9.784 62.3022 9.84 62.3182 9.944ZM68.2687 14.088C67.6207 14.088 67.1087 13.904 66.7407 13.52C66.3727 13.144 66.1887 12.6 66.1887 11.888C66.1887 11.184 66.3727 10.64 66.7407 10.256C67.1087 9.88 67.6207 9.688 68.2687 9.688C68.9087 9.688 69.4207 9.88 69.7967 10.256C70.1647 10.64 70.3567 11.184 70.3567 11.888C70.3567 12.6 70.1647 13.144 69.7967 13.52C69.4207 13.904 68.9087 14.088 68.2687 14.088ZM68.2687 13.24C68.9407 13.24 69.2767 12.792 69.2767 11.888C69.2767 10.992 68.9407 10.536 68.2687 10.536C67.5967 10.536 67.2687 10.992 67.2687 11.888C67.2687 12.792 67.5967 13.24 68.2687 13.24ZM74.2161 12.864C74.2161 13.68 73.6401 14.088 72.4961 14.088C71.9521 14.088 71.4961 14.016 71.1121 13.856C71.0001 13.824 70.9601 13.752 70.9921 13.648L71.1121 13.232C71.1441 13.12 71.2161 13.08 71.3361 13.112C71.6641 13.232 72.0001 13.288 72.3361 13.288C72.6241 13.288 72.8321 13.256 72.9681 13.192C73.1041 13.128 73.1761 13.008 73.1761 12.84C73.1761 12.696 73.1041 12.584 72.9761 12.496C72.8481 12.416 72.6241 12.32 72.3201 12.208C71.8881 12.064 71.6001 11.936 71.4561 11.832C71.1521 11.624 71.0081 11.304 71.0081 10.88C71.0081 10.496 71.1441 10.2 71.4161 9.992C71.6881 9.792 72.0881 9.688 72.6081 9.688C73.1201 9.688 73.5521 9.768 73.9121 9.912C74.0161 9.96 74.0561 10.032 74.0241 10.128L73.9041 10.528C73.8721 10.648 73.7921 10.688 73.6801 10.648C73.3361 10.544 73.0321 10.488 72.7681 10.488C72.5121 10.488 72.3281 10.52 72.2161 10.584C72.1041 10.648 72.0481 10.76 72.0481 10.904C72.0481 11.016 72.0881 11.104 72.1681 11.184C72.2481 11.264 72.3361 11.32 72.4321 11.36C72.5281 11.408 72.6881 11.464 72.9121 11.536C73.3441 11.696 73.6641 11.864 73.8881 12.048C74.1041 12.24 74.2161 12.512 74.2161 12.864ZM76.1326 9.968V13.816C76.1326 13.944 76.0686 14 75.9486 14H75.2526C75.1246 14 75.0686 13.944 75.0686 13.816V9.968C75.0686 9.848 75.1246 9.784 75.2526 9.784H75.9486C76.0686 9.784 76.1326 9.848 76.1326 9.968ZM76.1326 8.568V9.128C76.1326 9.256 76.0686 9.312 75.9566 9.312H75.2446C75.1246 9.312 75.0686 9.256 75.0686 9.128V8.568C75.0686 8.448 75.1246 8.384 75.2446 8.384H75.9566C76.0686 8.384 76.1326 8.448 76.1326 8.568ZM77.0325 11.88C77.0325 11.176 77.2165 10.632 77.6005 10.256C77.9845 9.88 78.4965 9.688 79.1445 9.688C79.6725 9.688 80.0805 9.784 80.3765 9.96C80.4885 10.024 80.5205 10.112 80.4805 10.208L80.2885 10.64C80.2325 10.752 80.1445 10.784 80.0245 10.728C79.7925 10.632 79.5445 10.576 79.2725 10.576C78.9045 10.576 78.6165 10.688 78.4165 10.904C78.2085 11.12 78.1125 11.448 78.1125 11.88C78.1125 12.328 78.2085 12.656 78.4165 12.88C78.6165 13.104 78.8965 13.208 79.2565 13.208C79.5605 13.208 79.8325 13.144 80.0805 13.016C80.2005 12.968 80.2805 12.992 80.3285 13.104L80.5205 13.544C80.5525 13.64 80.5205 13.72 80.4085 13.792C80.1125 13.984 79.7205 14.08 79.2325 14.088C79.5445 14.248 79.7045 14.456 79.7045 14.712C79.7045 15.128 79.4085 15.336 78.8245 15.336C78.6485 15.336 78.5205 15.32 78.4485 15.288C78.3685 15.272 78.3365 15.232 78.3365 15.168V14.904C78.3365 14.84 78.3765 14.8 78.4565 14.8H78.6965C78.9525 14.8 79.0805 14.72 79.0805 14.552C79.0805 14.36 78.9285 14.192 78.6325 14.032C78.1285 13.936 77.7365 13.704 77.4565 13.336C77.1685 12.968 77.0325 12.488 77.0325 11.88ZM84.8628 11.208V13.816C84.8628 13.944 84.7988 14 84.6708 14H84.0788C83.9668 14 83.9028 13.952 83.8948 13.848L83.8628 13.416C83.5748 13.856 83.0948 14.072 82.4068 14.072C81.9828 14.072 81.6468 13.968 81.4068 13.752C81.1588 13.544 81.0388 13.24 81.0388 12.848C81.0388 12.624 81.0788 12.424 81.1748 12.256C81.2628 12.088 81.3828 11.952 81.5348 11.856C81.6868 11.76 81.8868 11.68 82.1348 11.616C82.3828 11.552 82.6388 11.512 82.8948 11.488C83.1508 11.464 83.4628 11.448 83.8308 11.44V11.256C83.8308 11.008 83.7588 10.824 83.6148 10.704C83.4708 10.592 83.2388 10.528 82.9188 10.528C82.5268 10.528 82.1268 10.608 81.7188 10.768C81.6068 10.808 81.5268 10.768 81.4868 10.656L81.3428 10.216C81.3108 10.12 81.3428 10.048 81.4548 9.992C81.9268 9.792 82.4628 9.688 83.0548 9.688C84.2548 9.688 84.8628 10.2 84.8628 11.208ZM83.8308 12.408V12.064C83.5268 12.08 83.2868 12.096 83.0948 12.112C82.9028 12.128 82.7188 12.168 82.5428 12.216C82.3668 12.264 82.2468 12.336 82.1668 12.432C82.0868 12.528 82.0468 12.64 82.0468 12.784C82.0468 12.96 82.1028 13.096 82.2308 13.192C82.3508 13.296 82.5268 13.344 82.7508 13.344C83.1028 13.344 83.3668 13.264 83.5508 13.088C83.7348 12.912 83.8308 12.688 83.8308 12.408ZM84.3908 8.648C84.3908 9.08 84.1908 9.288 83.8068 9.288C83.6148 9.288 83.3828 9.248 83.1268 9.152L82.8468 9.048C82.4948 8.92 82.3028 8.928 82.2788 9.08L82.2628 9.144C82.2468 9.224 82.1828 9.264 82.0868 9.264H81.8468C81.7828 9.264 81.7348 9.256 81.7108 9.224C81.6788 9.192 81.6708 9.136 81.6708 9.048C81.6708 8.616 81.8708 8.4 82.2708 8.4C82.4628 8.4 82.6868 8.448 82.9428 8.536L83.2308 8.64C83.4068 8.704 83.5348 8.736 83.6228 8.736C83.7188 8.736 83.7828 8.688 83.7988 8.592L83.8068 8.536C83.8148 8.456 83.8708 8.408 83.9828 8.408H84.2308C84.3348 8.408 84.3908 8.488 84.3908 8.648ZM87.7844 14.088C87.1364 14.088 86.6244 13.904 86.2564 13.52C85.8884 13.144 85.7044 12.6 85.7044 11.888C85.7044 11.184 85.8884 10.64 86.2564 10.256C86.6244 9.88 87.1364 9.688 87.7844 9.688C88.4244 9.688 88.9364 9.88 89.3124 10.256C89.6804 10.64 89.8724 11.184 89.8724 11.888C89.8724 12.6 89.6804 13.144 89.3124 13.52C88.9364 13.904 88.4244 14.088 87.7844 14.088ZM87.7844 13.24C88.4564 13.24 88.7924 12.792 88.7924 11.888C88.7924 10.992 88.4564 10.536 87.7844 10.536C87.1124 10.536 86.7844 10.992 86.7844 11.888C86.7844 12.792 87.1124 13.24 87.7844 13.24Z" fill="#050810"/>
<rect x="98.7666" y="5.5" width="12" height="12" rx="6" fill="#E8083F"/>
<path d="M104.767 8.58337V14.4167M104.767 14.4167L107.267 11.9167M104.767 14.4167L102.267 11.9167" stroke="white" stroke-width="1.59943" stroke-linecap="round" stroke-linejoin="round"/>
<path d="M119.938 11.408H120.746C121.186 11.408 121.506 11.328 121.706 11.168C121.898 11.008 122.002 10.744 122.002 10.368C122.002 10 121.898 9.728 121.706 9.568C121.506 9.408 121.186 9.328 120.746 9.328H119.938V11.408ZM119.738 14H119.026C118.89 14 118.826 13.936 118.826 13.8V8.56C118.826 8.432 118.89 8.368 119.018 8.368H120.754C121.554 8.368 122.154 8.528 122.546 8.84C122.93 9.16 123.13 9.664 123.13 10.368C123.13 11.08 122.93 11.592 122.546 11.904C122.154 12.216 121.554 12.368 120.754 12.368H119.938V13.8C119.938 13.936 119.866 14 119.738 14ZM126.211 13.312C126.579 13.312 126.923 13.232 127.259 13.064C127.371 13.016 127.451 13.048 127.499 13.176L127.635 13.552C127.659 13.656 127.619 13.736 127.515 13.784C127.099 13.992 126.635 14.096 126.123 14.096C125.411 14.096 124.859 13.904 124.459 13.52C124.059 13.136 123.867 12.592 123.867 11.896C123.867 11.2 124.043 10.656 124.411 10.272C124.779 9.888 125.275 9.688 125.907 9.688C126.515 9.688 126.995 9.872 127.331 10.24C127.667 10.608 127.835 11.088 127.835 11.696V12.088C127.835 12.216 127.771 12.28 127.643 12.28H124.915C124.955 12.6 125.091 12.856 125.315 13.04C125.539 13.224 125.843 13.312 126.211 13.312ZM125.923 10.472C125.283 10.472 124.939 10.856 124.891 11.608H126.875V11.56C126.875 11.224 126.787 10.952 126.627 10.76C126.467 10.568 126.227 10.472 125.923 10.472ZM128.9 9.784H129.532C129.644 9.784 129.708 9.84 129.724 9.952L129.764 10.584C129.852 10.376 130.012 10.184 130.236 10.008C130.46 9.84 130.724 9.752 131.036 9.752C131.092 9.752 131.132 9.768 131.156 9.784C131.18 9.808 131.196 9.848 131.196 9.912V10.656C131.196 10.752 131.14 10.8 131.044 10.8C131.02 10.8 130.98 10.8 130.932 10.792C130.876 10.792 130.828 10.784 130.788 10.784C130.492 10.784 130.252 10.904 130.06 11.144C129.868 11.384 129.772 11.656 129.772 11.976V13.816C129.772 13.944 129.708 14 129.588 14H128.9C128.772 14 128.708 13.944 128.708 13.816V9.968C128.708 9.848 128.772 9.784 128.9 9.784ZM134.839 11.888C134.839 10.992 134.487 10.544 133.799 10.544C133.463 10.544 133.207 10.656 133.039 10.864C132.871 11.072 132.791 11.416 132.791 11.888C132.791 12.368 132.871 12.712 133.039 12.92C133.207 13.128 133.463 13.232 133.799 13.232C134.487 13.232 134.839 12.784 134.839 11.888ZM134.887 13.848L134.863 13.408C134.751 13.632 134.567 13.8 134.319 13.912C134.063 14.032 133.791 14.088 133.495 14.088C132.927 14.088 132.487 13.904 132.175 13.536C131.863 13.168 131.711 12.616 131.711 11.888C131.711 11.168 131.863 10.616 132.175 10.248C132.487 9.88 132.927 9.688 133.495 9.688C133.783 9.688 134.047 9.752 134.295 9.864C134.543 9.984 134.719 10.144 134.831 10.352V8.544C134.831 8.432 134.887 8.368 135.015 8.368H135.703C135.831 8.368 135.895 8.432 135.895 8.544V13.816C135.895 13.944 135.831 14 135.703 14H135.079C134.959 14 134.895 13.952 134.887 13.848ZM139.133 13.312C139.501 13.312 139.845 13.232 140.181 13.064C140.293 13.016 140.373 13.048 140.421 13.176L140.557 13.552C140.581 13.656 140.541 13.736 140.437 13.784C140.021 13.992 139.557 14.096 139.045 14.096C138.333 14.096 137.781 13.904 137.381 13.52C136.981 13.136 136.789 12.592 136.789 11.896C136.789 11.2 136.965 10.656 137.333 10.272C137.701 9.888 138.197 9.688 138.829 9.688C139.437 9.688 139.917 9.872 140.253 10.24C140.589 10.608 140.757 11.088 140.757 11.696V12.088C140.757 12.216 140.693 12.28 140.565 12.28H137.837C137.877 12.6 138.013 12.856 138.237 13.04C138.461 13.224 138.765 13.312 139.133 13.312ZM138.845 10.472C138.205 10.472 137.861 10.856 137.813 11.608H139.797V11.56C139.797 11.224 139.709 10.952 139.549 10.76C139.389 10.568 139.149 10.472 138.845 10.472ZM141.582 12.56V9.968C141.582 9.848 141.646 9.784 141.774 9.784H142.462C142.574 9.784 142.638 9.848 142.638 9.968V12.36C142.638 12.632 142.694 12.84 142.806 12.984C142.918 13.128 143.11 13.192 143.382 13.192C143.67 13.192 143.894 13.112 144.062 12.936C144.23 12.768 144.318 12.536 144.318 12.248V9.968C144.318 9.848 144.374 9.784 144.502 9.784H145.198C145.31 9.784 145.374 9.848 145.374 9.968V13.816C145.374 13.944 145.31 14 145.198 14H144.558C144.438 14 144.374 13.952 144.366 13.848L144.334 13.416C144.078 13.864 143.638 14.088 143.03 14.088C142.062 14.088 141.582 13.584 141.582 12.56ZM149.826 11.888C149.826 12.784 150.17 13.232 150.866 13.232C151.202 13.232 151.458 13.128 151.626 12.92C151.786 12.712 151.874 12.368 151.874 11.888C151.874 11.416 151.786 11.072 151.626 10.864C151.458 10.656 151.202 10.544 150.866 10.544C150.17 10.544 149.826 10.992 149.826 11.888ZM149.778 9.944L149.802 10.376C149.914 10.168 150.09 10 150.346 9.872C150.602 9.752 150.874 9.688 151.17 9.688C151.73 9.688 152.17 9.88 152.482 10.248C152.794 10.616 152.954 11.168 152.954 11.888C152.954 12.616 152.794 13.168 152.482 13.536C152.17 13.904 151.73 14.088 151.17 14.088C150.866 14.088 150.602 14.04 150.362 13.928C150.122 13.816 149.946 13.656 149.834 13.432V14.696C149.834 14.824 149.77 14.88 149.65 14.88H148.962C148.834 14.88 148.77 14.824 148.77 14.696V9.968C148.77 9.848 148.834 9.784 148.962 9.784H149.586C149.698 9.784 149.762 9.84 149.778 9.944ZM155.729 14.088C155.081 14.088 154.569 13.904 154.201 13.52C153.833 13.144 153.649 12.6 153.649 11.888C153.649 11.184 153.833 10.64 154.201 10.256C154.569 9.88 155.081 9.688 155.729 9.688C156.369 9.688 156.881 9.88 157.257 10.256C157.625 10.64 157.817 11.184 157.817 11.888C157.817 12.6 157.625 13.144 157.257 13.52C156.881 13.904 156.369 14.088 155.729 14.088ZM155.729 13.24C156.401 13.24 156.737 12.792 156.737 11.888C156.737 10.992 156.401 10.536 155.729 10.536C155.057 10.536 154.729 10.992 154.729 11.888C154.729 12.792 155.057 13.24 155.729 13.24ZM161.676 12.864C161.676 13.68 161.1 14.088 159.956 14.088C159.412 14.088 158.956 14.016 158.572 13.856C158.46 13.824 158.42 13.752 158.452 13.648L158.572 13.232C158.604 13.12 158.676 13.08 158.796 13.112C159.124 13.232 159.46 13.288 159.796 13.288C160.084 13.288 160.292 13.256 160.428 13.192C160.564 13.128 160.636 13.008 160.636 12.84C160.636 12.696 160.564 12.584 160.436 12.496C160.308 12.416 160.084 12.32 159.78 12.208C159.348 12.064 159.06 11.936 158.916 11.832C158.612 11.624 158.468 11.304 158.468 10.88C158.468 10.496 158.604 10.2 158.876 9.992C159.148 9.792 159.548 9.688 160.068 9.688C160.58 9.688 161.012 9.768 161.372 9.912C161.476 9.96 161.516 10.032 161.484 10.128L161.364 10.528C161.332 10.648 161.252 10.688 161.14 10.648C160.796 10.544 160.492 10.488 160.228 10.488C159.972 10.488 159.788 10.52 159.676 10.584C159.564 10.648 159.508 10.76 159.508 10.904C159.508 11.016 159.548 11.104 159.628 11.184C159.708 11.264 159.796 11.32 159.892 11.36C159.988 11.408 160.148 11.464 160.372 11.536C160.804 11.696 161.124 11.864 161.348 12.048C161.564 12.24 161.676 12.512 161.676 12.864ZM163.593 9.968V13.816C163.593 13.944 163.529 14 163.409 14H162.713C162.585 14 162.529 13.944 162.529 13.816V9.968C162.529 9.848 162.585 9.784 162.713 9.784H163.409C163.529 9.784 163.593 9.848 163.593 9.968ZM163.593 8.568V9.128C163.593 9.256 163.529 9.312 163.417 9.312H162.705C162.585 9.312 162.529 9.256 162.529 9.128V8.568C162.529 8.448 162.585 8.384 162.705 8.384H163.417C163.529 8.384 163.593 8.448 163.593 8.568ZM164.492 11.88C164.492 11.176 164.676 10.632 165.06 10.256C165.444 9.88 165.956 9.688 166.604 9.688C167.132 9.688 167.54 9.784 167.836 9.96C167.948 10.024 167.98 10.112 167.94 10.208L167.748 10.64C167.692 10.752 167.604 10.784 167.484 10.728C167.252 10.632 167.004 10.576 166.732 10.576C166.364 10.576 166.076 10.688 165.876 10.904C165.668 11.12 165.572 11.448 165.572 11.88C165.572 12.328 165.668 12.656 165.876 12.88C166.076 13.104 166.356 13.208 166.716 13.208C167.02 13.208 167.292 13.144 167.54 13.016C167.66 12.968 167.74 12.992 167.788 13.104L167.98 13.544C168.012 13.64 167.98 13.72 167.868 13.792C167.572 13.984 167.18 14.08 166.692 14.088C167.004 14.248 167.164 14.456 167.164 14.712C167.164 15.128 166.868 15.336 166.284 15.336C166.108 15.336 165.98 15.32 165.908 15.288C165.828 15.272 165.796 15.232 165.796 15.168V14.904C165.796 14.84 165.836 14.8 165.916 14.8H166.156C166.412 14.8 166.54 14.72 166.54 14.552C166.54 14.36 166.388 14.192 166.092 14.032C165.588 13.936 165.196 13.704 164.916 13.336C164.628 12.968 164.492 12.488 164.492 11.88ZM172.323 11.208V13.816C172.323 13.944 172.259 14 172.131 14H171.539C171.427 14 171.363 13.952 171.355 13.848L171.323 13.416C171.035 13.856 170.555 14.072 169.867 14.072C169.443 14.072 169.107 13.968 168.867 13.752C168.619 13.544 168.499 13.24 168.499 12.848C168.499 12.624 168.539 12.424 168.635 12.256C168.723 12.088 168.843 11.952 168.995 11.856C169.147 11.76 169.347 11.68 169.595 11.616C169.843 11.552 170.099 11.512 170.355 11.488C170.611 11.464 170.923 11.448 171.291 11.44V11.256C171.291 11.008 171.219 10.824 171.075 10.704C170.931 10.592 170.699 10.528 170.379 10.528C169.987 10.528 169.587 10.608 169.179 10.768C169.067 10.808 168.987 10.768 168.947 10.656L168.803 10.216C168.771 10.12 168.803 10.048 168.915 9.992C169.387 9.792 169.923 9.688 170.515 9.688C171.715 9.688 172.323 10.2 172.323 11.208ZM171.291 12.408V12.064C170.987 12.08 170.747 12.096 170.555 12.112C170.363 12.128 170.179 12.168 170.003 12.216C169.827 12.264 169.707 12.336 169.627 12.432C169.547 12.528 169.507 12.64 169.507 12.784C169.507 12.96 169.563 13.096 169.691 13.192C169.811 13.296 169.987 13.344 170.211 13.344C170.563 13.344 170.827 13.264 171.011 13.088C171.195 12.912 171.291 12.688 171.291 12.408ZM171.851 8.648C171.851 9.08 171.651 9.288 171.267 9.288C171.075 9.288 170.843 9.248 170.587 9.152L170.307 9.048C169.955 8.92 169.763 8.928 169.739 9.08L169.723 9.144C169.707 9.224 169.643 9.264 169.547 9.264H169.307C169.243 9.264 169.195 9.256 169.171 9.224C169.139 9.192 169.131 9.136 169.131 9.048C169.131 8.616 169.331 8.4 169.731 8.4C169.923 8.4 170.147 8.448 170.403 8.536L170.691 8.64C170.867 8.704 170.995 8.736 171.083 8.736C171.179 8.736 171.243 8.688 171.259 8.592L171.267 8.536C171.275 8.456 171.331 8.408 171.443 8.408H171.691C171.795 8.408 171.851 8.488 171.851 8.648ZM175.244 14.088C174.596 14.088 174.084 13.904 173.716 13.52C173.348 13.144 173.164 12.6 173.164 11.888C173.164 11.184 173.348 10.64 173.716 10.256C174.084 9.88 174.596 9.688 175.244 9.688C175.884 9.688 176.396 9.88 176.772 10.256C177.14 10.64 177.332 11.184 177.332 11.888C177.332 12.6 177.14 13.144 176.772 13.52C176.396 13.904 175.884 14.088 175.244 14.088ZM175.244 13.24C175.916 13.24 176.252 12.792 176.252 11.888C176.252 10.992 175.916 10.536 175.244 10.536C174.572 10.536 174.244 10.992 174.244 11.888C174.244 12.792 174.572 13.24 175.244 13.24Z" fill="#050810"/>
<rect x="186.234" y="5.5" width="12" height="12" rx="6" fill="#52586E"/>
<path d="M189.317 9.91679V13.0835C189.317 13.5502 189.317 13.7832 189.408 13.9615C189.488 14.1183 189.615 14.2461 189.772 14.326C189.95 14.4167 190.184 14.4167 190.649 14.4167H193.819C194.285 14.4167 194.518 14.4167 194.696 14.326C194.852 14.2461 194.98 14.1183 195.06 13.9615C195.151 13.7834 195.151 13.5505 195.151 13.0847V9.91542C195.151 9.44962 195.151 9.21637 195.06 9.03829C194.98 8.88149 194.852 8.7541 194.696 8.6742C194.517 8.58337 194.284 8.58337 193.817 8.58337H190.651C190.184 8.58337 189.951 8.58337 189.772 8.6742C189.615 8.7541 189.488 8.88149 189.408 9.03829C189.317 9.21655 189.317 9.45008 189.317 9.91679Z" fill="white"/>
<path d="M208.974 12.64C208.894 12.64 208.83 12.608 208.798 12.536L207.382 10.216V13.8C207.382 13.936 207.318 14 207.19 14H206.494C206.358 14 206.294 13.936 206.294 13.8V8.56C206.294 8.432 206.358 8.368 206.494 8.368H207.174C207.286 8.368 207.358 8.408 207.406 8.48L208.974 11.056L210.542 8.48C210.582 8.408 210.654 8.368 210.766 8.368H211.454C211.582 8.368 211.654 8.432 211.654 8.56V13.8C211.654 13.936 211.582 14 211.454 14H210.758C210.63 14 210.566 13.936 210.566 13.8V10.216L209.15 12.536C209.102 12.608 209.046 12.64 208.974 12.64ZM216.353 11.208V13.816C216.353 13.944 216.289 14 216.161 14H215.569C215.457 14 215.393 13.952 215.385 13.848L215.353 13.416C215.065 13.856 214.585 14.072 213.897 14.072C213.473 14.072 213.137 13.968 212.897 13.752C212.649 13.544 212.529 13.24 212.529 12.848C212.529 12.624 212.569 12.424 212.665 12.256C212.753 12.088 212.873 11.952 213.025 11.856C213.177 11.76 213.377 11.68 213.625 11.616C213.873 11.552 214.129 11.512 214.385 11.488C214.641 11.464 214.953 11.448 215.321 11.44V11.256C215.321 11.008 215.249 10.824 215.105 10.704C214.961 10.592 214.729 10.528 214.409 10.528C214.017 10.528 213.617 10.608 213.209 10.768C213.097 10.808 213.017 10.768 212.977 10.656L212.833 10.216C212.801 10.12 212.833 10.048 212.945 9.992C213.417 9.792 213.953 9.688 214.545 9.688C215.745 9.688 216.353 10.2 216.353 11.208ZM215.321 12.408V12.064C215.017 12.08 214.777 12.096 214.585 12.112C214.393 12.128 214.209 12.168 214.033 12.216C213.857 12.264 213.737 12.336 213.657 12.432C213.577 12.528 213.537 12.64 213.537 12.784C213.537 12.96 213.593 13.096 213.721 13.192C213.841 13.296 214.017 13.344 214.241 13.344C214.593 13.344 214.857 13.264 215.041 13.088C215.225 12.912 215.321 12.688 215.321 12.408ZM221.21 11.248V13.816C221.21 13.944 221.146 14 221.026 14H220.338C220.21 14 220.146 13.944 220.146 13.816V11.44C220.146 11.16 220.082 10.952 219.962 10.808C219.842 10.672 219.642 10.6 219.37 10.6C219.066 10.6 218.834 10.688 218.674 10.864C218.514 11.04 218.434 11.272 218.434 11.568V13.816C218.434 13.944 218.37 14 218.25 14H217.562C217.434 14 217.378 13.944 217.378 13.816V9.968C217.378 9.848 217.434 9.784 217.562 9.784H218.194C218.306 9.784 218.362 9.84 218.378 9.944L218.418 10.36C218.682 9.912 219.13 9.688 219.762 9.688C220.242 9.688 220.61 9.824 220.85 10.096C221.09 10.368 221.21 10.752 221.21 11.248ZM224.357 10.68H223.477V12.624C223.477 12.856 223.509 13.016 223.589 13.096C223.661 13.184 223.805 13.224 224.029 13.224C224.061 13.224 224.173 13.216 224.365 13.184C224.413 13.184 224.453 13.192 224.477 13.216C224.501 13.248 224.517 13.288 224.525 13.344L224.573 13.792C224.573 13.888 224.525 13.944 224.421 13.976C224.245 14.04 224.021 14.064 223.749 14.064C223.277 14.064 222.941 13.968 222.741 13.76C222.533 13.56 222.437 13.216 222.437 12.736V10.68H221.997C221.869 10.68 221.805 10.624 221.805 10.496V10.048C221.805 9.928 221.869 9.864 221.997 9.864H222.453V8.88C222.453 8.768 222.509 8.712 222.637 8.712H223.277C223.405 8.712 223.469 8.768 223.469 8.88V9.864H224.357C224.477 9.864 224.541 9.928 224.541 10.048V10.496C224.541 10.624 224.477 10.68 224.357 10.68ZM227.397 13.312C227.765 13.312 228.109 13.232 228.445 13.064C228.557 13.016 228.637 13.048 228.685 13.176L228.821 13.552C228.845 13.656 228.805 13.736 228.701 13.784C228.285 13.992 227.821 14.096 227.309 14.096C226.597 14.096 226.045 13.904 225.645 13.52C225.245 13.136 225.053 12.592 225.053 11.896C225.053 11.2 225.229 10.656 225.597 10.272C225.965 9.888 226.461 9.688 227.093 9.688C227.701 9.688 228.181 9.872 228.517 10.24C228.853 10.608 229.021 11.088 229.021 11.696V12.088C229.021 12.216 228.957 12.28 228.829 12.28H226.101C226.141 12.6 226.277 12.856 226.501 13.04C226.725 13.224 227.029 13.312 227.397 13.312ZM227.109 10.472C226.469 10.472 226.125 10.856 226.077 11.608H228.061V11.56C228.061 11.224 227.973 10.952 227.813 10.76C227.653 10.568 227.413 10.472 227.109 10.472ZM231.926 14H231.142C231.022 14 230.942 13.952 230.91 13.848L229.534 9.992C229.486 9.856 229.534 9.784 229.678 9.784H230.382C230.494 9.784 230.566 9.848 230.598 9.96L231.198 11.776L231.526 12.944H231.55L231.878 11.776L232.47 9.96C232.502 9.848 232.574 9.784 232.686 9.784H233.406C233.47 9.784 233.51 9.808 233.534 9.848C233.558 9.888 233.558 9.936 233.542 9.992L232.158 13.848C232.118 13.952 232.038 14 231.926 14ZM236.288 13.312C236.656 13.312 237 13.232 237.336 13.064C237.448 13.016 237.528 13.048 237.576 13.176L237.712 13.552C237.736 13.656 237.696 13.736 237.592 13.784C237.176 13.992 236.712 14.096 236.2 14.096C235.488 14.096 234.936 13.904 234.536 13.52C234.136 13.136 233.944 12.592 233.944 11.896C233.944 11.2 234.12 10.656 234.488 10.272C234.856 9.888 235.352 9.688 235.984 9.688C236.592 9.688 237.072 9.872 237.408 10.24C237.744 10.608 237.912 11.088 237.912 11.696V12.088C237.912 12.216 237.848 12.28 237.72 12.28H234.992C235.032 12.6 235.168 12.856 235.392 13.04C235.616 13.224 235.92 13.312 236.288 13.312ZM236 10.472C235.36 10.472 235.016 10.856 234.968 11.608H236.952V11.56C236.952 11.224 236.864 10.952 236.704 10.76C236.544 10.568 236.304 10.472 236 10.472ZM242.176 11.888C242.176 12.784 242.52 13.232 243.216 13.232C243.552 13.232 243.808 13.128 243.976 12.92C244.136 12.712 244.224 12.368 244.224 11.888C244.224 11.416 244.136 11.072 243.976 10.864C243.808 10.656 243.552 10.544 243.216 10.544C242.52 10.544 242.176 10.992 242.176 11.888ZM242.128 9.944L242.152 10.376C242.264 10.168 242.44 10 242.696 9.872C242.952 9.752 243.224 9.688 243.52 9.688C244.08 9.688 244.52 9.88 244.832 10.248C245.144 10.616 245.304 11.168 245.304 11.888C245.304 12.616 245.144 13.168 244.832 13.536C244.52 13.904 244.08 14.088 243.52 14.088C243.216 14.088 242.952 14.04 242.712 13.928C242.472 13.816 242.296 13.656 242.184 13.432V14.696C242.184 14.824 242.12 14.88 242 14.88H241.312C241.184 14.88 241.12 14.824 241.12 14.696V9.968C241.12 9.848 241.184 9.784 241.312 9.784H241.936C242.048 9.784 242.112 9.84 242.128 9.944ZM248.079 14.088C247.431 14.088 246.919 13.904 246.551 13.52C246.183 13.144 245.999 12.6 245.999 11.888C245.999 11.184 246.183 10.64 246.551 10.256C246.919 9.88 247.431 9.688 248.079 9.688C248.719 9.688 249.231 9.88 249.607 10.256C249.975 10.64 250.167 11.184 250.167 11.888C250.167 12.6 249.975 13.144 249.607 13.52C249.231 13.904 248.719 14.088 248.079 14.088ZM248.079 13.24C248.751 13.24 249.087 12.792 249.087 11.888C249.087 10.992 248.751 10.536 248.079 10.536C247.407 10.536 247.079 10.992 247.079 11.888C247.079 12.792 247.407 13.24 248.079 13.24ZM254.026 12.864C254.026 13.68 253.45 14.088 252.306 14.088C251.762 14.088 251.306 14.016 250.922 13.856C250.81 13.824 250.77 13.752 250.802 13.648L250.922 13.232C250.954 13.12 251.026 13.08 251.146 13.112C251.474 13.232 251.81 13.288 252.146 13.288C252.434 13.288 252.642 13.256 252.778 13.192C252.914 13.128 252.986 13.008 252.986 12.84C252.986 12.696 252.914 12.584 252.786 12.496C252.658 12.416 252.434 12.32 252.13 12.208C251.698 12.064 251.41 11.936 251.266 11.832C250.962 11.624 250.818 11.304 250.818 10.88C250.818 10.496 250.954 10.2 251.226 9.992C251.498 9.792 251.898 9.688 252.418 9.688C252.93 9.688 253.362 9.768 253.722 9.912C253.826 9.96 253.866 10.032 253.834 10.128L253.714 10.528C253.682 10.648 253.602 10.688 253.49 10.648C253.146 10.544 252.842 10.488 252.578 10.488C252.322 10.488 252.138 10.52 252.026 10.584C251.914 10.648 251.858 10.76 251.858 10.904C251.858 11.016 251.898 11.104 251.978 11.184C252.058 11.264 252.146 11.32 252.242 11.36C252.338 11.408 252.498 11.464 252.722 11.536C253.154 11.696 253.474 11.864 253.698 12.048C253.914 12.24 254.026 12.512 254.026 12.864ZM255.943 9.968V13.816C255.943 13.944 255.879 14 255.759 14H255.063C254.935 14 254.879 13.944 254.879 13.816V9.968C254.879 9.848 254.935 9.784 255.063 9.784H255.759C255.879 9.784 255.943 9.848 255.943 9.968ZM255.943 8.568V9.128C255.943 9.256 255.879 9.312 255.767 9.312H255.055C254.935 9.312 254.879 9.256 254.879 9.128V8.568C254.879 8.448 254.935 8.384 255.055 8.384H255.767C255.879 8.384 255.943 8.448 255.943 8.568ZM256.843 11.88C256.843 11.176 257.027 10.632 257.411 10.256C257.795 9.88 258.307 9.688 258.955 9.688C259.483 9.688 259.891 9.784 260.187 9.96C260.299 10.024 260.331 10.112 260.291 10.208L260.099 10.64C260.043 10.752 259.955 10.784 259.835 10.728C259.603 10.632 259.355 10.576 259.083 10.576C258.715 10.576 258.427 10.688 258.227 10.904C258.019 11.12 257.923 11.448 257.923 11.88C257.923 12.328 258.019 12.656 258.227 12.88C258.427 13.104 258.707 13.208 259.067 13.208C259.371 13.208 259.643 13.144 259.891 13.016C260.011 12.968 260.091 12.992 260.139 13.104L260.331 13.544C260.363 13.64 260.331 13.72 260.219 13.792C259.923 13.984 259.531 14.08 259.043 14.088C259.355 14.248 259.515 14.456 259.515 14.712C259.515 15.128 259.219 15.336 258.635 15.336C258.459 15.336 258.331 15.32 258.259 15.288C258.179 15.272 258.147 15.232 258.147 15.168V14.904C258.147 14.84 258.187 14.8 258.267 14.8H258.507C258.763 14.8 258.891 14.72 258.891 14.552C258.891 14.36 258.739 14.192 258.443 14.032C257.939 13.936 257.547 13.704 257.267 13.336C256.979 12.968 256.843 12.488 256.843 11.88ZM264.673 11.208V13.816C264.673 13.944 264.609 14 264.481 14H263.889C263.777 14 263.713 13.952 263.705 13.848L263.673 13.416C263.385 13.856 262.905 14.072 262.217 14.072C261.793 14.072 261.457 13.968 261.217 13.752C260.969 13.544 260.849 13.24 260.849 12.848C260.849 12.624 260.889 12.424 260.985 12.256C261.073 12.088 261.193 11.952 261.345 11.856C261.497 11.76 261.697 11.68 261.945 11.616C262.193 11.552 262.449 11.512 262.705 11.488C262.961 11.464 263.273 11.448 263.641 11.44V11.256C263.641 11.008 263.569 10.824 263.425 10.704C263.281 10.592 263.049 10.528 262.729 10.528C262.337 10.528 261.937 10.608 261.529 10.768C261.417 10.808 261.337 10.768 261.297 10.656L261.153 10.216C261.121 10.12 261.153 10.048 261.265 9.992C261.737 9.792 262.273 9.688 262.865 9.688C264.065 9.688 264.673 10.2 264.673 11.208ZM263.641 12.408V12.064C263.337 12.08 263.097 12.096 262.905 12.112C262.713 12.128 262.529 12.168 262.353 12.216C262.177 12.264 262.057 12.336 261.977 12.432C261.897 12.528 261.857 12.64 261.857 12.784C261.857 12.96 261.913 13.096 262.041 13.192C262.161 13.296 262.337 13.344 262.561 13.344C262.913 13.344 263.177 13.264 263.361 13.088C263.545 12.912 263.641 12.688 263.641 12.408ZM264.201 8.648C264.201 9.08 264.001 9.288 263.617 9.288C263.425 9.288 263.193 9.248 262.937 9.152L262.657 9.048C262.305 8.92 262.113 8.928 262.089 9.08L262.073 9.144C262.057 9.224 261.993 9.264 261.897 9.264H261.657C261.593 9.264 261.545 9.256 261.521 9.224C261.489 9.192 261.481 9.136 261.481 9.048C261.481 8.616 261.681 8.4 262.081 8.4C262.273 8.4 262.497 8.448 262.753 8.536L263.041 8.64C263.217 8.704 263.345 8.736 263.433 8.736C263.529 8.736 263.593 8.688 263.609 8.592L263.617 8.536C263.625 8.456 263.681 8.408 263.793 8.408H264.041C264.145 8.408 264.201 8.488 264.201 8.648ZM267.594 14.088C266.946 14.088 266.434 13.904 266.066 13.52C265.698 13.144 265.514 12.6 265.514 11.888C265.514 11.184 265.698 10.64 266.066 10.256C266.434 9.88 266.946 9.688 267.594 9.688C268.234 9.688 268.746 9.88 269.122 10.256C269.49 10.64 269.682 11.184 269.682 11.888C269.682 12.6 269.49 13.144 269.122 13.52C268.746 13.904 268.234 14.088 267.594 14.088ZM267.594 13.24C268.266 13.24 268.602 12.792 268.602 11.888C268.602 10.992 268.266 10.536 267.594 10.536C266.922 10.536 266.594 10.992 266.594 11.888C266.594 12.792 266.922 13.24 267.594 13.24Z" fill="#050810"/>
</svg>
