<svg width="187" height="22" viewBox="0 0 187 22" fill="none" xmlns="http://www.w3.org/2000/svg">
<rect x="1" y="1" width="184.935" height="20" rx="10" fill="white"/>
<rect x="1" y="1" width="184.935" height="20" rx="10" stroke="#B8BCCC" stroke-width="2"/>
<rect x="9" y="5.5" width="12" height="12" rx="6" fill="#00C661"/>
<path d="M15 14.4166V8.58325M15 8.58325L12.5 11.0833M15 8.58325L17.5 11.0833" stroke="white" stroke-width="1.59943" stroke-linecap="round" stroke-linejoin="round"/>
<path d="M31.6998 10.648H33.3878C33.5158 10.648 33.5878 10.72 33.5878 10.848V13.408C33.5878 13.52 33.5238 13.616 33.4118 13.688C32.9638 13.96 32.3558 14.088 31.5878 14.088C29.7638 14.088 28.8518 13.12 28.8518 11.176C28.8518 9.24 29.7878 8.272 31.6598 8.272C32.3078 8.272 32.8438 8.4 33.2758 8.656C33.3958 8.72 33.4358 8.808 33.3958 8.904L33.1958 9.4C33.1478 9.528 33.0518 9.56 32.9238 9.496C32.5558 9.344 32.1798 9.264 31.8038 9.264C31.1638 9.264 30.6998 9.416 30.4118 9.72C30.1238 10.024 29.9878 10.504 29.9878 11.176C29.9878 11.856 30.1238 12.344 30.4038 12.648C30.6838 12.952 31.1238 13.096 31.7158 13.096C32.0518 13.096 32.3318 13.048 32.5718 12.936V11.52H31.6998C31.5638 11.52 31.4998 11.464 31.4998 11.336V10.848C31.4998 10.72 31.5638 10.648 31.6998 10.648ZM38.2046 11.208V13.816C38.2046 13.944 38.1406 14 38.0126 14H37.4206C37.3086 14 37.2446 13.952 37.2366 13.848L37.2046 13.416C36.9166 13.856 36.4366 14.072 35.7486 14.072C35.3246 14.072 34.9886 13.968 34.7486 13.752C34.5006 13.544 34.3806 13.24 34.3806 12.848C34.3806 12.624 34.4206 12.424 34.5166 12.256C34.6046 12.088 34.7246 11.952 34.8766 11.856C35.0286 11.76 35.2286 11.68 35.4766 11.616C35.7246 11.552 35.9806 11.512 36.2366 11.488C36.4926 11.464 36.8046 11.448 37.1726 11.44V11.256C37.1726 11.008 37.1006 10.824 36.9566 10.704C36.8126 10.592 36.5806 10.528 36.2606 10.528C35.8686 10.528 35.4686 10.608 35.0606 10.768C34.9486 10.808 34.8686 10.768 34.8286 10.656L34.6846 10.216C34.6526 10.12 34.6846 10.048 34.7966 9.992C35.2686 9.792 35.8046 9.688 36.3966 9.688C37.5966 9.688 38.2046 10.2 38.2046 11.208ZM37.1726 12.408V12.064C36.8686 12.08 36.6286 12.096 36.4366 12.112C36.2446 12.128 36.0606 12.168 35.8846 12.216C35.7086 12.264 35.5886 12.336 35.5086 12.432C35.4286 12.528 35.3886 12.64 35.3886 12.784C35.3886 12.96 35.4446 13.096 35.5726 13.192C35.6926 13.296 35.8686 13.344 36.0926 13.344C36.4446 13.344 36.7086 13.264 36.8926 13.088C37.0766 12.912 37.1726 12.688 37.1726 12.408ZM43.0621 11.248V13.816C43.0621 13.944 42.9981 14 42.8781 14H42.1901C42.0621 14 41.9981 13.944 41.9981 13.816V11.44C41.9981 11.16 41.9341 10.952 41.8141 10.808C41.6941 10.672 41.4941 10.6 41.2221 10.6C40.9181 10.6 40.6861 10.688 40.5261 10.864C40.3661 11.04 40.2861 11.272 40.2861 11.568V13.816C40.2861 13.944 40.2221 14 40.1021 14H39.4141C39.2861 14 39.2301 13.944 39.2301 13.816V9.968C39.2301 9.848 39.2861 9.784 39.4141 9.784H40.0461C40.1581 9.784 40.2141 9.84 40.2301 9.944L40.2701 10.36C40.5341 9.912 40.9821 9.688 41.6141 9.688C42.0941 9.688 42.4621 9.824 42.7021 10.096C42.9421 10.368 43.0621 10.752 43.0621 11.248ZM47.9773 11.256V13.816C47.9773 13.944 47.9133 14 47.7933 14H47.1053C46.9773 14 46.9213 13.944 46.9213 13.816V11.44C46.9213 11.16 46.8573 10.952 46.7373 10.808C46.6093 10.672 46.4093 10.6 46.1373 10.6C45.8333 10.6 45.5933 10.696 45.4333 10.872C45.2653 11.048 45.1853 11.28 45.1853 11.568V13.816C45.1853 13.944 45.1213 14 45.0013 14H44.3133C44.1853 14 44.1293 13.944 44.1293 13.816V8.544C44.1293 8.432 44.1853 8.368 44.3133 8.368H45.0013C45.1213 8.368 45.1853 8.432 45.1853 8.544V10.344C45.2813 10.168 45.4493 10.008 45.6733 9.88C45.8973 9.752 46.1773 9.688 46.5213 9.688C47.0093 9.688 47.3773 9.824 47.6173 10.096C47.8573 10.368 47.9773 10.76 47.9773 11.256ZM50.9074 14.088C50.2594 14.088 49.7474 13.904 49.3794 13.52C49.0114 13.144 48.8274 12.6 48.8274 11.888C48.8274 11.184 49.0114 10.64 49.3794 10.256C49.7474 9.88 50.2594 9.688 50.9074 9.688C51.5474 9.688 52.0594 9.88 52.4354 10.256C52.8034 10.64 52.9954 11.184 52.9954 11.888C52.9954 12.6 52.8034 13.144 52.4354 13.52C52.0594 13.904 51.5474 14.088 50.9074 14.088ZM50.9074 13.24C51.5794 13.24 51.9154 12.792 51.9154 11.888C51.9154 10.992 51.5794 10.536 50.9074 10.536C50.2354 10.536 49.9074 10.992 49.9074 11.888C49.9074 12.792 50.2354 13.24 50.9074 13.24ZM53.8228 12.56V9.968C53.8228 9.848 53.8868 9.784 54.0148 9.784H54.7028C54.8148 9.784 54.8788 9.848 54.8788 9.968V12.36C54.8788 12.632 54.9348 12.84 55.0468 12.984C55.1588 13.128 55.3508 13.192 55.6228 13.192C55.9108 13.192 56.1348 13.112 56.3028 12.936C56.4708 12.768 56.5588 12.536 56.5588 12.248V9.968C56.5588 9.848 56.6148 9.784 56.7428 9.784H57.4388C57.5508 9.784 57.6148 9.848 57.6148 9.968V13.816C57.6148 13.944 57.5508 14 57.4388 14H56.7988C56.6788 14 56.6148 13.952 56.6068 13.848L56.5748 13.416C56.3188 13.864 55.8788 14.088 55.2708 14.088C54.3028 14.088 53.8228 13.584 53.8228 12.56ZM62.0674 11.888C62.0674 12.784 62.4114 13.232 63.1074 13.232C63.4434 13.232 63.6994 13.128 63.8674 12.92C64.0274 12.712 64.1154 12.368 64.1154 11.888C64.1154 11.416 64.0274 11.072 63.8674 10.864C63.6994 10.656 63.4434 10.544 63.1074 10.544C62.4114 10.544 62.0674 10.992 62.0674 11.888ZM62.0194 9.944L62.0434 10.376C62.1554 10.168 62.3314 10 62.5874 9.872C62.8434 9.752 63.1154 9.688 63.4114 9.688C63.9714 9.688 64.4114 9.88 64.7234 10.248C65.0354 10.616 65.1954 11.168 65.1954 11.888C65.1954 12.616 65.0354 13.168 64.7234 13.536C64.4114 13.904 63.9714 14.088 63.4114 14.088C63.1074 14.088 62.8434 14.04 62.6034 13.928C62.3634 13.816 62.1874 13.656 62.0754 13.432V14.696C62.0754 14.824 62.0114 14.88 61.8914 14.88H61.2034C61.0754 14.88 61.0114 14.824 61.0114 14.696V9.968C61.0114 9.848 61.0754 9.784 61.2034 9.784H61.8274C61.9394 9.784 62.0034 9.84 62.0194 9.944ZM67.9699 14.088C67.3219 14.088 66.8099 13.904 66.4419 13.52C66.0739 13.144 65.8899 12.6 65.8899 11.888C65.8899 11.184 66.0739 10.64 66.4419 10.256C66.8099 9.88 67.3219 9.688 67.9699 9.688C68.6099 9.688 69.1219 9.88 69.4979 10.256C69.8659 10.64 70.0579 11.184 70.0579 11.888C70.0579 12.6 69.8659 13.144 69.4979 13.52C69.1219 13.904 68.6099 14.088 67.9699 14.088ZM67.9699 13.24C68.6419 13.24 68.9779 12.792 68.9779 11.888C68.9779 10.992 68.6419 10.536 67.9699 10.536C67.2979 10.536 66.9699 10.992 66.9699 11.888C66.9699 12.792 67.2979 13.24 67.9699 13.24ZM73.9173 12.864C73.9173 13.68 73.3413 14.088 72.1973 14.088C71.6533 14.088 71.1973 14.016 70.8133 13.856C70.7013 13.824 70.6613 13.752 70.6933 13.648L70.8133 13.232C70.8453 13.12 70.9173 13.08 71.0373 13.112C71.3653 13.232 71.7013 13.288 72.0373 13.288C72.3253 13.288 72.5333 13.256 72.6693 13.192C72.8053 13.128 72.8773 13.008 72.8773 12.84C72.8773 12.696 72.8053 12.584 72.6773 12.496C72.5493 12.416 72.3253 12.32 72.0213 12.208C71.5893 12.064 71.3013 11.936 71.1573 11.832C70.8533 11.624 70.7093 11.304 70.7093 10.88C70.7093 10.496 70.8453 10.2 71.1173 9.992C71.3893 9.792 71.7893 9.688 72.3093 9.688C72.8213 9.688 73.2533 9.768 73.6133 9.912C73.7173 9.96 73.7573 10.032 73.7253 10.128L73.6053 10.528C73.5733 10.648 73.4933 10.688 73.3813 10.648C73.0373 10.544 72.7333 10.488 72.4693 10.488C72.2133 10.488 72.0293 10.52 71.9173 10.584C71.8053 10.648 71.7493 10.76 71.7493 10.904C71.7493 11.016 71.7893 11.104 71.8693 11.184C71.9493 11.264 72.0373 11.32 72.1333 11.36C72.2293 11.408 72.3893 11.464 72.6133 11.536C73.0453 11.696 73.3653 11.864 73.5893 12.048C73.8053 12.24 73.9173 12.512 73.9173 12.864ZM75.8338 9.968V13.816C75.8338 13.944 75.7698 14 75.6498 14H74.9538C74.8258 14 74.7698 13.944 74.7698 13.816V9.968C74.7698 9.848 74.8258 9.784 74.9538 9.784H75.6498C75.7698 9.784 75.8338 9.848 75.8338 9.968ZM75.8338 8.568V9.128C75.8338 9.256 75.7698 9.312 75.6578 9.312H74.9458C74.8258 9.312 74.7698 9.256 74.7698 9.128V8.568C74.7698 8.448 74.8258 8.384 74.9458 8.384H75.6578C75.7698 8.384 75.8338 8.448 75.8338 8.568ZM76.7336 11.88C76.7336 11.176 76.9176 10.632 77.3016 10.256C77.6856 9.88 78.1976 9.688 78.8456 9.688C79.3736 9.688 79.7816 9.784 80.0776 9.96C80.1896 10.024 80.2216 10.112 80.1816 10.208L79.9896 10.64C79.9336 10.752 79.8456 10.784 79.7256 10.728C79.4936 10.632 79.2456 10.576 78.9736 10.576C78.6056 10.576 78.3176 10.688 78.1176 10.904C77.9096 11.12 77.8136 11.448 77.8136 11.88C77.8136 12.328 77.9096 12.656 78.1176 12.88C78.3176 13.104 78.5976 13.208 78.9576 13.208C79.2616 13.208 79.5336 13.144 79.7816 13.016C79.9016 12.968 79.9816 12.992 80.0296 13.104L80.2216 13.544C80.2536 13.64 80.2216 13.72 80.1096 13.792C79.8136 13.984 79.4216 14.08 78.9336 14.088C79.2456 14.248 79.4056 14.456 79.4056 14.712C79.4056 15.128 79.1096 15.336 78.5256 15.336C78.3496 15.336 78.2216 15.32 78.1496 15.288C78.0696 15.272 78.0376 15.232 78.0376 15.168V14.904C78.0376 14.84 78.0776 14.8 78.1576 14.8H78.3976C78.6536 14.8 78.7816 14.72 78.7816 14.552C78.7816 14.36 78.6296 14.192 78.3336 14.032C77.8296 13.936 77.4376 13.704 77.1576 13.336C76.8696 12.968 76.7336 12.488 76.7336 11.88ZM84.564 11.208V13.816C84.564 13.944 84.5 14 84.372 14H83.78C83.668 14 83.604 13.952 83.596 13.848L83.564 13.416C83.276 13.856 82.796 14.072 82.108 14.072C81.684 14.072 81.348 13.968 81.108 13.752C80.86 13.544 80.74 13.24 80.74 12.848C80.74 12.624 80.78 12.424 80.876 12.256C80.964 12.088 81.084 11.952 81.236 11.856C81.388 11.76 81.588 11.68 81.836 11.616C82.084 11.552 82.34 11.512 82.596 11.488C82.852 11.464 83.164 11.448 83.532 11.44V11.256C83.532 11.008 83.46 10.824 83.316 10.704C83.172 10.592 82.94 10.528 82.62 10.528C82.228 10.528 81.828 10.608 81.42 10.768C81.308 10.808 81.228 10.768 81.188 10.656L81.044 10.216C81.012 10.12 81.044 10.048 81.156 9.992C81.628 9.792 82.164 9.688 82.756 9.688C83.956 9.688 84.564 10.2 84.564 11.208ZM83.532 12.408V12.064C83.228 12.08 82.988 12.096 82.796 12.112C82.604 12.128 82.42 12.168 82.244 12.216C82.068 12.264 81.948 12.336 81.868 12.432C81.788 12.528 81.748 12.64 81.748 12.784C81.748 12.96 81.804 13.096 81.932 13.192C82.052 13.296 82.228 13.344 82.452 13.344C82.804 13.344 83.068 13.264 83.252 13.088C83.436 12.912 83.532 12.688 83.532 12.408ZM84.092 8.648C84.092 9.08 83.892 9.288 83.508 9.288C83.316 9.288 83.084 9.248 82.828 9.152L82.548 9.048C82.196 8.92 82.004 8.928 81.98 9.08L81.964 9.144C81.948 9.224 81.884 9.264 81.788 9.264H81.548C81.484 9.264 81.436 9.256 81.412 9.224C81.38 9.192 81.372 9.136 81.372 9.048C81.372 8.616 81.572 8.4 81.972 8.4C82.164 8.4 82.388 8.448 82.644 8.536L82.932 8.64C83.108 8.704 83.236 8.736 83.324 8.736C83.42 8.736 83.484 8.688 83.5 8.592L83.508 8.536C83.516 8.456 83.572 8.408 83.684 8.408H83.932C84.036 8.408 84.092 8.488 84.092 8.648ZM87.4855 14.088C86.8375 14.088 86.3255 13.904 85.9575 13.52C85.5895 13.144 85.4055 12.6 85.4055 11.888C85.4055 11.184 85.5895 10.64 85.9575 10.256C86.3255 9.88 86.8375 9.688 87.4855 9.688C88.1255 9.688 88.6375 9.88 89.0135 10.256C89.3815 10.64 89.5735 11.184 89.5735 11.888C89.5735 12.6 89.3815 13.144 89.0135 13.52C88.6375 13.904 88.1255 14.088 87.4855 14.088ZM87.4855 13.24C88.1575 13.24 88.4935 12.792 88.4935 11.888C88.4935 10.992 88.1575 10.536 87.4855 10.536C86.8135 10.536 86.4855 10.992 86.4855 11.888C86.4855 12.792 86.8135 13.24 87.4855 13.24Z" fill="#050810"/>
<rect x="98.4678" y="5.5" width="12" height="12" rx="6" fill="#E8083F"/>
<path d="M104.468 8.58325V14.4166M104.468 14.4166L106.968 11.9166M104.468 14.4166L101.968 11.9166" stroke="white" stroke-width="1.59943" stroke-linecap="round" stroke-linejoin="round"/>
<path d="M119.64 11.408H120.448C120.888 11.408 121.208 11.328 121.408 11.168C121.6 11.008 121.704 10.744 121.704 10.368C121.704 10 121.6 9.728 121.408 9.568C121.208 9.408 120.888 9.328 120.448 9.328H119.64V11.408ZM119.44 14H118.728C118.592 14 118.528 13.936 118.528 13.8V8.56C118.528 8.432 118.592 8.368 118.72 8.368H120.456C121.256 8.368 121.856 8.528 122.248 8.84C122.632 9.16 122.832 9.664 122.832 10.368C122.832 11.08 122.632 11.592 122.248 11.904C121.856 12.216 121.256 12.368 120.456 12.368H119.64V13.8C119.64 13.936 119.568 14 119.44 14ZM125.913 13.312C126.281 13.312 126.625 13.232 126.961 13.064C127.073 13.016 127.153 13.048 127.201 13.176L127.337 13.552C127.361 13.656 127.321 13.736 127.217 13.784C126.801 13.992 126.337 14.096 125.825 14.096C125.113 14.096 124.561 13.904 124.161 13.52C123.761 13.136 123.569 12.592 123.569 11.896C123.569 11.2 123.745 10.656 124.113 10.272C124.481 9.888 124.977 9.688 125.609 9.688C126.217 9.688 126.697 9.872 127.033 10.24C127.369 10.608 127.537 11.088 127.537 11.696V12.088C127.537 12.216 127.473 12.28 127.345 12.28H124.617C124.657 12.6 124.793 12.856 125.017 13.04C125.241 13.224 125.545 13.312 125.913 13.312ZM125.625 10.472C124.985 10.472 124.641 10.856 124.593 11.608H126.577V11.56C126.577 11.224 126.489 10.952 126.329 10.76C126.169 10.568 125.929 10.472 125.625 10.472ZM128.601 9.784H129.233C129.345 9.784 129.409 9.84 129.425 9.952L129.465 10.584C129.553 10.376 129.713 10.184 129.937 10.008C130.161 9.84 130.425 9.752 130.737 9.752C130.793 9.752 130.833 9.768 130.857 9.784C130.881 9.808 130.897 9.848 130.897 9.912V10.656C130.897 10.752 130.841 10.8 130.745 10.8C130.721 10.8 130.681 10.8 130.633 10.792C130.577 10.792 130.529 10.784 130.489 10.784C130.193 10.784 129.953 10.904 129.761 11.144C129.569 11.384 129.473 11.656 129.473 11.976V13.816C129.473 13.944 129.409 14 129.289 14H128.601C128.473 14 128.409 13.944 128.409 13.816V9.968C128.409 9.848 128.473 9.784 128.601 9.784ZM134.541 11.888C134.541 10.992 134.189 10.544 133.501 10.544C133.165 10.544 132.909 10.656 132.741 10.864C132.573 11.072 132.493 11.416 132.493 11.888C132.493 12.368 132.573 12.712 132.741 12.92C132.909 13.128 133.165 13.232 133.501 13.232C134.189 13.232 134.541 12.784 134.541 11.888ZM134.589 13.848L134.565 13.408C134.453 13.632 134.269 13.8 134.021 13.912C133.765 14.032 133.493 14.088 133.197 14.088C132.629 14.088 132.189 13.904 131.877 13.536C131.565 13.168 131.413 12.616 131.413 11.888C131.413 11.168 131.565 10.616 131.877 10.248C132.189 9.88 132.629 9.688 133.197 9.688C133.485 9.688 133.749 9.752 133.997 9.864C134.245 9.984 134.421 10.144 134.533 10.352V8.544C134.533 8.432 134.589 8.368 134.717 8.368H135.405C135.533 8.368 135.597 8.432 135.597 8.544V13.816C135.597 13.944 135.533 14 135.405 14H134.781C134.661 14 134.597 13.952 134.589 13.848ZM138.834 13.312C139.202 13.312 139.546 13.232 139.882 13.064C139.994 13.016 140.074 13.048 140.122 13.176L140.258 13.552C140.282 13.656 140.242 13.736 140.138 13.784C139.722 13.992 139.258 14.096 138.746 14.096C138.034 14.096 137.482 13.904 137.082 13.52C136.682 13.136 136.49 12.592 136.49 11.896C136.49 11.2 136.666 10.656 137.034 10.272C137.402 9.888 137.898 9.688 138.53 9.688C139.138 9.688 139.618 9.872 139.954 10.24C140.29 10.608 140.458 11.088 140.458 11.696V12.088C140.458 12.216 140.394 12.28 140.266 12.28H137.538C137.578 12.6 137.714 12.856 137.938 13.04C138.162 13.224 138.466 13.312 138.834 13.312ZM138.546 10.472C137.906 10.472 137.562 10.856 137.514 11.608H139.498V11.56C139.498 11.224 139.41 10.952 139.25 10.76C139.09 10.568 138.85 10.472 138.546 10.472ZM141.283 12.56V9.968C141.283 9.848 141.347 9.784 141.475 9.784H142.163C142.275 9.784 142.339 9.848 142.339 9.968V12.36C142.339 12.632 142.395 12.84 142.507 12.984C142.619 13.128 142.811 13.192 143.083 13.192C143.371 13.192 143.595 13.112 143.763 12.936C143.931 12.768 144.019 12.536 144.019 12.248V9.968C144.019 9.848 144.075 9.784 144.203 9.784H144.899C145.011 9.784 145.075 9.848 145.075 9.968V13.816C145.075 13.944 145.011 14 144.899 14H144.259C144.139 14 144.075 13.952 144.067 13.848L144.035 13.416C143.779 13.864 143.339 14.088 142.731 14.088C141.763 14.088 141.283 13.584 141.283 12.56ZM149.527 11.888C149.527 12.784 149.871 13.232 150.567 13.232C150.903 13.232 151.159 13.128 151.327 12.92C151.487 12.712 151.575 12.368 151.575 11.888C151.575 11.416 151.487 11.072 151.327 10.864C151.159 10.656 150.903 10.544 150.567 10.544C149.871 10.544 149.527 10.992 149.527 11.888ZM149.479 9.944L149.503 10.376C149.615 10.168 149.791 10 150.047 9.872C150.303 9.752 150.575 9.688 150.871 9.688C151.431 9.688 151.871 9.88 152.183 10.248C152.495 10.616 152.655 11.168 152.655 11.888C152.655 12.616 152.495 13.168 152.183 13.536C151.871 13.904 151.431 14.088 150.871 14.088C150.567 14.088 150.303 14.04 150.063 13.928C149.823 13.816 149.647 13.656 149.535 13.432V14.696C149.535 14.824 149.471 14.88 149.351 14.88H148.663C148.535 14.88 148.471 14.824 148.471 14.696V9.968C148.471 9.848 148.535 9.784 148.663 9.784H149.287C149.399 9.784 149.463 9.84 149.479 9.944ZM155.43 14.088C154.782 14.088 154.27 13.904 153.902 13.52C153.534 13.144 153.35 12.6 153.35 11.888C153.35 11.184 153.534 10.64 153.902 10.256C154.27 9.88 154.782 9.688 155.43 9.688C156.07 9.688 156.582 9.88 156.958 10.256C157.326 10.64 157.518 11.184 157.518 11.888C157.518 12.6 157.326 13.144 156.958 13.52C156.582 13.904 156.07 14.088 155.43 14.088ZM155.43 13.24C156.102 13.24 156.438 12.792 156.438 11.888C156.438 10.992 156.102 10.536 155.43 10.536C154.758 10.536 154.43 10.992 154.43 11.888C154.43 12.792 154.758 13.24 155.43 13.24ZM161.377 12.864C161.377 13.68 160.801 14.088 159.657 14.088C159.113 14.088 158.657 14.016 158.273 13.856C158.161 13.824 158.121 13.752 158.153 13.648L158.273 13.232C158.305 13.12 158.377 13.08 158.497 13.112C158.825 13.232 159.161 13.288 159.497 13.288C159.785 13.288 159.993 13.256 160.129 13.192C160.265 13.128 160.337 13.008 160.337 12.84C160.337 12.696 160.265 12.584 160.137 12.496C160.009 12.416 159.785 12.32 159.481 12.208C159.049 12.064 158.761 11.936 158.617 11.832C158.313 11.624 158.169 11.304 158.169 10.88C158.169 10.496 158.305 10.2 158.577 9.992C158.849 9.792 159.249 9.688 159.769 9.688C160.281 9.688 160.713 9.768 161.073 9.912C161.177 9.96 161.217 10.032 161.185 10.128L161.065 10.528C161.033 10.648 160.953 10.688 160.841 10.648C160.497 10.544 160.193 10.488 159.929 10.488C159.673 10.488 159.489 10.52 159.377 10.584C159.265 10.648 159.209 10.76 159.209 10.904C159.209 11.016 159.249 11.104 159.329 11.184C159.409 11.264 159.497 11.32 159.593 11.36C159.689 11.408 159.849 11.464 160.073 11.536C160.505 11.696 160.825 11.864 161.049 12.048C161.265 12.24 161.377 12.512 161.377 12.864ZM163.294 9.968V13.816C163.294 13.944 163.23 14 163.11 14H162.414C162.286 14 162.23 13.944 162.23 13.816V9.968C162.23 9.848 162.286 9.784 162.414 9.784H163.11C163.23 9.784 163.294 9.848 163.294 9.968ZM163.294 8.568V9.128C163.294 9.256 163.23 9.312 163.118 9.312H162.406C162.286 9.312 162.23 9.256 162.23 9.128V8.568C162.23 8.448 162.286 8.384 162.406 8.384H163.118C163.23 8.384 163.294 8.448 163.294 8.568ZM164.194 11.88C164.194 11.176 164.378 10.632 164.762 10.256C165.146 9.88 165.658 9.688 166.306 9.688C166.834 9.688 167.242 9.784 167.538 9.96C167.65 10.024 167.682 10.112 167.642 10.208L167.45 10.64C167.394 10.752 167.306 10.784 167.186 10.728C166.954 10.632 166.706 10.576 166.434 10.576C166.066 10.576 165.778 10.688 165.578 10.904C165.37 11.12 165.274 11.448 165.274 11.88C165.274 12.328 165.37 12.656 165.578 12.88C165.778 13.104 166.058 13.208 166.418 13.208C166.722 13.208 166.994 13.144 167.242 13.016C167.362 12.968 167.442 12.992 167.49 13.104L167.682 13.544C167.714 13.64 167.682 13.72 167.57 13.792C167.274 13.984 166.882 14.08 166.394 14.088C166.706 14.248 166.866 14.456 166.866 14.712C166.866 15.128 166.57 15.336 165.986 15.336C165.81 15.336 165.682 15.32 165.61 15.288C165.53 15.272 165.498 15.232 165.498 15.168V14.904C165.498 14.84 165.538 14.8 165.618 14.8H165.858C166.114 14.8 166.242 14.72 166.242 14.552C166.242 14.36 166.09 14.192 165.794 14.032C165.29 13.936 164.898 13.704 164.618 13.336C164.33 12.968 164.194 12.488 164.194 11.88ZM172.024 11.208V13.816C172.024 13.944 171.96 14 171.832 14H171.24C171.128 14 171.064 13.952 171.056 13.848L171.024 13.416C170.736 13.856 170.256 14.072 169.568 14.072C169.144 14.072 168.808 13.968 168.568 13.752C168.32 13.544 168.2 13.24 168.2 12.848C168.2 12.624 168.24 12.424 168.336 12.256C168.424 12.088 168.544 11.952 168.696 11.856C168.848 11.76 169.048 11.68 169.296 11.616C169.544 11.552 169.8 11.512 170.056 11.488C170.312 11.464 170.624 11.448 170.992 11.44V11.256C170.992 11.008 170.92 10.824 170.776 10.704C170.632 10.592 170.4 10.528 170.08 10.528C169.688 10.528 169.288 10.608 168.88 10.768C168.768 10.808 168.688 10.768 168.648 10.656L168.504 10.216C168.472 10.12 168.504 10.048 168.616 9.992C169.088 9.792 169.624 9.688 170.216 9.688C171.416 9.688 172.024 10.2 172.024 11.208ZM170.992 12.408V12.064C170.688 12.08 170.448 12.096 170.256 12.112C170.064 12.128 169.88 12.168 169.704 12.216C169.528 12.264 169.408 12.336 169.328 12.432C169.248 12.528 169.208 12.64 169.208 12.784C169.208 12.96 169.264 13.096 169.392 13.192C169.512 13.296 169.688 13.344 169.912 13.344C170.264 13.344 170.528 13.264 170.712 13.088C170.896 12.912 170.992 12.688 170.992 12.408ZM171.552 8.648C171.552 9.08 171.352 9.288 170.968 9.288C170.776 9.288 170.544 9.248 170.288 9.152L170.008 9.048C169.656 8.92 169.464 8.928 169.44 9.08L169.424 9.144C169.408 9.224 169.344 9.264 169.248 9.264H169.008C168.944 9.264 168.896 9.256 168.872 9.224C168.84 9.192 168.832 9.136 168.832 9.048C168.832 8.616 169.032 8.4 169.432 8.4C169.624 8.4 169.848 8.448 170.104 8.536L170.392 8.64C170.568 8.704 170.696 8.736 170.784 8.736C170.88 8.736 170.944 8.688 170.96 8.592L170.968 8.536C170.976 8.456 171.032 8.408 171.144 8.408H171.392C171.496 8.408 171.552 8.488 171.552 8.648ZM174.945 14.088C174.297 14.088 173.785 13.904 173.417 13.52C173.049 13.144 172.865 12.6 172.865 11.888C172.865 11.184 173.049 10.64 173.417 10.256C173.785 9.88 174.297 9.688 174.945 9.688C175.585 9.688 176.097 9.88 176.473 10.256C176.841 10.64 177.033 11.184 177.033 11.888C177.033 12.6 176.841 13.144 176.473 13.52C176.097 13.904 175.585 14.088 174.945 14.088ZM174.945 13.24C175.617 13.24 175.953 12.792 175.953 11.888C175.953 10.992 175.617 10.536 174.945 10.536C174.273 10.536 173.945 10.992 173.945 11.888C173.945 12.792 174.273 13.24 174.945 13.24Z" fill="#050810"/>
</svg>
