<svg width="144" height="40" viewBox="0 0 144 40" fill="none" xmlns="http://www.w3.org/2000/svg">
<path d="M114.004 7.45154H114.752C115.074 7.45154 115.216 7.36347 115.269 7.0768L115.286 6.96974C115.323 6.77287 115.483 6.70207 115.732 6.70207C115.964 6.70207 116.249 6.7556 116.553 6.87994L117.516 7.25467C117.891 7.39801 118.336 7.50335 118.96 7.50335C119.994 7.50335 120.6 6.9162 120.6 5.77473C120.6 5.20485 120.422 4.95445 120.03 4.95445H119.28C118.959 4.95445 118.817 5.04253 118.763 5.32919L118.746 5.43626C118.71 5.61413 118.532 5.70393 118.283 5.70393C118.051 5.70393 117.747 5.63312 117.481 5.52606L116.519 5.15132C116.144 5.00799 115.698 4.90092 115.127 4.90092C114.039 4.90092 113.434 5.59686 113.434 6.73661C113.434 7.30648 113.612 7.44981 114.004 7.44981" fill="white"/>
<path d="M45.0974 2.37448C45.2253 2.37448 45.2979 2.43837 45.2979 2.5748V5.13232C45.2979 5.27566 45.2098 5.35682 45.1216 5.41208C44.7449 5.63658 44.1539 5.81099 43.2985 5.81099C41.5705 5.81099 40.563 4.91646 40.563 2.90118C40.563 0.885897 41.5791 1.90735e-06 43.3694 1.90735e-06C44.09 1.90735e-06 44.6654 0.191687 44.9851 0.383372C45.1044 0.447267 45.1527 0.511162 45.1044 0.632044L44.9039 1.12766C44.8555 1.24682 44.7847 1.28826 44.6326 1.22437C44.3855 1.12075 44.0001 0.992965 43.5128 0.992965C42.2409 0.992965 41.6966 1.55248 41.6966 2.90291C41.6966 4.25334 42.2565 4.82148 43.4247 4.82148C43.7599 4.82148 44.0882 4.74895 44.2801 4.66088V3.24656H43.4074C43.2709 3.24656 43.2069 3.1913 43.2069 3.06351V2.57652C43.2069 2.44873 43.2709 2.37621 43.4074 2.37621H45.0957L45.0974 2.37448Z" fill="white"/>
<path d="M52.6162 2.90982C52.6162 4.85257 51.6883 5.81099 50.1123 5.81099C48.5363 5.81099 47.6238 4.85084 47.6238 2.90982C47.6238 0.968788 48.5535 1.90735e-06 50.1209 1.90735e-06C51.6883 1.90735e-06 52.6162 0.967062 52.6162 2.90982ZM51.4722 2.90982C51.4722 1.62328 51.0247 0.975696 50.1209 0.975696C49.2171 0.975696 48.7609 1.62328 48.7609 2.90982C48.7609 4.19635 49.2085 4.8353 50.1209 4.8353C51.0333 4.8353 51.4722 4.19635 51.4722 2.90982Z" fill="white"/>
<path d="M56.4076 5.72292C56.2711 5.72292 56.2071 5.66766 56.1605 5.53123L54.384 0.319474C54.3356 0.18305 54.3996 0.0949783 54.5361 0.0949783H55.312C55.4485 0.0949783 55.5125 0.158873 55.5436 0.271121L56.5026 3.25346L56.8552 4.57281H56.8707L57.2146 3.25346L58.1737 0.271121C58.2065 0.158873 58.2705 0.0949783 58.4053 0.0949783H59.1898C59.3177 0.0949783 59.3816 0.18305 59.3332 0.319474L57.5654 5.53123C57.517 5.66766 57.4462 5.72292 57.3097 5.72292H56.4059H56.4076Z" fill="white"/>
<path d="M62.6943 3.31736V4.7645H64.965C65.1015 4.7645 65.1655 4.81976 65.1655 4.95618V5.52433C65.1655 5.66766 65.1015 5.72465 64.965 5.72465H61.7905C61.6471 5.72465 61.5901 5.66939 61.5901 5.52433V0.288391C61.5901 0.151967 61.6454 0.0967064 61.7819 0.0967064H64.9339C65.0704 0.0967064 65.1344 0.151967 65.1344 0.288391V0.856539C65.1344 0.992963 65.0704 1.05686 64.9339 1.05686H62.6943V2.39175H64.8302C64.9581 2.39175 65.022 2.46428 65.022 2.59207V3.12049C65.022 3.24828 64.9581 3.32081 64.8302 3.32081H62.6943V3.31736Z" fill="white"/>
<path d="M69.5392 0.0949783C71.091 0.0949783 71.8756 0.645857 71.8756 1.98938C71.8756 2.96507 71.3485 3.50732 70.5 3.69209L71.86 5.47425C71.9482 5.58649 71.8998 5.72119 71.7391 5.72119H70.9787C70.8353 5.72119 70.7713 5.6573 70.6988 5.56059L69.4027 3.84233H68.6596V5.52087C68.6596 5.66421 68.5957 5.72119 68.4592 5.72119H67.7472C67.6038 5.72119 67.5468 5.66593 67.5468 5.52087V0.28839C67.5468 0.151966 67.6021 0.0967052 67.7472 0.0967052H69.5392V0.0949783ZM69.5168 2.91672C70.4292 2.91672 70.7558 2.62142 70.7558 1.98938C70.7558 1.31071 70.4033 1.05513 69.5237 1.05513H68.6596V2.91672H69.515H69.5168Z" fill="white"/>
<path d="M78.7775 5.5226C78.7775 5.66593 78.7136 5.72292 78.5857 5.72292H77.8651C77.7285 5.72292 77.6733 5.6832 77.6162 5.5865L75.368 1.9652V5.5226C75.368 5.66593 75.3127 5.72292 75.1762 5.72292H74.4884C74.345 5.72292 74.288 5.66766 74.288 5.5226V0.288391C74.288 0.151967 74.3433 0.0967064 74.4884 0.0967064H75.1917C75.3352 0.0967064 75.3922 0.12779 75.4475 0.224496L77.6957 3.8527V0.288391C77.6957 0.151967 77.751 0.0967064 77.8875 0.0967064H78.5839C78.7118 0.0967064 78.7758 0.151967 78.7758 0.279757V5.5226H78.7775Z" fill="white"/>
<path d="M86.1771 2.90982C86.1771 4.85257 85.2491 5.81099 83.6731 5.81099C82.0971 5.81099 81.1847 4.85084 81.1847 2.90982C81.1847 0.968788 82.1127 1.90735e-06 83.68 1.90735e-06C85.2474 1.90735e-06 86.1754 0.967062 86.1754 2.90982M85.0331 2.90982C85.0331 1.62328 84.5855 0.975696 83.6818 0.975696C82.778 0.975696 82.3218 1.62328 82.3218 2.90982C82.3218 4.19635 82.7693 4.8353 83.6818 4.8353C84.5942 4.8353 85.0331 4.19635 85.0331 2.90982Z" fill="white"/>
<path d="M92.5589 5.72292C92.4154 5.72292 92.3584 5.66766 92.3584 5.5226V0.288391C92.3584 0.151967 92.4137 0.0967064 92.5502 0.0967064H94.0934C95.9009 0.0967064 96.8842 0.83927 96.8842 2.85455C96.8842 4.97345 95.9009 5.72465 94.1003 5.72465H92.5571L92.5589 5.72292ZM93.4782 1.08622V4.73168H94.0623C95.1492 4.73168 95.7506 4.35695 95.7506 2.85283C95.7506 1.45404 95.151 1.08622 94.0554 1.08622H93.4799H93.4782Z" fill="white"/>
<path d="M103.724 2.90118C103.724 4.81976 102.844 5.80236 101.42 5.80236C99.9965 5.80236 99.1169 4.81976 99.1169 2.90982C99.1169 0.999872 99.9965 1.90735e-06 101.42 1.90735e-06C102.844 1.90735e-06 103.724 0.982603 103.724 2.90118ZM102.613 2.90118C102.613 1.61465 102.22 0.967061 101.42 0.967061C100.62 0.967061 100.237 1.61465 100.237 2.90118C100.237 4.18772 100.629 4.84393 101.42 4.84393C102.212 4.84393 102.613 4.19635 102.613 2.90118Z" fill="white"/>
<path d="M26.595 36.3252C26.595 36.2665 26.6261 36.2406 26.6796 36.2406H29.0851C29.1491 36.2406 29.175 36.2665 29.175 36.3252V36.5738C29.175 36.6326 29.1491 36.6636 29.0851 36.6636H28.1122V39.8601C28.1122 39.924 28.0863 39.9499 28.0224 39.9499H27.7476C27.6888 39.9499 27.6577 39.924 27.6577 39.8601V36.6636H26.6848C26.6261 36.6636 26.595 36.6326 26.595 36.5738V36.3252Z" fill="white"/>
<path d="M31.9295 36.2406C32.9612 36.2406 33.4312 36.6257 33.4312 37.4338C33.4312 38.1315 33.0286 38.4907 32.3581 38.5701L33.4364 39.8325C33.4727 39.886 33.4623 39.9482 33.3828 39.9482H33.0597C32.9906 39.9482 32.9646 39.9223 32.9284 39.8791L31.8604 38.6168H31.2158V39.8584C31.2158 39.9223 31.1847 39.9482 31.126 39.9482H30.8512C30.7873 39.9482 30.7614 39.9223 30.7614 39.8584V36.3234C30.7614 36.2647 30.7873 36.2388 30.8512 36.2388H31.9295V36.2406ZM31.9088 38.1989C32.6968 38.1989 32.9716 37.9554 32.9716 37.4321C32.9716 36.883 32.6709 36.655 31.9192 36.655H31.2158V38.1971H31.9088V38.1989Z" fill="white"/>
<path d="M36.5297 36.2406C36.6091 36.2406 36.6247 36.2716 36.6454 36.3304L37.9726 39.8601C37.9881 39.9085 37.9622 39.9499 37.9035 39.9499H37.5976C37.5388 39.9499 37.5181 39.924 37.4974 39.8705L37.1639 38.988H35.5412L35.2077 39.8705C35.1869 39.924 35.1714 39.9499 35.1126 39.9499H34.8016C34.7428 39.9499 34.7169 39.9085 34.7325 39.8601L36.0596 36.3304C36.0804 36.2716 36.0959 36.2406 36.1754 36.2406H36.5297ZM37.0204 38.5753L36.3603 36.6947H36.3499L35.6846 38.5753H37.0222H37.0204Z" fill="white"/>
<path d="M39.6333 39.9482C39.5693 39.9482 39.5434 39.9223 39.5434 39.8584V36.3234C39.5434 36.2647 39.5693 36.2388 39.6333 36.2388H40.95C41.8918 36.2388 42.3135 36.5566 42.3135 37.1955C42.3135 37.7032 42.0543 37.9243 41.7743 37.9934C42.139 38.0728 42.4466 38.3266 42.4466 38.8965C42.4466 39.6408 41.9765 39.9482 40.9725 39.9482H39.635H39.6333ZM40.9656 37.8293C41.6378 37.8293 41.8642 37.6549 41.8642 37.2266C41.8642 36.7983 41.6154 36.6516 40.9397 36.6516H39.9927V37.8293H40.9656ZM40.9379 39.5303C41.7208 39.5303 41.9955 39.3714 41.9955 38.8706C41.9955 38.4164 41.7571 38.2317 40.9863 38.2317H39.9927V39.532H40.9397L40.9379 39.5303Z" fill="white"/>
<path d="M45.6487 36.2406C45.7282 36.2406 45.7437 36.2716 45.7645 36.3304L47.0916 39.8601C47.1072 39.9085 47.0812 39.9499 47.0225 39.9499H46.7166C46.6579 39.9499 46.6371 39.924 46.6164 39.8705L46.2829 38.988H44.6602L44.3267 39.8705C44.306 39.924 44.2904 39.9499 44.2317 39.9499H43.9206C43.8618 39.9499 43.8359 39.9085 43.8515 39.8601L45.1786 36.3304C45.1994 36.2716 45.2149 36.2406 45.2944 36.2406H45.6487ZM46.1412 38.5753L45.4811 36.6947H45.4707L44.8054 38.5753H46.1429H46.1412Z" fill="white"/>
<path d="M49.1169 39.5251H50.7188C50.7776 39.5251 50.8087 39.551 50.8087 39.6045V39.8584C50.8087 39.9223 50.7776 39.9482 50.7188 39.9482H48.7523C48.6883 39.9482 48.6624 39.9223 48.6624 39.8584V36.3252C48.6624 36.2665 48.6883 36.2406 48.7523 36.2406H49.027C49.0858 36.2406 49.1169 36.2665 49.1169 36.3252V39.5268V39.5251Z" fill="white"/>
<path d="M54.8109 38.2627H52.9135V39.8584C52.9135 39.9223 52.8824 39.9482 52.8236 39.9482H52.5488C52.4849 39.9482 52.459 39.9223 52.459 39.8584V36.3234C52.459 36.2647 52.4849 36.2388 52.5488 36.2388H52.8236C52.8824 36.2388 52.9135 36.2647 52.9135 36.3234V37.8397H54.8109V36.3234C54.8109 36.2647 54.842 36.2388 54.9007 36.2388H55.1807C55.2394 36.2388 55.2654 36.2647 55.2654 36.3234V39.8584C55.2654 39.9223 55.2394 39.9482 55.1807 39.9482H54.9007C54.842 39.9482 54.8109 39.9223 54.8109 39.8584V38.2627Z" fill="white"/>
<path d="M58.6334 36.2406C58.7129 36.2406 58.7285 36.2716 58.7492 36.3304L60.0763 39.8601C60.0919 39.9085 60.066 39.9499 60.0072 39.9499H59.7014C59.6426 39.9499 59.6219 39.924 59.6011 39.8705L59.2676 38.988H57.645L57.3114 39.8705C57.2907 39.924 57.2752 39.9499 57.2164 39.9499H56.9053C56.8466 39.9499 56.8207 39.9085 56.8362 39.8601L58.1634 36.3304C58.1841 36.2716 58.1997 36.2406 58.2792 36.2406H58.6334ZM59.1259 38.5753L58.4658 36.6947H58.4554L57.7901 38.5753H59.1276H59.1259Z" fill="white"/>
<path d="M64.4604 39.8584C64.4604 39.9223 64.4293 39.9482 64.3706 39.9482H64.0803C64.0163 39.9482 63.9904 39.9275 63.9593 39.8791L62.093 36.9952V39.8584C62.093 39.9223 62.0671 39.9482 62.0083 39.9482H61.7387C61.6748 39.9482 61.6489 39.9223 61.6489 39.8584V36.3234C61.6489 36.2647 61.6748 36.2388 61.7387 36.2388H62.0239C62.0878 36.2388 62.1189 36.2544 62.15 36.3027L64.0163 39.1918V36.3234C64.0163 36.2647 64.0422 36.2388 64.101 36.2388H64.3706C64.4293 36.2388 64.4604 36.2647 64.4604 36.3183V39.8584Z" fill="white"/>
<path d="M66.4442 39.9482C66.3803 39.9482 66.3544 39.9223 66.3544 39.8584V36.3234C66.3544 36.2647 66.3803 36.2388 66.439 36.2388H67.348C68.5214 36.2388 69.2039 36.693 69.2039 38.0296C69.2039 39.4923 68.5214 39.9465 67.3584 39.9465H66.4442V39.9482ZM66.8088 36.6619V39.5251H67.3532C68.2259 39.5251 68.7374 39.2298 68.7374 38.0296C68.7374 36.952 68.219 36.6619 67.3411 36.6619H66.8071H66.8088Z" fill="white"/>
<path d="M73.9354 38.0935C73.9354 39.3196 73.3703 40 72.3335 40C71.2967 40 70.7419 39.3179 70.7419 38.0935C70.7419 36.8691 71.307 36.1818 72.3387 36.1818C73.3703 36.1818 73.9354 36.8691 73.9354 38.0935ZM73.4688 38.0935C73.4688 37.1316 73.099 36.5928 72.337 36.5928C71.5749 36.5928 71.2051 37.1316 71.2051 38.0935C71.2051 39.0554 71.5749 39.589 72.337 39.589C73.099 39.589 73.4688 39.0554 73.4688 38.0935Z" fill="white"/>
<path d="M78.2815 39.9482C78.2176 39.9482 78.1917 39.9171 78.1917 39.8584V36.3304C78.1917 36.2716 78.2176 36.2406 78.2763 36.2406H79.3011C80.3586 36.2406 80.8494 36.6101 80.8494 37.5288C80.8494 38.4475 80.3586 38.8119 79.3011 38.8119H78.6461V39.8584C78.6461 39.9171 78.615 39.9482 78.5563 39.9482H78.2815ZM79.3011 38.3957C80.0562 38.3957 80.3846 38.1678 80.3846 37.5288C80.3846 36.8899 80.0562 36.6567 79.3011 36.6567H78.6461V38.394H79.3011V38.3957Z" fill="white"/>
<path d="M83.8217 36.2406C83.9012 36.2406 83.9168 36.2716 83.9375 36.3304L85.2646 39.8601C85.2802 39.9085 85.2543 39.9499 85.1955 39.9499H84.8897C84.8309 39.9499 84.8102 39.924 84.7894 39.8705L84.4559 38.988H82.8332L82.4997 39.8705C82.479 39.924 82.4634 39.9499 82.4047 39.9499H82.0936C82.0349 39.9499 82.009 39.9085 82.0245 39.8601L83.3517 36.3304C83.3724 36.2716 83.388 36.2406 83.4675 36.2406H83.8217ZM84.3142 38.5753L83.6541 36.6947H83.6437L82.9784 38.5753H84.3159H84.3142Z" fill="white"/>
<path d="M88.0036 36.2406C89.0353 36.2406 89.5053 36.6257 89.5053 37.4338C89.5053 38.1315 89.1044 38.4907 88.4322 38.5701L89.5105 39.8325C89.5468 39.886 89.5364 39.9482 89.4569 39.9482H89.1338C89.0647 39.9482 89.0387 39.9223 89.0024 39.8791L87.9345 38.6168H87.2899V39.8584C87.2899 39.9223 87.2588 39.9482 87.2001 39.9482H86.9253C86.8614 39.9482 86.8354 39.9223 86.8354 39.8584V36.3234C86.8354 36.2647 86.8614 36.2388 86.9253 36.2388H88.0036V36.2406ZM87.9829 38.1989C88.7709 38.1989 89.0456 37.9554 89.0456 37.4321C89.0456 36.883 88.745 36.655 87.9933 36.655H87.2899V38.1971H87.9829V38.1989Z" fill="white"/>
<path d="M92.6038 36.2406C92.6832 36.2406 92.6988 36.2716 92.7195 36.3304L94.0467 39.8601C94.0622 39.9085 94.0363 39.9499 93.9776 39.9499H93.6717C93.6129 39.9499 93.5922 39.924 93.5715 39.8705L93.238 38.988H91.6153L91.2818 39.8705C91.261 39.924 91.2455 39.9499 91.1867 39.9499H90.8757C90.8169 39.9499 90.791 39.9085 90.8066 39.8601L92.1337 36.3304C92.1545 36.2716 92.17 36.2406 92.2495 36.2406H92.6038ZM93.0945 38.5753L92.4344 36.6947H92.424L91.7587 38.5753H93.0963H93.0945Z" fill="white"/>
<path d="M97.8484 36.3252C97.8484 36.2665 97.8796 36.2406 97.9331 36.2406H100.339C100.403 36.2406 100.428 36.2665 100.428 36.3252V36.5738C100.428 36.6326 100.403 36.6636 100.339 36.6636H99.3657V39.8601C99.3657 39.924 99.3398 39.9499 99.2758 39.9499H99.0011C98.9423 39.9499 98.9112 39.924 98.9112 39.8601V36.6636H97.9383C97.8796 36.6636 97.8484 36.6326 97.8484 36.5738V36.3252Z" fill="white"/>
<path d="M104.864 38.0935C104.864 39.3196 104.299 40 103.263 40C102.226 40 101.671 39.3179 101.671 38.0935C101.671 36.8691 102.236 36.1818 103.268 36.1818C104.299 36.1818 104.864 36.8691 104.864 38.0935ZM104.398 38.0935C104.398 37.1316 104.028 36.5928 103.266 36.5928C102.504 36.5928 102.134 37.1316 102.134 38.0935C102.134 39.0554 102.504 39.589 103.266 39.589C104.028 39.589 104.398 39.0554 104.398 38.0935Z" fill="white"/>
<path d="M106.672 39.9482C106.608 39.9482 106.582 39.9223 106.582 39.8584V36.3234C106.582 36.2647 106.608 36.2388 106.667 36.2388H107.576C108.749 36.2388 109.432 36.693 109.432 38.0296C109.432 39.4923 108.749 39.9465 107.586 39.9465H106.672V39.9482ZM107.037 36.6619V39.5251H107.581C108.454 39.5251 108.967 39.2298 108.967 38.0296C108.967 36.952 108.448 36.6619 107.571 36.6619H107.037Z" fill="white"/>
<path d="M114.163 38.0935C114.163 39.3196 113.598 40 112.561 40C111.524 40 110.97 39.3179 110.97 38.0935C110.97 36.8691 111.535 36.1818 112.566 36.1818C113.598 36.1818 114.163 36.8691 114.163 38.0935ZM113.698 38.0935C113.698 37.1316 113.328 36.5928 112.566 36.5928C111.804 36.5928 111.435 37.1316 111.435 38.0935C111.435 39.0554 111.804 39.589 112.566 39.589C113.328 39.589 113.698 39.0554 113.698 38.0935Z" fill="white"/>
<path d="M116.766 39.9896C116.337 39.9896 115.926 39.9154 115.724 39.8204C115.665 39.7945 115.639 39.772 115.654 39.7202L115.739 39.4819C115.75 39.4336 115.775 39.3973 115.845 39.4284C116.04 39.5078 116.368 39.5821 116.748 39.5821C117.319 39.5821 117.69 39.3818 117.69 38.9898C117.69 38.5667 117.267 38.4147 116.792 38.223C116.237 38.002 115.739 37.7999 115.739 37.1403C115.739 36.5479 116.124 36.1784 117.013 36.1784C117.421 36.1784 117.726 36.2475 117.927 36.3321C117.98 36.3528 118.006 36.3804 117.991 36.4322L117.906 36.6654C117.891 36.7137 117.87 36.7396 117.796 36.7137C117.611 36.6395 117.383 36.5928 117.046 36.5928C116.437 36.5928 116.195 36.7828 116.195 37.142C116.195 37.5547 116.581 37.6652 117.025 37.8552C117.595 38.0987 118.146 38.3146 118.146 39.0019C118.146 39.6892 117.607 39.9896 116.767 39.9896" fill="white"/>
<path d="M133.452 7.65013C128.257 7.65013 124.523 9.94517 123.317 15.3244L121.324 9.23542C121.321 9.22333 121.316 9.21124 121.312 9.19916C121.274 9.08864 121.234 8.98848 121.188 8.89522L121.184 8.88659C120.958 8.43414 120.616 8.19929 119.933 8.19929H114.106C113.265 8.19929 112.941 8.55503 112.713 9.23542L109.995 17.5418V9.36494C109.995 8.55675 109.639 8.20101 108.829 8.20101H104.102C103.294 8.20101 102.938 8.55675 102.938 9.36494V16.3865H97.7569V9.36494C97.7569 8.55675 97.4009 8.20101 96.5922 8.20101H91.8659C91.814 8.20101 91.7639 8.20101 91.7173 8.20447C91.6689 8.20101 91.6205 8.20101 91.5687 8.20101H87.1016C86.2929 8.20101 85.9369 8.55675 85.9369 9.36494V19.2652L80.2394 8.91249C79.9474 8.39443 79.6571 8.20101 78.8466 8.20101H74.3467C73.538 8.20101 73.182 8.55675 73.182 9.36494V17.844L70.3652 9.23542C70.1389 8.55675 69.814 8.19929 68.9724 8.19929H63.1454C62.3038 8.19929 61.9789 8.55503 61.7526 9.23542L56.2521 26.045L54.6312 23.3718C54.6312 23.3718 57.8972 22.0179 58.5038 18.3517C58.6092 17.7127 58.687 17.0168 58.6939 16.2552C58.6852 15.4937 58.6144 14.7977 58.5038 14.1588C57.8679 10.5392 54.6312 9.13872 54.6312 9.13872C53.1036 8.47904 51.1733 8.19756 48.8871 8.19756H48.1094L46.4574 8.19929L40.6304 8.19756C39.8216 8.19756 39.4639 8.5533 39.4639 9.36148V22.2251L35.2129 9.23197C34.9865 8.5533 34.6633 8.19583 33.82 8.19583H27.993C27.3087 8.19583 26.9665 8.43069 26.7419 8.88314L26.7384 8.89177C26.6935 8.9833 26.652 9.08518 26.614 9.1957C26.6105 9.20779 26.6054 9.21988 26.6019 9.23197L24.2828 16.3174L23.5743 18.4829V9.35976C23.5743 8.55157 23.2183 8.19583 22.4096 8.19583H18.1033C17.4241 8.19583 17.0353 8.42206 16.7761 8.84342L11.7906 17.4174L6.80514 8.84342C6.54593 8.42206 6.15711 8.19583 5.47798 8.19583H1.16472C0.355982 8.19583 0 8.55157 0 9.35976V29.9357C0 30.7456 0.355982 31.1013 1.16472 31.1013H5.63351C6.44224 31.1013 6.79822 30.7456 6.79822 29.9357V19.4206L10.9421 26.3766C11.1046 26.6356 11.3309 26.8618 11.7837 26.8618C12.2365 26.8618 12.4628 26.6356 12.6253 26.3766L16.7692 19.4206V29.9357C16.7692 30.7456 17.1252 31.1013 17.9339 31.1013H25.6877C26.3461 31.1013 26.7471 30.8665 26.9786 30.3968L26.9838 30.3847C27.0339 30.2793 27.0771 30.1619 27.1134 30.0341L30.8374 15.1189H30.9342L34.6893 30.0341C34.8828 30.7456 35.3045 31.1013 36.1132 31.1013H45.2858C46.0945 31.1013 46.4505 30.7456 46.4505 29.9357V24.3077L48.1025 24.306V24.3077L51.436 30.1619C51.792 30.7767 52.2447 31.0996 53.0552 31.0996H78.8069C79.6156 31.0996 79.9716 30.7439 79.9716 29.9339V20.0337L85.669 30.3864C85.9611 30.9045 86.2514 31.0979 87.0619 31.0979H91.5617C91.6136 31.0979 91.6637 31.0979 91.7104 31.0927C91.7588 31.0961 91.8071 31.0979 91.859 31.0979H96.5852C97.394 31.0979 97.75 30.7421 97.75 29.9322V22.5878H102.931V29.9322C102.931 30.7421 103.287 31.0979 104.095 31.0979H111.799C112.61 31.0979 113.03 30.7421 113.223 30.0307L116.978 15.1155H117.075L118.933 22.5567L120.799 30.0307C120.835 30.1636 120.88 30.2845 120.934 30.3933C121.165 30.863 121.566 31.0979 122.225 31.0979H127.146C127.729 31.0979 128.093 30.7888 128.116 30.2793C128.116 30.2655 128.116 30.2534 128.116 30.2396C129.631 30.9787 131.428 31.3258 133.445 31.3258C139.823 31.3258 144 27.8634 144 19.4845C144 11.1056 139.823 7.64323 133.445 7.64323L133.452 7.65013ZM51.633 16.4176C51.633 16.9926 51.5293 17.4623 51.3064 17.8267C51.0282 18.2792 50.565 18.5745 49.8773 18.7143H49.8669C49.7442 18.742 49.6129 18.761 49.4746 18.7765H49.4608C49.402 18.7834 49.3398 18.7886 49.2776 18.7938C49.2586 18.7938 49.2396 18.7955 49.2206 18.7972C49.1688 18.8007 49.1169 18.8024 49.0633 18.8059C49.0426 18.8059 49.0236 18.8059 49.0029 18.8076C48.932 18.8093 48.8594 18.811 48.7834 18.811H46.4522V13.7012H48.7834C50.8225 13.7012 51.633 14.4783 51.633 16.0946C51.633 16.1516 51.6295 16.2017 51.6278 16.2552C51.6278 16.3088 51.633 16.3606 51.633 16.4158V16.4176ZM71.8669 19.6486L68.5369 22.0731L69.7639 25.9207C69.8606 26.2246 69.5133 26.4733 69.2558 26.285L66.0209 23.9036L62.7566 26.2798C62.4974 26.4681 62.15 26.2142 62.252 25.9103L63.5359 22.0749L60.237 19.6486C59.9813 19.4603 60.1143 19.0563 60.4323 19.0563H64.5468L65.779 15.3745C65.8792 15.074 66.306 15.0758 66.4028 15.378L67.5761 19.0545H71.6751C71.9931 19.0545 72.1262 19.4603 71.8687 19.6486H71.8669ZM133.452 25.3145C131.217 25.3145 130.053 23.7292 130.053 19.4914C130.053 15.2536 131.217 13.6684 133.452 13.6684C135.686 13.6684 136.851 15.2536 136.851 19.4914C136.851 23.7292 135.686 25.3145 133.452 25.3145Z" fill="white"/>
</svg>
