<svg width="13" height="13" viewBox="0 0 13 13" fill="none" xmlns="http://www.w3.org/2000/svg">
<rect x="0.233887" y="0.5" width="12" height="12" rx="6" fill="#52586E"/>
<path d="M3.31738 4.91679V8.08346C3.31738 8.55017 3.31738 8.7832 3.40821 8.96146C3.48811 9.11826 3.6155 9.24607 3.7723 9.32597C3.95038 9.41671 4.18363 9.41671 4.64943 9.41671H7.81887C8.28467 9.41671 8.51758 9.41671 8.69567 9.32597C8.85247 9.24607 8.98008 9.11826 9.05998 8.96146C9.15072 8.78337 9.15072 8.55046 9.15072 8.08466V4.91542C9.15072 4.44962 9.15072 4.21637 9.05998 4.03829C8.98008 3.88149 8.85247 3.7541 8.69567 3.6742C8.51741 3.58337 8.28417 3.58337 7.81746 3.58337H4.6508C4.18409 3.58337 3.95056 3.58337 3.7723 3.6742C3.6155 3.7541 3.48811 3.88149 3.40821 4.03829C3.31738 4.21655 3.31738 4.45008 3.31738 4.91679Z" fill="white"/>
</svg>
