<svg width="842" height="129" viewBox="0 0 842 129" fill="none" xmlns="http://www.w3.org/2000/svg">
<g clip-path="url(#clip0_204_7250)">
<rect width="842" height="129" fill="white"/>
<rect width="842" height="106" fill="#009C47"/>
<path d="M53.64 38.792H55.752C56.832 38.792 57.624 38.6 58.104 38.192C58.584 37.808 58.824 37.112 58.824 36.152C58.824 35.216 58.584 34.544 58.104 34.136C57.624 33.752 56.832 33.536 55.752 33.536H53.64V38.792ZM52.944 47H50.256C49.776 47 49.56 46.784 49.56 46.304V30.752C49.56 30.296 49.776 30.056 50.256 30.056H55.8C58.2 30.056 59.976 30.536 61.176 31.496C62.352 32.456 62.952 33.992 62.952 36.152C62.952 38.312 62.352 39.872 61.176 40.832C60 41.792 58.2 42.248 55.8 42.248H53.64V46.304C53.64 46.784 53.4 47 52.944 47ZM72.2404 44.528C73.3204 44.528 74.3764 44.288 75.3844 43.808C75.7924 43.616 76.0804 43.76 76.2484 44.216L76.6804 45.488C76.7764 45.848 76.6564 46.112 76.2724 46.304C74.9524 46.976 73.4884 47.288 71.9044 47.288C69.6724 47.288 67.9444 46.712 66.7204 45.56C65.4964 44.408 64.8964 42.752 64.8964 40.616C64.8964 38.504 65.4484 36.848 66.6004 35.696C67.7284 34.544 69.2644 33.944 71.2324 33.944C73.1044 33.944 74.5924 34.52 75.6484 35.624C76.7044 36.752 77.2324 38.24 77.2324 40.112V41.288C77.2324 41.72 76.9924 41.936 76.5604 41.936H68.7604C68.9044 42.752 69.2644 43.4 69.8644 43.856C70.4644 44.312 71.2564 44.528 72.2404 44.528ZM71.3044 36.704C69.6724 36.704 68.7844 37.712 68.6404 39.704H73.7524V39.536C73.7524 38.648 73.5364 37.952 73.1284 37.448C72.6964 36.968 72.0964 36.704 71.3044 36.704ZM80.2052 34.232H82.5332C82.9172 34.232 83.1572 34.424 83.2052 34.808L83.3972 36.44C83.6852 35.816 84.1412 35.288 84.7892 34.808C85.4372 34.328 86.2052 34.088 87.0692 34.088C87.4772 34.088 87.6932 34.304 87.6932 34.688V37.328C87.6932 37.688 87.5012 37.856 87.1172 37.856C87.0212 37.856 86.9012 37.856 86.7092 37.832C86.5172 37.832 86.3732 37.808 86.2292 37.808C85.3652 37.808 84.6932 38.096 84.1892 38.672C83.6852 39.248 83.4452 39.992 83.4452 40.856V46.328C83.4452 46.784 83.2292 47 82.7972 47H80.2052C79.7492 47 79.5332 46.784 79.5332 46.328V34.88C79.5332 34.448 79.7492 34.232 80.2052 34.232ZM102.114 35.264V46.328C102.114 46.784 101.898 47 101.466 47H98.8742C98.4182 47 98.2022 46.784 98.2022 46.328V37.472H94.2182V46.4C94.2182 46.808 93.9782 47 93.5462 47H91.0502C90.5942 47 90.3782 46.808 90.3782 46.4V37.472H89.2982C88.8662 37.472 88.6502 37.256 88.6502 36.824V35.264C88.6502 34.832 88.8662 34.592 89.2982 34.592H90.3782V33.584C90.3782 31.088 91.6742 29.84 94.2902 29.84C95.0582 29.84 95.6822 29.912 96.1862 30.056C96.6182 30.176 96.8582 30.392 96.8582 30.704V31.928C96.8582 32.144 96.8102 32.312 96.7142 32.408C96.6182 32.504 96.4742 32.552 96.3302 32.528C96.2582 32.528 96.1142 32.528 95.8742 32.48C95.6342 32.456 95.4422 32.432 95.2982 32.432C94.5782 32.432 94.2182 32.864 94.2182 33.704V34.592H101.466C101.898 34.592 102.114 34.832 102.114 35.264ZM102.114 30.704V32.24C102.114 32.672 101.874 32.888 101.442 32.888H98.8742C98.4422 32.888 98.2262 32.672 98.2262 32.24V30.704C98.2262 30.272 98.4422 30.056 98.8742 30.056H101.442C101.874 30.056 102.114 30.272 102.114 30.704ZM114.489 43.472C114.489 46.016 112.665 47.264 109.065 47.264C107.457 47.264 106.041 47.048 104.841 46.568C104.433 46.424 104.289 46.16 104.409 45.776L104.817 44.384C104.913 43.976 105.177 43.832 105.633 43.976C106.569 44.288 107.481 44.432 108.393 44.432C109.881 44.432 110.649 44.072 110.649 43.352C110.649 43.016 110.457 42.728 110.121 42.512C109.785 42.32 109.209 42.08 108.417 41.816C107.097 41.384 106.209 40.976 105.753 40.616C104.865 39.968 104.433 38.984 104.433 37.688C104.433 36.44 104.865 35.504 105.753 34.88C106.641 34.256 107.889 33.944 109.521 33.944C111.129 33.944 112.449 34.16 113.481 34.592C113.865 34.76 114.009 35.024 113.913 35.408L113.505 36.752C113.361 37.184 113.097 37.328 112.689 37.184C111.801 36.92 110.937 36.776 110.121 36.776C108.873 36.776 108.273 37.136 108.273 37.808C108.273 38.168 108.441 38.456 108.777 38.648C109.113 38.864 109.713 39.128 110.553 39.416C111.201 39.656 111.705 39.872 112.089 40.04C112.473 40.232 112.857 40.472 113.289 40.784C113.697 41.096 114.009 41.48 114.201 41.912C114.393 42.344 114.489 42.872 114.489 43.472ZM135.14 39.56V46.328C135.14 46.784 134.924 47 134.492 47H131.948C131.516 47 131.3 46.784 131.3 46.328V39.344C131.3 38.624 131.156 38.096 130.916 37.736C130.652 37.376 130.22 37.184 129.644 37.184C128.948 37.184 128.42 37.424 128.036 37.856C127.652 38.312 127.484 38.912 127.484 39.632V46.328C127.484 46.784 127.244 47 126.812 47H124.268C123.812 47 123.596 46.784 123.596 46.328V34.88C123.596 34.448 123.812 34.232 124.268 34.232H126.596C126.98 34.232 127.22 34.424 127.268 34.76L127.46 35.84C128.276 34.592 129.548 33.944 131.228 33.944C133.004 33.944 134.18 34.616 134.78 35.96C135.644 34.616 137.012 33.944 138.884 33.944C141.524 33.944 142.844 35.528 142.844 38.648V46.328C142.844 46.784 142.628 47 142.196 47H139.628C139.172 47 138.956 46.784 138.956 46.328V39.368C138.956 37.928 138.38 37.184 137.276 37.184C136.58 37.184 136.052 37.424 135.692 37.856C135.308 38.288 135.14 38.864 135.14 39.56ZM156.884 38.504V46.328C156.884 46.784 156.668 47 156.236 47H154.052C153.668 47 153.428 46.832 153.38 46.472L153.236 45.416C152.372 46.616 150.956 47.192 149.012 47.192C147.764 47.192 146.78 46.88 146.036 46.232C145.292 45.608 144.932 44.672 144.932 43.448C144.932 42.752 145.052 42.152 145.316 41.624C145.58 41.12 145.94 40.712 146.372 40.4C146.804 40.112 147.38 39.872 148.124 39.68C148.844 39.512 149.588 39.392 150.332 39.32C151.076 39.248 151.988 39.2 153.092 39.176V38.72C153.092 37.52 152.252 36.92 150.62 36.92C149.516 36.92 148.364 37.16 147.164 37.592C146.732 37.784 146.468 37.64 146.348 37.184L145.868 35.696C145.724 35.336 145.868 35.072 146.252 34.88C147.692 34.256 149.324 33.944 151.196 33.944C154.988 33.944 156.884 35.48 156.884 38.504ZM153.092 42.272V41.264C151.532 41.312 150.404 41.456 149.708 41.72C148.988 41.984 148.652 42.464 148.652 43.184C148.652 43.64 148.796 44 149.132 44.264C149.444 44.552 149.876 44.672 150.452 44.672C151.316 44.672 151.988 44.456 152.42 44.024C152.852 43.592 153.092 42.992 153.092 42.272ZM163.674 34.88V46.328C163.674 46.784 163.458 47 163.026 47H160.41C159.978 47 159.762 46.784 159.762 46.328V34.88C159.762 34.448 159.978 34.232 160.41 34.232H163.026C163.458 34.232 163.674 34.448 163.674 34.88ZM163.698 30.752V32.264C163.698 32.72 163.482 32.936 163.05 32.936H160.386C159.954 32.936 159.738 32.72 159.738 32.264V30.752C159.738 30.32 159.954 30.104 160.386 30.104H163.05C163.482 30.104 163.698 30.32 163.698 30.752ZM176.06 43.472C176.06 46.016 174.236 47.264 170.636 47.264C169.028 47.264 167.612 47.048 166.412 46.568C166.004 46.424 165.86 46.16 165.979 45.776L166.388 44.384C166.484 43.976 166.748 43.832 167.204 43.976C168.14 44.288 169.052 44.432 169.964 44.432C171.452 44.432 172.22 44.072 172.22 43.352C172.22 43.016 172.028 42.728 171.692 42.512C171.355 42.32 170.78 42.08 169.988 41.816C168.668 41.384 167.78 40.976 167.324 40.616C166.436 39.968 166.004 38.984 166.004 37.688C166.004 36.44 166.436 35.504 167.324 34.88C168.212 34.256 169.46 33.944 171.092 33.944C172.7 33.944 174.02 34.16 175.052 34.592C175.436 34.76 175.58 35.024 175.484 35.408L175.076 36.752C174.932 37.184 174.668 37.328 174.26 37.184C173.372 36.92 172.508 36.776 171.692 36.776C170.444 36.776 169.844 37.136 169.844 37.808C169.844 38.168 170.012 38.456 170.348 38.648C170.684 38.864 171.284 39.128 172.124 39.416C172.772 39.656 173.276 39.872 173.66 40.04C174.044 40.232 174.428 40.472 174.86 40.784C175.268 41.096 175.58 41.48 175.772 41.912C175.964 42.344 176.06 42.872 176.06 43.472ZM56.256 73.528C57.336 73.528 58.392 73.288 59.4 72.808C59.808 72.616 60.096 72.76 60.264 73.216L60.696 74.488C60.792 74.848 60.672 75.112 60.288 75.304C58.968 75.976 57.504 76.288 55.92 76.288C53.688 76.288 51.96 75.712 50.736 74.56C49.512 73.408 48.912 71.752 48.912 69.616C48.912 67.504 49.464 65.848 50.616 64.696C51.744 63.544 53.28 62.944 55.248 62.944C57.12 62.944 58.608 63.52 59.664 64.624C60.72 65.752 61.248 67.24 61.248 69.112V70.288C61.248 70.72 61.008 70.936 60.576 70.936H52.776C52.92 71.752 53.28 72.4 53.88 72.856C54.48 73.312 55.272 73.528 56.256 73.528ZM55.32 65.704C53.688 65.704 52.8 66.712 52.656 68.704H57.768V68.536C57.768 67.648 57.552 66.952 57.144 66.448C56.712 65.968 56.112 65.704 55.32 65.704ZM75.5488 67.72V75.328C75.5488 75.784 75.3328 76 74.9008 76H72.3088C71.8528 76 71.6368 75.784 71.6368 75.328V68.464C71.6368 67.696 71.4928 67.144 71.2048 66.76C70.9168 66.4 70.4128 66.208 69.7408 66.208C68.9728 66.208 68.4208 66.448 68.0368 66.904C67.6528 67.36 67.4608 67.984 67.4608 68.752V75.328C67.4608 75.784 67.2208 76 66.7888 76H64.1968C63.7648 76 63.5488 75.784 63.5488 75.328V63.88C63.5488 63.448 63.7648 63.232 64.1968 63.232H66.5248C66.9088 63.232 67.1488 63.424 67.1968 63.76L67.3888 64.84C68.2048 63.592 69.5008 62.944 71.3008 62.944C74.1328 62.944 75.5488 64.552 75.5488 67.72ZM86.3059 68.632C86.3059 66.712 85.5379 65.728 84.0259 65.728C82.5139 65.728 81.7699 66.736 81.7699 68.704C81.7699 70.72 82.5139 71.704 84.0259 71.704C85.5379 71.704 86.3059 70.696 86.3059 68.632ZM90.1219 63.88V73.648C90.1219 75.376 89.5699 76.696 88.4659 77.584C87.3619 78.496 85.7779 78.928 83.7139 78.928C81.7219 78.928 80.2099 78.688 79.2019 78.184C78.8179 77.992 78.6979 77.728 78.7939 77.368L79.2259 75.88C79.3459 75.448 79.6099 75.328 80.0419 75.472C81.1219 75.856 82.2259 76.048 83.3779 76.048C85.4179 76.048 86.4499 75.208 86.4499 73.48V72.64C86.1139 73.192 85.6579 73.624 85.0339 73.912C84.4099 74.2 83.7139 74.344 82.9459 74.344C81.4099 74.344 80.1619 73.888 79.2499 72.976C78.3379 72.064 77.8819 70.648 77.8819 68.704C77.8819 66.784 78.3139 65.344 79.2019 64.384C80.0899 63.448 81.2899 62.968 82.8019 62.968C83.5699 62.968 84.2899 63.136 84.9379 63.448C85.5859 63.784 86.0899 64.192 86.4259 64.72L86.5459 63.76C86.5939 63.424 86.8099 63.232 87.2179 63.232H89.4499C89.8819 63.232 90.1219 63.448 90.1219 63.88ZM104.243 67.504V75.328C104.243 75.784 104.027 76 103.595 76H101.411C101.027 76 100.787 75.832 100.739 75.472L100.595 74.416C99.7309 75.616 98.3149 76.192 96.3709 76.192C95.1229 76.192 94.1389 75.88 93.3949 75.232C92.6509 74.608 92.2909 73.672 92.2909 72.448C92.2909 71.752 92.4109 71.152 92.6749 70.624C92.9389 70.12 93.2989 69.712 93.7309 69.4C94.1629 69.112 94.7389 68.872 95.4829 68.68C96.2029 68.512 96.9469 68.392 97.6909 68.32C98.4349 68.248 99.3469 68.2 100.451 68.176V67.72C100.451 66.52 99.6109 65.92 97.9789 65.92C96.8749 65.92 95.7229 66.16 94.5229 66.592C94.0909 66.784 93.8269 66.64 93.7069 66.184L93.2269 64.696C93.0829 64.336 93.2269 64.072 93.6109 63.88C95.0509 63.256 96.6829 62.944 98.5549 62.944C102.347 62.944 104.243 64.48 104.243 67.504ZM100.451 71.272V70.264C98.8909 70.312 97.7629 70.456 97.0669 70.72C96.3469 70.984 96.0109 71.464 96.0109 72.184C96.0109 72.64 96.1549 73 96.4909 73.264C96.8029 73.552 97.2349 73.672 97.8109 73.672C98.6749 73.672 99.3469 73.456 99.7789 73.024C100.211 72.592 100.451 71.992 100.451 71.272ZM107.601 74.632V63.88C107.601 63.448 107.817 63.232 108.249 63.232H110.841C111.273 63.232 111.513 63.448 111.513 63.88V75.016C111.513 76.36 111.201 77.344 110.625 77.944C110.049 78.544 109.089 78.832 107.793 78.832C107.001 78.832 106.377 78.784 105.897 78.64C105.465 78.544 105.273 78.328 105.273 77.968V76.312C105.273 75.952 105.465 75.76 105.849 75.76C105.945 75.76 106.065 75.784 106.257 75.808C106.425 75.856 106.569 75.856 106.689 75.856C107.289 75.856 107.601 75.448 107.601 74.632ZM111.537 59.752V61.264C111.537 61.72 111.321 61.936 110.889 61.936H108.225C107.769 61.936 107.553 61.72 107.553 61.264V59.752C107.553 59.32 107.769 59.104 108.225 59.104H110.889C111.321 59.104 111.537 59.32 111.537 59.752ZM125.712 67.504V75.328C125.712 75.784 125.496 76 125.064 76H122.88C122.496 76 122.256 75.832 122.208 75.472L122.064 74.416C121.2 75.616 119.784 76.192 117.84 76.192C116.592 76.192 115.608 75.88 114.864 75.232C114.12 74.608 113.76 73.672 113.76 72.448C113.76 71.752 113.88 71.152 114.144 70.624C114.408 70.12 114.768 69.712 115.2 69.4C115.632 69.112 116.208 68.872 116.952 68.68C117.672 68.512 118.416 68.392 119.16 68.32C119.904 68.248 120.816 68.2 121.92 68.176V67.72C121.92 66.52 121.08 65.92 119.448 65.92C118.344 65.92 117.192 66.16 115.992 66.592C115.56 66.784 115.296 66.64 115.176 66.184L114.696 64.696C114.552 64.336 114.696 64.072 115.08 63.88C116.52 63.256 118.152 62.944 120.024 62.944C123.816 62.944 125.712 64.48 125.712 67.504ZM121.92 71.272V70.264C120.36 70.312 119.232 70.456 118.536 70.72C117.816 70.984 117.48 71.464 117.48 72.184C117.48 72.64 117.624 73 117.96 73.264C118.272 73.552 118.704 73.672 119.28 73.672C120.144 73.672 120.816 73.456 121.248 73.024C121.68 72.592 121.92 71.992 121.92 71.272ZM137.062 69.616C137.062 67.216 136.198 65.992 134.494 65.992C133.654 65.992 133.03 66.28 132.622 66.856C132.19 67.432 131.998 68.344 131.998 69.616C131.998 70.888 132.19 71.8 132.622 72.376C133.03 72.952 133.654 73.216 134.494 73.216C136.198 73.216 137.062 72.016 137.062 69.616ZM137.302 75.472L137.182 74.416C136.822 74.992 136.27 75.448 135.55 75.784C134.83 76.12 134.062 76.264 133.27 76.264C131.59 76.264 130.294 75.712 129.382 74.584C128.47 73.48 128.014 71.824 128.014 69.616C128.014 67.408 128.47 65.752 129.382 64.624C130.294 63.52 131.59 62.944 133.27 62.944C134.038 62.944 134.758 63.112 135.478 63.424C136.198 63.736 136.702 64.168 137.038 64.696V59.704C137.038 59.272 137.254 59.056 137.686 59.056H140.278C140.71 59.056 140.95 59.272 140.95 59.704V75.328C140.95 75.784 140.71 76 140.278 76H137.974C137.59 76 137.35 75.832 137.302 75.472ZM149.75 76.264C147.734 76.264 146.174 75.712 145.022 74.56C143.87 73.432 143.318 71.776 143.318 69.616C143.318 67.456 143.87 65.8 145.022 64.648C146.174 63.52 147.734 62.944 149.75 62.944C151.742 62.944 153.326 63.52 154.478 64.648C155.63 65.8 156.206 67.456 156.206 69.616C156.206 71.776 155.63 73.432 154.478 74.56C153.326 75.712 151.742 76.264 149.75 76.264ZM149.75 73.24C151.382 73.24 152.222 72.04 152.222 69.616C152.222 67.192 151.382 65.968 149.75 65.968C148.118 65.968 147.302 67.192 147.302 69.616C147.302 72.04 148.118 73.24 149.75 73.24ZM167.974 72.472C167.974 75.016 166.15 76.264 162.55 76.264C160.942 76.264 159.526 76.048 158.326 75.568C157.918 75.424 157.774 75.16 157.894 74.776L158.302 73.384C158.398 72.976 158.662 72.832 159.118 72.976C160.054 73.288 160.966 73.432 161.878 73.432C163.366 73.432 164.134 73.072 164.134 72.352C164.134 72.016 163.942 71.728 163.606 71.512C163.27 71.32 162.694 71.08 161.902 70.816C160.582 70.384 159.694 69.976 159.238 69.616C158.35 68.968 157.918 67.984 157.918 66.688C157.918 65.44 158.35 64.504 159.238 63.88C160.126 63.256 161.374 62.944 163.006 62.944C164.614 62.944 165.934 63.16 166.966 63.592C167.35 63.76 167.494 64.024 167.398 64.408L166.99 65.752C166.846 66.184 166.582 66.328 166.174 66.184C165.286 65.92 164.422 65.776 163.606 65.776C162.358 65.776 161.758 66.136 161.758 66.808C161.758 67.168 161.926 67.456 162.262 67.648C162.598 67.864 163.198 68.128 164.038 68.416C164.686 68.656 165.19 68.872 165.574 69.04C165.958 69.232 166.342 69.472 166.774 69.784C167.182 70.096 167.494 70.48 167.686 70.912C167.878 71.344 167.974 71.872 167.974 72.472Z" fill="white"/>
<g clip-path="url(#clip1_204_7250)">
<path d="M229 43.1609C232.206 43.1609 232.586 43.175 233.847 43.2312C235.019 43.2828 235.652 43.4797 236.073 43.6438C236.631 43.8594 237.034 44.1219 237.452 44.5391C237.873 44.9609 238.131 45.3594 238.347 45.9172C238.511 46.3391 238.708 46.9766 238.759 48.1437C238.816 49.4094 238.83 49.7891 238.83 52.9906C238.83 56.1969 238.816 56.5766 238.759 57.8375C238.708 59.0094 238.511 59.6422 238.347 60.0641C238.131 60.6219 237.869 61.025 237.452 61.4422C237.03 61.8641 236.631 62.1219 236.073 62.3375C235.652 62.5016 235.014 62.6984 233.847 62.75C232.581 62.8063 232.202 62.8203 229 62.8203C225.794 62.8203 225.414 62.8063 224.153 62.75C222.981 62.6984 222.348 62.5016 221.927 62.3375C221.369 62.1219 220.966 61.8594 220.548 61.4422C220.127 61.0203 219.869 60.6219 219.653 60.0641C219.489 59.6422 219.292 59.0047 219.241 57.8375C219.184 56.5719 219.17 56.1922 219.17 52.9906C219.17 49.7844 219.184 49.4047 219.241 48.1437C219.292 46.9719 219.489 46.3391 219.653 45.9172C219.869 45.3594 220.131 44.9562 220.548 44.5391C220.97 44.1172 221.369 43.8594 221.927 43.6438C222.348 43.4797 222.986 43.2828 224.153 43.2312C225.414 43.175 225.794 43.1609 229 43.1609ZM229 41C225.742 41 225.334 41.0141 224.055 41.0703C222.78 41.1266 221.903 41.3328 221.144 41.6281C220.352 41.9375 219.681 42.3453 219.016 43.0156C218.345 43.6812 217.938 44.3516 217.628 45.1391C217.333 45.9031 217.127 46.775 217.07 48.05C217.014 49.3344 217 49.7422 217 53C217 56.2578 217.014 56.6656 217.07 57.9453C217.127 59.2203 217.333 60.0969 217.628 60.8563C217.938 61.6484 218.345 62.3188 219.016 62.9844C219.681 63.65 220.352 64.0625 221.139 64.3672C221.903 64.6625 222.775 64.8687 224.05 64.925C225.33 64.9812 225.737 64.9953 228.995 64.9953C232.253 64.9953 232.661 64.9812 233.941 64.925C235.216 64.8687 236.092 64.6625 236.852 64.3672C237.639 64.0625 238.309 63.65 238.975 62.9844C239.641 62.3188 240.053 61.6484 240.358 60.8609C240.653 60.0969 240.859 59.225 240.916 57.95C240.972 56.6703 240.986 56.2625 240.986 53.0047C240.986 49.7469 240.972 49.3391 240.916 48.0594C240.859 46.7844 240.653 45.9078 240.358 45.1484C240.063 44.3516 239.655 43.6812 238.984 43.0156C238.319 42.35 237.648 41.9375 236.861 41.6328C236.097 41.3375 235.225 41.1313 233.95 41.075C232.666 41.0141 232.258 41 229 41Z" fill="white"/>
<path d="M229 46.8359C225.597 46.8359 222.836 49.5969 222.836 53C222.836 56.4031 225.597 59.1641 229 59.1641C232.403 59.1641 235.164 56.4031 235.164 53C235.164 49.5969 232.403 46.8359 229 46.8359ZM229 56.9984C226.792 56.9984 225.002 55.2078 225.002 53C225.002 50.7922 226.792 49.0016 229 49.0016C231.208 49.0016 232.998 50.7922 232.998 53C232.998 55.2078 231.208 56.9984 229 56.9984Z" fill="white"/>
<path d="M236.847 46.5921C236.847 47.389 236.2 48.0312 235.408 48.0312C234.611 48.0312 233.969 47.3843 233.969 46.5921C233.969 45.7953 234.616 45.1531 235.408 45.1531C236.2 45.1531 236.847 45.8 236.847 46.5921Z" fill="white"/>
</g>
<g clip-path="url(#clip2_204_7250)">
<path d="M293 41C286.373 41 281 46.3726 281 53C281 58.6275 284.875 63.3498 290.101 64.6467V56.6672H287.627V53H290.101V51.4198C290.101 47.3355 291.95 45.4424 295.96 45.4424C296.72 45.4424 298.032 45.5917 298.568 45.7405V49.0645C298.285 49.0347 297.793 49.0198 297.182 49.0198C295.215 49.0198 294.454 49.7653 294.454 51.703V53H298.374L297.701 56.6672H294.454V64.9122C300.396 64.1946 305 59.1354 305 53C305 46.3726 299.627 41 293 41Z" fill="white"/>
</g>
<path d="M363.326 42.9039H366.7L359.33 51.3274L368 62.7899H361.211L355.894 55.838L349.81 62.7899H346.434L354.317 53.78L346 42.9039H352.961L357.767 49.2583L363.326 42.9039ZM362.142 60.7707H364.012L351.945 44.8171H349.939L362.142 60.7707Z" fill="white"/>
<rect x="650.729" y="-105.828" width="251.012" height="251.012" rx="20" transform="rotate(-17.1871 650.729 -105.828)" fill="#D91A21"/>
<g clip-path="url(#clip3_204_7250)">
<path fill-rule="evenodd" clip-rule="evenodd" d="M742.804 69.6821V69.6037C742.804 69.5216 742.872 69.4574 742.95 69.4574H792.447C792.529 69.4574 792.594 69.5252 792.594 69.6037V69.6821C792.594 69.7642 792.526 69.8284 792.447 69.8284H742.95C742.868 69.8284 742.804 69.7606 742.804 69.6821Z" fill="white"/>
<path d="M775.876 43.9481H775.38C775.167 43.9481 775.074 44.0088 775.038 44.1978L775.028 44.2692C775.003 44.3869 774.885 44.4475 774.721 44.4475C774.568 44.4475 774.368 44.4012 774.19 44.3298L773.552 44.0801C773.552 44.0801 773.519 44.0694 773.505 44.0623C773.452 44.4654 773.213 44.6437 772.746 44.6437H771.577C771.534 44.79 771.509 44.9505 771.509 45.1325C771.509 45.5106 771.626 45.6069 771.887 45.6069H772.382C772.596 45.6069 772.689 45.5463 772.724 45.3572L772.735 45.2858C772.76 45.1574 772.864 45.1075 773.031 45.1075C773.184 45.1075 773.373 45.1432 773.573 45.2252L774.211 45.4749C774.461 45.5712 774.753 45.639 775.167 45.639C775.851 45.639 776.254 45.2502 776.254 44.4903C776.254 44.1122 776.136 43.9481 775.876 43.9481Z" fill="white"/>
<path d="M749.879 25.5767C749.965 25.5767 750.011 25.6195 750.011 25.7087V27.4067C750.011 27.503 749.954 27.5566 749.894 27.5922C749.644 27.7421 749.252 27.8562 748.685 27.8562C747.541 27.8562 746.874 27.2605 746.874 25.9263C746.874 24.5922 747.548 24 748.735 24C749.213 24 749.594 24.1284 749.805 24.2533C749.883 24.2961 749.915 24.3389 749.883 24.4174L749.751 24.7456C749.719 24.824 749.673 24.8526 749.569 24.8098C749.405 24.742 749.152 24.6564 748.828 24.6564C747.986 24.6564 747.626 25.0274 747.626 25.9228C747.626 26.8181 747.997 27.1963 748.771 27.1963C748.992 27.1963 749.209 27.1499 749.337 27.0892V26.1511H748.76C748.671 26.1511 748.628 26.1154 748.628 26.0298V25.7051C748.628 25.6195 748.671 25.5732 748.76 25.5732H749.879V25.5767Z" fill="white"/>
<path d="M754.863 25.9299C754.863 27.2177 754.25 27.8562 753.205 27.8562C752.161 27.8562 751.558 27.2212 751.558 25.9299C751.558 24.6385 752.172 24 753.209 24C754.246 24 754.863 24.6421 754.863 25.9299ZM754.104 25.9299C754.104 25.0773 753.808 24.6457 753.209 24.6457C752.61 24.6457 752.307 25.0737 752.307 25.9299C752.307 26.786 752.603 27.207 753.209 27.207C753.815 27.207 754.104 26.7825 754.104 25.9299Z" fill="white"/>
<path d="M757.378 27.7992C757.289 27.7992 757.246 27.7636 757.214 27.6708L756.038 24.2142C756.006 24.125 756.048 24.0643 756.138 24.0643H756.651C756.74 24.0643 756.783 24.1071 756.804 24.1821L757.439 26.1619L757.671 27.0359H757.681L757.909 26.1619L758.544 24.1821C758.565 24.1071 758.608 24.0643 758.697 24.0643H759.218C759.303 24.0643 759.346 24.1214 759.314 24.2142L758.141 27.6708C758.109 27.76 758.063 27.7992 757.97 27.7992H757.371H757.378Z" fill="white"/>
<path d="M761.541 26.2011V27.1607H763.046C763.135 27.1607 763.178 27.1964 763.178 27.2891V27.6673C763.178 27.7636 763.135 27.7992 763.046 27.7992H760.942C760.846 27.7992 760.811 27.7636 760.811 27.6673V24.1928C760.811 24.1036 760.846 24.0643 760.939 24.0643H763.028C763.117 24.0643 763.16 24.1 763.16 24.1928V24.5709C763.16 24.6601 763.117 24.7029 763.028 24.7029H761.545V25.5875H762.96C763.046 25.5875 763.089 25.6339 763.089 25.7195V26.0691C763.089 26.1547 763.046 26.2011 762.96 26.2011H761.545H761.541Z" fill="white"/>
<path d="M766.08 24.0643C767.107 24.0643 767.628 24.4318 767.628 25.32C767.628 25.9657 767.278 26.3295 766.715 26.4508L767.617 27.6352C767.674 27.7101 767.642 27.7992 767.539 27.7992H767.036C766.94 27.7992 766.897 27.7564 766.85 27.6922L765.991 26.5507H765.499V27.6637C765.499 27.76 765.457 27.7957 765.367 27.7957H764.897C764.801 27.7957 764.765 27.76 764.765 27.6637V24.1928C764.765 24.1036 764.801 24.0643 764.897 24.0643H766.084H766.08ZM766.063 25.9371C766.665 25.9371 766.883 25.7409 766.883 25.3236C766.883 24.8741 766.651 24.7029 766.066 24.7029H765.492V25.9371H766.059H766.063Z" fill="white"/>
<path d="M772.202 27.6637C772.202 27.76 772.159 27.7957 772.073 27.7957H771.596C771.506 27.7957 771.467 27.7707 771.432 27.7065L769.941 25.3022V27.6637C769.941 27.76 769.906 27.7957 769.813 27.7957H769.357C769.261 27.7957 769.225 27.76 769.225 27.6637V24.1928C769.225 24.1036 769.261 24.0643 769.357 24.0643H769.824C769.92 24.0643 769.956 24.0857 769.995 24.1499L771.485 26.5578V24.1928C771.485 24.1036 771.521 24.0643 771.613 24.0643H772.073C772.159 24.0643 772.202 24.1 772.202 24.1856V27.6637Z" fill="white"/>
<path d="M777.103 25.9299C777.103 27.2177 776.49 27.8562 775.446 27.8562C774.401 27.8562 773.799 27.2212 773.799 25.9299C773.799 24.6385 774.412 24 775.449 24C776.487 24 777.103 24.6421 777.103 25.9299ZM776.348 25.9299C776.348 25.0773 776.052 24.6457 775.453 24.6457C774.854 24.6457 774.551 25.0737 774.551 25.9299C774.551 26.786 774.847 27.207 775.453 27.207C776.059 27.207 776.348 26.7825 776.348 25.9299Z" fill="white"/>
<path d="M781.335 27.7992C781.239 27.7992 781.203 27.7636 781.203 27.6673V24.1928C781.203 24.1036 781.239 24.0643 781.332 24.0643H782.355C783.553 24.0643 784.205 24.5566 784.205 25.8943C784.205 27.2998 783.553 27.7992 782.362 27.7992H781.339H781.335ZM781.945 24.7207V27.1393H782.333C783.054 27.1393 783.453 26.8896 783.453 25.8943C783.453 24.9668 783.054 24.7207 782.33 24.7207H781.948H781.945Z" fill="white"/>
<path d="M788.732 25.9272C788.732 27.2007 788.148 27.8535 787.207 27.8535C786.265 27.8535 785.681 27.2007 785.681 25.9343C785.681 24.668 786.265 24.0045 787.207 24.0045C788.148 24.0045 788.732 24.6573 788.732 25.9308M787.998 25.9272C787.998 25.0746 787.738 24.643 787.207 24.643C786.675 24.643 786.422 25.0711 786.422 25.9272C786.422 26.7833 786.682 27.215 787.207 27.215C787.731 27.215 787.998 26.7869 787.998 25.9272Z" fill="white"/>
<path d="M784.77 57.3964C783.291 57.3964 782.517 56.3441 782.517 53.5331C782.517 50.7221 783.291 49.6698 784.77 49.6698C786.25 49.6698 787.023 50.7221 787.023 53.5331C787.023 56.3441 786.25 57.3964 784.77 57.3964ZM784.77 45.6744C781.326 45.6744 778.852 47.1977 778.054 50.7685L778.271 51.4284L781.177 60.318C781.219 60.4464 781.241 60.5642 781.241 60.6712C782.246 61.1635 783.437 61.3918 784.774 61.3918C789.002 61.3918 791.769 59.0945 791.769 53.5331C791.769 47.9718 789.002 45.6744 784.774 45.6744" fill="white"/>
<path d="M768.451 46.0422H765.317C764.782 46.0422 764.544 46.2776 764.544 46.8163V51.4751H761.11V46.8163C761.11 46.2812 760.875 46.0422 760.337 46.0422H757.203C757.167 46.0422 757.135 46.0422 757.103 46.0422C757.57 46.0707 757.777 46.3097 757.777 46.8127V60.4682C757.777 60.9711 757.57 61.2101 757.103 61.2387C757.135 61.2387 757.167 61.2387 757.203 61.2387H760.337C760.872 61.2387 761.11 61.0032 761.11 60.4646V55.5917H764.544V60.4646C764.544 60.9997 764.779 61.2387 765.317 61.2387H768.451H767.164C766.651 61.2387 766.39 60.8748 766.586 60.3148L769.228 52.2349V46.8091C769.228 46.274 768.993 46.035 768.454 46.035" fill="white"/>
<path d="M775.808 46.0421H771.948C771.391 46.0421 771.174 46.2776 771.024 46.7306L769.224 52.242V60.4717C769.224 61.0067 768.989 61.2458 768.45 61.2458H770.422C770.956 61.2458 771.238 61.0103 771.366 60.5359L773.855 50.6403H773.919L775.149 55.5774L776.386 60.5359C776.411 60.6251 776.439 60.7035 776.475 60.7749C776.628 61.0852 776.896 61.2422 777.331 61.2422H780.593C780.978 61.2422 781.22 61.0353 781.235 60.7C781.235 60.6928 781.235 60.6821 781.235 60.675C779.067 59.6155 777.773 57.3396 777.773 53.5369C777.773 52.506 777.869 51.5856 778.051 50.7723L776.732 46.7306C776.732 46.7306 776.725 46.7163 776.725 46.7056C776.7 46.6343 776.671 46.5665 776.643 46.5059V46.4987C776.489 46.1991 776.265 46.0421 775.812 46.0421" fill="white"/>
<path d="M778.055 50.7686C777.873 51.5819 777.777 52.5022 777.777 53.5332C777.777 57.3359 779.071 59.6118 781.238 60.6713C781.238 60.5642 781.217 60.4465 781.174 60.3181L778.269 51.4285L778.051 50.7686H778.055Z" fill="white"/>
<path d="M769.224 52.2383L766.583 60.3181C766.39 60.8746 766.647 61.242 767.164 61.242H768.451C768.986 61.242 769.224 61.0066 769.224 60.4679V52.2383Z" fill="white"/>
<path d="M757.009 46.0421H754.05C753.515 46.0421 753.277 46.2776 753.277 46.8162V53.3871L749.501 46.5166C749.309 46.1741 749.116 46.0457 748.578 46.0457H745.594C745.059 46.0457 744.82 46.2811 744.82 46.8198V60.4752C744.82 61.0103 745.056 61.2493 745.594 61.2493H748.553C749.088 61.2493 749.327 61.0139 749.327 60.4752V53.9043L753.102 60.7749C753.294 61.1173 753.487 61.2458 754.025 61.2458H757.009C757.045 61.2458 757.077 61.2458 757.109 61.2458C756.642 61.2172 756.435 60.9782 756.435 60.4752V46.8198C756.435 46.3168 756.642 46.0778 757.109 46.0492C757.077 46.0492 757.045 46.0492 757.009 46.0492" fill="white"/>
<path d="M757.11 46.0421C756.643 46.0707 756.437 46.3097 756.437 46.8126V60.4681C756.437 60.9711 756.643 61.2101 757.11 61.2386C757.577 61.2101 757.784 60.9711 757.784 60.4681V46.8126C757.784 46.3097 757.577 46.0707 757.11 46.0421Z" fill="white"/>
<path d="M757.577 29.4402H754.725C754.276 29.4402 754.015 29.59 753.844 29.8683L750.54 35.558L747.235 29.8683C747.064 29.59 746.807 29.4402 746.354 29.4402H743.502C742.967 29.4402 742.729 29.6756 742.729 30.2143V43.8697C742.729 44.4048 742.964 44.6438 743.502 44.6438H746.461C746.996 44.6438 747.235 44.4084 747.235 43.8697V36.8922L749.98 41.5082C750.087 41.6794 750.237 41.8293 750.536 41.8293C750.835 41.8293 750.985 41.6794 751.092 41.5082L753.837 36.8922V43.8697C753.837 44.4048 754.073 44.6438 754.611 44.6438H757.57H756.486C756.101 44.6438 755.859 44.4369 755.844 44.1016C755.844 44.0552 755.844 44.0053 755.852 43.9553C755.862 43.884 755.88 43.8055 755.909 43.7235L758.343 36.2715V30.2178C758.343 29.6828 758.108 29.4438 757.57 29.4438" fill="white"/>
<path d="M793.798 43.7163L789.356 30.1251C789.207 29.6756 788.993 29.4366 788.433 29.4366H784.572C784.016 29.4366 783.798 29.672 783.649 30.1251L780.002 41.2799L780.961 42.8673L781.449 43.6735C781.77 44.1872 781.556 44.6402 781.021 44.6402H793.217C793.731 44.6402 793.991 44.2764 793.795 43.7163H793.798ZM790.355 37.0384L788.148 38.6472L788.961 41.2014C789.025 41.4012 788.793 41.5688 788.626 41.444L786.483 39.8637L784.319 41.4404C784.148 41.5653 783.916 41.3976 783.984 41.1943L784.836 38.6508L782.651 37.042C782.483 36.9171 782.569 36.6496 782.779 36.6496H785.506L786.323 34.206C786.39 34.0062 786.672 34.0098 786.736 34.206L787.513 36.646H790.23C790.44 36.646 790.529 36.9171 790.358 37.0384H790.355Z" fill="white"/>
<path d="M773.513 36.4819V33.0894H775.057C776.408 33.0894 776.946 33.6031 776.946 34.6769C776.946 34.7125 776.946 34.7482 776.946 34.7839C776.946 34.8195 776.946 34.8517 776.946 34.8909C776.946 35.2726 776.879 35.5829 776.729 35.8255C776.543 36.1252 776.237 36.3214 775.78 36.4141H775.773C775.691 36.4319 775.606 36.4462 775.513 36.4569H775.506C775.467 36.4605 775.428 36.4641 775.385 36.4676C775.374 36.4676 775.36 36.4676 775.349 36.4676C775.313 36.4676 775.281 36.4712 775.246 36.4712C775.231 36.4712 775.221 36.4712 775.206 36.4712C775.16 36.4712 775.11 36.4712 775.06 36.4712H773.517L773.513 36.4819ZM775.125 29.4401H774.611H773.517H769.656C769.121 29.4401 768.882 29.6756 768.882 30.2142V38.7507L770.504 43.7198C770.697 44.2763 770.44 44.6438 769.927 44.6438H769.656H771.574C771.716 44.1836 772.08 43.916 772.629 43.916C772.985 43.916 773.267 43.9803 773.506 44.0659C773.513 44.0052 773.517 43.941 773.517 43.8732V40.1383H774.611L776.821 44.0231C777.057 44.4297 777.356 44.6473 777.895 44.6473H779.791C779.406 44.6473 779.164 44.4404 779.149 44.1051C779.146 43.991 779.164 43.8661 779.214 43.727L780.009 41.2905L778.936 39.5176C778.936 39.5176 781.1 38.6187 781.502 36.1858C781.574 35.7613 781.624 35.3011 781.627 34.7946C781.624 34.288 781.574 33.8278 781.502 33.4033C781.082 31.0026 778.936 30.0715 778.936 30.0715C777.923 29.6328 776.643 29.4473 775.128 29.4473" fill="white"/>
<path d="M772.625 43.9124C772.076 43.9124 771.712 44.1799 771.569 44.6401H772.739C773.206 44.6401 773.445 44.4617 773.498 44.0586C773.259 43.973 772.978 43.9088 772.621 43.9088" fill="white"/>
<path d="M780.001 41.2835L779.206 43.7199C779.156 43.859 779.138 43.9875 779.142 44.098C779.156 44.4369 779.398 44.6403 779.783 44.6403H781.02C781.555 44.6403 781.773 44.1908 781.448 43.6735L780.96 42.8673L780.001 41.2799V41.2835Z" fill="white"/>
<path d="M765.139 29.4401H761.278C760.825 29.4401 760.597 29.5971 760.447 29.8967V29.9039C760.415 29.9645 760.387 30.0323 760.362 30.1036C760.362 30.1108 760.355 30.1179 760.355 30.1286L758.818 34.8302L758.348 36.2679V43.8697C758.348 44.4048 758.112 44.6438 757.574 44.6438H759.752C760.187 44.6438 760.455 44.4868 760.608 44.1765V44.1693C760.643 44.098 760.672 44.0231 760.697 43.9374L763.164 34.0419H763.228L765.717 43.9374C765.845 44.4083 766.123 44.6473 766.661 44.6473H769.649C769.114 44.6473 768.875 44.4119 768.875 43.8732V38.7542L766.059 30.1322C765.909 29.6827 765.695 29.4437 765.135 29.4437" fill="white"/>
<path d="M758.347 36.2679L755.912 43.7199C755.883 43.8019 755.866 43.8804 755.855 43.9518C755.848 44.0017 755.844 44.0516 755.848 44.098C755.862 44.4369 756.105 44.6438 756.49 44.6438H757.573C758.108 44.6438 758.347 44.4084 758.347 43.8697V36.2679Z" fill="white"/>
<path d="M768.878 38.7504V43.8694C768.878 44.4045 769.113 44.6435 769.652 44.6435H769.922C770.436 44.6435 770.696 44.2797 770.504 43.7196L768.881 38.7504H768.878Z" fill="white"/>
<path d="M748.24 62.9936C748.24 62.9651 748.255 62.9508 748.283 62.9508H749.467C749.499 62.9508 749.51 62.9651 749.51 62.9936V63.1149C749.51 63.1434 749.495 63.1577 749.467 63.1577H748.989V64.7344C748.989 64.7665 748.975 64.7772 748.946 64.7772H748.811C748.782 64.7772 748.768 64.763 748.768 64.7344V63.1577H748.29C748.262 63.1577 748.248 63.1434 748.248 63.1149V62.9936H748.24Z" fill="white"/>
<path d="M750.657 62.9543C751.163 62.9543 751.395 63.1434 751.395 63.5429C751.395 63.8854 751.198 64.0638 750.867 64.103L751.398 64.7237C751.416 64.7487 751.412 64.7808 751.373 64.7808H751.213C751.177 64.7808 751.166 64.7665 751.149 64.7451L750.625 64.1244H750.307V64.738C750.307 64.7701 750.293 64.7808 750.264 64.7808H750.129C750.097 64.7808 750.086 64.7665 750.086 64.738V62.9972C750.086 62.9686 750.1 62.9543 750.129 62.9543H750.66H750.657ZM750.646 63.9211C751.034 63.9211 751.17 63.7998 751.17 63.5429C751.17 63.2718 751.02 63.1612 750.653 63.1612H750.307V63.9211H750.649H750.646Z" fill="white"/>
<path d="M752.714 62.9543C752.754 62.9543 752.761 62.9686 752.771 62.9972L753.424 64.738C753.431 64.7629 753.42 64.7808 753.392 64.7808H753.242C753.213 64.7808 753.203 64.7665 753.192 64.7415L753.028 64.3063H752.229L752.065 64.7415C752.055 64.7665 752.048 64.7808 752.019 64.7808H751.866C751.837 64.7808 751.823 64.7594 751.83 64.738L752.483 62.9972C752.493 62.9686 752.5 62.9543 752.54 62.9543H752.714ZM752.957 64.103L752.632 63.1755H752.629L752.301 64.103H752.96H752.957Z" fill="white"/>
<path d="M754.034 64.7808C754.002 64.7808 753.991 64.7665 753.991 64.738V62.9972C753.991 62.9686 754.006 62.9543 754.034 62.9543H754.683C755.147 62.9543 755.353 63.1113 755.353 63.4252C755.353 63.6749 755.225 63.7855 755.089 63.8176C755.268 63.8569 755.421 63.9817 755.421 64.2635C755.421 64.631 755.189 64.7808 754.694 64.7808H754.034ZM754.69 63.7391C755.022 63.7391 755.132 63.6535 755.132 63.4431C755.132 63.2326 755.011 63.1577 754.676 63.1577H754.209V63.7391H754.687H754.69ZM754.676 64.5774C755.061 64.5774 755.196 64.499 755.196 64.2528C755.196 64.0281 755.079 63.9389 754.701 63.9389H754.212V64.581H754.68L754.676 64.5774Z" fill="white"/>
<path d="M756.79 62.9543C756.829 62.9543 756.836 62.9686 756.847 62.9972L757.499 64.738C757.507 64.7629 757.496 64.7808 757.467 64.7808H757.318C757.289 64.7808 757.278 64.7665 757.268 64.7415L757.104 64.3063H756.305L756.141 64.7415C756.13 64.7665 756.123 64.7808 756.095 64.7808H755.942C755.913 64.7808 755.899 64.7594 755.906 64.738L756.558 62.9972C756.569 62.9686 756.576 62.9543 756.615 62.9543H756.79ZM757.032 64.103L756.708 63.1755H756.704L756.376 64.103H757.036H757.032Z" fill="white"/>
<path d="M758.286 64.5739H759.074C759.103 64.5739 759.117 64.5881 759.117 64.6131V64.738C759.117 64.7701 759.103 64.7808 759.074 64.7808H758.104C758.072 64.7808 758.062 64.7665 758.062 64.738V62.9972C758.062 62.9686 758.076 62.9543 758.104 62.9543H758.24C758.268 62.9543 758.283 62.9686 758.283 62.9972V64.5739H758.286Z" fill="white"/>
<path d="M760.882 63.9496H759.948V64.7344C759.948 64.7665 759.934 64.7772 759.906 64.7772H759.77C759.738 64.7772 759.727 64.763 759.727 64.7344V62.9936C759.727 62.9651 759.742 62.9508 759.77 62.9508H759.906C759.934 62.9508 759.948 62.9651 759.948 62.9936V63.7427H760.882V62.9936C760.882 62.9651 760.897 62.9508 760.925 62.9508H761.064C761.093 62.9508 761.107 62.9651 761.107 62.9936V64.7344C761.107 64.7665 761.093 64.7772 761.064 64.7772H760.925C760.897 64.7772 760.882 64.763 760.882 64.7344V63.9496Z" fill="white"/>
<path d="M762.557 62.9543C762.596 62.9543 762.603 62.9686 762.614 62.9972L763.266 64.738C763.273 64.7629 763.263 64.7808 763.234 64.7808H763.084C763.056 64.7808 763.045 64.7665 763.035 64.7415L762.871 64.3063H762.072L761.908 64.7415C761.897 64.7665 761.89 64.7808 761.862 64.7808H761.708C761.68 64.7808 761.666 64.7594 761.673 64.738L762.325 62.9972C762.336 62.9686 762.343 62.9543 762.382 62.9543H762.557ZM762.796 64.103L762.471 63.1755H762.468L762.14 64.103H762.799H762.796Z" fill="white"/>
<path d="M765.217 64.738C765.217 64.7701 765.203 64.7808 765.175 64.7808H765.032C765 64.7808 764.989 64.7701 764.971 64.7451L764.052 63.3218V64.7344C764.052 64.7665 764.037 64.7772 764.009 64.7772H763.877C763.845 64.7772 763.834 64.763 763.834 64.7344V62.9936C763.834 62.9651 763.848 62.9508 763.877 62.9508H764.016C764.048 62.9508 764.062 62.9579 764.08 62.9829L765 64.4062V62.9936C765 62.9651 765.014 62.9508 765.043 62.9508H765.175C765.203 62.9508 765.217 62.9651 765.217 62.99V64.7344V64.738Z" fill="white"/>
<path d="M765.984 64.7808C765.952 64.7808 765.941 64.7665 765.941 64.738V62.9972C765.941 62.9686 765.955 62.9543 765.984 62.9543H766.433C767.011 62.9543 767.346 63.1791 767.346 63.8355C767.346 64.556 767.011 64.7808 766.437 64.7808H765.988H765.984ZM766.162 63.1612V64.5739H766.43C766.857 64.5739 767.111 64.4276 767.111 63.8355C767.111 63.3039 766.854 63.1612 766.422 63.1612H766.159H766.162Z" fill="white"/>
<path d="M769.463 63.8674C769.463 64.4703 769.185 64.8092 768.675 64.8092C768.165 64.8092 767.891 64.4738 767.891 63.8674C767.891 63.261 768.169 62.9257 768.675 62.9257C769.181 62.9257 769.459 63.2645 769.459 63.8674M769.235 63.8674C769.235 63.393 769.053 63.129 768.679 63.129C768.304 63.129 768.122 63.393 768.122 63.8674C768.122 64.3419 768.304 64.6058 768.679 64.6058C769.053 64.6058 769.235 64.3419 769.235 63.8674Z" fill="white"/>
<path d="M771.188 64.7808C771.156 64.7808 771.145 64.7665 771.145 64.738V62.9972C771.145 62.9686 771.159 62.9543 771.188 62.9543H771.694C772.215 62.9543 772.457 63.1363 772.457 63.5893C772.457 64.0424 772.215 64.2207 771.694 64.2207H771.37V64.738C771.37 64.7665 771.355 64.7808 771.327 64.7808H771.191H771.188ZM771.687 64.0174C772.058 64.0174 772.222 63.9068 772.222 63.5893C772.222 63.2718 772.061 63.1577 771.687 63.1577H771.362V64.0138H771.687V64.0174Z" fill="white"/>
<path d="M773.706 62.9543C773.745 62.9543 773.752 62.9686 773.763 62.9972L774.415 64.738C774.423 64.7629 774.412 64.7808 774.383 64.7808H774.234C774.205 64.7808 774.194 64.7665 774.184 64.7415L774.02 64.3063H773.221L773.057 64.7415C773.046 64.7665 773.039 64.7808 773.011 64.7808H772.858C772.829 64.7808 772.815 64.7594 772.822 64.738L773.474 62.9972C773.485 62.9686 773.492 62.9543 773.531 62.9543H773.706ZM773.948 64.103L773.624 63.1755H773.62L773.292 64.103H773.952H773.948Z" fill="white"/>
<path d="M775.556 62.9543C776.062 62.9543 776.293 63.1434 776.293 63.5429C776.293 63.8854 776.097 64.0638 775.766 64.103L776.297 64.7237C776.315 64.7487 776.311 64.7808 776.272 64.7808H776.112C776.08 64.7808 776.065 64.7665 776.047 64.7451L775.523 64.1244H775.206V64.738C775.206 64.7701 775.192 64.7808 775.163 64.7808H775.028C774.996 64.7808 774.985 64.7665 774.985 64.738V62.9972C774.985 62.9686 774.999 62.9543 775.028 62.9543H775.559H775.556ZM775.548 63.9211C775.937 63.9211 776.072 63.7998 776.072 63.5429C776.072 63.2718 775.923 63.1612 775.556 63.1612H775.21V63.9211H775.552H775.548Z" fill="white"/>
<path d="M777.613 62.9543C777.652 62.9543 777.659 62.9686 777.67 62.9972L778.322 64.738C778.329 64.7629 778.319 64.7808 778.287 64.7808H778.137C778.108 64.7808 778.098 64.7665 778.087 64.7415L777.923 64.3063H777.124L776.96 64.7415C776.95 64.7665 776.943 64.7808 776.914 64.7808H776.761C776.732 64.7808 776.718 64.7594 776.729 64.738L777.381 62.9972C777.392 62.9686 777.399 62.9543 777.438 62.9543H777.613ZM777.855 64.103L777.531 63.1755H777.527L777.199 64.103H777.859H777.855Z" fill="white"/>
<path d="M779.78 62.9936C779.78 62.9651 779.794 62.9508 779.823 62.9508H781.006C781.038 62.9508 781.049 62.9651 781.049 62.9936V63.1149C781.049 63.1434 781.035 63.1577 781.006 63.1577H780.528V64.7344C780.528 64.7665 780.514 64.7772 780.486 64.7772H780.35C780.322 64.7772 780.307 64.763 780.307 64.7344V63.1577H779.83C779.801 63.1577 779.787 63.1434 779.787 63.1149V62.9936H779.78Z" fill="white"/>
<path d="M783.024 63.8674C783.024 64.4703 782.746 64.8092 782.236 64.8092C781.727 64.8092 781.452 64.4738 781.452 63.8674C781.452 63.261 781.73 62.9257 782.236 62.9257C782.743 62.9257 783.021 63.2645 783.021 63.8674M782.796 63.8674C782.796 63.393 782.614 63.129 782.24 63.129C781.866 63.129 781.684 63.393 781.684 63.8674C781.684 64.3419 781.866 64.6058 782.24 64.6058C782.614 64.6058 782.796 64.3419 782.796 63.8674Z" fill="white"/>
<path d="M783.704 64.7808C783.672 64.7808 783.662 64.7665 783.662 64.738V62.9972C783.662 62.9686 783.676 62.9543 783.704 62.9543H784.154C784.731 62.9543 785.066 63.1791 785.066 63.8355C785.066 64.556 784.731 64.7808 784.157 64.7808H783.708H783.704ZM783.886 63.1612V64.5739H784.154C784.581 64.5739 784.835 64.4276 784.835 63.8355C784.835 63.3039 784.578 63.1612 784.146 63.1612H783.883H783.886Z" fill="white"/>
<path d="M787.187 63.8674C787.187 64.4703 786.909 64.8092 786.4 64.8092C785.89 64.8092 785.615 64.4738 785.615 63.8674C785.615 63.261 785.893 62.9257 786.4 62.9257C786.906 62.9257 787.184 63.2645 787.184 63.8674M786.956 63.8674C786.956 63.393 786.774 63.129 786.4 63.129C786.025 63.129 785.843 63.393 785.843 63.8674C785.843 64.3419 786.025 64.6058 786.4 64.6058C786.774 64.6058 786.956 64.3419 786.956 63.8674Z" fill="white"/>
<path d="M788.259 64.8021C788.049 64.8021 787.845 64.7664 787.745 64.72C787.717 64.7057 787.703 64.695 787.71 64.6701L787.753 64.5524C787.756 64.5274 787.77 64.5095 787.806 64.5274C787.902 64.5666 788.063 64.6023 788.252 64.6023C788.533 64.6023 788.715 64.5024 788.715 64.3098C788.715 64.1029 788.508 64.0244 788.273 63.9317C787.999 63.8211 787.756 63.7248 787.756 63.3966C787.756 63.104 787.945 62.9221 788.384 62.9221C788.583 62.9221 788.737 62.9578 788.833 62.997C788.858 63.0077 788.872 63.022 788.865 63.047L788.822 63.1611C788.815 63.1861 788.804 63.1968 788.769 63.1861C788.676 63.1504 788.565 63.1255 788.398 63.1255C788.098 63.1255 787.977 63.2182 787.977 63.3966C787.977 63.5999 788.166 63.6534 788.387 63.7497C788.669 63.871 788.94 63.978 788.94 64.3133C788.94 64.6487 788.676 64.7985 788.259 64.7985" fill="white"/>
<path d="M747.57 81.4698C747.074 81.8087 746.415 81.9763 745.588 81.9763C744.647 81.9763 743.912 81.8443 743.385 81.5804C743.235 81.5054 743.185 81.4056 743.231 81.2771L743.474 80.6279C743.527 80.4638 743.631 80.4139 743.78 80.4745C744.269 80.6778 744.807 80.7777 745.395 80.7777C745.855 80.7777 746.219 80.7064 746.486 80.5637C746.754 80.421 746.889 80.207 746.889 79.9251C746.889 79.811 746.861 79.704 746.803 79.6041C746.746 79.5042 746.686 79.4257 746.622 79.3651C746.557 79.3044 746.447 79.2331 746.29 79.1511C746.133 79.069 746.012 79.0119 745.919 78.9727C745.827 78.9334 745.673 78.8764 745.456 78.7943C745.178 78.6909 744.96 78.6088 744.807 78.541C744.65 78.4733 744.465 78.3734 744.254 78.2414C744.044 78.1094 743.88 77.9739 743.766 77.8347C743.656 77.6956 743.556 77.5172 743.47 77.2996C743.385 77.082 743.342 76.8395 743.342 76.5684C743.342 75.2663 744.201 74.6171 745.923 74.6171C746.7 74.6171 747.349 74.7348 747.862 74.9738C748.012 75.0487 748.062 75.1486 748.016 75.2806L747.78 75.912C747.72 76.0618 747.609 76.1082 747.456 76.0547C747.071 75.9048 746.604 75.8299 746.055 75.8299C745.196 75.8299 744.764 76.0868 744.764 76.604C744.764 76.9108 744.957 77.1605 745.342 77.3567C745.463 77.4174 745.723 77.5279 746.123 77.692C746.347 77.7812 746.49 77.8383 746.55 77.8668C746.611 77.8954 746.739 77.9524 746.932 78.0381C747.124 78.1272 747.253 78.195 747.317 78.2414C747.381 78.2878 747.484 78.3627 747.627 78.459C747.77 78.5553 747.866 78.6516 747.923 78.7372C747.976 78.8264 748.041 78.9334 748.115 79.0583C748.19 79.1832 748.24 79.3187 748.269 79.465C748.297 79.6112 748.308 79.7718 748.308 79.9465C748.308 80.6243 748.062 81.1344 747.566 81.4733L747.57 81.4698Z" fill="white"/>
<path d="M750.542 78.8255V80.6662H753.426C753.594 80.6662 753.68 80.7482 753.68 80.9087V81.6293C753.68 81.8006 753.594 81.8826 753.426 81.8826H749.391C749.22 81.8826 749.138 81.797 749.138 81.6293V74.9693C749.138 74.8052 749.22 74.7267 749.38 74.7267H753.384C753.555 74.7267 753.637 74.8087 753.637 74.9693V75.6898C753.637 75.8575 753.551 75.9431 753.384 75.9431H750.539V77.6411H753.252C753.416 77.6411 753.494 77.7267 753.494 77.8944V78.5651C753.494 78.7327 753.412 78.8183 753.252 78.8183H750.539L750.542 78.8255Z" fill="white"/>
<path d="M759.089 80.4411C759.246 80.3805 759.36 80.4268 759.435 80.5838L759.72 81.2152C759.766 81.3294 759.72 81.4328 759.567 81.522C759.078 81.8395 758.433 82 757.627 82C756.576 82 755.763 81.6896 755.185 81.0654C754.608 80.4411 754.315 79.5243 754.315 78.3115C754.315 77.0986 754.601 76.1782 755.175 75.5504C755.749 74.9226 756.547 74.6086 757.577 74.6086C758.358 74.6086 758.996 74.762 759.499 75.0653C759.642 75.1616 759.688 75.265 759.642 75.3792L759.367 75.9999C759.307 76.1568 759.192 76.1961 759.021 76.1212C758.654 75.9535 758.248 75.8679 757.802 75.8679C757.11 75.8679 756.597 76.0677 756.262 76.4672C755.927 76.8667 755.759 77.4803 755.759 78.3079C755.759 79.1355 755.93 79.7455 756.273 80.1415C756.615 80.5374 757.143 80.7372 757.852 80.7372C758.312 80.7372 758.725 80.6373 759.093 80.4411H759.089Z" fill="white"/>
<path d="M765.787 75.5397C766.34 76.164 766.614 77.0843 766.614 78.3043C766.614 79.5243 766.34 80.4447 765.787 81.0654C765.235 81.6861 764.45 81.9964 763.434 81.9964C762.418 81.9964 761.645 81.6861 761.096 81.0618C760.547 80.4375 760.272 79.5208 760.272 78.3079C760.272 77.095 760.547 76.1675 761.099 75.5433C761.652 74.919 762.433 74.6086 763.442 74.6086C764.45 74.6086 765.231 74.919 765.784 75.5433L765.787 75.5397ZM765.163 78.3043C765.163 76.6634 764.59 75.8429 763.445 75.8429C762.301 75.8429 761.716 76.6634 761.716 78.3043C761.716 79.9453 762.294 80.755 763.445 80.755C764.597 80.755 765.163 79.9381 765.163 78.3043Z" fill="white"/>
<path d="M770.721 80.0241L768.921 77.0739V81.6293C768.921 81.8006 768.839 81.8826 768.678 81.8826H767.794C767.623 81.8826 767.541 81.797 767.541 81.6293V74.9693C767.541 74.8052 767.627 74.7267 767.794 74.7267H768.657C768.799 74.7267 768.896 74.7731 768.953 74.8694L770.946 78.1441L772.939 74.8694C772.992 74.7731 773.088 74.7267 773.224 74.7267H774.097C774.265 74.7267 774.35 74.8087 774.35 74.9693V81.6293C774.35 81.8006 774.265 81.8826 774.097 81.8826H773.213C773.049 81.8826 772.971 81.797 772.971 81.6293V77.0739L771.174 80.0241C771.12 80.1132 771.045 80.156 770.949 80.156C770.846 80.156 770.775 80.1132 770.725 80.0241H770.721Z" fill="white"/>
</g>
</g>
<defs>
<clipPath id="clip0_204_7250">
<rect width="842" height="129" fill="white"/>
</clipPath>
<clipPath id="clip1_204_7250">
<rect width="24" height="24" fill="white" transform="translate(217 41)"/>
</clipPath>
<clipPath id="clip2_204_7250">
<rect width="24" height="24" fill="white" transform="translate(281 41)"/>
</clipPath>
<clipPath id="clip3_204_7250">
<rect width="51.1316" height="58" fill="white" transform="translate(742.729 24)"/>
</clipPath>
</defs>
</svg>
